G04 #@! TF.GenerationSoftware,KiCad,Pcbnew,(5.1.12-1-10_14)*
G04 #@! TF.CreationDate,2021-12-19T18:28:25-07:00*
G04 #@! TF.ProjectId,GenMemBlock,47656e4d-656d-4426-9c6f-636b2e6b6963,rev?*
G04 #@! TF.SameCoordinates,Original*
G04 #@! TF.FileFunction,Legend,Top*
G04 #@! TF.FilePolarity,Positive*
%FSLAX46Y46*%
G04 Gerber Fmt 4.6, Leading zero omitted, Abs format (unit mm)*
G04 Created by KiCad (PCBNEW (5.1.12-1-10_14)) date 2021-12-19 18:28:25*
%MOMM*%
%LPD*%
G01*
G04 APERTURE LIST*
%ADD10C,0.152400*%
%ADD11C,0.150000*%
%ADD12C,0.120000*%
%ADD13C,0.100000*%
%ADD14R,1.200000X0.400000*%
%ADD15R,0.406400X2.044700*%
%ADD16O,1.700000X1.700000*%
%ADD17R,1.700000X1.700000*%
G04 APERTURE END LIST*
D10*
X111791447Y-73926095D02*
X111791447Y-73113295D01*
X111791447Y-73887390D02*
X111714038Y-73926095D01*
X111559219Y-73926095D01*
X111481809Y-73887390D01*
X111443104Y-73848685D01*
X111404400Y-73771276D01*
X111404400Y-73539047D01*
X111443104Y-73461638D01*
X111481809Y-73422933D01*
X111559219Y-73384228D01*
X111714038Y-73384228D01*
X111791447Y-73422933D01*
X112178495Y-73926095D02*
X112178495Y-73384228D01*
X112178495Y-73113295D02*
X112139790Y-73152000D01*
X112178495Y-73190704D01*
X112217200Y-73152000D01*
X112178495Y-73113295D01*
X112178495Y-73190704D01*
X112913885Y-73384228D02*
X112913885Y-74042209D01*
X112875180Y-74119619D01*
X112836476Y-74158323D01*
X112759066Y-74197028D01*
X112642952Y-74197028D01*
X112565542Y-74158323D01*
X112913885Y-73887390D02*
X112836476Y-73926095D01*
X112681657Y-73926095D01*
X112604247Y-73887390D01*
X112565542Y-73848685D01*
X112526838Y-73771276D01*
X112526838Y-73539047D01*
X112565542Y-73461638D01*
X112604247Y-73422933D01*
X112681657Y-73384228D01*
X112836476Y-73384228D01*
X112913885Y-73422933D01*
X113300933Y-73926095D02*
X113300933Y-73384228D01*
X113300933Y-73113295D02*
X113262228Y-73152000D01*
X113300933Y-73190704D01*
X113339638Y-73152000D01*
X113300933Y-73113295D01*
X113300933Y-73190704D01*
X113687980Y-73926095D02*
X113687980Y-73113295D01*
X113687980Y-73500342D02*
X114152438Y-73500342D01*
X114152438Y-73926095D02*
X114152438Y-73113295D01*
X114887828Y-73926095D02*
X114887828Y-73500342D01*
X114849123Y-73422933D01*
X114771714Y-73384228D01*
X114616895Y-73384228D01*
X114539485Y-73422933D01*
X114887828Y-73887390D02*
X114810419Y-73926095D01*
X114616895Y-73926095D01*
X114539485Y-73887390D01*
X114500780Y-73809980D01*
X114500780Y-73732571D01*
X114539485Y-73655161D01*
X114616895Y-73616457D01*
X114810419Y-73616457D01*
X114887828Y-73577752D01*
X115197466Y-73384228D02*
X115623219Y-73384228D01*
X115197466Y-73926095D01*
X115623219Y-73926095D01*
X116242495Y-73887390D02*
X116165085Y-73926095D01*
X116010266Y-73926095D01*
X115932857Y-73887390D01*
X115894152Y-73809980D01*
X115894152Y-73500342D01*
X115932857Y-73422933D01*
X116010266Y-73384228D01*
X116165085Y-73384228D01*
X116242495Y-73422933D01*
X116281200Y-73500342D01*
X116281200Y-73577752D01*
X115894152Y-73655161D01*
X111597923Y-74523600D02*
X111520514Y-74484895D01*
X111404400Y-74484895D01*
X111288285Y-74523600D01*
X111210876Y-74601009D01*
X111172171Y-74678419D01*
X111133466Y-74833238D01*
X111133466Y-74949352D01*
X111172171Y-75104171D01*
X111210876Y-75181580D01*
X111288285Y-75258990D01*
X111404400Y-75297695D01*
X111481809Y-75297695D01*
X111597923Y-75258990D01*
X111636628Y-75220285D01*
X111636628Y-74949352D01*
X111481809Y-74949352D01*
X111984971Y-75297695D02*
X111984971Y-74484895D01*
X112255904Y-75065466D01*
X112526838Y-74484895D01*
X112526838Y-75297695D01*
X113184819Y-74871942D02*
X113300933Y-74910647D01*
X113339638Y-74949352D01*
X113378342Y-75026761D01*
X113378342Y-75142876D01*
X113339638Y-75220285D01*
X113300933Y-75258990D01*
X113223523Y-75297695D01*
X112913885Y-75297695D01*
X112913885Y-74484895D01*
X113184819Y-74484895D01*
X113262228Y-74523600D01*
X113300933Y-74562304D01*
X113339638Y-74639714D01*
X113339638Y-74717123D01*
X113300933Y-74794533D01*
X113262228Y-74833238D01*
X113184819Y-74871942D01*
X112913885Y-74871942D01*
X114268552Y-74755828D02*
X114462076Y-75297695D01*
X114655600Y-74755828D01*
X115120057Y-74484895D02*
X115197466Y-74484895D01*
X115274876Y-74523600D01*
X115313580Y-74562304D01*
X115352285Y-74639714D01*
X115390990Y-74794533D01*
X115390990Y-74988057D01*
X115352285Y-75142876D01*
X115313580Y-75220285D01*
X115274876Y-75258990D01*
X115197466Y-75297695D01*
X115120057Y-75297695D01*
X115042647Y-75258990D01*
X115003942Y-75220285D01*
X114965238Y-75142876D01*
X114926533Y-74988057D01*
X114926533Y-74794533D01*
X114965238Y-74639714D01*
X115003942Y-74562304D01*
X115042647Y-74523600D01*
X115120057Y-74484895D01*
X115739333Y-75220285D02*
X115778038Y-75258990D01*
X115739333Y-75297695D01*
X115700628Y-75258990D01*
X115739333Y-75220285D01*
X115739333Y-75297695D01*
X116087676Y-74562304D02*
X116126380Y-74523600D01*
X116203790Y-74484895D01*
X116397314Y-74484895D01*
X116474723Y-74523600D01*
X116513428Y-74562304D01*
X116552133Y-74639714D01*
X116552133Y-74717123D01*
X116513428Y-74833238D01*
X116048971Y-75297695D01*
X116552133Y-75297695D01*
X111075409Y-76669295D02*
X111075409Y-75856495D01*
X111268933Y-75856495D01*
X111385047Y-75895200D01*
X111462457Y-75972609D01*
X111501161Y-76050019D01*
X111539866Y-76204838D01*
X111539866Y-76320952D01*
X111501161Y-76475771D01*
X111462457Y-76553180D01*
X111385047Y-76630590D01*
X111268933Y-76669295D01*
X111075409Y-76669295D01*
X112197847Y-76630590D02*
X112120438Y-76669295D01*
X111965619Y-76669295D01*
X111888209Y-76630590D01*
X111849504Y-76553180D01*
X111849504Y-76243542D01*
X111888209Y-76166133D01*
X111965619Y-76127428D01*
X112120438Y-76127428D01*
X112197847Y-76166133D01*
X112236552Y-76243542D01*
X112236552Y-76320952D01*
X111849504Y-76398361D01*
X112933238Y-76630590D02*
X112855828Y-76669295D01*
X112701009Y-76669295D01*
X112623600Y-76630590D01*
X112584895Y-76591885D01*
X112546190Y-76514476D01*
X112546190Y-76282247D01*
X112584895Y-76204838D01*
X112623600Y-76166133D01*
X112701009Y-76127428D01*
X112855828Y-76127428D01*
X112933238Y-76166133D01*
X113862152Y-75933904D02*
X113900857Y-75895200D01*
X113978266Y-75856495D01*
X114171790Y-75856495D01*
X114249200Y-75895200D01*
X114287904Y-75933904D01*
X114326609Y-76011314D01*
X114326609Y-76088723D01*
X114287904Y-76204838D01*
X113823447Y-76669295D01*
X114326609Y-76669295D01*
X114829771Y-75856495D02*
X114907180Y-75856495D01*
X114984590Y-75895200D01*
X115023295Y-75933904D01*
X115062000Y-76011314D01*
X115100704Y-76166133D01*
X115100704Y-76359657D01*
X115062000Y-76514476D01*
X115023295Y-76591885D01*
X114984590Y-76630590D01*
X114907180Y-76669295D01*
X114829771Y-76669295D01*
X114752361Y-76630590D01*
X114713657Y-76591885D01*
X114674952Y-76514476D01*
X114636247Y-76359657D01*
X114636247Y-76166133D01*
X114674952Y-76011314D01*
X114713657Y-75933904D01*
X114752361Y-75895200D01*
X114829771Y-75856495D01*
X115410342Y-75933904D02*
X115449047Y-75895200D01*
X115526457Y-75856495D01*
X115719980Y-75856495D01*
X115797390Y-75895200D01*
X115836095Y-75933904D01*
X115874800Y-76011314D01*
X115874800Y-76088723D01*
X115836095Y-76204838D01*
X115371638Y-76669295D01*
X115874800Y-76669295D01*
X116648895Y-76669295D02*
X116184438Y-76669295D01*
X116416666Y-76669295D02*
X116416666Y-75856495D01*
X116339257Y-75972609D01*
X116261847Y-76050019D01*
X116184438Y-76088723D01*
D11*
X93084600Y-82335200D02*
X93084600Y-82810200D01*
X98634600Y-82335200D02*
X98634600Y-82910200D01*
X98634600Y-88885200D02*
X98634600Y-88310200D01*
X93084600Y-88885200D02*
X93084600Y-88310200D01*
X93084600Y-82335200D02*
X98634600Y-82335200D01*
X93084600Y-88885200D02*
X98634600Y-88885200D01*
X93084600Y-82810200D02*
X91809600Y-82810200D01*
X82975400Y-82373800D02*
X82975400Y-82848800D01*
X88525400Y-82373800D02*
X88525400Y-82948800D01*
X88525400Y-88923800D02*
X88525400Y-88348800D01*
X82975400Y-88923800D02*
X82975400Y-88348800D01*
X82975400Y-82373800D02*
X88525400Y-82373800D01*
X82975400Y-88923800D02*
X88525400Y-88923800D01*
X82975400Y-82848800D02*
X81700400Y-82848800D01*
D12*
X86101000Y-100088700D02*
X86101000Y-107683300D01*
X104643000Y-107683300D02*
X104643000Y-100088700D01*
D13*
G36*
X98420000Y-97688400D02*
G01*
X98039000Y-97688400D01*
X98039000Y-97942400D01*
X98420000Y-97942400D01*
X98420000Y-97688400D01*
G37*
X98420000Y-97688400D02*
X98039000Y-97688400D01*
X98039000Y-97942400D01*
X98420000Y-97942400D01*
X98420000Y-97688400D01*
G36*
X92070000Y-97688400D02*
G01*
X91689000Y-97688400D01*
X91689000Y-97942400D01*
X92070000Y-97942400D01*
X92070000Y-97688400D01*
G37*
X92070000Y-97688400D02*
X91689000Y-97688400D01*
X91689000Y-97942400D01*
X92070000Y-97942400D01*
X92070000Y-97688400D01*
G36*
X87625000Y-110083600D02*
G01*
X87244000Y-110083600D01*
X87244000Y-109829600D01*
X87625000Y-109829600D01*
X87625000Y-110083600D01*
G37*
X87625000Y-110083600D02*
X87244000Y-110083600D01*
X87244000Y-109829600D01*
X87625000Y-109829600D01*
X87625000Y-110083600D01*
G36*
X93975000Y-110083600D02*
G01*
X93594000Y-110083600D01*
X93594000Y-109829600D01*
X93975000Y-109829600D01*
X93975000Y-110083600D01*
G37*
X93975000Y-110083600D02*
X93594000Y-110083600D01*
X93594000Y-109829600D01*
X93975000Y-109829600D01*
X93975000Y-110083600D01*
G36*
X100325000Y-110083600D02*
G01*
X99944000Y-110083600D01*
X99944000Y-109829600D01*
X100325000Y-109829600D01*
X100325000Y-110083600D01*
G37*
X100325000Y-110083600D02*
X99944000Y-110083600D01*
X99944000Y-109829600D01*
X100325000Y-109829600D01*
X100325000Y-110083600D01*
D12*
X104643000Y-104190800D02*
G75*
G02*
X104643000Y-103581200I0J304800D01*
G01*
X34163000Y-100088700D02*
X34163000Y-107683300D01*
X52705000Y-107683300D02*
X52705000Y-100088700D01*
D13*
G36*
X46482000Y-97688400D02*
G01*
X46101000Y-97688400D01*
X46101000Y-97942400D01*
X46482000Y-97942400D01*
X46482000Y-97688400D01*
G37*
X46482000Y-97688400D02*
X46101000Y-97688400D01*
X46101000Y-97942400D01*
X46482000Y-97942400D01*
X46482000Y-97688400D01*
G36*
X40132000Y-97688400D02*
G01*
X39751000Y-97688400D01*
X39751000Y-97942400D01*
X40132000Y-97942400D01*
X40132000Y-97688400D01*
G37*
X40132000Y-97688400D02*
X39751000Y-97688400D01*
X39751000Y-97942400D01*
X40132000Y-97942400D01*
X40132000Y-97688400D01*
G36*
X35687000Y-110083600D02*
G01*
X35306000Y-110083600D01*
X35306000Y-109829600D01*
X35687000Y-109829600D01*
X35687000Y-110083600D01*
G37*
X35687000Y-110083600D02*
X35306000Y-110083600D01*
X35306000Y-109829600D01*
X35687000Y-109829600D01*
X35687000Y-110083600D01*
G36*
X42037000Y-110083600D02*
G01*
X41656000Y-110083600D01*
X41656000Y-109829600D01*
X42037000Y-109829600D01*
X42037000Y-110083600D01*
G37*
X42037000Y-110083600D02*
X41656000Y-110083600D01*
X41656000Y-109829600D01*
X42037000Y-109829600D01*
X42037000Y-110083600D01*
G36*
X48387000Y-110083600D02*
G01*
X48006000Y-110083600D01*
X48006000Y-109829600D01*
X48387000Y-109829600D01*
X48387000Y-110083600D01*
G37*
X48387000Y-110083600D02*
X48006000Y-110083600D01*
X48006000Y-109829600D01*
X48387000Y-109829600D01*
X48387000Y-110083600D01*
D12*
X52705000Y-104190800D02*
G75*
G02*
X52705000Y-103581200I0J304800D01*
G01*
X58296400Y-100088700D02*
X58296400Y-107683300D01*
X76838400Y-107683300D02*
X76838400Y-100088700D01*
D13*
G36*
X70615400Y-97688400D02*
G01*
X70234400Y-97688400D01*
X70234400Y-97942400D01*
X70615400Y-97942400D01*
X70615400Y-97688400D01*
G37*
X70615400Y-97688400D02*
X70234400Y-97688400D01*
X70234400Y-97942400D01*
X70615400Y-97942400D01*
X70615400Y-97688400D01*
G36*
X64265400Y-97688400D02*
G01*
X63884400Y-97688400D01*
X63884400Y-97942400D01*
X64265400Y-97942400D01*
X64265400Y-97688400D01*
G37*
X64265400Y-97688400D02*
X63884400Y-97688400D01*
X63884400Y-97942400D01*
X64265400Y-97942400D01*
X64265400Y-97688400D01*
G36*
X59820400Y-110083600D02*
G01*
X59439400Y-110083600D01*
X59439400Y-109829600D01*
X59820400Y-109829600D01*
X59820400Y-110083600D01*
G37*
X59820400Y-110083600D02*
X59439400Y-110083600D01*
X59439400Y-109829600D01*
X59820400Y-109829600D01*
X59820400Y-110083600D01*
G36*
X66170400Y-110083600D02*
G01*
X65789400Y-110083600D01*
X65789400Y-109829600D01*
X66170400Y-109829600D01*
X66170400Y-110083600D01*
G37*
X66170400Y-110083600D02*
X65789400Y-110083600D01*
X65789400Y-109829600D01*
X66170400Y-109829600D01*
X66170400Y-110083600D01*
G36*
X72520400Y-110083600D02*
G01*
X72139400Y-110083600D01*
X72139400Y-109829600D01*
X72520400Y-109829600D01*
X72520400Y-110083600D01*
G37*
X72520400Y-110083600D02*
X72139400Y-110083600D01*
X72139400Y-109829600D01*
X72520400Y-109829600D01*
X72520400Y-110083600D01*
D12*
X76838400Y-104190800D02*
G75*
G02*
X76838400Y-103581200I0J304800D01*
G01*
X67599000Y-72820000D02*
X67599000Y-74150000D01*
X66269000Y-72820000D02*
X67599000Y-72820000D01*
X67599000Y-75420000D02*
X67599000Y-78020000D01*
X64999000Y-75420000D02*
X67599000Y-75420000D01*
X64999000Y-72820000D02*
X64999000Y-75420000D01*
X67599000Y-78020000D02*
X34459000Y-78020000D01*
X64999000Y-72820000D02*
X34459000Y-72820000D01*
X34459000Y-72820000D02*
X34459000Y-78020000D01*
X64837000Y-118373200D02*
X64837000Y-117043200D01*
X66167000Y-118373200D02*
X64837000Y-118373200D01*
X64837000Y-115773200D02*
X64837000Y-113173200D01*
X67437000Y-115773200D02*
X64837000Y-115773200D01*
X67437000Y-118373200D02*
X67437000Y-115773200D01*
X64837000Y-113173200D02*
X77657000Y-113173200D01*
X67437000Y-118373200D02*
X77657000Y-118373200D01*
X77657000Y-118373200D02*
X77657000Y-113173200D01*
X82617000Y-118373200D02*
X82617000Y-117043200D01*
X83947000Y-118373200D02*
X82617000Y-118373200D01*
X82617000Y-115773200D02*
X82617000Y-113173200D01*
X85217000Y-115773200D02*
X82617000Y-115773200D01*
X85217000Y-118373200D02*
X85217000Y-115773200D01*
X82617000Y-113173200D02*
X95437000Y-113173200D01*
X85217000Y-118373200D02*
X95437000Y-118373200D01*
X95437000Y-118373200D02*
X95437000Y-113173200D01*
X100397000Y-118373200D02*
X100397000Y-117043200D01*
X101727000Y-118373200D02*
X100397000Y-118373200D01*
X100397000Y-115773200D02*
X100397000Y-113173200D01*
X102997000Y-115773200D02*
X100397000Y-115773200D01*
X102997000Y-118373200D02*
X102997000Y-115773200D01*
X100397000Y-113173200D02*
X125917000Y-113173200D01*
X102997000Y-118373200D02*
X125917000Y-118373200D01*
X125917000Y-118373200D02*
X125917000Y-113173200D01*
X34382400Y-118373200D02*
X34382400Y-117043200D01*
X35712400Y-118373200D02*
X34382400Y-118373200D01*
X34382400Y-115773200D02*
X34382400Y-113173200D01*
X36982400Y-115773200D02*
X34382400Y-115773200D01*
X36982400Y-118373200D02*
X36982400Y-115773200D01*
X34382400Y-113173200D02*
X59902400Y-113173200D01*
X36982400Y-118373200D02*
X59902400Y-118373200D01*
X59902400Y-118373200D02*
X59902400Y-113173200D01*
X108111600Y-72820000D02*
X108111600Y-74150000D01*
X106781600Y-72820000D02*
X108111600Y-72820000D01*
X108111600Y-75420000D02*
X108111600Y-78020000D01*
X105511600Y-75420000D02*
X108111600Y-75420000D01*
X105511600Y-72820000D02*
X105511600Y-75420000D01*
X108111600Y-78020000D02*
X82591600Y-78020000D01*
X105511600Y-72820000D02*
X82591600Y-72820000D01*
X82591600Y-72820000D02*
X82591600Y-78020000D01*
X125907000Y-98330000D02*
X124577000Y-98330000D01*
X125907000Y-97000000D02*
X125907000Y-98330000D01*
X123307000Y-98330000D02*
X120707000Y-98330000D01*
X123307000Y-95730000D02*
X123307000Y-98330000D01*
X125907000Y-95730000D02*
X123307000Y-95730000D01*
X120707000Y-98330000D02*
X120707000Y-72810000D01*
X125907000Y-95730000D02*
X125907000Y-72810000D01*
X125907000Y-72810000D02*
X120707000Y-72810000D01*
X37719000Y-82951000D02*
X34269000Y-82951000D01*
X37719000Y-82951000D02*
X39669000Y-82951000D01*
X37719000Y-93071000D02*
X35769000Y-93071000D01*
X37719000Y-93071000D02*
X39669000Y-93071000D01*
X62115700Y-82951000D02*
X58665700Y-82951000D01*
X62115700Y-82951000D02*
X64065700Y-82951000D01*
X62115700Y-93071000D02*
X60165700Y-93071000D01*
X62115700Y-93071000D02*
X64065700Y-93071000D01*
X50101500Y-82951000D02*
X46651500Y-82951000D01*
X50101500Y-82951000D02*
X52051500Y-82951000D01*
X50101500Y-93071000D02*
X48151500Y-93071000D01*
X50101500Y-93071000D02*
X52051500Y-93071000D01*
X74422000Y-82900200D02*
X70972000Y-82900200D01*
X74422000Y-82900200D02*
X76372000Y-82900200D01*
X74422000Y-93020200D02*
X72472000Y-93020200D01*
X74422000Y-93020200D02*
X76372000Y-93020200D01*
X104881600Y-82900200D02*
X101431600Y-82900200D01*
X104881600Y-82900200D02*
X106831600Y-82900200D01*
X104881600Y-93020200D02*
X102931600Y-93020200D01*
X104881600Y-93020200D02*
X106831600Y-93020200D01*
D11*
X95097695Y-80862580D02*
X95097695Y-81672104D01*
X95145314Y-81767342D01*
X95192933Y-81814961D01*
X95288171Y-81862580D01*
X95478647Y-81862580D01*
X95573885Y-81814961D01*
X95621504Y-81767342D01*
X95669123Y-81672104D01*
X95669123Y-80862580D01*
X96050076Y-80862580D02*
X96716742Y-80862580D01*
X96288171Y-81862580D01*
X84988495Y-80901180D02*
X84988495Y-81710704D01*
X85036114Y-81805942D01*
X85083733Y-81853561D01*
X85178971Y-81901180D01*
X85369447Y-81901180D01*
X85464685Y-81853561D01*
X85512304Y-81805942D01*
X85559923Y-81710704D01*
X85559923Y-80901180D01*
X86464685Y-80901180D02*
X86274209Y-80901180D01*
X86178971Y-80948800D01*
X86131352Y-80996419D01*
X86036114Y-81139276D01*
X85988495Y-81329752D01*
X85988495Y-81710704D01*
X86036114Y-81805942D01*
X86083733Y-81853561D01*
X86178971Y-81901180D01*
X86369447Y-81901180D01*
X86464685Y-81853561D01*
X86512304Y-81805942D01*
X86559923Y-81710704D01*
X86559923Y-81472609D01*
X86512304Y-81377371D01*
X86464685Y-81329752D01*
X86369447Y-81282133D01*
X86178971Y-81282133D01*
X86083733Y-81329752D01*
X86036114Y-81377371D01*
X85988495Y-81472609D01*
X105116380Y-104698704D02*
X105925904Y-104698704D01*
X106021142Y-104651085D01*
X106068761Y-104603466D01*
X106116380Y-104508228D01*
X106116380Y-104317752D01*
X106068761Y-104222514D01*
X106021142Y-104174895D01*
X105925904Y-104127276D01*
X105116380Y-104127276D01*
X105544952Y-103508228D02*
X105497333Y-103603466D01*
X105449714Y-103651085D01*
X105354476Y-103698704D01*
X105306857Y-103698704D01*
X105211619Y-103651085D01*
X105164000Y-103603466D01*
X105116380Y-103508228D01*
X105116380Y-103317752D01*
X105164000Y-103222514D01*
X105211619Y-103174895D01*
X105306857Y-103127276D01*
X105354476Y-103127276D01*
X105449714Y-103174895D01*
X105497333Y-103222514D01*
X105544952Y-103317752D01*
X105544952Y-103508228D01*
X105592571Y-103603466D01*
X105640190Y-103651085D01*
X105735428Y-103698704D01*
X105925904Y-103698704D01*
X106021142Y-103651085D01*
X106068761Y-103603466D01*
X106116380Y-103508228D01*
X106116380Y-103317752D01*
X106068761Y-103222514D01*
X106021142Y-103174895D01*
X105925904Y-103127276D01*
X105735428Y-103127276D01*
X105640190Y-103174895D01*
X105592571Y-103222514D01*
X105544952Y-103317752D01*
X89967238Y-103338380D02*
X90633904Y-103338380D01*
X90205333Y-104338380D01*
X91443428Y-103671714D02*
X91443428Y-104338380D01*
X91205333Y-103290761D02*
X90967238Y-104005047D01*
X91586285Y-104005047D01*
X91919619Y-104052666D02*
X92395809Y-104052666D01*
X91824380Y-104338380D02*
X92157714Y-103338380D01*
X92491047Y-104338380D01*
X93395809Y-104243142D02*
X93348190Y-104290761D01*
X93205333Y-104338380D01*
X93110095Y-104338380D01*
X92967238Y-104290761D01*
X92872000Y-104195523D01*
X92824380Y-104100285D01*
X92776761Y-103909809D01*
X92776761Y-103766952D01*
X92824380Y-103576476D01*
X92872000Y-103481238D01*
X92967238Y-103386000D01*
X93110095Y-103338380D01*
X93205333Y-103338380D01*
X93348190Y-103386000D01*
X93395809Y-103433619D01*
X93681523Y-103338380D02*
X94252952Y-103338380D01*
X93967238Y-104338380D02*
X93967238Y-103338380D01*
X95110095Y-104338380D02*
X94538666Y-104338380D01*
X94824380Y-104338380D02*
X94824380Y-103338380D01*
X94729142Y-103481238D01*
X94633904Y-103576476D01*
X94538666Y-103624095D01*
X95967238Y-103338380D02*
X95776761Y-103338380D01*
X95681523Y-103386000D01*
X95633904Y-103433619D01*
X95538666Y-103576476D01*
X95491047Y-103766952D01*
X95491047Y-104147904D01*
X95538666Y-104243142D01*
X95586285Y-104290761D01*
X95681523Y-104338380D01*
X95872000Y-104338380D01*
X95967238Y-104290761D01*
X96014857Y-104243142D01*
X96062476Y-104147904D01*
X96062476Y-103909809D01*
X96014857Y-103814571D01*
X95967238Y-103766952D01*
X95872000Y-103719333D01*
X95681523Y-103719333D01*
X95586285Y-103766952D01*
X95538666Y-103814571D01*
X95491047Y-103909809D01*
X96967238Y-103338380D02*
X96491047Y-103338380D01*
X96443428Y-103814571D01*
X96491047Y-103766952D01*
X96586285Y-103719333D01*
X96824380Y-103719333D01*
X96919619Y-103766952D01*
X96967238Y-103814571D01*
X97014857Y-103909809D01*
X97014857Y-104147904D01*
X96967238Y-104243142D01*
X96919619Y-104290761D01*
X96824380Y-104338380D01*
X96586285Y-104338380D01*
X96491047Y-104290761D01*
X96443428Y-104243142D01*
X97872000Y-103671714D02*
X97872000Y-104338380D01*
X97633904Y-103290761D02*
X97395809Y-104005047D01*
X98014857Y-104005047D01*
X98300571Y-103338380D02*
X98919619Y-103338380D01*
X98586285Y-103719333D01*
X98729142Y-103719333D01*
X98824380Y-103766952D01*
X98872000Y-103814571D01*
X98919619Y-103909809D01*
X98919619Y-104147904D01*
X98872000Y-104243142D01*
X98824380Y-104290761D01*
X98729142Y-104338380D01*
X98443428Y-104338380D01*
X98348190Y-104290761D01*
X98300571Y-104243142D01*
X99348190Y-104338380D02*
X99348190Y-103338380D01*
X99586285Y-103338380D01*
X99729142Y-103386000D01*
X99824380Y-103481238D01*
X99872000Y-103576476D01*
X99919619Y-103766952D01*
X99919619Y-103909809D01*
X99872000Y-104100285D01*
X99824380Y-104195523D01*
X99729142Y-104290761D01*
X99586285Y-104338380D01*
X99348190Y-104338380D01*
X100824380Y-104338380D02*
X100348190Y-104338380D01*
X100348190Y-103338380D01*
X104946280Y-98964750D02*
X105184376Y-98964750D01*
X105089138Y-99202845D02*
X105184376Y-98964750D01*
X105089138Y-98726654D01*
X105374852Y-99107607D02*
X105184376Y-98964750D01*
X105374852Y-98821892D01*
X104946280Y-98964750D02*
X105184376Y-98964750D01*
X105089138Y-99202845D02*
X105184376Y-98964750D01*
X105089138Y-98726654D01*
X105374852Y-99107607D02*
X105184376Y-98964750D01*
X105374852Y-98821892D01*
X53198780Y-104647904D02*
X54008304Y-104647904D01*
X54103542Y-104600285D01*
X54151161Y-104552666D01*
X54198780Y-104457428D01*
X54198780Y-104266952D01*
X54151161Y-104171714D01*
X54103542Y-104124095D01*
X54008304Y-104076476D01*
X53198780Y-104076476D01*
X54198780Y-103552666D02*
X54198780Y-103362190D01*
X54151161Y-103266952D01*
X54103542Y-103219333D01*
X53960685Y-103124095D01*
X53770209Y-103076476D01*
X53389257Y-103076476D01*
X53294019Y-103124095D01*
X53246400Y-103171714D01*
X53198780Y-103266952D01*
X53198780Y-103457428D01*
X53246400Y-103552666D01*
X53294019Y-103600285D01*
X53389257Y-103647904D01*
X53627352Y-103647904D01*
X53722590Y-103600285D01*
X53770209Y-103552666D01*
X53817828Y-103457428D01*
X53817828Y-103266952D01*
X53770209Y-103171714D01*
X53722590Y-103124095D01*
X53627352Y-103076476D01*
X38029238Y-103338380D02*
X38695904Y-103338380D01*
X38267333Y-104338380D01*
X39505428Y-103671714D02*
X39505428Y-104338380D01*
X39267333Y-103290761D02*
X39029238Y-104005047D01*
X39648285Y-104005047D01*
X39981619Y-104052666D02*
X40457809Y-104052666D01*
X39886380Y-104338380D02*
X40219714Y-103338380D01*
X40553047Y-104338380D01*
X41457809Y-104243142D02*
X41410190Y-104290761D01*
X41267333Y-104338380D01*
X41172095Y-104338380D01*
X41029238Y-104290761D01*
X40934000Y-104195523D01*
X40886380Y-104100285D01*
X40838761Y-103909809D01*
X40838761Y-103766952D01*
X40886380Y-103576476D01*
X40934000Y-103481238D01*
X41029238Y-103386000D01*
X41172095Y-103338380D01*
X41267333Y-103338380D01*
X41410190Y-103386000D01*
X41457809Y-103433619D01*
X41743523Y-103338380D02*
X42314952Y-103338380D01*
X42029238Y-104338380D02*
X42029238Y-103338380D01*
X43172095Y-104338380D02*
X42600666Y-104338380D01*
X42886380Y-104338380D02*
X42886380Y-103338380D01*
X42791142Y-103481238D01*
X42695904Y-103576476D01*
X42600666Y-103624095D01*
X44029238Y-103338380D02*
X43838761Y-103338380D01*
X43743523Y-103386000D01*
X43695904Y-103433619D01*
X43600666Y-103576476D01*
X43553047Y-103766952D01*
X43553047Y-104147904D01*
X43600666Y-104243142D01*
X43648285Y-104290761D01*
X43743523Y-104338380D01*
X43934000Y-104338380D01*
X44029238Y-104290761D01*
X44076857Y-104243142D01*
X44124476Y-104147904D01*
X44124476Y-103909809D01*
X44076857Y-103814571D01*
X44029238Y-103766952D01*
X43934000Y-103719333D01*
X43743523Y-103719333D01*
X43648285Y-103766952D01*
X43600666Y-103814571D01*
X43553047Y-103909809D01*
X45029238Y-103338380D02*
X44553047Y-103338380D01*
X44505428Y-103814571D01*
X44553047Y-103766952D01*
X44648285Y-103719333D01*
X44886380Y-103719333D01*
X44981619Y-103766952D01*
X45029238Y-103814571D01*
X45076857Y-103909809D01*
X45076857Y-104147904D01*
X45029238Y-104243142D01*
X44981619Y-104290761D01*
X44886380Y-104338380D01*
X44648285Y-104338380D01*
X44553047Y-104290761D01*
X44505428Y-104243142D01*
X45934000Y-103671714D02*
X45934000Y-104338380D01*
X45695904Y-103290761D02*
X45457809Y-104005047D01*
X46076857Y-104005047D01*
X46362571Y-103338380D02*
X46981619Y-103338380D01*
X46648285Y-103719333D01*
X46791142Y-103719333D01*
X46886380Y-103766952D01*
X46934000Y-103814571D01*
X46981619Y-103909809D01*
X46981619Y-104147904D01*
X46934000Y-104243142D01*
X46886380Y-104290761D01*
X46791142Y-104338380D01*
X46505428Y-104338380D01*
X46410190Y-104290761D01*
X46362571Y-104243142D01*
X47410190Y-104338380D02*
X47410190Y-103338380D01*
X47648285Y-103338380D01*
X47791142Y-103386000D01*
X47886380Y-103481238D01*
X47934000Y-103576476D01*
X47981619Y-103766952D01*
X47981619Y-103909809D01*
X47934000Y-104100285D01*
X47886380Y-104195523D01*
X47791142Y-104290761D01*
X47648285Y-104338380D01*
X47410190Y-104338380D01*
X48886380Y-104338380D02*
X48410190Y-104338380D01*
X48410190Y-103338380D01*
X53008280Y-98964750D02*
X53246376Y-98964750D01*
X53151138Y-99202845D02*
X53246376Y-98964750D01*
X53151138Y-98726654D01*
X53436852Y-99107607D02*
X53246376Y-98964750D01*
X53436852Y-98821892D01*
X53008280Y-98964750D02*
X53246376Y-98964750D01*
X53151138Y-99202845D02*
X53246376Y-98964750D01*
X53151138Y-98726654D01*
X53436852Y-99107607D02*
X53246376Y-98964750D01*
X53436852Y-98821892D01*
X77328780Y-105174895D02*
X78138304Y-105174895D01*
X78233542Y-105127276D01*
X78281161Y-105079657D01*
X78328780Y-104984419D01*
X78328780Y-104793942D01*
X78281161Y-104698704D01*
X78233542Y-104651085D01*
X78138304Y-104603466D01*
X77328780Y-104603466D01*
X78328780Y-103603466D02*
X78328780Y-104174895D01*
X78328780Y-103889180D02*
X77328780Y-103889180D01*
X77471638Y-103984419D01*
X77566876Y-104079657D01*
X77614495Y-104174895D01*
X77328780Y-102984419D02*
X77328780Y-102889180D01*
X77376400Y-102793942D01*
X77424019Y-102746323D01*
X77519257Y-102698704D01*
X77709733Y-102651085D01*
X77947828Y-102651085D01*
X78138304Y-102698704D01*
X78233542Y-102746323D01*
X78281161Y-102793942D01*
X78328780Y-102889180D01*
X78328780Y-102984419D01*
X78281161Y-103079657D01*
X78233542Y-103127276D01*
X78138304Y-103174895D01*
X77947828Y-103222514D01*
X77709733Y-103222514D01*
X77519257Y-103174895D01*
X77424019Y-103127276D01*
X77376400Y-103079657D01*
X77328780Y-102984419D01*
X62162638Y-103338380D02*
X62829304Y-103338380D01*
X62400733Y-104338380D01*
X63638828Y-103671714D02*
X63638828Y-104338380D01*
X63400733Y-103290761D02*
X63162638Y-104005047D01*
X63781685Y-104005047D01*
X64115019Y-104052666D02*
X64591209Y-104052666D01*
X64019780Y-104338380D02*
X64353114Y-103338380D01*
X64686447Y-104338380D01*
X65591209Y-104243142D02*
X65543590Y-104290761D01*
X65400733Y-104338380D01*
X65305495Y-104338380D01*
X65162638Y-104290761D01*
X65067400Y-104195523D01*
X65019780Y-104100285D01*
X64972161Y-103909809D01*
X64972161Y-103766952D01*
X65019780Y-103576476D01*
X65067400Y-103481238D01*
X65162638Y-103386000D01*
X65305495Y-103338380D01*
X65400733Y-103338380D01*
X65543590Y-103386000D01*
X65591209Y-103433619D01*
X65876923Y-103338380D02*
X66448352Y-103338380D01*
X66162638Y-104338380D02*
X66162638Y-103338380D01*
X67305495Y-104338380D02*
X66734066Y-104338380D01*
X67019780Y-104338380D02*
X67019780Y-103338380D01*
X66924542Y-103481238D01*
X66829304Y-103576476D01*
X66734066Y-103624095D01*
X68162638Y-103338380D02*
X67972161Y-103338380D01*
X67876923Y-103386000D01*
X67829304Y-103433619D01*
X67734066Y-103576476D01*
X67686447Y-103766952D01*
X67686447Y-104147904D01*
X67734066Y-104243142D01*
X67781685Y-104290761D01*
X67876923Y-104338380D01*
X68067400Y-104338380D01*
X68162638Y-104290761D01*
X68210257Y-104243142D01*
X68257876Y-104147904D01*
X68257876Y-103909809D01*
X68210257Y-103814571D01*
X68162638Y-103766952D01*
X68067400Y-103719333D01*
X67876923Y-103719333D01*
X67781685Y-103766952D01*
X67734066Y-103814571D01*
X67686447Y-103909809D01*
X69162638Y-103338380D02*
X68686447Y-103338380D01*
X68638828Y-103814571D01*
X68686447Y-103766952D01*
X68781685Y-103719333D01*
X69019780Y-103719333D01*
X69115019Y-103766952D01*
X69162638Y-103814571D01*
X69210257Y-103909809D01*
X69210257Y-104147904D01*
X69162638Y-104243142D01*
X69115019Y-104290761D01*
X69019780Y-104338380D01*
X68781685Y-104338380D01*
X68686447Y-104290761D01*
X68638828Y-104243142D01*
X70067400Y-103671714D02*
X70067400Y-104338380D01*
X69829304Y-103290761D02*
X69591209Y-104005047D01*
X70210257Y-104005047D01*
X70495971Y-103338380D02*
X71115019Y-103338380D01*
X70781685Y-103719333D01*
X70924542Y-103719333D01*
X71019780Y-103766952D01*
X71067400Y-103814571D01*
X71115019Y-103909809D01*
X71115019Y-104147904D01*
X71067400Y-104243142D01*
X71019780Y-104290761D01*
X70924542Y-104338380D01*
X70638828Y-104338380D01*
X70543590Y-104290761D01*
X70495971Y-104243142D01*
X71543590Y-104338380D02*
X71543590Y-103338380D01*
X71781685Y-103338380D01*
X71924542Y-103386000D01*
X72019780Y-103481238D01*
X72067400Y-103576476D01*
X72115019Y-103766952D01*
X72115019Y-103909809D01*
X72067400Y-104100285D01*
X72019780Y-104195523D01*
X71924542Y-104290761D01*
X71781685Y-104338380D01*
X71543590Y-104338380D01*
X73019780Y-104338380D02*
X72543590Y-104338380D01*
X72543590Y-103338380D01*
X77141680Y-98964750D02*
X77379776Y-98964750D01*
X77284538Y-99202845D02*
X77379776Y-98964750D01*
X77284538Y-98726654D01*
X77570252Y-99107607D02*
X77379776Y-98964750D01*
X77570252Y-98821892D01*
X77141680Y-98964750D02*
X77379776Y-98964750D01*
X77284538Y-99202845D02*
X77379776Y-98964750D01*
X77284538Y-98726654D01*
X77570252Y-99107607D02*
X77379776Y-98964750D01*
X77570252Y-98821892D01*
X68051380Y-75753333D02*
X68765666Y-75753333D01*
X68908523Y-75800952D01*
X69003761Y-75896190D01*
X69051380Y-76039047D01*
X69051380Y-76134285D01*
X68146619Y-75324761D02*
X68099000Y-75277142D01*
X68051380Y-75181904D01*
X68051380Y-74943809D01*
X68099000Y-74848571D01*
X68146619Y-74800952D01*
X68241857Y-74753333D01*
X68337095Y-74753333D01*
X68479952Y-74800952D01*
X69051380Y-75372380D01*
X69051380Y-74753333D01*
X63289380Y-116106533D02*
X64003666Y-116106533D01*
X64146523Y-116154152D01*
X64241761Y-116249390D01*
X64289380Y-116392247D01*
X64289380Y-116487485D01*
X63289380Y-115154152D02*
X63289380Y-115630342D01*
X63765571Y-115677961D01*
X63717952Y-115630342D01*
X63670333Y-115535104D01*
X63670333Y-115297009D01*
X63717952Y-115201771D01*
X63765571Y-115154152D01*
X63860809Y-115106533D01*
X64098904Y-115106533D01*
X64194142Y-115154152D01*
X64241761Y-115201771D01*
X64289380Y-115297009D01*
X64289380Y-115535104D01*
X64241761Y-115630342D01*
X64194142Y-115677961D01*
X81069380Y-116106533D02*
X81783666Y-116106533D01*
X81926523Y-116154152D01*
X82021761Y-116249390D01*
X82069380Y-116392247D01*
X82069380Y-116487485D01*
X81069380Y-115725580D02*
X81069380Y-115058914D01*
X82069380Y-115487485D01*
X98849380Y-116106533D02*
X99563666Y-116106533D01*
X99706523Y-116154152D01*
X99801761Y-116249390D01*
X99849380Y-116392247D01*
X99849380Y-116487485D01*
X98849380Y-115201771D02*
X98849380Y-115392247D01*
X98897000Y-115487485D01*
X98944619Y-115535104D01*
X99087476Y-115630342D01*
X99277952Y-115677961D01*
X99658904Y-115677961D01*
X99754142Y-115630342D01*
X99801761Y-115582723D01*
X99849380Y-115487485D01*
X99849380Y-115297009D01*
X99801761Y-115201771D01*
X99754142Y-115154152D01*
X99658904Y-115106533D01*
X99420809Y-115106533D01*
X99325571Y-115154152D01*
X99277952Y-115201771D01*
X99230333Y-115297009D01*
X99230333Y-115487485D01*
X99277952Y-115582723D01*
X99325571Y-115630342D01*
X99420809Y-115677961D01*
X32834780Y-116106533D02*
X33549066Y-116106533D01*
X33691923Y-116154152D01*
X33787161Y-116249390D01*
X33834780Y-116392247D01*
X33834780Y-116487485D01*
X33168114Y-115201771D02*
X33834780Y-115201771D01*
X32787161Y-115439866D02*
X33501447Y-115677961D01*
X33501447Y-115058914D01*
X108563980Y-75753333D02*
X109278266Y-75753333D01*
X109421123Y-75800952D01*
X109516361Y-75896190D01*
X109563980Y-76039047D01*
X109563980Y-76134285D01*
X108563980Y-75372380D02*
X108563980Y-74753333D01*
X108944933Y-75086666D01*
X108944933Y-74943809D01*
X108992552Y-74848571D01*
X109040171Y-74800952D01*
X109135409Y-74753333D01*
X109373504Y-74753333D01*
X109468742Y-74800952D01*
X109516361Y-74848571D01*
X109563980Y-74943809D01*
X109563980Y-75229523D01*
X109516361Y-75324761D01*
X109468742Y-75372380D01*
X122973666Y-98782380D02*
X122973666Y-99496666D01*
X122926047Y-99639523D01*
X122830809Y-99734761D01*
X122687952Y-99782380D01*
X122592714Y-99782380D01*
X123973666Y-99782380D02*
X123402238Y-99782380D01*
X123687952Y-99782380D02*
X123687952Y-98782380D01*
X123592714Y-98925238D01*
X123497476Y-99020476D01*
X123402238Y-99068095D01*
X36957095Y-81563380D02*
X36957095Y-82372904D01*
X37004714Y-82468142D01*
X37052333Y-82515761D01*
X37147571Y-82563380D01*
X37338047Y-82563380D01*
X37433285Y-82515761D01*
X37480904Y-82468142D01*
X37528523Y-82372904D01*
X37528523Y-81563380D01*
X37957095Y-81658619D02*
X38004714Y-81611000D01*
X38099952Y-81563380D01*
X38338047Y-81563380D01*
X38433285Y-81611000D01*
X38480904Y-81658619D01*
X38528523Y-81753857D01*
X38528523Y-81849095D01*
X38480904Y-81991952D01*
X37909476Y-82563380D01*
X38528523Y-82563380D01*
X61353795Y-81563380D02*
X61353795Y-82372904D01*
X61401414Y-82468142D01*
X61449033Y-82515761D01*
X61544271Y-82563380D01*
X61734747Y-82563380D01*
X61829985Y-82515761D01*
X61877604Y-82468142D01*
X61925223Y-82372904D01*
X61925223Y-81563380D01*
X62306176Y-81563380D02*
X62925223Y-81563380D01*
X62591890Y-81944333D01*
X62734747Y-81944333D01*
X62829985Y-81991952D01*
X62877604Y-82039571D01*
X62925223Y-82134809D01*
X62925223Y-82372904D01*
X62877604Y-82468142D01*
X62829985Y-82515761D01*
X62734747Y-82563380D01*
X62449033Y-82563380D01*
X62353795Y-82515761D01*
X62306176Y-82468142D01*
X49339595Y-81563380D02*
X49339595Y-82372904D01*
X49387214Y-82468142D01*
X49434833Y-82515761D01*
X49530071Y-82563380D01*
X49720547Y-82563380D01*
X49815785Y-82515761D01*
X49863404Y-82468142D01*
X49911023Y-82372904D01*
X49911023Y-81563380D01*
X50911023Y-82563380D02*
X50339595Y-82563380D01*
X50625309Y-82563380D02*
X50625309Y-81563380D01*
X50530071Y-81706238D01*
X50434833Y-81801476D01*
X50339595Y-81849095D01*
X73660095Y-81512580D02*
X73660095Y-82322104D01*
X73707714Y-82417342D01*
X73755333Y-82464961D01*
X73850571Y-82512580D01*
X74041047Y-82512580D01*
X74136285Y-82464961D01*
X74183904Y-82417342D01*
X74231523Y-82322104D01*
X74231523Y-81512580D01*
X75183904Y-81512580D02*
X74707714Y-81512580D01*
X74660095Y-81988771D01*
X74707714Y-81941152D01*
X74802952Y-81893533D01*
X75041047Y-81893533D01*
X75136285Y-81941152D01*
X75183904Y-81988771D01*
X75231523Y-82084009D01*
X75231523Y-82322104D01*
X75183904Y-82417342D01*
X75136285Y-82464961D01*
X75041047Y-82512580D01*
X74802952Y-82512580D01*
X74707714Y-82464961D01*
X74660095Y-82417342D01*
X104119695Y-81512580D02*
X104119695Y-82322104D01*
X104167314Y-82417342D01*
X104214933Y-82464961D01*
X104310171Y-82512580D01*
X104500647Y-82512580D01*
X104595885Y-82464961D01*
X104643504Y-82417342D01*
X104691123Y-82322104D01*
X104691123Y-81512580D01*
X105595885Y-81845914D02*
X105595885Y-82512580D01*
X105357790Y-81464961D02*
X105119695Y-82179247D01*
X105738742Y-82179247D01*
%LPC*%
D14*
X99309600Y-83335200D03*
X99309600Y-83985200D03*
X99309600Y-84635200D03*
X99309600Y-85285200D03*
X99309600Y-85935200D03*
X99309600Y-86585200D03*
X99309600Y-87235200D03*
X99309600Y-87885200D03*
X92409600Y-87885200D03*
X92409600Y-87235200D03*
X92409600Y-86585200D03*
X92409600Y-85935200D03*
X92409600Y-85285200D03*
X92409600Y-84635200D03*
X92409600Y-83985200D03*
X92409600Y-83335200D03*
X89200400Y-83373800D03*
X89200400Y-84023800D03*
X89200400Y-84673800D03*
X89200400Y-85323800D03*
X89200400Y-85973800D03*
X89200400Y-86623800D03*
X89200400Y-87273800D03*
X89200400Y-87923800D03*
X82300400Y-87923800D03*
X82300400Y-87273800D03*
X82300400Y-86623800D03*
X82300400Y-85973800D03*
X82300400Y-85323800D03*
X82300400Y-84673800D03*
X82300400Y-84023800D03*
X82300400Y-83373800D03*
D15*
X103944500Y-108553250D03*
X103309500Y-108553250D03*
X102674500Y-108553250D03*
X102039500Y-108553250D03*
X101404500Y-108553250D03*
X100769500Y-108553250D03*
X100134500Y-108553250D03*
X99499500Y-108553250D03*
X98864500Y-108553250D03*
X98229500Y-108553250D03*
X97594500Y-108553250D03*
X96959500Y-108553250D03*
X96324500Y-108553250D03*
X95689500Y-108553250D03*
X95054500Y-108553250D03*
X94419500Y-108553250D03*
X93784500Y-108553250D03*
X93149500Y-108553250D03*
X92514500Y-108553250D03*
X91879500Y-108553250D03*
X91244500Y-108553250D03*
X90609500Y-108553250D03*
X89974500Y-108553250D03*
X89339500Y-108553250D03*
X88704500Y-108553250D03*
X88069500Y-108553250D03*
X87434500Y-108553250D03*
X86799500Y-108553250D03*
X86799500Y-99218750D03*
X87434500Y-99218750D03*
X88069500Y-99218750D03*
X88704500Y-99218750D03*
X89339500Y-99218750D03*
X89974500Y-99218750D03*
X90609500Y-99218750D03*
X91244500Y-99218750D03*
X91879500Y-99218750D03*
X92514500Y-99218750D03*
X93149500Y-99218750D03*
X93784500Y-99218750D03*
X94419500Y-99218750D03*
X95054500Y-99218750D03*
X95689500Y-99218750D03*
X96324500Y-99218750D03*
X96959500Y-99218750D03*
X97594500Y-99218750D03*
X98229500Y-99218750D03*
X98864500Y-99218750D03*
X99499500Y-99218750D03*
X100134500Y-99218750D03*
X100769500Y-99218750D03*
X101404500Y-99218750D03*
X102039500Y-99218750D03*
X102674500Y-99218750D03*
X103309500Y-99218750D03*
X103944500Y-99218750D03*
X52006500Y-108553250D03*
X51371500Y-108553250D03*
X50736500Y-108553250D03*
X50101500Y-108553250D03*
X49466500Y-108553250D03*
X48831500Y-108553250D03*
X48196500Y-108553250D03*
X47561500Y-108553250D03*
X46926500Y-108553250D03*
X46291500Y-108553250D03*
X45656500Y-108553250D03*
X45021500Y-108553250D03*
X44386500Y-108553250D03*
X43751500Y-108553250D03*
X43116500Y-108553250D03*
X42481500Y-108553250D03*
X41846500Y-108553250D03*
X41211500Y-108553250D03*
X40576500Y-108553250D03*
X39941500Y-108553250D03*
X39306500Y-108553250D03*
X38671500Y-108553250D03*
X38036500Y-108553250D03*
X37401500Y-108553250D03*
X36766500Y-108553250D03*
X36131500Y-108553250D03*
X35496500Y-108553250D03*
X34861500Y-108553250D03*
X34861500Y-99218750D03*
X35496500Y-99218750D03*
X36131500Y-99218750D03*
X36766500Y-99218750D03*
X37401500Y-99218750D03*
X38036500Y-99218750D03*
X38671500Y-99218750D03*
X39306500Y-99218750D03*
X39941500Y-99218750D03*
X40576500Y-99218750D03*
X41211500Y-99218750D03*
X41846500Y-99218750D03*
X42481500Y-99218750D03*
X43116500Y-99218750D03*
X43751500Y-99218750D03*
X44386500Y-99218750D03*
X45021500Y-99218750D03*
X45656500Y-99218750D03*
X46291500Y-99218750D03*
X46926500Y-99218750D03*
X47561500Y-99218750D03*
X48196500Y-99218750D03*
X48831500Y-99218750D03*
X49466500Y-99218750D03*
X50101500Y-99218750D03*
X50736500Y-99218750D03*
X51371500Y-99218750D03*
X52006500Y-99218750D03*
X76139900Y-108553250D03*
X75504900Y-108553250D03*
X74869900Y-108553250D03*
X74234900Y-108553250D03*
X73599900Y-108553250D03*
X72964900Y-108553250D03*
X72329900Y-108553250D03*
X71694900Y-108553250D03*
X71059900Y-108553250D03*
X70424900Y-108553250D03*
X69789900Y-108553250D03*
X69154900Y-108553250D03*
X68519900Y-108553250D03*
X67884900Y-108553250D03*
X67249900Y-108553250D03*
X66614900Y-108553250D03*
X65979900Y-108553250D03*
X65344900Y-108553250D03*
X64709900Y-108553250D03*
X64074900Y-108553250D03*
X63439900Y-108553250D03*
X62804900Y-108553250D03*
X62169900Y-108553250D03*
X61534900Y-108553250D03*
X60899900Y-108553250D03*
X60264900Y-108553250D03*
X59629900Y-108553250D03*
X58994900Y-108553250D03*
X58994900Y-99218750D03*
X59629900Y-99218750D03*
X60264900Y-99218750D03*
X60899900Y-99218750D03*
X61534900Y-99218750D03*
X62169900Y-99218750D03*
X62804900Y-99218750D03*
X63439900Y-99218750D03*
X64074900Y-99218750D03*
X64709900Y-99218750D03*
X65344900Y-99218750D03*
X65979900Y-99218750D03*
X66614900Y-99218750D03*
X67249900Y-99218750D03*
X67884900Y-99218750D03*
X68519900Y-99218750D03*
X69154900Y-99218750D03*
X69789900Y-99218750D03*
X70424900Y-99218750D03*
X71059900Y-99218750D03*
X71694900Y-99218750D03*
X72329900Y-99218750D03*
X72964900Y-99218750D03*
X73599900Y-99218750D03*
X74234900Y-99218750D03*
X74869900Y-99218750D03*
X75504900Y-99218750D03*
X76139900Y-99218750D03*
D16*
X35789000Y-76690000D03*
X35789000Y-74150000D03*
X38329000Y-76690000D03*
X38329000Y-74150000D03*
X40869000Y-76690000D03*
X40869000Y-74150000D03*
X43409000Y-76690000D03*
X43409000Y-74150000D03*
X45949000Y-76690000D03*
X45949000Y-74150000D03*
X48489000Y-76690000D03*
X48489000Y-74150000D03*
X51029000Y-76690000D03*
X51029000Y-74150000D03*
X53569000Y-76690000D03*
X53569000Y-74150000D03*
X56109000Y-76690000D03*
X56109000Y-74150000D03*
X58649000Y-76690000D03*
X58649000Y-74150000D03*
X61189000Y-76690000D03*
X61189000Y-74150000D03*
X63729000Y-76690000D03*
X63729000Y-74150000D03*
X66269000Y-76690000D03*
D17*
X66269000Y-74150000D03*
D16*
X76327000Y-114503200D03*
X76327000Y-117043200D03*
X73787000Y-114503200D03*
X73787000Y-117043200D03*
X71247000Y-114503200D03*
X71247000Y-117043200D03*
X68707000Y-114503200D03*
X68707000Y-117043200D03*
X66167000Y-114503200D03*
D17*
X66167000Y-117043200D03*
D16*
X94107000Y-114503200D03*
X94107000Y-117043200D03*
X91567000Y-114503200D03*
X91567000Y-117043200D03*
X89027000Y-114503200D03*
X89027000Y-117043200D03*
X86487000Y-114503200D03*
X86487000Y-117043200D03*
X83947000Y-114503200D03*
D17*
X83947000Y-117043200D03*
D16*
X124587000Y-114503200D03*
X124587000Y-117043200D03*
X122047000Y-114503200D03*
X122047000Y-117043200D03*
X119507000Y-114503200D03*
X119507000Y-117043200D03*
X116967000Y-114503200D03*
X116967000Y-117043200D03*
X114427000Y-114503200D03*
X114427000Y-117043200D03*
X111887000Y-114503200D03*
X111887000Y-117043200D03*
X109347000Y-114503200D03*
X109347000Y-117043200D03*
X106807000Y-114503200D03*
X106807000Y-117043200D03*
X104267000Y-114503200D03*
X104267000Y-117043200D03*
X101727000Y-114503200D03*
D17*
X101727000Y-117043200D03*
D16*
X58572400Y-114503200D03*
X58572400Y-117043200D03*
X56032400Y-114503200D03*
X56032400Y-117043200D03*
X53492400Y-114503200D03*
X53492400Y-117043200D03*
X50952400Y-114503200D03*
X50952400Y-117043200D03*
X48412400Y-114503200D03*
X48412400Y-117043200D03*
X45872400Y-114503200D03*
X45872400Y-117043200D03*
X43332400Y-114503200D03*
X43332400Y-117043200D03*
X40792400Y-114503200D03*
X40792400Y-117043200D03*
X38252400Y-114503200D03*
X38252400Y-117043200D03*
X35712400Y-114503200D03*
D17*
X35712400Y-117043200D03*
D16*
X83921600Y-76690000D03*
X83921600Y-74150000D03*
X86461600Y-76690000D03*
X86461600Y-74150000D03*
X89001600Y-76690000D03*
X89001600Y-74150000D03*
X91541600Y-76690000D03*
X91541600Y-74150000D03*
X94081600Y-76690000D03*
X94081600Y-74150000D03*
X96621600Y-76690000D03*
X96621600Y-74150000D03*
X99161600Y-76690000D03*
X99161600Y-74150000D03*
X101701600Y-76690000D03*
X101701600Y-74150000D03*
X104241600Y-76690000D03*
X104241600Y-74150000D03*
X106781600Y-76690000D03*
D17*
X106781600Y-74150000D03*
D16*
X122037000Y-74140000D03*
X124577000Y-74140000D03*
X122037000Y-76680000D03*
X124577000Y-76680000D03*
X122037000Y-79220000D03*
X124577000Y-79220000D03*
X122037000Y-81760000D03*
X124577000Y-81760000D03*
X122037000Y-84300000D03*
X124577000Y-84300000D03*
X122037000Y-86840000D03*
X124577000Y-86840000D03*
X122037000Y-89380000D03*
X124577000Y-89380000D03*
X122037000Y-91920000D03*
X124577000Y-91920000D03*
X122037000Y-94460000D03*
X124577000Y-94460000D03*
X122037000Y-97000000D03*
D17*
X124577000Y-97000000D03*
G36*
G01*
X39219000Y-83716000D02*
X39219000Y-83416000D01*
G75*
G02*
X39369000Y-83266000I150000J0D01*
G01*
X41019000Y-83266000D01*
G75*
G02*
X41169000Y-83416000I0J-150000D01*
G01*
X41169000Y-83716000D01*
G75*
G02*
X41019000Y-83866000I-150000J0D01*
G01*
X39369000Y-83866000D01*
G75*
G02*
X39219000Y-83716000I0J150000D01*
G01*
G37*
G36*
G01*
X39219000Y-84986000D02*
X39219000Y-84686000D01*
G75*
G02*
X39369000Y-84536000I150000J0D01*
G01*
X41019000Y-84536000D01*
G75*
G02*
X41169000Y-84686000I0J-150000D01*
G01*
X41169000Y-84986000D01*
G75*
G02*
X41019000Y-85136000I-150000J0D01*
G01*
X39369000Y-85136000D01*
G75*
G02*
X39219000Y-84986000I0J150000D01*
G01*
G37*
G36*
G01*
X39219000Y-86256000D02*
X39219000Y-85956000D01*
G75*
G02*
X39369000Y-85806000I150000J0D01*
G01*
X41019000Y-85806000D01*
G75*
G02*
X41169000Y-85956000I0J-150000D01*
G01*
X41169000Y-86256000D01*
G75*
G02*
X41019000Y-86406000I-150000J0D01*
G01*
X39369000Y-86406000D01*
G75*
G02*
X39219000Y-86256000I0J150000D01*
G01*
G37*
G36*
G01*
X39219000Y-87526000D02*
X39219000Y-87226000D01*
G75*
G02*
X39369000Y-87076000I150000J0D01*
G01*
X41019000Y-87076000D01*
G75*
G02*
X41169000Y-87226000I0J-150000D01*
G01*
X41169000Y-87526000D01*
G75*
G02*
X41019000Y-87676000I-150000J0D01*
G01*
X39369000Y-87676000D01*
G75*
G02*
X39219000Y-87526000I0J150000D01*
G01*
G37*
G36*
G01*
X39219000Y-88796000D02*
X39219000Y-88496000D01*
G75*
G02*
X39369000Y-88346000I150000J0D01*
G01*
X41019000Y-88346000D01*
G75*
G02*
X41169000Y-88496000I0J-150000D01*
G01*
X41169000Y-88796000D01*
G75*
G02*
X41019000Y-88946000I-150000J0D01*
G01*
X39369000Y-88946000D01*
G75*
G02*
X39219000Y-88796000I0J150000D01*
G01*
G37*
G36*
G01*
X39219000Y-90066000D02*
X39219000Y-89766000D01*
G75*
G02*
X39369000Y-89616000I150000J0D01*
G01*
X41019000Y-89616000D01*
G75*
G02*
X41169000Y-89766000I0J-150000D01*
G01*
X41169000Y-90066000D01*
G75*
G02*
X41019000Y-90216000I-150000J0D01*
G01*
X39369000Y-90216000D01*
G75*
G02*
X39219000Y-90066000I0J150000D01*
G01*
G37*
G36*
G01*
X39219000Y-91336000D02*
X39219000Y-91036000D01*
G75*
G02*
X39369000Y-90886000I150000J0D01*
G01*
X41019000Y-90886000D01*
G75*
G02*
X41169000Y-91036000I0J-150000D01*
G01*
X41169000Y-91336000D01*
G75*
G02*
X41019000Y-91486000I-150000J0D01*
G01*
X39369000Y-91486000D01*
G75*
G02*
X39219000Y-91336000I0J150000D01*
G01*
G37*
G36*
G01*
X39219000Y-92606000D02*
X39219000Y-92306000D01*
G75*
G02*
X39369000Y-92156000I150000J0D01*
G01*
X41019000Y-92156000D01*
G75*
G02*
X41169000Y-92306000I0J-150000D01*
G01*
X41169000Y-92606000D01*
G75*
G02*
X41019000Y-92756000I-150000J0D01*
G01*
X39369000Y-92756000D01*
G75*
G02*
X39219000Y-92606000I0J150000D01*
G01*
G37*
G36*
G01*
X34269000Y-92606000D02*
X34269000Y-92306000D01*
G75*
G02*
X34419000Y-92156000I150000J0D01*
G01*
X36069000Y-92156000D01*
G75*
G02*
X36219000Y-92306000I0J-150000D01*
G01*
X36219000Y-92606000D01*
G75*
G02*
X36069000Y-92756000I-150000J0D01*
G01*
X34419000Y-92756000D01*
G75*
G02*
X34269000Y-92606000I0J150000D01*
G01*
G37*
G36*
G01*
X34269000Y-91336000D02*
X34269000Y-91036000D01*
G75*
G02*
X34419000Y-90886000I150000J0D01*
G01*
X36069000Y-90886000D01*
G75*
G02*
X36219000Y-91036000I0J-150000D01*
G01*
X36219000Y-91336000D01*
G75*
G02*
X36069000Y-91486000I-150000J0D01*
G01*
X34419000Y-91486000D01*
G75*
G02*
X34269000Y-91336000I0J150000D01*
G01*
G37*
G36*
G01*
X34269000Y-90066000D02*
X34269000Y-89766000D01*
G75*
G02*
X34419000Y-89616000I150000J0D01*
G01*
X36069000Y-89616000D01*
G75*
G02*
X36219000Y-89766000I0J-150000D01*
G01*
X36219000Y-90066000D01*
G75*
G02*
X36069000Y-90216000I-150000J0D01*
G01*
X34419000Y-90216000D01*
G75*
G02*
X34269000Y-90066000I0J150000D01*
G01*
G37*
G36*
G01*
X34269000Y-88796000D02*
X34269000Y-88496000D01*
G75*
G02*
X34419000Y-88346000I150000J0D01*
G01*
X36069000Y-88346000D01*
G75*
G02*
X36219000Y-88496000I0J-150000D01*
G01*
X36219000Y-88796000D01*
G75*
G02*
X36069000Y-88946000I-150000J0D01*
G01*
X34419000Y-88946000D01*
G75*
G02*
X34269000Y-88796000I0J150000D01*
G01*
G37*
G36*
G01*
X34269000Y-87526000D02*
X34269000Y-87226000D01*
G75*
G02*
X34419000Y-87076000I150000J0D01*
G01*
X36069000Y-87076000D01*
G75*
G02*
X36219000Y-87226000I0J-150000D01*
G01*
X36219000Y-87526000D01*
G75*
G02*
X36069000Y-87676000I-150000J0D01*
G01*
X34419000Y-87676000D01*
G75*
G02*
X34269000Y-87526000I0J150000D01*
G01*
G37*
G36*
G01*
X34269000Y-86256000D02*
X34269000Y-85956000D01*
G75*
G02*
X34419000Y-85806000I150000J0D01*
G01*
X36069000Y-85806000D01*
G75*
G02*
X36219000Y-85956000I0J-150000D01*
G01*
X36219000Y-86256000D01*
G75*
G02*
X36069000Y-86406000I-150000J0D01*
G01*
X34419000Y-86406000D01*
G75*
G02*
X34269000Y-86256000I0J150000D01*
G01*
G37*
G36*
G01*
X34269000Y-84986000D02*
X34269000Y-84686000D01*
G75*
G02*
X34419000Y-84536000I150000J0D01*
G01*
X36069000Y-84536000D01*
G75*
G02*
X36219000Y-84686000I0J-150000D01*
G01*
X36219000Y-84986000D01*
G75*
G02*
X36069000Y-85136000I-150000J0D01*
G01*
X34419000Y-85136000D01*
G75*
G02*
X34269000Y-84986000I0J150000D01*
G01*
G37*
G36*
G01*
X34269000Y-83716000D02*
X34269000Y-83416000D01*
G75*
G02*
X34419000Y-83266000I150000J0D01*
G01*
X36069000Y-83266000D01*
G75*
G02*
X36219000Y-83416000I0J-150000D01*
G01*
X36219000Y-83716000D01*
G75*
G02*
X36069000Y-83866000I-150000J0D01*
G01*
X34419000Y-83866000D01*
G75*
G02*
X34269000Y-83716000I0J150000D01*
G01*
G37*
G36*
G01*
X63615700Y-83716000D02*
X63615700Y-83416000D01*
G75*
G02*
X63765700Y-83266000I150000J0D01*
G01*
X65415700Y-83266000D01*
G75*
G02*
X65565700Y-83416000I0J-150000D01*
G01*
X65565700Y-83716000D01*
G75*
G02*
X65415700Y-83866000I-150000J0D01*
G01*
X63765700Y-83866000D01*
G75*
G02*
X63615700Y-83716000I0J150000D01*
G01*
G37*
G36*
G01*
X63615700Y-84986000D02*
X63615700Y-84686000D01*
G75*
G02*
X63765700Y-84536000I150000J0D01*
G01*
X65415700Y-84536000D01*
G75*
G02*
X65565700Y-84686000I0J-150000D01*
G01*
X65565700Y-84986000D01*
G75*
G02*
X65415700Y-85136000I-150000J0D01*
G01*
X63765700Y-85136000D01*
G75*
G02*
X63615700Y-84986000I0J150000D01*
G01*
G37*
G36*
G01*
X63615700Y-86256000D02*
X63615700Y-85956000D01*
G75*
G02*
X63765700Y-85806000I150000J0D01*
G01*
X65415700Y-85806000D01*
G75*
G02*
X65565700Y-85956000I0J-150000D01*
G01*
X65565700Y-86256000D01*
G75*
G02*
X65415700Y-86406000I-150000J0D01*
G01*
X63765700Y-86406000D01*
G75*
G02*
X63615700Y-86256000I0J150000D01*
G01*
G37*
G36*
G01*
X63615700Y-87526000D02*
X63615700Y-87226000D01*
G75*
G02*
X63765700Y-87076000I150000J0D01*
G01*
X65415700Y-87076000D01*
G75*
G02*
X65565700Y-87226000I0J-150000D01*
G01*
X65565700Y-87526000D01*
G75*
G02*
X65415700Y-87676000I-150000J0D01*
G01*
X63765700Y-87676000D01*
G75*
G02*
X63615700Y-87526000I0J150000D01*
G01*
G37*
G36*
G01*
X63615700Y-88796000D02*
X63615700Y-88496000D01*
G75*
G02*
X63765700Y-88346000I150000J0D01*
G01*
X65415700Y-88346000D01*
G75*
G02*
X65565700Y-88496000I0J-150000D01*
G01*
X65565700Y-88796000D01*
G75*
G02*
X65415700Y-88946000I-150000J0D01*
G01*
X63765700Y-88946000D01*
G75*
G02*
X63615700Y-88796000I0J150000D01*
G01*
G37*
G36*
G01*
X63615700Y-90066000D02*
X63615700Y-89766000D01*
G75*
G02*
X63765700Y-89616000I150000J0D01*
G01*
X65415700Y-89616000D01*
G75*
G02*
X65565700Y-89766000I0J-150000D01*
G01*
X65565700Y-90066000D01*
G75*
G02*
X65415700Y-90216000I-150000J0D01*
G01*
X63765700Y-90216000D01*
G75*
G02*
X63615700Y-90066000I0J150000D01*
G01*
G37*
G36*
G01*
X63615700Y-91336000D02*
X63615700Y-91036000D01*
G75*
G02*
X63765700Y-90886000I150000J0D01*
G01*
X65415700Y-90886000D01*
G75*
G02*
X65565700Y-91036000I0J-150000D01*
G01*
X65565700Y-91336000D01*
G75*
G02*
X65415700Y-91486000I-150000J0D01*
G01*
X63765700Y-91486000D01*
G75*
G02*
X63615700Y-91336000I0J150000D01*
G01*
G37*
G36*
G01*
X63615700Y-92606000D02*
X63615700Y-92306000D01*
G75*
G02*
X63765700Y-92156000I150000J0D01*
G01*
X65415700Y-92156000D01*
G75*
G02*
X65565700Y-92306000I0J-150000D01*
G01*
X65565700Y-92606000D01*
G75*
G02*
X65415700Y-92756000I-150000J0D01*
G01*
X63765700Y-92756000D01*
G75*
G02*
X63615700Y-92606000I0J150000D01*
G01*
G37*
G36*
G01*
X58665700Y-92606000D02*
X58665700Y-92306000D01*
G75*
G02*
X58815700Y-92156000I150000J0D01*
G01*
X60465700Y-92156000D01*
G75*
G02*
X60615700Y-92306000I0J-150000D01*
G01*
X60615700Y-92606000D01*
G75*
G02*
X60465700Y-92756000I-150000J0D01*
G01*
X58815700Y-92756000D01*
G75*
G02*
X58665700Y-92606000I0J150000D01*
G01*
G37*
G36*
G01*
X58665700Y-91336000D02*
X58665700Y-91036000D01*
G75*
G02*
X58815700Y-90886000I150000J0D01*
G01*
X60465700Y-90886000D01*
G75*
G02*
X60615700Y-91036000I0J-150000D01*
G01*
X60615700Y-91336000D01*
G75*
G02*
X60465700Y-91486000I-150000J0D01*
G01*
X58815700Y-91486000D01*
G75*
G02*
X58665700Y-91336000I0J150000D01*
G01*
G37*
G36*
G01*
X58665700Y-90066000D02*
X58665700Y-89766000D01*
G75*
G02*
X58815700Y-89616000I150000J0D01*
G01*
X60465700Y-89616000D01*
G75*
G02*
X60615700Y-89766000I0J-150000D01*
G01*
X60615700Y-90066000D01*
G75*
G02*
X60465700Y-90216000I-150000J0D01*
G01*
X58815700Y-90216000D01*
G75*
G02*
X58665700Y-90066000I0J150000D01*
G01*
G37*
G36*
G01*
X58665700Y-88796000D02*
X58665700Y-88496000D01*
G75*
G02*
X58815700Y-88346000I150000J0D01*
G01*
X60465700Y-88346000D01*
G75*
G02*
X60615700Y-88496000I0J-150000D01*
G01*
X60615700Y-88796000D01*
G75*
G02*
X60465700Y-88946000I-150000J0D01*
G01*
X58815700Y-88946000D01*
G75*
G02*
X58665700Y-88796000I0J150000D01*
G01*
G37*
G36*
G01*
X58665700Y-87526000D02*
X58665700Y-87226000D01*
G75*
G02*
X58815700Y-87076000I150000J0D01*
G01*
X60465700Y-87076000D01*
G75*
G02*
X60615700Y-87226000I0J-150000D01*
G01*
X60615700Y-87526000D01*
G75*
G02*
X60465700Y-87676000I-150000J0D01*
G01*
X58815700Y-87676000D01*
G75*
G02*
X58665700Y-87526000I0J150000D01*
G01*
G37*
G36*
G01*
X58665700Y-86256000D02*
X58665700Y-85956000D01*
G75*
G02*
X58815700Y-85806000I150000J0D01*
G01*
X60465700Y-85806000D01*
G75*
G02*
X60615700Y-85956000I0J-150000D01*
G01*
X60615700Y-86256000D01*
G75*
G02*
X60465700Y-86406000I-150000J0D01*
G01*
X58815700Y-86406000D01*
G75*
G02*
X58665700Y-86256000I0J150000D01*
G01*
G37*
G36*
G01*
X58665700Y-84986000D02*
X58665700Y-84686000D01*
G75*
G02*
X58815700Y-84536000I150000J0D01*
G01*
X60465700Y-84536000D01*
G75*
G02*
X60615700Y-84686000I0J-150000D01*
G01*
X60615700Y-84986000D01*
G75*
G02*
X60465700Y-85136000I-150000J0D01*
G01*
X58815700Y-85136000D01*
G75*
G02*
X58665700Y-84986000I0J150000D01*
G01*
G37*
G36*
G01*
X58665700Y-83716000D02*
X58665700Y-83416000D01*
G75*
G02*
X58815700Y-83266000I150000J0D01*
G01*
X60465700Y-83266000D01*
G75*
G02*
X60615700Y-83416000I0J-150000D01*
G01*
X60615700Y-83716000D01*
G75*
G02*
X60465700Y-83866000I-150000J0D01*
G01*
X58815700Y-83866000D01*
G75*
G02*
X58665700Y-83716000I0J150000D01*
G01*
G37*
G36*
G01*
X51601500Y-83716000D02*
X51601500Y-83416000D01*
G75*
G02*
X51751500Y-83266000I150000J0D01*
G01*
X53401500Y-83266000D01*
G75*
G02*
X53551500Y-83416000I0J-150000D01*
G01*
X53551500Y-83716000D01*
G75*
G02*
X53401500Y-83866000I-150000J0D01*
G01*
X51751500Y-83866000D01*
G75*
G02*
X51601500Y-83716000I0J150000D01*
G01*
G37*
G36*
G01*
X51601500Y-84986000D02*
X51601500Y-84686000D01*
G75*
G02*
X51751500Y-84536000I150000J0D01*
G01*
X53401500Y-84536000D01*
G75*
G02*
X53551500Y-84686000I0J-150000D01*
G01*
X53551500Y-84986000D01*
G75*
G02*
X53401500Y-85136000I-150000J0D01*
G01*
X51751500Y-85136000D01*
G75*
G02*
X51601500Y-84986000I0J150000D01*
G01*
G37*
G36*
G01*
X51601500Y-86256000D02*
X51601500Y-85956000D01*
G75*
G02*
X51751500Y-85806000I150000J0D01*
G01*
X53401500Y-85806000D01*
G75*
G02*
X53551500Y-85956000I0J-150000D01*
G01*
X53551500Y-86256000D01*
G75*
G02*
X53401500Y-86406000I-150000J0D01*
G01*
X51751500Y-86406000D01*
G75*
G02*
X51601500Y-86256000I0J150000D01*
G01*
G37*
G36*
G01*
X51601500Y-87526000D02*
X51601500Y-87226000D01*
G75*
G02*
X51751500Y-87076000I150000J0D01*
G01*
X53401500Y-87076000D01*
G75*
G02*
X53551500Y-87226000I0J-150000D01*
G01*
X53551500Y-87526000D01*
G75*
G02*
X53401500Y-87676000I-150000J0D01*
G01*
X51751500Y-87676000D01*
G75*
G02*
X51601500Y-87526000I0J150000D01*
G01*
G37*
G36*
G01*
X51601500Y-88796000D02*
X51601500Y-88496000D01*
G75*
G02*
X51751500Y-88346000I150000J0D01*
G01*
X53401500Y-88346000D01*
G75*
G02*
X53551500Y-88496000I0J-150000D01*
G01*
X53551500Y-88796000D01*
G75*
G02*
X53401500Y-88946000I-150000J0D01*
G01*
X51751500Y-88946000D01*
G75*
G02*
X51601500Y-88796000I0J150000D01*
G01*
G37*
G36*
G01*
X51601500Y-90066000D02*
X51601500Y-89766000D01*
G75*
G02*
X51751500Y-89616000I150000J0D01*
G01*
X53401500Y-89616000D01*
G75*
G02*
X53551500Y-89766000I0J-150000D01*
G01*
X53551500Y-90066000D01*
G75*
G02*
X53401500Y-90216000I-150000J0D01*
G01*
X51751500Y-90216000D01*
G75*
G02*
X51601500Y-90066000I0J150000D01*
G01*
G37*
G36*
G01*
X51601500Y-91336000D02*
X51601500Y-91036000D01*
G75*
G02*
X51751500Y-90886000I150000J0D01*
G01*
X53401500Y-90886000D01*
G75*
G02*
X53551500Y-91036000I0J-150000D01*
G01*
X53551500Y-91336000D01*
G75*
G02*
X53401500Y-91486000I-150000J0D01*
G01*
X51751500Y-91486000D01*
G75*
G02*
X51601500Y-91336000I0J150000D01*
G01*
G37*
G36*
G01*
X51601500Y-92606000D02*
X51601500Y-92306000D01*
G75*
G02*
X51751500Y-92156000I150000J0D01*
G01*
X53401500Y-92156000D01*
G75*
G02*
X53551500Y-92306000I0J-150000D01*
G01*
X53551500Y-92606000D01*
G75*
G02*
X53401500Y-92756000I-150000J0D01*
G01*
X51751500Y-92756000D01*
G75*
G02*
X51601500Y-92606000I0J150000D01*
G01*
G37*
G36*
G01*
X46651500Y-92606000D02*
X46651500Y-92306000D01*
G75*
G02*
X46801500Y-92156000I150000J0D01*
G01*
X48451500Y-92156000D01*
G75*
G02*
X48601500Y-92306000I0J-150000D01*
G01*
X48601500Y-92606000D01*
G75*
G02*
X48451500Y-92756000I-150000J0D01*
G01*
X46801500Y-92756000D01*
G75*
G02*
X46651500Y-92606000I0J150000D01*
G01*
G37*
G36*
G01*
X46651500Y-91336000D02*
X46651500Y-91036000D01*
G75*
G02*
X46801500Y-90886000I150000J0D01*
G01*
X48451500Y-90886000D01*
G75*
G02*
X48601500Y-91036000I0J-150000D01*
G01*
X48601500Y-91336000D01*
G75*
G02*
X48451500Y-91486000I-150000J0D01*
G01*
X46801500Y-91486000D01*
G75*
G02*
X46651500Y-91336000I0J150000D01*
G01*
G37*
G36*
G01*
X46651500Y-90066000D02*
X46651500Y-89766000D01*
G75*
G02*
X46801500Y-89616000I150000J0D01*
G01*
X48451500Y-89616000D01*
G75*
G02*
X48601500Y-89766000I0J-150000D01*
G01*
X48601500Y-90066000D01*
G75*
G02*
X48451500Y-90216000I-150000J0D01*
G01*
X46801500Y-90216000D01*
G75*
G02*
X46651500Y-90066000I0J150000D01*
G01*
G37*
G36*
G01*
X46651500Y-88796000D02*
X46651500Y-88496000D01*
G75*
G02*
X46801500Y-88346000I150000J0D01*
G01*
X48451500Y-88346000D01*
G75*
G02*
X48601500Y-88496000I0J-150000D01*
G01*
X48601500Y-88796000D01*
G75*
G02*
X48451500Y-88946000I-150000J0D01*
G01*
X46801500Y-88946000D01*
G75*
G02*
X46651500Y-88796000I0J150000D01*
G01*
G37*
G36*
G01*
X46651500Y-87526000D02*
X46651500Y-87226000D01*
G75*
G02*
X46801500Y-87076000I150000J0D01*
G01*
X48451500Y-87076000D01*
G75*
G02*
X48601500Y-87226000I0J-150000D01*
G01*
X48601500Y-87526000D01*
G75*
G02*
X48451500Y-87676000I-150000J0D01*
G01*
X46801500Y-87676000D01*
G75*
G02*
X46651500Y-87526000I0J150000D01*
G01*
G37*
G36*
G01*
X46651500Y-86256000D02*
X46651500Y-85956000D01*
G75*
G02*
X46801500Y-85806000I150000J0D01*
G01*
X48451500Y-85806000D01*
G75*
G02*
X48601500Y-85956000I0J-150000D01*
G01*
X48601500Y-86256000D01*
G75*
G02*
X48451500Y-86406000I-150000J0D01*
G01*
X46801500Y-86406000D01*
G75*
G02*
X46651500Y-86256000I0J150000D01*
G01*
G37*
G36*
G01*
X46651500Y-84986000D02*
X46651500Y-84686000D01*
G75*
G02*
X46801500Y-84536000I150000J0D01*
G01*
X48451500Y-84536000D01*
G75*
G02*
X48601500Y-84686000I0J-150000D01*
G01*
X48601500Y-84986000D01*
G75*
G02*
X48451500Y-85136000I-150000J0D01*
G01*
X46801500Y-85136000D01*
G75*
G02*
X46651500Y-84986000I0J150000D01*
G01*
G37*
G36*
G01*
X46651500Y-83716000D02*
X46651500Y-83416000D01*
G75*
G02*
X46801500Y-83266000I150000J0D01*
G01*
X48451500Y-83266000D01*
G75*
G02*
X48601500Y-83416000I0J-150000D01*
G01*
X48601500Y-83716000D01*
G75*
G02*
X48451500Y-83866000I-150000J0D01*
G01*
X46801500Y-83866000D01*
G75*
G02*
X46651500Y-83716000I0J150000D01*
G01*
G37*
G36*
G01*
X75922000Y-83665200D02*
X75922000Y-83365200D01*
G75*
G02*
X76072000Y-83215200I150000J0D01*
G01*
X77722000Y-83215200D01*
G75*
G02*
X77872000Y-83365200I0J-150000D01*
G01*
X77872000Y-83665200D01*
G75*
G02*
X77722000Y-83815200I-150000J0D01*
G01*
X76072000Y-83815200D01*
G75*
G02*
X75922000Y-83665200I0J150000D01*
G01*
G37*
G36*
G01*
X75922000Y-84935200D02*
X75922000Y-84635200D01*
G75*
G02*
X76072000Y-84485200I150000J0D01*
G01*
X77722000Y-84485200D01*
G75*
G02*
X77872000Y-84635200I0J-150000D01*
G01*
X77872000Y-84935200D01*
G75*
G02*
X77722000Y-85085200I-150000J0D01*
G01*
X76072000Y-85085200D01*
G75*
G02*
X75922000Y-84935200I0J150000D01*
G01*
G37*
G36*
G01*
X75922000Y-86205200D02*
X75922000Y-85905200D01*
G75*
G02*
X76072000Y-85755200I150000J0D01*
G01*
X77722000Y-85755200D01*
G75*
G02*
X77872000Y-85905200I0J-150000D01*
G01*
X77872000Y-86205200D01*
G75*
G02*
X77722000Y-86355200I-150000J0D01*
G01*
X76072000Y-86355200D01*
G75*
G02*
X75922000Y-86205200I0J150000D01*
G01*
G37*
G36*
G01*
X75922000Y-87475200D02*
X75922000Y-87175200D01*
G75*
G02*
X76072000Y-87025200I150000J0D01*
G01*
X77722000Y-87025200D01*
G75*
G02*
X77872000Y-87175200I0J-150000D01*
G01*
X77872000Y-87475200D01*
G75*
G02*
X77722000Y-87625200I-150000J0D01*
G01*
X76072000Y-87625200D01*
G75*
G02*
X75922000Y-87475200I0J150000D01*
G01*
G37*
G36*
G01*
X75922000Y-88745200D02*
X75922000Y-88445200D01*
G75*
G02*
X76072000Y-88295200I150000J0D01*
G01*
X77722000Y-88295200D01*
G75*
G02*
X77872000Y-88445200I0J-150000D01*
G01*
X77872000Y-88745200D01*
G75*
G02*
X77722000Y-88895200I-150000J0D01*
G01*
X76072000Y-88895200D01*
G75*
G02*
X75922000Y-88745200I0J150000D01*
G01*
G37*
G36*
G01*
X75922000Y-90015200D02*
X75922000Y-89715200D01*
G75*
G02*
X76072000Y-89565200I150000J0D01*
G01*
X77722000Y-89565200D01*
G75*
G02*
X77872000Y-89715200I0J-150000D01*
G01*
X77872000Y-90015200D01*
G75*
G02*
X77722000Y-90165200I-150000J0D01*
G01*
X76072000Y-90165200D01*
G75*
G02*
X75922000Y-90015200I0J150000D01*
G01*
G37*
G36*
G01*
X75922000Y-91285200D02*
X75922000Y-90985200D01*
G75*
G02*
X76072000Y-90835200I150000J0D01*
G01*
X77722000Y-90835200D01*
G75*
G02*
X77872000Y-90985200I0J-150000D01*
G01*
X77872000Y-91285200D01*
G75*
G02*
X77722000Y-91435200I-150000J0D01*
G01*
X76072000Y-91435200D01*
G75*
G02*
X75922000Y-91285200I0J150000D01*
G01*
G37*
G36*
G01*
X75922000Y-92555200D02*
X75922000Y-92255200D01*
G75*
G02*
X76072000Y-92105200I150000J0D01*
G01*
X77722000Y-92105200D01*
G75*
G02*
X77872000Y-92255200I0J-150000D01*
G01*
X77872000Y-92555200D01*
G75*
G02*
X77722000Y-92705200I-150000J0D01*
G01*
X76072000Y-92705200D01*
G75*
G02*
X75922000Y-92555200I0J150000D01*
G01*
G37*
G36*
G01*
X70972000Y-92555200D02*
X70972000Y-92255200D01*
G75*
G02*
X71122000Y-92105200I150000J0D01*
G01*
X72772000Y-92105200D01*
G75*
G02*
X72922000Y-92255200I0J-150000D01*
G01*
X72922000Y-92555200D01*
G75*
G02*
X72772000Y-92705200I-150000J0D01*
G01*
X71122000Y-92705200D01*
G75*
G02*
X70972000Y-92555200I0J150000D01*
G01*
G37*
G36*
G01*
X70972000Y-91285200D02*
X70972000Y-90985200D01*
G75*
G02*
X71122000Y-90835200I150000J0D01*
G01*
X72772000Y-90835200D01*
G75*
G02*
X72922000Y-90985200I0J-150000D01*
G01*
X72922000Y-91285200D01*
G75*
G02*
X72772000Y-91435200I-150000J0D01*
G01*
X71122000Y-91435200D01*
G75*
G02*
X70972000Y-91285200I0J150000D01*
G01*
G37*
G36*
G01*
X70972000Y-90015200D02*
X70972000Y-89715200D01*
G75*
G02*
X71122000Y-89565200I150000J0D01*
G01*
X72772000Y-89565200D01*
G75*
G02*
X72922000Y-89715200I0J-150000D01*
G01*
X72922000Y-90015200D01*
G75*
G02*
X72772000Y-90165200I-150000J0D01*
G01*
X71122000Y-90165200D01*
G75*
G02*
X70972000Y-90015200I0J150000D01*
G01*
G37*
G36*
G01*
X70972000Y-88745200D02*
X70972000Y-88445200D01*
G75*
G02*
X71122000Y-88295200I150000J0D01*
G01*
X72772000Y-88295200D01*
G75*
G02*
X72922000Y-88445200I0J-150000D01*
G01*
X72922000Y-88745200D01*
G75*
G02*
X72772000Y-88895200I-150000J0D01*
G01*
X71122000Y-88895200D01*
G75*
G02*
X70972000Y-88745200I0J150000D01*
G01*
G37*
G36*
G01*
X70972000Y-87475200D02*
X70972000Y-87175200D01*
G75*
G02*
X71122000Y-87025200I150000J0D01*
G01*
X72772000Y-87025200D01*
G75*
G02*
X72922000Y-87175200I0J-150000D01*
G01*
X72922000Y-87475200D01*
G75*
G02*
X72772000Y-87625200I-150000J0D01*
G01*
X71122000Y-87625200D01*
G75*
G02*
X70972000Y-87475200I0J150000D01*
G01*
G37*
G36*
G01*
X70972000Y-86205200D02*
X70972000Y-85905200D01*
G75*
G02*
X71122000Y-85755200I150000J0D01*
G01*
X72772000Y-85755200D01*
G75*
G02*
X72922000Y-85905200I0J-150000D01*
G01*
X72922000Y-86205200D01*
G75*
G02*
X72772000Y-86355200I-150000J0D01*
G01*
X71122000Y-86355200D01*
G75*
G02*
X70972000Y-86205200I0J150000D01*
G01*
G37*
G36*
G01*
X70972000Y-84935200D02*
X70972000Y-84635200D01*
G75*
G02*
X71122000Y-84485200I150000J0D01*
G01*
X72772000Y-84485200D01*
G75*
G02*
X72922000Y-84635200I0J-150000D01*
G01*
X72922000Y-84935200D01*
G75*
G02*
X72772000Y-85085200I-150000J0D01*
G01*
X71122000Y-85085200D01*
G75*
G02*
X70972000Y-84935200I0J150000D01*
G01*
G37*
G36*
G01*
X70972000Y-83665200D02*
X70972000Y-83365200D01*
G75*
G02*
X71122000Y-83215200I150000J0D01*
G01*
X72772000Y-83215200D01*
G75*
G02*
X72922000Y-83365200I0J-150000D01*
G01*
X72922000Y-83665200D01*
G75*
G02*
X72772000Y-83815200I-150000J0D01*
G01*
X71122000Y-83815200D01*
G75*
G02*
X70972000Y-83665200I0J150000D01*
G01*
G37*
G36*
G01*
X106381600Y-83665200D02*
X106381600Y-83365200D01*
G75*
G02*
X106531600Y-83215200I150000J0D01*
G01*
X108181600Y-83215200D01*
G75*
G02*
X108331600Y-83365200I0J-150000D01*
G01*
X108331600Y-83665200D01*
G75*
G02*
X108181600Y-83815200I-150000J0D01*
G01*
X106531600Y-83815200D01*
G75*
G02*
X106381600Y-83665200I0J150000D01*
G01*
G37*
G36*
G01*
X106381600Y-84935200D02*
X106381600Y-84635200D01*
G75*
G02*
X106531600Y-84485200I150000J0D01*
G01*
X108181600Y-84485200D01*
G75*
G02*
X108331600Y-84635200I0J-150000D01*
G01*
X108331600Y-84935200D01*
G75*
G02*
X108181600Y-85085200I-150000J0D01*
G01*
X106531600Y-85085200D01*
G75*
G02*
X106381600Y-84935200I0J150000D01*
G01*
G37*
G36*
G01*
X106381600Y-86205200D02*
X106381600Y-85905200D01*
G75*
G02*
X106531600Y-85755200I150000J0D01*
G01*
X108181600Y-85755200D01*
G75*
G02*
X108331600Y-85905200I0J-150000D01*
G01*
X108331600Y-86205200D01*
G75*
G02*
X108181600Y-86355200I-150000J0D01*
G01*
X106531600Y-86355200D01*
G75*
G02*
X106381600Y-86205200I0J150000D01*
G01*
G37*
G36*
G01*
X106381600Y-87475200D02*
X106381600Y-87175200D01*
G75*
G02*
X106531600Y-87025200I150000J0D01*
G01*
X108181600Y-87025200D01*
G75*
G02*
X108331600Y-87175200I0J-150000D01*
G01*
X108331600Y-87475200D01*
G75*
G02*
X108181600Y-87625200I-150000J0D01*
G01*
X106531600Y-87625200D01*
G75*
G02*
X106381600Y-87475200I0J150000D01*
G01*
G37*
G36*
G01*
X106381600Y-88745200D02*
X106381600Y-88445200D01*
G75*
G02*
X106531600Y-88295200I150000J0D01*
G01*
X108181600Y-88295200D01*
G75*
G02*
X108331600Y-88445200I0J-150000D01*
G01*
X108331600Y-88745200D01*
G75*
G02*
X108181600Y-88895200I-150000J0D01*
G01*
X106531600Y-88895200D01*
G75*
G02*
X106381600Y-88745200I0J150000D01*
G01*
G37*
G36*
G01*
X106381600Y-90015200D02*
X106381600Y-89715200D01*
G75*
G02*
X106531600Y-89565200I150000J0D01*
G01*
X108181600Y-89565200D01*
G75*
G02*
X108331600Y-89715200I0J-150000D01*
G01*
X108331600Y-90015200D01*
G75*
G02*
X108181600Y-90165200I-150000J0D01*
G01*
X106531600Y-90165200D01*
G75*
G02*
X106381600Y-90015200I0J150000D01*
G01*
G37*
G36*
G01*
X106381600Y-91285200D02*
X106381600Y-90985200D01*
G75*
G02*
X106531600Y-90835200I150000J0D01*
G01*
X108181600Y-90835200D01*
G75*
G02*
X108331600Y-90985200I0J-150000D01*
G01*
X108331600Y-91285200D01*
G75*
G02*
X108181600Y-91435200I-150000J0D01*
G01*
X106531600Y-91435200D01*
G75*
G02*
X106381600Y-91285200I0J150000D01*
G01*
G37*
G36*
G01*
X106381600Y-92555200D02*
X106381600Y-92255200D01*
G75*
G02*
X106531600Y-92105200I150000J0D01*
G01*
X108181600Y-92105200D01*
G75*
G02*
X108331600Y-92255200I0J-150000D01*
G01*
X108331600Y-92555200D01*
G75*
G02*
X108181600Y-92705200I-150000J0D01*
G01*
X106531600Y-92705200D01*
G75*
G02*
X106381600Y-92555200I0J150000D01*
G01*
G37*
G36*
G01*
X101431600Y-92555200D02*
X101431600Y-92255200D01*
G75*
G02*
X101581600Y-92105200I150000J0D01*
G01*
X103231600Y-92105200D01*
G75*
G02*
X103381600Y-92255200I0J-150000D01*
G01*
X103381600Y-92555200D01*
G75*
G02*
X103231600Y-92705200I-150000J0D01*
G01*
X101581600Y-92705200D01*
G75*
G02*
X101431600Y-92555200I0J150000D01*
G01*
G37*
G36*
G01*
X101431600Y-91285200D02*
X101431600Y-90985200D01*
G75*
G02*
X101581600Y-90835200I150000J0D01*
G01*
X103231600Y-90835200D01*
G75*
G02*
X103381600Y-90985200I0J-150000D01*
G01*
X103381600Y-91285200D01*
G75*
G02*
X103231600Y-91435200I-150000J0D01*
G01*
X101581600Y-91435200D01*
G75*
G02*
X101431600Y-91285200I0J150000D01*
G01*
G37*
G36*
G01*
X101431600Y-90015200D02*
X101431600Y-89715200D01*
G75*
G02*
X101581600Y-89565200I150000J0D01*
G01*
X103231600Y-89565200D01*
G75*
G02*
X103381600Y-89715200I0J-150000D01*
G01*
X103381600Y-90015200D01*
G75*
G02*
X103231600Y-90165200I-150000J0D01*
G01*
X101581600Y-90165200D01*
G75*
G02*
X101431600Y-90015200I0J150000D01*
G01*
G37*
G36*
G01*
X101431600Y-88745200D02*
X101431600Y-88445200D01*
G75*
G02*
X101581600Y-88295200I150000J0D01*
G01*
X103231600Y-88295200D01*
G75*
G02*
X103381600Y-88445200I0J-150000D01*
G01*
X103381600Y-88745200D01*
G75*
G02*
X103231600Y-88895200I-150000J0D01*
G01*
X101581600Y-88895200D01*
G75*
G02*
X101431600Y-88745200I0J150000D01*
G01*
G37*
G36*
G01*
X101431600Y-87475200D02*
X101431600Y-87175200D01*
G75*
G02*
X101581600Y-87025200I150000J0D01*
G01*
X103231600Y-87025200D01*
G75*
G02*
X103381600Y-87175200I0J-150000D01*
G01*
X103381600Y-87475200D01*
G75*
G02*
X103231600Y-87625200I-150000J0D01*
G01*
X101581600Y-87625200D01*
G75*
G02*
X101431600Y-87475200I0J150000D01*
G01*
G37*
G36*
G01*
X101431600Y-86205200D02*
X101431600Y-85905200D01*
G75*
G02*
X101581600Y-85755200I150000J0D01*
G01*
X103231600Y-85755200D01*
G75*
G02*
X103381600Y-85905200I0J-150000D01*
G01*
X103381600Y-86205200D01*
G75*
G02*
X103231600Y-86355200I-150000J0D01*
G01*
X101581600Y-86355200D01*
G75*
G02*
X101431600Y-86205200I0J150000D01*
G01*
G37*
G36*
G01*
X101431600Y-84935200D02*
X101431600Y-84635200D01*
G75*
G02*
X101581600Y-84485200I150000J0D01*
G01*
X103231600Y-84485200D01*
G75*
G02*
X103381600Y-84635200I0J-150000D01*
G01*
X103381600Y-84935200D01*
G75*
G02*
X103231600Y-85085200I-150000J0D01*
G01*
X101581600Y-85085200D01*
G75*
G02*
X101431600Y-84935200I0J150000D01*
G01*
G37*
G36*
G01*
X101431600Y-83665200D02*
X101431600Y-83365200D01*
G75*
G02*
X101581600Y-83215200I150000J0D01*
G01*
X103231600Y-83215200D01*
G75*
G02*
X103381600Y-83365200I0J-150000D01*
G01*
X103381600Y-83665200D01*
G75*
G02*
X103231600Y-83815200I-150000J0D01*
G01*
X101581600Y-83815200D01*
G75*
G02*
X101431600Y-83665200I0J150000D01*
G01*
G37*
M02*
