G04 #@! TF.GenerationSoftware,KiCad,Pcbnew,(5.1.12-1-10_14)*
G04 #@! TF.CreationDate,2021-12-19T18:28:25-07:00*
G04 #@! TF.ProjectId,GenMemBlock,47656e4d-656d-4426-9c6f-636b2e6b6963,rev?*
G04 #@! TF.SameCoordinates,Original*
G04 #@! TF.FileFunction,Copper,L4,Bot*
G04 #@! TF.FilePolarity,Positive*
%FSLAX46Y46*%
G04 Gerber Fmt 4.6, Leading zero omitted, Abs format (unit mm)*
G04 Created by KiCad (PCBNEW (5.1.12-1-10_14)) date 2021-12-19 18:28:25*
%MOMM*%
%LPD*%
G01*
G04 APERTURE LIST*
G04 #@! TA.AperFunction,ComponentPad*
%ADD10O,1.700000X1.700000*%
G04 #@! TD*
G04 #@! TA.AperFunction,ComponentPad*
%ADD11R,1.700000X1.700000*%
G04 #@! TD*
G04 #@! TA.AperFunction,ViaPad*
%ADD12C,0.600000*%
G04 #@! TD*
G04 #@! TA.AperFunction,Conductor*
%ADD13C,0.127000*%
G04 #@! TD*
G04 #@! TA.AperFunction,Conductor*
%ADD14C,0.150000*%
G04 #@! TD*
G04 #@! TA.AperFunction,Conductor*
%ADD15C,0.600000*%
G04 #@! TD*
G04 #@! TA.AperFunction,Conductor*
%ADD16C,0.400000*%
G04 #@! TD*
G04 APERTURE END LIST*
D10*
X35789000Y-76690000D03*
X35789000Y-74150000D03*
X38329000Y-76690000D03*
X38329000Y-74150000D03*
X40869000Y-76690000D03*
X40869000Y-74150000D03*
X43409000Y-76690000D03*
X43409000Y-74150000D03*
X45949000Y-76690000D03*
X45949000Y-74150000D03*
X48489000Y-76690000D03*
X48489000Y-74150000D03*
X51029000Y-76690000D03*
X51029000Y-74150000D03*
X53569000Y-76690000D03*
X53569000Y-74150000D03*
X56109000Y-76690000D03*
X56109000Y-74150000D03*
X58649000Y-76690000D03*
X58649000Y-74150000D03*
X61189000Y-76690000D03*
X61189000Y-74150000D03*
X63729000Y-76690000D03*
X63729000Y-74150000D03*
X66269000Y-76690000D03*
D11*
X66269000Y-74150000D03*
G04 #@! TA.AperFunction,SMDPad,CuDef*
G36*
G01*
X38194000Y-84241000D02*
X37244000Y-84241000D01*
G75*
G02*
X36994000Y-83991000I0J250000D01*
G01*
X36994000Y-83316000D01*
G75*
G02*
X37244000Y-83066000I250000J0D01*
G01*
X38194000Y-83066000D01*
G75*
G02*
X38444000Y-83316000I0J-250000D01*
G01*
X38444000Y-83991000D01*
G75*
G02*
X38194000Y-84241000I-250000J0D01*
G01*
G37*
G04 #@! TD.AperFunction*
G04 #@! TA.AperFunction,SMDPad,CuDef*
G36*
G01*
X38194000Y-86316000D02*
X37244000Y-86316000D01*
G75*
G02*
X36994000Y-86066000I0J250000D01*
G01*
X36994000Y-85391000D01*
G75*
G02*
X37244000Y-85141000I250000J0D01*
G01*
X38194000Y-85141000D01*
G75*
G02*
X38444000Y-85391000I0J-250000D01*
G01*
X38444000Y-86066000D01*
G75*
G02*
X38194000Y-86316000I-250000J0D01*
G01*
G37*
G04 #@! TD.AperFunction*
D10*
X76327000Y-114503200D03*
X76327000Y-117043200D03*
X73787000Y-114503200D03*
X73787000Y-117043200D03*
X71247000Y-114503200D03*
X71247000Y-117043200D03*
X68707000Y-114503200D03*
X68707000Y-117043200D03*
X66167000Y-114503200D03*
D11*
X66167000Y-117043200D03*
G04 #@! TA.AperFunction,SMDPad,CuDef*
G36*
G01*
X74897000Y-84190200D02*
X73947000Y-84190200D01*
G75*
G02*
X73697000Y-83940200I0J250000D01*
G01*
X73697000Y-83265200D01*
G75*
G02*
X73947000Y-83015200I250000J0D01*
G01*
X74897000Y-83015200D01*
G75*
G02*
X75147000Y-83265200I0J-250000D01*
G01*
X75147000Y-83940200D01*
G75*
G02*
X74897000Y-84190200I-250000J0D01*
G01*
G37*
G04 #@! TD.AperFunction*
G04 #@! TA.AperFunction,SMDPad,CuDef*
G36*
G01*
X74897000Y-86265200D02*
X73947000Y-86265200D01*
G75*
G02*
X73697000Y-86015200I0J250000D01*
G01*
X73697000Y-85340200D01*
G75*
G02*
X73947000Y-85090200I250000J0D01*
G01*
X74897000Y-85090200D01*
G75*
G02*
X75147000Y-85340200I0J-250000D01*
G01*
X75147000Y-86015200D01*
G75*
G02*
X74897000Y-86265200I-250000J0D01*
G01*
G37*
G04 #@! TD.AperFunction*
G04 #@! TA.AperFunction,SMDPad,CuDef*
G36*
G01*
X94876600Y-85090200D02*
X95826600Y-85090200D01*
G75*
G02*
X96076600Y-85340200I0J-250000D01*
G01*
X96076600Y-86015200D01*
G75*
G02*
X95826600Y-86265200I-250000J0D01*
G01*
X94876600Y-86265200D01*
G75*
G02*
X94626600Y-86015200I0J250000D01*
G01*
X94626600Y-85340200D01*
G75*
G02*
X94876600Y-85090200I250000J0D01*
G01*
G37*
G04 #@! TD.AperFunction*
G04 #@! TA.AperFunction,SMDPad,CuDef*
G36*
G01*
X94876600Y-83015200D02*
X95826600Y-83015200D01*
G75*
G02*
X96076600Y-83265200I0J-250000D01*
G01*
X96076600Y-83940200D01*
G75*
G02*
X95826600Y-84190200I-250000J0D01*
G01*
X94876600Y-84190200D01*
G75*
G02*
X94626600Y-83940200I0J250000D01*
G01*
X94626600Y-83265200D01*
G75*
G02*
X94876600Y-83015200I250000J0D01*
G01*
G37*
G04 #@! TD.AperFunction*
G04 #@! TA.AperFunction,SMDPad,CuDef*
G36*
G01*
X92093200Y-106393000D02*
X92093200Y-105443000D01*
G75*
G02*
X92343200Y-105193000I250000J0D01*
G01*
X93018200Y-105193000D01*
G75*
G02*
X93268200Y-105443000I0J-250000D01*
G01*
X93268200Y-106393000D01*
G75*
G02*
X93018200Y-106643000I-250000J0D01*
G01*
X92343200Y-106643000D01*
G75*
G02*
X92093200Y-106393000I0J250000D01*
G01*
G37*
G04 #@! TD.AperFunction*
G04 #@! TA.AperFunction,SMDPad,CuDef*
G36*
G01*
X90018200Y-106393000D02*
X90018200Y-105443000D01*
G75*
G02*
X90268200Y-105193000I250000J0D01*
G01*
X90943200Y-105193000D01*
G75*
G02*
X91193200Y-105443000I0J-250000D01*
G01*
X91193200Y-106393000D01*
G75*
G02*
X90943200Y-106643000I-250000J0D01*
G01*
X90268200Y-106643000D01*
G75*
G02*
X90018200Y-106393000I0J250000D01*
G01*
G37*
G04 #@! TD.AperFunction*
G04 #@! TA.AperFunction,SMDPad,CuDef*
G36*
G01*
X40328000Y-106393000D02*
X40328000Y-105443000D01*
G75*
G02*
X40578000Y-105193000I250000J0D01*
G01*
X41253000Y-105193000D01*
G75*
G02*
X41503000Y-105443000I0J-250000D01*
G01*
X41503000Y-106393000D01*
G75*
G02*
X41253000Y-106643000I-250000J0D01*
G01*
X40578000Y-106643000D01*
G75*
G02*
X40328000Y-106393000I0J250000D01*
G01*
G37*
G04 #@! TD.AperFunction*
G04 #@! TA.AperFunction,SMDPad,CuDef*
G36*
G01*
X38253000Y-106393000D02*
X38253000Y-105443000D01*
G75*
G02*
X38503000Y-105193000I250000J0D01*
G01*
X39178000Y-105193000D01*
G75*
G02*
X39428000Y-105443000I0J-250000D01*
G01*
X39428000Y-106393000D01*
G75*
G02*
X39178000Y-106643000I-250000J0D01*
G01*
X38503000Y-106643000D01*
G75*
G02*
X38253000Y-106393000I0J250000D01*
G01*
G37*
G04 #@! TD.AperFunction*
G04 #@! TA.AperFunction,SMDPad,CuDef*
G36*
G01*
X65016800Y-106393000D02*
X65016800Y-105443000D01*
G75*
G02*
X65266800Y-105193000I250000J0D01*
G01*
X65941800Y-105193000D01*
G75*
G02*
X66191800Y-105443000I0J-250000D01*
G01*
X66191800Y-106393000D01*
G75*
G02*
X65941800Y-106643000I-250000J0D01*
G01*
X65266800Y-106643000D01*
G75*
G02*
X65016800Y-106393000I0J250000D01*
G01*
G37*
G04 #@! TD.AperFunction*
G04 #@! TA.AperFunction,SMDPad,CuDef*
G36*
G01*
X62941800Y-106393000D02*
X62941800Y-105443000D01*
G75*
G02*
X63191800Y-105193000I250000J0D01*
G01*
X63866800Y-105193000D01*
G75*
G02*
X64116800Y-105443000I0J-250000D01*
G01*
X64116800Y-106393000D01*
G75*
G02*
X63866800Y-106643000I-250000J0D01*
G01*
X63191800Y-106643000D01*
G75*
G02*
X62941800Y-106393000I0J250000D01*
G01*
G37*
G04 #@! TD.AperFunction*
G04 #@! TA.AperFunction,SMDPad,CuDef*
G36*
G01*
X85885000Y-85090200D02*
X86835000Y-85090200D01*
G75*
G02*
X87085000Y-85340200I0J-250000D01*
G01*
X87085000Y-86015200D01*
G75*
G02*
X86835000Y-86265200I-250000J0D01*
G01*
X85885000Y-86265200D01*
G75*
G02*
X85635000Y-86015200I0J250000D01*
G01*
X85635000Y-85340200D01*
G75*
G02*
X85885000Y-85090200I250000J0D01*
G01*
G37*
G04 #@! TD.AperFunction*
G04 #@! TA.AperFunction,SMDPad,CuDef*
G36*
G01*
X85885000Y-83015200D02*
X86835000Y-83015200D01*
G75*
G02*
X87085000Y-83265200I0J-250000D01*
G01*
X87085000Y-83940200D01*
G75*
G02*
X86835000Y-84190200I-250000J0D01*
G01*
X85885000Y-84190200D01*
G75*
G02*
X85635000Y-83940200I0J250000D01*
G01*
X85635000Y-83265200D01*
G75*
G02*
X85885000Y-83015200I250000J0D01*
G01*
G37*
G04 #@! TD.AperFunction*
G04 #@! TA.AperFunction,SMDPad,CuDef*
G36*
G01*
X104970600Y-84190200D02*
X104020600Y-84190200D01*
G75*
G02*
X103770600Y-83940200I0J250000D01*
G01*
X103770600Y-83265200D01*
G75*
G02*
X104020600Y-83015200I250000J0D01*
G01*
X104970600Y-83015200D01*
G75*
G02*
X105220600Y-83265200I0J-250000D01*
G01*
X105220600Y-83940200D01*
G75*
G02*
X104970600Y-84190200I-250000J0D01*
G01*
G37*
G04 #@! TD.AperFunction*
G04 #@! TA.AperFunction,SMDPad,CuDef*
G36*
G01*
X104970600Y-86265200D02*
X104020600Y-86265200D01*
G75*
G02*
X103770600Y-86015200I0J250000D01*
G01*
X103770600Y-85340200D01*
G75*
G02*
X104020600Y-85090200I250000J0D01*
G01*
X104970600Y-85090200D01*
G75*
G02*
X105220600Y-85340200I0J-250000D01*
G01*
X105220600Y-86015200D01*
G75*
G02*
X104970600Y-86265200I-250000J0D01*
G01*
G37*
G04 #@! TD.AperFunction*
G04 #@! TA.AperFunction,SMDPad,CuDef*
G36*
G01*
X50576500Y-84640000D02*
X49626500Y-84640000D01*
G75*
G02*
X49376500Y-84390000I0J250000D01*
G01*
X49376500Y-83715000D01*
G75*
G02*
X49626500Y-83465000I250000J0D01*
G01*
X50576500Y-83465000D01*
G75*
G02*
X50826500Y-83715000I0J-250000D01*
G01*
X50826500Y-84390000D01*
G75*
G02*
X50576500Y-84640000I-250000J0D01*
G01*
G37*
G04 #@! TD.AperFunction*
G04 #@! TA.AperFunction,SMDPad,CuDef*
G36*
G01*
X50576500Y-86715000D02*
X49626500Y-86715000D01*
G75*
G02*
X49376500Y-86465000I0J250000D01*
G01*
X49376500Y-85790000D01*
G75*
G02*
X49626500Y-85540000I250000J0D01*
G01*
X50576500Y-85540000D01*
G75*
G02*
X50826500Y-85790000I0J-250000D01*
G01*
X50826500Y-86465000D01*
G75*
G02*
X50576500Y-86715000I-250000J0D01*
G01*
G37*
G04 #@! TD.AperFunction*
G04 #@! TA.AperFunction,SMDPad,CuDef*
G36*
G01*
X62590700Y-84241000D02*
X61640700Y-84241000D01*
G75*
G02*
X61390700Y-83991000I0J250000D01*
G01*
X61390700Y-83316000D01*
G75*
G02*
X61640700Y-83066000I250000J0D01*
G01*
X62590700Y-83066000D01*
G75*
G02*
X62840700Y-83316000I0J-250000D01*
G01*
X62840700Y-83991000D01*
G75*
G02*
X62590700Y-84241000I-250000J0D01*
G01*
G37*
G04 #@! TD.AperFunction*
G04 #@! TA.AperFunction,SMDPad,CuDef*
G36*
G01*
X62590700Y-86316000D02*
X61640700Y-86316000D01*
G75*
G02*
X61390700Y-86066000I0J250000D01*
G01*
X61390700Y-85391000D01*
G75*
G02*
X61640700Y-85141000I250000J0D01*
G01*
X62590700Y-85141000D01*
G75*
G02*
X62840700Y-85391000I0J-250000D01*
G01*
X62840700Y-86066000D01*
G75*
G02*
X62590700Y-86316000I-250000J0D01*
G01*
G37*
G04 #@! TD.AperFunction*
D10*
X94107000Y-114503200D03*
X94107000Y-117043200D03*
X91567000Y-114503200D03*
X91567000Y-117043200D03*
X89027000Y-114503200D03*
X89027000Y-117043200D03*
X86487000Y-114503200D03*
X86487000Y-117043200D03*
X83947000Y-114503200D03*
D11*
X83947000Y-117043200D03*
D10*
X124587000Y-114503200D03*
X124587000Y-117043200D03*
X122047000Y-114503200D03*
X122047000Y-117043200D03*
X119507000Y-114503200D03*
X119507000Y-117043200D03*
X116967000Y-114503200D03*
X116967000Y-117043200D03*
X114427000Y-114503200D03*
X114427000Y-117043200D03*
X111887000Y-114503200D03*
X111887000Y-117043200D03*
X109347000Y-114503200D03*
X109347000Y-117043200D03*
X106807000Y-114503200D03*
X106807000Y-117043200D03*
X104267000Y-114503200D03*
X104267000Y-117043200D03*
X101727000Y-114503200D03*
D11*
X101727000Y-117043200D03*
D10*
X58572400Y-114503200D03*
X58572400Y-117043200D03*
X56032400Y-114503200D03*
X56032400Y-117043200D03*
X53492400Y-114503200D03*
X53492400Y-117043200D03*
X50952400Y-114503200D03*
X50952400Y-117043200D03*
X48412400Y-114503200D03*
X48412400Y-117043200D03*
X45872400Y-114503200D03*
X45872400Y-117043200D03*
X43332400Y-114503200D03*
X43332400Y-117043200D03*
X40792400Y-114503200D03*
X40792400Y-117043200D03*
X38252400Y-114503200D03*
X38252400Y-117043200D03*
X35712400Y-114503200D03*
D11*
X35712400Y-117043200D03*
D10*
X83921600Y-76690000D03*
X83921600Y-74150000D03*
X86461600Y-76690000D03*
X86461600Y-74150000D03*
X89001600Y-76690000D03*
X89001600Y-74150000D03*
X91541600Y-76690000D03*
X91541600Y-74150000D03*
X94081600Y-76690000D03*
X94081600Y-74150000D03*
X96621600Y-76690000D03*
X96621600Y-74150000D03*
X99161600Y-76690000D03*
X99161600Y-74150000D03*
X101701600Y-76690000D03*
X101701600Y-74150000D03*
X104241600Y-76690000D03*
X104241600Y-74150000D03*
X106781600Y-76690000D03*
D11*
X106781600Y-74150000D03*
D10*
X122037000Y-74140000D03*
X124577000Y-74140000D03*
X122037000Y-76680000D03*
X124577000Y-76680000D03*
X122037000Y-79220000D03*
X124577000Y-79220000D03*
X122037000Y-81760000D03*
X124577000Y-81760000D03*
X122037000Y-84300000D03*
X124577000Y-84300000D03*
X122037000Y-86840000D03*
X124577000Y-86840000D03*
X122037000Y-89380000D03*
X124577000Y-89380000D03*
X122037000Y-91920000D03*
X124577000Y-91920000D03*
X122037000Y-94460000D03*
X124577000Y-94460000D03*
X122037000Y-97000000D03*
D11*
X124577000Y-97000000D03*
G04 #@! TA.AperFunction,SMDPad,CuDef*
G36*
G01*
X112667201Y-74733200D02*
X111767199Y-74733200D01*
G75*
G02*
X111517200Y-74483201I0J249999D01*
G01*
X111517200Y-73783199D01*
G75*
G02*
X111767199Y-73533200I249999J0D01*
G01*
X112667201Y-73533200D01*
G75*
G02*
X112917200Y-73783199I0J-249999D01*
G01*
X112917200Y-74483201D01*
G75*
G02*
X112667201Y-74733200I-249999J0D01*
G01*
G37*
G04 #@! TD.AperFunction*
G04 #@! TA.AperFunction,SMDPad,CuDef*
G36*
G01*
X112667201Y-76733200D02*
X111767199Y-76733200D01*
G75*
G02*
X111517200Y-76483201I0J249999D01*
G01*
X111517200Y-75783199D01*
G75*
G02*
X111767199Y-75533200I249999J0D01*
G01*
X112667201Y-75533200D01*
G75*
G02*
X112917200Y-75783199I0J-249999D01*
G01*
X112917200Y-76483201D01*
G75*
G02*
X112667201Y-76733200I-249999J0D01*
G01*
G37*
G04 #@! TD.AperFunction*
G04 #@! TA.AperFunction,SMDPad,CuDef*
G36*
G01*
X117036001Y-74733200D02*
X116135999Y-74733200D01*
G75*
G02*
X115886000Y-74483201I0J249999D01*
G01*
X115886000Y-73783199D01*
G75*
G02*
X116135999Y-73533200I249999J0D01*
G01*
X117036001Y-73533200D01*
G75*
G02*
X117286000Y-73783199I0J-249999D01*
G01*
X117286000Y-74483201D01*
G75*
G02*
X117036001Y-74733200I-249999J0D01*
G01*
G37*
G04 #@! TD.AperFunction*
G04 #@! TA.AperFunction,SMDPad,CuDef*
G36*
G01*
X117036001Y-76733200D02*
X116135999Y-76733200D01*
G75*
G02*
X115886000Y-76483201I0J249999D01*
G01*
X115886000Y-75783199D01*
G75*
G02*
X116135999Y-75533200I249999J0D01*
G01*
X117036001Y-75533200D01*
G75*
G02*
X117286000Y-75783199I0J-249999D01*
G01*
X117286000Y-76483201D01*
G75*
G02*
X117036001Y-76733200I-249999J0D01*
G01*
G37*
G04 #@! TD.AperFunction*
D12*
X94640400Y-82194400D03*
X105714808Y-85039200D03*
X100634800Y-86105996D03*
X93544631Y-80094187D03*
X94437200Y-80094187D03*
X91729436Y-80602209D03*
X92506800Y-80602209D03*
X96977200Y-82194400D03*
X96250189Y-82193269D03*
X95453200Y-82194400D03*
X88239600Y-89966800D03*
X86512400Y-89966800D03*
X96674349Y-80096035D03*
X81178398Y-98229765D03*
X81127600Y-86614000D03*
X82245200Y-97975754D03*
X83667600Y-85953600D03*
X82905600Y-82042000D03*
X81432400Y-82042000D03*
X98241448Y-79346620D03*
X93037031Y-97457523D03*
X91276803Y-96531600D03*
X99060000Y-79298800D03*
X93379157Y-96816043D03*
X91290150Y-95804711D03*
X97485200Y-80060800D03*
X36626800Y-92456000D03*
X82346800Y-102362000D03*
X82346800Y-104140000D03*
X67310000Y-104241600D03*
X60960014Y-104241600D03*
X35509200Y-102362000D03*
X36830000Y-102362000D03*
X41249600Y-102362000D03*
X45669200Y-102362000D03*
X50139600Y-102362000D03*
X51460400Y-102362000D03*
X41971550Y-104861950D03*
X45720000Y-104241600D03*
X50698400Y-104241600D03*
X69748400Y-104140000D03*
X74879200Y-104140000D03*
X75539600Y-102362000D03*
X74218800Y-102362000D03*
X92680700Y-104575700D03*
X93167200Y-102362000D03*
X88696800Y-102362000D03*
X87376000Y-102362000D03*
X102057200Y-102362000D03*
X97637600Y-102362000D03*
X78536800Y-102412800D03*
X50088800Y-92506800D03*
X59639200Y-93776800D03*
X59639200Y-97129600D03*
X69799200Y-102362000D03*
X56184800Y-86868000D03*
X103378000Y-102362000D03*
X69410290Y-85648802D03*
X86360000Y-87782400D03*
X87579200Y-84226400D03*
X93776800Y-87833200D03*
X71882000Y-95605600D03*
X102412800Y-94894400D03*
X102412800Y-97704277D03*
X105816400Y-94843600D03*
X91135200Y-87832700D03*
X80400598Y-86969600D03*
X96672404Y-84429600D03*
X105816400Y-86156798D03*
X81584800Y-112471200D03*
X81751449Y-120192809D03*
X89154000Y-110693200D03*
X80568800Y-120243600D03*
X91287600Y-110388400D03*
X92113455Y-110146856D03*
X91059000Y-112242600D03*
X96570800Y-118567200D03*
X94945200Y-111506000D03*
X97536000Y-118567200D03*
X95853882Y-111279580D03*
X96316800Y-112301310D03*
X97553490Y-112301310D03*
X118584690Y-77368400D03*
X109224800Y-87625200D03*
X83058000Y-89814400D03*
X49377600Y-89916000D03*
X54457600Y-89916000D03*
X63195200Y-89916000D03*
X41724279Y-89916000D03*
X108966000Y-89865200D03*
X75438000Y-89916002D03*
X93776800Y-82448400D03*
X109016800Y-80721200D03*
X84937600Y-84480400D03*
X85445600Y-82143600D03*
X84785200Y-90492279D03*
X128219200Y-95656400D03*
X54762400Y-82346800D03*
X54508400Y-86106000D03*
X51308000Y-83515200D03*
X38825300Y-83653500D03*
X60198000Y-103225600D03*
X59029600Y-103225600D03*
X36169600Y-103225600D03*
X34950400Y-103225600D03*
X50850800Y-103225600D03*
X52070000Y-103225600D03*
X48260000Y-103225600D03*
X38709600Y-103225600D03*
X72339200Y-103225600D03*
X62382400Y-105968800D03*
X62788800Y-103225600D03*
X76047600Y-103225600D03*
X74828400Y-103225600D03*
X87974850Y-103287150D03*
X100134500Y-107078700D03*
X51028600Y-91109802D03*
X63491242Y-83320756D03*
X62839600Y-101092000D03*
X63195199Y-91186000D03*
X106019600Y-83515200D03*
X102768400Y-103124000D03*
X86766400Y-103225600D03*
X75641200Y-83515200D03*
X87630000Y-83413600D03*
X79502000Y-91135200D03*
X96621600Y-83464398D03*
X90525600Y-110744000D03*
X111404400Y-91135200D03*
X111353600Y-83566000D03*
X49428400Y-87376000D03*
X54508400Y-87376000D03*
X63246000Y-87376004D03*
X70459600Y-80873600D03*
X109372400Y-76149200D03*
X41724279Y-87376000D03*
X53797200Y-79197200D03*
X46075600Y-91186000D03*
X43010110Y-91186000D03*
X46177200Y-89255600D03*
X43383200Y-89255600D03*
X44704000Y-81330800D03*
X43018843Y-81237957D03*
X46126400Y-88087200D03*
X43738800Y-88087200D03*
X46278800Y-97536000D03*
X43281600Y-94488000D03*
X46075600Y-86868000D03*
X44094402Y-86868000D03*
X46926500Y-96939100D03*
X44061572Y-94476586D03*
X46126400Y-86106000D03*
X44754800Y-86004400D03*
X41960800Y-84785200D03*
X44788490Y-94488314D03*
X47488005Y-96312390D03*
X46193011Y-84836000D03*
X45077090Y-84785200D03*
X42349710Y-83972400D03*
X48768000Y-96570800D03*
X45567600Y-94488000D03*
X45593000Y-83591400D03*
X40335200Y-81991200D03*
X62382400Y-80939410D03*
X56388000Y-84277210D03*
X61214000Y-81635600D03*
X57150000Y-85293200D03*
X56692800Y-79197200D03*
X58166000Y-79197200D03*
X33477200Y-91186000D03*
X31597600Y-91135200D03*
X33477200Y-89916000D03*
X32037310Y-89916000D03*
X39306500Y-93891100D03*
X32291321Y-88544399D03*
X33526344Y-88595200D03*
X37490396Y-90576400D03*
X39941500Y-96405700D03*
X37388800Y-88595200D03*
X33832812Y-87376000D03*
X32291313Y-87372986D03*
X40538400Y-100838000D03*
X33104110Y-100838000D03*
X33426388Y-86106000D03*
X32799343Y-82499200D03*
X41846500Y-101434900D03*
X32613600Y-101447604D03*
X93801700Y-83387700D03*
X84378800Y-82753200D03*
X100330000Y-80162400D03*
X119735600Y-80162400D03*
X107442000Y-80162400D03*
X109270800Y-86715600D03*
X118584690Y-75336400D03*
X36880800Y-112166400D03*
X39116000Y-111556800D03*
X39928800Y-110693200D03*
X40576500Y-110274100D03*
X37795200Y-112166400D03*
X54660802Y-111132899D03*
X42463775Y-110847364D03*
X54666437Y-110405909D03*
X43116500Y-110299504D03*
X72440800Y-110617000D03*
X68529200Y-110439200D03*
X72288400Y-111963208D03*
X71736943Y-111073657D03*
X74828400Y-111048800D03*
X74828400Y-119786400D03*
X49377599Y-88595199D03*
X54457600Y-88646000D03*
X63195200Y-88595200D03*
X41724279Y-88646000D03*
X75488800Y-88595200D03*
X109270800Y-88595200D03*
X83058000Y-91846400D03*
X67614800Y-79197200D03*
X67441159Y-100889084D03*
X67324557Y-95737312D03*
X68732400Y-79197200D03*
X66714158Y-100884994D03*
X67816708Y-95202211D03*
X34861500Y-107048300D03*
X51968400Y-107035600D03*
X58928000Y-107035600D03*
X76098400Y-107035600D03*
X105918000Y-108254800D03*
X127355600Y-108254800D03*
X126949200Y-85699600D03*
X69748400Y-79197200D03*
X65938402Y-100939600D03*
X68329916Y-94687270D03*
X62534800Y-110591600D03*
X62484000Y-120294400D03*
X63500000Y-110947200D03*
X63500000Y-120294400D03*
X66497200Y-92456000D03*
X78587600Y-94183200D03*
X83261203Y-94183203D03*
X110675710Y-86055202D03*
X107340400Y-93624400D03*
X84175600Y-93624400D03*
X78638400Y-93268800D03*
X49326802Y-91948000D03*
X41775079Y-91795600D03*
X41452800Y-93726000D03*
X49174400Y-93726000D03*
X51054000Y-93726000D03*
X58724800Y-94996000D03*
X60131323Y-94996000D03*
X62806290Y-94995991D03*
X79079790Y-83515200D03*
X80568800Y-82753200D03*
X100634800Y-86918800D03*
X78468590Y-86055200D03*
X94792800Y-88849200D03*
X96570800Y-87223600D03*
D13*
X86327200Y-76690000D02*
X87426800Y-77789600D01*
X87426800Y-77789600D02*
X87426800Y-81889600D01*
X94340401Y-81894401D02*
X94640400Y-82194400D01*
X87431601Y-81894401D02*
X94340401Y-81894401D01*
X87426800Y-81889600D02*
X87431601Y-81894401D01*
X105714808Y-85039200D02*
X105298022Y-84622414D01*
X102118382Y-84622414D02*
X100634800Y-86105996D01*
X105298022Y-84622414D02*
X102118382Y-84622414D01*
X92862400Y-75369200D02*
X94081600Y-74150000D01*
X92862400Y-79411956D02*
X92862400Y-75369200D01*
X93544631Y-80094187D02*
X92862400Y-79411956D01*
X94081600Y-79738587D02*
X94437200Y-80094187D01*
X94081600Y-76690000D02*
X94081600Y-79738587D01*
X90424000Y-75267600D02*
X91541600Y-74150000D01*
X90424000Y-79296773D02*
X90424000Y-75267600D01*
X91729436Y-80602209D02*
X90424000Y-79296773D01*
X92506800Y-77655200D02*
X91541600Y-76690000D01*
X92506800Y-80602209D02*
X92506800Y-77655200D01*
X90170000Y-80019138D02*
X91278440Y-81127578D01*
X91278440Y-81127578D02*
X95910378Y-81127578D01*
X95910378Y-81127578D02*
X96977200Y-82194400D01*
X90170000Y-75318400D02*
X90170000Y-80019138D01*
X89001600Y-74150000D02*
X90170000Y-75318400D01*
X89001600Y-76690000D02*
X88151601Y-77539999D01*
X88151601Y-77539999D02*
X88151601Y-80864474D01*
X95438509Y-81381589D02*
X96250189Y-82193269D01*
X88668716Y-81381589D02*
X95438509Y-81381589D01*
X88151601Y-80864474D02*
X88668716Y-81381589D01*
X87680802Y-75369202D02*
X87680802Y-81635600D01*
X87680802Y-81635600D02*
X94894400Y-81635600D01*
X94894400Y-81635600D02*
X95453200Y-82194400D01*
X86461600Y-74150000D02*
X87680802Y-75369202D01*
X88239600Y-89966800D02*
X86512400Y-89966800D01*
X86512400Y-89966800D02*
X86563200Y-89966800D01*
X96621600Y-80043286D02*
X96674349Y-80096035D01*
X96621600Y-76690000D02*
X96621600Y-80043286D01*
X81178398Y-86664798D02*
X81127600Y-86614000D01*
X81178398Y-98229765D02*
X81178398Y-86664798D01*
X83667600Y-87630000D02*
X83667600Y-85953600D01*
X82245200Y-89052400D02*
X83667600Y-87630000D01*
X82245200Y-97975754D02*
X82245200Y-89052400D01*
X82905600Y-82042000D02*
X81432400Y-82042000D01*
X81432400Y-82042000D02*
X81432400Y-82042000D01*
X98077310Y-79182482D02*
X98241448Y-79346620D01*
X99161600Y-74150000D02*
X98077310Y-75234290D01*
X98077310Y-75234290D02*
X98077310Y-79182482D01*
X93037031Y-97457523D02*
X92111108Y-96531600D01*
X92111108Y-96531600D02*
X91276803Y-96531600D01*
X99161600Y-76690000D02*
X99161600Y-79197200D01*
X99161600Y-79197200D02*
X99060000Y-79298800D01*
X92367825Y-95804711D02*
X91290150Y-95804711D01*
X93379157Y-96816043D02*
X92367825Y-95804711D01*
X96621600Y-74150000D02*
X97688400Y-75216800D01*
X97688400Y-79857600D02*
X97485200Y-80060800D01*
X97688400Y-75216800D02*
X97688400Y-79857600D01*
D14*
X50088800Y-86140200D02*
X50101500Y-86127500D01*
X36626800Y-92456000D02*
X36626800Y-92456000D01*
D15*
X124577000Y-97000000D02*
X124577000Y-102143400D01*
X124577000Y-102143400D02*
X124358400Y-102362000D01*
X82346800Y-102362000D02*
X82346800Y-102362000D01*
D13*
X92680700Y-102492900D02*
X92811600Y-102362000D01*
X92680700Y-105918000D02*
X92680700Y-104575700D01*
D15*
X92811600Y-102362000D02*
X88696800Y-102362000D01*
X124358400Y-102362000D02*
X103378000Y-102362000D01*
X67382300Y-104140000D02*
X67310000Y-104241600D01*
X82346800Y-104140000D02*
X74879200Y-104140000D01*
X67310000Y-104241600D02*
X65604300Y-105918000D01*
X42591900Y-104241600D02*
X41971550Y-104861950D01*
X56032400Y-104241600D02*
X50698400Y-104241600D01*
X60299600Y-118313200D02*
X60299600Y-111506000D01*
X56032400Y-110032800D02*
X56032400Y-104241600D01*
X60292599Y-118320201D02*
X60299600Y-118313200D01*
X57309401Y-118320201D02*
X60292599Y-118320201D01*
X60299600Y-111506000D02*
X57505600Y-111506000D01*
X57505600Y-111506000D02*
X56032400Y-110032800D01*
X56032400Y-117043200D02*
X57309401Y-118320201D01*
X56032400Y-104241600D02*
X60960014Y-104241600D01*
X35509200Y-102362000D02*
X35509200Y-102362000D01*
X36830000Y-102362000D02*
X35509200Y-102362000D01*
X41249600Y-102362000D02*
X36830000Y-102362000D01*
X45669200Y-102362000D02*
X41249600Y-102362000D01*
X50139600Y-102362000D02*
X45669200Y-102362000D01*
X51460400Y-102362000D02*
X50139600Y-102362000D01*
X41971550Y-104861950D02*
X40915500Y-105918000D01*
X45720000Y-104241600D02*
X42591900Y-104241600D01*
X50698400Y-104241600D02*
X45720000Y-104241600D01*
X69748400Y-104140000D02*
X67382300Y-104140000D01*
X74879200Y-104140000D02*
X69748400Y-104140000D01*
X75539600Y-102362000D02*
X74218800Y-102362000D01*
D13*
X92680700Y-104575700D02*
X92680700Y-102492900D01*
D15*
X93167200Y-102362000D02*
X92811600Y-102362000D01*
X88696800Y-102362000D02*
X87376000Y-102362000D01*
X87376000Y-102362000D02*
X82346800Y-102362000D01*
X102057200Y-102362000D02*
X97637600Y-102362000D01*
X97637600Y-102362000D02*
X93167200Y-102362000D01*
X83921600Y-74150000D02*
X83921600Y-76690000D01*
X75539600Y-102362000D02*
X78486000Y-102362000D01*
X78486000Y-102362000D02*
X78536800Y-102412800D01*
D14*
X36626800Y-86095700D02*
X36626800Y-92456000D01*
X36994000Y-85728500D02*
X36626800Y-86095700D01*
X37719000Y-85728500D02*
X36994000Y-85728500D01*
D13*
X50088800Y-92506800D02*
X50101500Y-92494100D01*
X50088800Y-102311200D02*
X50139600Y-102362000D01*
X50101500Y-86127500D02*
X50088800Y-92506800D01*
X50088800Y-92506800D02*
X50088800Y-102311200D01*
X59639200Y-93776800D02*
X59639200Y-93776800D01*
X59639200Y-93776800D02*
X59639200Y-97129600D01*
X59639200Y-97129600D02*
X59639200Y-97129600D01*
D15*
X69799200Y-102362000D02*
X51460400Y-102362000D01*
D13*
X62115700Y-85728500D02*
X61832800Y-85445600D01*
X60976200Y-86868000D02*
X56184800Y-86868000D01*
X62115700Y-85728500D02*
X60976200Y-86868000D01*
X104881600Y-85677700D02*
X104981700Y-85677700D01*
X104881600Y-85677700D02*
X104881600Y-85933200D01*
X102412800Y-96977200D02*
X102412800Y-96977200D01*
D15*
X103378000Y-102362000D02*
X102057200Y-102362000D01*
X74218800Y-102362000D02*
X71628000Y-102362000D01*
X71628000Y-102362000D02*
X69799200Y-102362000D01*
D13*
X69449680Y-85677700D02*
X69439188Y-85677700D01*
X69439188Y-85677700D02*
X69410290Y-85648802D01*
X69732580Y-85394800D02*
X69449680Y-85677700D01*
X74139100Y-85394800D02*
X69732580Y-85394800D01*
X74422000Y-85677700D02*
X74139100Y-85394800D01*
X86360000Y-85677700D02*
X86360000Y-87782400D01*
X86360000Y-87782400D02*
X86360000Y-87782400D01*
X86360000Y-85677700D02*
X86360000Y-85496400D01*
X86360000Y-85677700D02*
X86360000Y-85445600D01*
X86360000Y-85445600D02*
X87579200Y-84226400D01*
X87579200Y-84226400D02*
X87579200Y-84226400D01*
X95351600Y-85677700D02*
X95351600Y-86258400D01*
X95351600Y-86258400D02*
X93776800Y-87833200D01*
X93776800Y-87833200D02*
X93776800Y-87833200D01*
X71882000Y-96029864D02*
X71882000Y-95605600D01*
X71628000Y-102362000D02*
X71882000Y-102108000D01*
X71882000Y-102108000D02*
X71882000Y-96029864D01*
X102412800Y-97704277D02*
X102412800Y-94894400D01*
X102412800Y-94894400D02*
X105765600Y-94894400D01*
X105765600Y-94894400D02*
X105816400Y-94843600D01*
X95351600Y-85677700D02*
X96599700Y-84429600D01*
X96599700Y-84429600D02*
X96672404Y-84429600D01*
X105794500Y-86134898D02*
X105816400Y-86156798D01*
X104495600Y-85677700D02*
X105337302Y-85677700D01*
X105337302Y-85677700D02*
X105816400Y-86156798D01*
X81584800Y-119735600D02*
X81584800Y-119735600D01*
X81584800Y-120026160D02*
X81751449Y-120192809D01*
X81584800Y-112471200D02*
X81584800Y-120026160D01*
X89154000Y-110693200D02*
X82636858Y-110693200D01*
X82636858Y-110693200D02*
X80568800Y-112761258D01*
X80568800Y-112761258D02*
X80568800Y-120243600D01*
X91287600Y-110388400D02*
X91287600Y-110388400D01*
X91287600Y-110388400D02*
X91287600Y-110388400D01*
X116967000Y-117043200D02*
X115926499Y-116002699D01*
X115926499Y-116002699D02*
X115926499Y-114003759D01*
X112611139Y-110688399D02*
X91587599Y-110688399D01*
X115926499Y-114003759D02*
X112611139Y-110688399D01*
X91587599Y-110688399D02*
X91287600Y-110388400D01*
X116967000Y-114503200D02*
X112610656Y-110146856D01*
X112610656Y-110146856D02*
X92113455Y-110146856D01*
X91059000Y-112242600D02*
X90526499Y-112775101D01*
X91084400Y-112217200D02*
X91059000Y-112242600D01*
X89526441Y-115543701D02*
X90373200Y-114696942D01*
X90373200Y-114696942D02*
X90373200Y-112928400D01*
X87986499Y-115543701D02*
X89526441Y-115543701D01*
X90373200Y-112928400D02*
X91084400Y-112217200D01*
X86487000Y-117043200D02*
X87986499Y-115543701D01*
X96570800Y-118567200D02*
X96570800Y-118567200D01*
X98247200Y-111829359D02*
X98223840Y-111805999D01*
X98223840Y-111805999D02*
X95245199Y-111805999D01*
X98247200Y-116890800D02*
X98247200Y-111829359D01*
X95245199Y-111805999D02*
X94945200Y-111506000D01*
X96570800Y-118567200D02*
X98247200Y-116890800D01*
X97536000Y-118567200D02*
X97536000Y-118821200D01*
X98293146Y-111279580D02*
X95853882Y-111279580D01*
X98602800Y-117500400D02*
X98602800Y-111589234D01*
X98602800Y-111589234D02*
X98293146Y-111279580D01*
X97536000Y-118567200D02*
X98602800Y-117500400D01*
X92707275Y-115543701D02*
X96316800Y-115543701D01*
X84987501Y-118083701D02*
X87445439Y-118083701D01*
X92453265Y-115797711D02*
X92707275Y-115543701D01*
X87445439Y-118083701D02*
X87986499Y-117542641D01*
X83947000Y-117043200D02*
X84987501Y-118083701D01*
X87986499Y-117542641D02*
X87986499Y-116543759D01*
X87986499Y-116543759D02*
X88732547Y-115797711D01*
X88732547Y-115797711D02*
X92453265Y-115797711D01*
X96316800Y-115543701D02*
X96316800Y-112301310D01*
X96723200Y-115976400D02*
X96723200Y-113131600D01*
X92633800Y-115976400D02*
X96723200Y-115976400D01*
X91567000Y-117043200D02*
X92633800Y-115976400D01*
X96723200Y-113131600D02*
X97553490Y-112301310D01*
X124577000Y-79220000D02*
X123282489Y-77925489D01*
X117349490Y-76133200D02*
X118584690Y-77368400D01*
X119141779Y-77925489D02*
X118584690Y-77368400D01*
X116586000Y-76133200D02*
X117349490Y-76133200D01*
X123282489Y-77925489D02*
X119141779Y-77925489D01*
X83058011Y-90982789D02*
X83058000Y-90982800D01*
X83058000Y-90982800D02*
X83058000Y-90982800D01*
X83058011Y-89814411D02*
X83058000Y-89814400D01*
X83058011Y-90982789D02*
X83058011Y-89814411D01*
X49377600Y-89916000D02*
X49377600Y-89916000D01*
X62941200Y-89916000D02*
X62941200Y-89916000D01*
X54457600Y-89916000D02*
X63195200Y-89916000D01*
X49377600Y-89916000D02*
X41724279Y-89916000D01*
X75488800Y-89916000D02*
X75438002Y-89916000D01*
X75437998Y-89916000D02*
X75438000Y-89916002D01*
X75438002Y-89916000D02*
X75438000Y-89916002D01*
X63195200Y-89916000D02*
X75437998Y-89916000D01*
X110185200Y-88646000D02*
X108966000Y-89865200D01*
X110185200Y-81889600D02*
X110185200Y-88646000D01*
X109016800Y-80721200D02*
X110185200Y-81889600D01*
X93776800Y-82448400D02*
X85750400Y-82448400D01*
X85750400Y-82448400D02*
X85445600Y-82143600D01*
X84937600Y-90339879D02*
X84785200Y-90492279D01*
X84937600Y-84480400D02*
X84937600Y-90339879D01*
X123380600Y-95656400D02*
X122037000Y-97000000D01*
X128219200Y-95656400D02*
X123380600Y-95656400D01*
X54762400Y-85852000D02*
X54508400Y-86106000D01*
X54762400Y-82346800D02*
X54762400Y-85852000D01*
D14*
X50101500Y-84052500D02*
X50770700Y-84052500D01*
X50770700Y-84052500D02*
X51308000Y-83515200D01*
X51308000Y-83515200D02*
X51308000Y-83515200D01*
X37719000Y-83653500D02*
X37719000Y-83591400D01*
X37719000Y-83591400D02*
X37744400Y-83616800D01*
X37719000Y-83653500D02*
X38825300Y-83653500D01*
X38825300Y-83653500D02*
X38825300Y-83653500D01*
D16*
X112224000Y-74140000D02*
X112217200Y-74133200D01*
X122037000Y-74140000D02*
X112224000Y-74140000D01*
X38825300Y-83653500D02*
X38825300Y-80684500D01*
X38825300Y-80684500D02*
X39347400Y-80162400D01*
X51308000Y-83515200D02*
X51308000Y-80162400D01*
X41126500Y-103632000D02*
X38840500Y-105918000D01*
D13*
X75488800Y-80314800D02*
X75641200Y-80162400D01*
D16*
X63093600Y-80162400D02*
X75641200Y-80162400D01*
X33172400Y-117043200D02*
X35712400Y-117043200D01*
X32004000Y-115874800D02*
X33172400Y-117043200D01*
X32004000Y-104851200D02*
X32004000Y-115874800D01*
X33629600Y-103225600D02*
X32004000Y-104851200D01*
X40720100Y-103225600D02*
X38709600Y-103225600D01*
X41126500Y-103632000D02*
X40720100Y-103225600D01*
X41532900Y-103225600D02*
X41126500Y-103632000D01*
X80975200Y-103225600D02*
X76047600Y-103225600D01*
X87913300Y-103225600D02*
X87974850Y-103287150D01*
X80975200Y-103225600D02*
X86766400Y-103225600D01*
X63449200Y-105837900D02*
X63529300Y-105918000D01*
X63449200Y-103225600D02*
X63449200Y-105837900D01*
X60198000Y-103225600D02*
X59029600Y-103225600D01*
X59029600Y-103225600D02*
X52070000Y-103225600D01*
X36169600Y-103225600D02*
X34950400Y-103225600D01*
X34950400Y-103225600D02*
X33629600Y-103225600D01*
X50850800Y-103225600D02*
X48260000Y-103225600D01*
X52070000Y-103225600D02*
X50850800Y-103225600D01*
X48260000Y-103225600D02*
X41532900Y-103225600D01*
X38709600Y-103225600D02*
X36169600Y-103225600D01*
X72339200Y-103225600D02*
X62788800Y-103225600D01*
D13*
X62433200Y-105918000D02*
X62382400Y-105968800D01*
X63529300Y-105918000D02*
X62433200Y-105918000D01*
D16*
X62788800Y-103225600D02*
X60198000Y-103225600D01*
X76047600Y-103225600D02*
X74828400Y-103225600D01*
X74828400Y-103225600D02*
X72339200Y-103225600D01*
X90627200Y-105939500D02*
X90605700Y-105918000D01*
X87974850Y-103287150D02*
X90605700Y-105918000D01*
D13*
X100134500Y-107078700D02*
X90721100Y-107078700D01*
X90721100Y-107078700D02*
X90627200Y-106984800D01*
D16*
X90627200Y-106984800D02*
X90627200Y-105939500D01*
X112217200Y-73543372D02*
X109133428Y-70459600D01*
X112217200Y-74133200D02*
X112217200Y-73543372D01*
X106680000Y-76588400D02*
X106781600Y-76690000D01*
X106680000Y-70459600D02*
X106680000Y-76588400D01*
X109133428Y-70459600D02*
X106680000Y-70459600D01*
X39347400Y-80162400D02*
X51308000Y-80162400D01*
D13*
X51017010Y-91098212D02*
X51028600Y-91109802D01*
X51017010Y-91070590D02*
X51017010Y-91098212D01*
X51028600Y-84254600D02*
X51028600Y-91109802D01*
X50101500Y-84052500D02*
X50826500Y-84052500D01*
X50826500Y-84052500D02*
X51028600Y-84254600D01*
X63158498Y-83653500D02*
X63491242Y-83320756D01*
X63491242Y-82896492D02*
X63491242Y-83320756D01*
X62115700Y-83653500D02*
X63158498Y-83653500D01*
X63093600Y-80162400D02*
X63491242Y-80560042D01*
X63463044Y-83320756D02*
X63491242Y-83320756D01*
X63130300Y-83653500D02*
X63463044Y-83320756D01*
X63491242Y-80560042D02*
X63491242Y-82896492D01*
D16*
X62636400Y-80162400D02*
X63093600Y-80162400D01*
X51308000Y-80162400D02*
X62636400Y-80162400D01*
D13*
X63491242Y-83320756D02*
X64325181Y-83320756D01*
X63296800Y-91287601D02*
X63195199Y-91186000D01*
X63296800Y-100634800D02*
X63296800Y-91287601D01*
X62839600Y-101092000D02*
X63296800Y-100634800D01*
X104969100Y-83515200D02*
X104881600Y-83602700D01*
X106019600Y-83515200D02*
X104969100Y-83515200D01*
X106781600Y-81702700D02*
X106781600Y-76690000D01*
X104881600Y-83602700D02*
X106781600Y-81702700D01*
X100134500Y-107078700D02*
X100134500Y-105757900D01*
X100134500Y-105757900D02*
X102768400Y-103124000D01*
X102768400Y-103124000D02*
X102768400Y-103124000D01*
D16*
X86766400Y-103225600D02*
X87913300Y-103225600D01*
D13*
X75553700Y-83602700D02*
X75641200Y-83515200D01*
X74422000Y-83602700D02*
X75553700Y-83602700D01*
X86360000Y-83602700D02*
X86932900Y-83602700D01*
X87122000Y-83413600D02*
X87630000Y-83413600D01*
X86932900Y-83602700D02*
X87122000Y-83413600D01*
D16*
X79502000Y-103225600D02*
X80975200Y-103225600D01*
X79502000Y-91135200D02*
X79502000Y-103225600D01*
D13*
X96607500Y-83602700D02*
X96637132Y-83602700D01*
X95351600Y-83602700D02*
X96637132Y-83602700D01*
X96637132Y-83602700D02*
X96637132Y-83479930D01*
X96637132Y-83479930D02*
X96621600Y-83464398D01*
D16*
X93257001Y-113475401D02*
X90525600Y-110744000D01*
X94107000Y-114503200D02*
X93257001Y-113653201D01*
X93257001Y-113653201D02*
X93257001Y-113475401D01*
X90627200Y-106984800D02*
X90525600Y-107086400D01*
X90525600Y-107086400D02*
X90525600Y-110744000D01*
D13*
X104495600Y-83602700D02*
X104653398Y-83602700D01*
X111404400Y-91135200D02*
X111353600Y-83566000D01*
X111353600Y-83566000D02*
X111404400Y-83616800D01*
X104444800Y-83616800D02*
X104458900Y-83602700D01*
X104430700Y-83602700D02*
X104444800Y-83616800D01*
X104458900Y-83602700D02*
X104495600Y-83602700D01*
X95351600Y-83602700D02*
X104430700Y-83602700D01*
X49428400Y-87376000D02*
X49428400Y-87376000D01*
X128066800Y-88430200D02*
X124577000Y-91920000D01*
X128066800Y-80416400D02*
X128066800Y-88430200D01*
X122836970Y-78179499D02*
X123291600Y-78634129D01*
X114263499Y-78179499D02*
X122836970Y-78179499D01*
X112217200Y-76133200D02*
X114263499Y-78179499D01*
X123291600Y-80416400D02*
X128066800Y-80416400D01*
X123291600Y-78634129D02*
X123291600Y-80416400D01*
X63042800Y-87376000D02*
X63042800Y-87376000D01*
X63245996Y-87376000D02*
X63246000Y-87376004D01*
X54508400Y-87376000D02*
X63245996Y-87376000D01*
X70459600Y-80873600D02*
X70459600Y-80924400D01*
X109388400Y-76133200D02*
X109372400Y-76149200D01*
X112217200Y-76133200D02*
X109388400Y-76133200D01*
X66598800Y-80873600D02*
X70459600Y-80873600D01*
X66598800Y-87071200D02*
X66598800Y-80873600D01*
X66293996Y-87376004D02*
X66598800Y-87071200D01*
X63246000Y-87376004D02*
X66293996Y-87376004D01*
X49428400Y-87376000D02*
X49004136Y-87376000D01*
X49004136Y-87376000D02*
X41724279Y-87376000D01*
X35789000Y-79121400D02*
X35789000Y-76690000D01*
X35864800Y-79197200D02*
X35789000Y-79121400D01*
X53797200Y-79197200D02*
X35864800Y-79197200D01*
X43383200Y-91186000D02*
X43383200Y-91186000D01*
X46075600Y-91186000D02*
X43010110Y-91186000D01*
X46177200Y-89255600D02*
X43383200Y-89255600D01*
X43383200Y-89255600D02*
X43383200Y-89255600D01*
X44704000Y-81330800D02*
X44704000Y-81330800D01*
X44704000Y-81330800D02*
X43111686Y-81330800D01*
X43111686Y-81330800D02*
X43018843Y-81237957D01*
X44094400Y-88087200D02*
X43738800Y-88087200D01*
X46126400Y-88087200D02*
X44094400Y-88087200D01*
X46278800Y-97536000D02*
X43230800Y-94488000D01*
X43992800Y-95250000D02*
X43230800Y-94488000D01*
X43230800Y-94488000D02*
X43281600Y-94488000D01*
X46075600Y-86868000D02*
X46024800Y-86969600D01*
X46075600Y-86868000D02*
X44094402Y-86868000D01*
X44043600Y-94502742D02*
X44043600Y-94494558D01*
X44061572Y-94900850D02*
X44061572Y-94476586D01*
X44043600Y-94494558D02*
X44061572Y-94476586D01*
X46099822Y-96939100D02*
X44061572Y-94900850D01*
X46926500Y-96939100D02*
X46099822Y-96939100D01*
X44805600Y-86106000D02*
X44704000Y-86004400D01*
X46126400Y-86106000D02*
X44805600Y-86106000D01*
X44754800Y-86004400D02*
X43129200Y-86004400D01*
X43129200Y-86004400D02*
X41960800Y-84785200D01*
X41960800Y-84785200D02*
X41960800Y-84836000D01*
X44841658Y-94488000D02*
X44788804Y-94488000D01*
X44788804Y-94488000D02*
X44788490Y-94488314D01*
X44788490Y-94912578D02*
X46188302Y-96312390D01*
X46188302Y-96312390D02*
X47488005Y-96312390D01*
X44788490Y-94488314D02*
X44788490Y-94912578D01*
X46193011Y-84836000D02*
X45127890Y-84836000D01*
X45127890Y-84836000D02*
X45077090Y-84785200D01*
X42316400Y-83972400D02*
X42316400Y-83972400D01*
X45077090Y-84785200D02*
X43162510Y-84785200D01*
X43162510Y-84785200D02*
X42349710Y-83972400D01*
X45516800Y-94437200D02*
X45516800Y-94437200D01*
X48768000Y-96570800D02*
X46685200Y-94488000D01*
X46685200Y-94488000D02*
X45567600Y-94488000D01*
X40335200Y-81991200D02*
X40335200Y-81991200D01*
X40386000Y-82042000D02*
X40335200Y-81991200D01*
X44043600Y-82042000D02*
X40386000Y-82042000D01*
X45593000Y-83591400D02*
X44043600Y-82042000D01*
X62351499Y-80995099D02*
X62382400Y-80964198D01*
X62382400Y-80964198D02*
X62382400Y-80939410D01*
X62382400Y-80939410D02*
X59725800Y-80939410D01*
X59725800Y-80939410D02*
X56388000Y-84277210D01*
X61214000Y-81635600D02*
X61214000Y-81635600D01*
X57150000Y-83921600D02*
X57150000Y-85293200D01*
X59436000Y-81635600D02*
X57150000Y-83921600D01*
X61214000Y-81635600D02*
X59436000Y-81635600D01*
X57404000Y-75395000D02*
X58649000Y-74150000D01*
X57404000Y-78486000D02*
X57404000Y-75395000D01*
X56692800Y-79197200D02*
X57404000Y-78486000D01*
X58623200Y-76715800D02*
X58649000Y-76690000D01*
X58623200Y-78740000D02*
X58623200Y-76715800D01*
X58166000Y-79197200D02*
X58623200Y-78740000D01*
X31648400Y-91186000D02*
X31597600Y-91135200D01*
X33477200Y-91186000D02*
X31648400Y-91186000D01*
X33477200Y-89916000D02*
X32037310Y-89916000D01*
X32291321Y-88544399D02*
X33475543Y-88544399D01*
X33475543Y-88544399D02*
X33526344Y-88595200D01*
D14*
X39306500Y-92392500D02*
X37490400Y-90576400D01*
X37490400Y-90576400D02*
X37490396Y-90576400D01*
X39306500Y-93891100D02*
X39306500Y-92392500D01*
D13*
X37388800Y-89763600D02*
X37388800Y-88595200D01*
X39928800Y-92303600D02*
X37388800Y-89763600D01*
X39928800Y-96393000D02*
X39928800Y-92303600D01*
X39941500Y-96405700D02*
X39928800Y-96393000D01*
X32294327Y-87376000D02*
X32291313Y-87372986D01*
X33829798Y-87372986D02*
X33832812Y-87376000D01*
X32291313Y-87372986D02*
X33829798Y-87372986D01*
X40538400Y-100838000D02*
X40538400Y-100838000D01*
X40538400Y-100838000D02*
X33104110Y-100838000D01*
X32562800Y-82499200D02*
X32562800Y-82499200D01*
X33426388Y-86106000D02*
X32799343Y-85478955D01*
X32799343Y-85478955D02*
X32799343Y-82499200D01*
X41846500Y-101434900D02*
X32626304Y-101434900D01*
X32626304Y-101434900D02*
X32613600Y-101447604D01*
X93801700Y-83387700D02*
X93167200Y-82753200D01*
X93167200Y-82753200D02*
X84378800Y-82753200D01*
X100279200Y-80162400D02*
X100330000Y-80162400D01*
X97616910Y-82824690D02*
X100279200Y-80162400D01*
X94364710Y-82824690D02*
X97616910Y-82824690D01*
X93801700Y-83387700D02*
X94364710Y-82824690D01*
X100330000Y-80162400D02*
X100330000Y-80162400D01*
X119735600Y-80162400D02*
X107442000Y-80162400D01*
X107442000Y-80162400D02*
X107442000Y-80162400D01*
X109270800Y-86715600D02*
X109270800Y-86715600D01*
X124577000Y-74140000D02*
X123380600Y-75336400D01*
X123380600Y-75336400D02*
X118584690Y-75336400D01*
X45923200Y-119532400D02*
X48412400Y-117043200D01*
X38455600Y-119532400D02*
X45923200Y-119532400D01*
X36840902Y-117917702D02*
X38455600Y-119532400D01*
X36880800Y-117917702D02*
X36840902Y-117917702D01*
X36880800Y-112166400D02*
X36880800Y-117917702D01*
X44577889Y-118337711D02*
X45872400Y-117043200D01*
X40187745Y-118337711D02*
X44577889Y-118337711D01*
X39370000Y-117519966D02*
X40187745Y-118337711D01*
X39370000Y-111810800D02*
X39370000Y-117519966D01*
X39116000Y-111556800D02*
X39370000Y-111810800D01*
X42291899Y-118083701D02*
X43332400Y-117043200D01*
X40292959Y-118083701D02*
X42291899Y-118083701D01*
X39628801Y-117419543D02*
X40292959Y-118083701D01*
X39628801Y-110993199D02*
X39628801Y-117419543D01*
X39928800Y-110693200D02*
X39628801Y-110993199D01*
X42113200Y-115722400D02*
X40792400Y-117043200D01*
X42113200Y-111810800D02*
X42113200Y-115722400D01*
X40576500Y-110274100D02*
X42113200Y-111810800D01*
X37211899Y-116002699D02*
X38252400Y-117043200D01*
X37211899Y-112749701D02*
X37211899Y-116002699D01*
X37795200Y-112166400D02*
X37211899Y-112749701D01*
X42512811Y-110896400D02*
X42463775Y-110847364D01*
X54424303Y-110896400D02*
X42512811Y-110896400D01*
X54660802Y-111132899D02*
X54424303Y-110896400D01*
X54660800Y-110439200D02*
X54660800Y-110439200D01*
X43222905Y-110405909D02*
X43116500Y-110299504D01*
X54666437Y-110405909D02*
X43222905Y-110405909D01*
X72440800Y-110617000D02*
X72263000Y-110439200D01*
X68630800Y-110540800D02*
X68529200Y-110439200D01*
X72364600Y-110540800D02*
X68630800Y-110540800D01*
X72440800Y-110617000D02*
X72364600Y-110540800D01*
X72288400Y-115544600D02*
X72288400Y-111963208D01*
X73787000Y-117043200D02*
X72288400Y-115544600D01*
X71247000Y-111563600D02*
X71736943Y-111073657D01*
X71247000Y-114503200D02*
X71247000Y-111563600D01*
X74828400Y-111048800D02*
X74828400Y-119786400D01*
X74828400Y-119786400D02*
X74828400Y-119888000D01*
X62941200Y-88646000D02*
X62941200Y-88646000D01*
X63144400Y-88646000D02*
X63195200Y-88595200D01*
X54457600Y-88646000D02*
X63144400Y-88646000D01*
X63195200Y-88595200D02*
X75488800Y-88595200D01*
X49377599Y-88595199D02*
X41775080Y-88595199D01*
X41775080Y-88595199D02*
X41724279Y-88646000D01*
X75488800Y-88595200D02*
X75488800Y-88595200D01*
X83667600Y-91236800D02*
X83058000Y-91846400D01*
X97231200Y-91236800D02*
X83667600Y-91236800D01*
X99872800Y-88595200D02*
X97231200Y-91236800D01*
X109270800Y-88595200D02*
X99872800Y-88595200D01*
X83058000Y-91846400D02*
X83058000Y-91846400D01*
X67665600Y-79248000D02*
X67665600Y-79248000D01*
X63729000Y-76690000D02*
X66236200Y-79197200D01*
X66236200Y-79197200D02*
X67614800Y-79197200D01*
X67208400Y-100838000D02*
X67208400Y-100838000D01*
X67441159Y-100889084D02*
X67441159Y-95853914D01*
X67441159Y-95853914D02*
X67324557Y-95737312D01*
X68681600Y-79102600D02*
X68681600Y-79102600D01*
X66269000Y-76690000D02*
X68681600Y-79102600D01*
X68681600Y-79102600D02*
X68732400Y-79153400D01*
X68732400Y-79153400D02*
X68732400Y-79197200D01*
X66497200Y-100888800D02*
X66497200Y-100888800D01*
X66714158Y-100884994D02*
X66714158Y-95621769D01*
X66714158Y-95621769D02*
X67133716Y-95202211D01*
X67133716Y-95202211D02*
X67816708Y-95202211D01*
X34861500Y-107048300D02*
X51968400Y-107035600D01*
X51968400Y-107035600D02*
X51955700Y-107048300D01*
X58928000Y-107035600D02*
X76098400Y-107035600D01*
X76098400Y-107035600D02*
X76149200Y-107035600D01*
X124577000Y-86840000D02*
X124589600Y-86840000D01*
X105918000Y-108254800D02*
X105867200Y-108254800D01*
X116535200Y-108254800D02*
X105918000Y-108254800D01*
X127355600Y-108254800D02*
X116535200Y-108254800D01*
X126949200Y-87007800D02*
X126949200Y-85699600D01*
X124577000Y-89380000D02*
X126949200Y-87007800D01*
X66269000Y-74150000D02*
X69748400Y-77629400D01*
X69748400Y-77629400D02*
X69748400Y-79197200D01*
X69748400Y-79197200D02*
X69748400Y-79197200D01*
X65836800Y-100838000D02*
X65836800Y-100838000D01*
X65938402Y-95907849D02*
X67158981Y-94687270D01*
X67158981Y-94687270D02*
X68329916Y-94687270D01*
X65938402Y-100939600D02*
X65938402Y-95907849D01*
X62534800Y-110591600D02*
X62484000Y-110591600D01*
X62484000Y-110591600D02*
X62484000Y-120294400D01*
X62484000Y-120294400D02*
X62484000Y-120294400D01*
X63500000Y-110947200D02*
X63500000Y-120294400D01*
X63500000Y-120294400D02*
X63500000Y-120294400D01*
X68732400Y-92456000D02*
X68732400Y-92456000D01*
X70459600Y-94183200D02*
X78587600Y-94183200D01*
X68732400Y-92456000D02*
X70459600Y-94183200D01*
X66497200Y-92456000D02*
X68732400Y-92456000D01*
X83261203Y-94183203D02*
X101650797Y-94183203D01*
X101650797Y-94183203D02*
X101650800Y-94183200D01*
X110675710Y-92524290D02*
X110675710Y-86055202D01*
X101650797Y-94183203D02*
X109016797Y-94183203D01*
X109016797Y-94183203D02*
X110675710Y-92524290D01*
X107340400Y-93624400D02*
X84175600Y-93624400D01*
X84175600Y-93624400D02*
X84175600Y-93624400D01*
X78638400Y-86055200D02*
X78638400Y-86055200D01*
X41910000Y-91795600D02*
X41910000Y-91795600D01*
X41927479Y-91948000D02*
X41775079Y-91795600D01*
X49326802Y-91948000D02*
X41927479Y-91948000D01*
X41452800Y-93726000D02*
X49174400Y-93726000D01*
X49174400Y-93726000D02*
X49174400Y-93726000D01*
X51054000Y-93726000D02*
X57454800Y-93726000D01*
X57454800Y-93726000D02*
X58724800Y-94996000D01*
X58724800Y-94996000D02*
X58724800Y-94996000D01*
X60131323Y-94996000D02*
X62806281Y-94996000D01*
X62806281Y-94996000D02*
X62806290Y-94995991D01*
X91084900Y-87782400D02*
X91135200Y-87832700D01*
X86360000Y-87782400D02*
X91084900Y-87782400D01*
D15*
X80314800Y-87055398D02*
X80400598Y-86969600D01*
X80314800Y-100330000D02*
X80314800Y-87055398D01*
X82346800Y-102362000D02*
X80314800Y-100330000D01*
X79806800Y-80804800D02*
X79806800Y-86375802D01*
X83921600Y-76690000D02*
X79806800Y-80804800D01*
X79806800Y-86375802D02*
X80400598Y-86969600D01*
D13*
X100286549Y-87775051D02*
X97078811Y-90982789D01*
X109224800Y-87625200D02*
X101162344Y-87625200D01*
X101162344Y-87625200D02*
X101012493Y-87775051D01*
X101012493Y-87775051D02*
X100286549Y-87775051D01*
X97078811Y-90982789D02*
X83058011Y-90982789D01*
D16*
X75641200Y-80162400D02*
X79095600Y-80162400D01*
X79095600Y-70459600D02*
X79095600Y-80162400D01*
X79095600Y-80162400D02*
X79044800Y-80213200D01*
X106680000Y-70459600D02*
X79095600Y-70459600D01*
X79095600Y-83531010D02*
X79079790Y-83515200D01*
X79502000Y-91135200D02*
X79095600Y-90728800D01*
X79095600Y-90728800D02*
X79095600Y-83531010D01*
X79095600Y-83499390D02*
X79079790Y-83515200D01*
X79095600Y-80213200D02*
X79095600Y-83499390D01*
D13*
X86360000Y-83602700D02*
X81418300Y-83602700D01*
X81418300Y-83602700D02*
X80568800Y-82753200D01*
X109270800Y-86715600D02*
X100838000Y-86715600D01*
X100838000Y-86715600D02*
X100634800Y-86918800D01*
X78638400Y-86225010D02*
X78468590Y-86055200D01*
X78638400Y-93268800D02*
X78638400Y-86225010D01*
D14*
X94792800Y-88849200D02*
X96418400Y-87223600D01*
X96418400Y-87223600D02*
X96570800Y-87223600D01*
M02*
