G04 #@! TF.GenerationSoftware,KiCad,Pcbnew,(5.1.12-1-10_14)*
G04 #@! TF.CreationDate,2021-12-19T18:28:25-07:00*
G04 #@! TF.ProjectId,GenMemBlock,47656e4d-656d-4426-9c6f-636b2e6b6963,rev?*
G04 #@! TF.SameCoordinates,Original*
G04 #@! TF.FileFunction,Legend,Bot*
G04 #@! TF.FilePolarity,Positive*
%FSLAX46Y46*%
G04 Gerber Fmt 4.6, Leading zero omitted, Abs format (unit mm)*
G04 Created by KiCad (PCBNEW (5.1.12-1-10_14)) date 2021-12-19 18:28:25*
%MOMM*%
%LPD*%
G01*
G04 APERTURE LIST*
%ADD10C,0.120000*%
%ADD11C,0.150000*%
%ADD12O,1.700000X1.700000*%
%ADD13R,1.700000X1.700000*%
G04 APERTURE END LIST*
D10*
X36984000Y-84952252D02*
X36984000Y-84429748D01*
X38454000Y-84952252D02*
X38454000Y-84429748D01*
X73687000Y-84901452D02*
X73687000Y-84378948D01*
X75157000Y-84901452D02*
X75157000Y-84378948D01*
X96086600Y-84378948D02*
X96086600Y-84901452D01*
X94616600Y-84378948D02*
X94616600Y-84901452D01*
X91381948Y-105183000D02*
X91904452Y-105183000D01*
X91381948Y-106653000D02*
X91904452Y-106653000D01*
X39616748Y-105183000D02*
X40139252Y-105183000D01*
X39616748Y-106653000D02*
X40139252Y-106653000D01*
X64305548Y-105183000D02*
X64828052Y-105183000D01*
X64305548Y-106653000D02*
X64828052Y-106653000D01*
X87095000Y-84378948D02*
X87095000Y-84901452D01*
X85625000Y-84378948D02*
X85625000Y-84901452D01*
X103760600Y-84901452D02*
X103760600Y-84378948D01*
X105230600Y-84901452D02*
X105230600Y-84378948D01*
X49366500Y-85351252D02*
X49366500Y-84828748D01*
X50836500Y-85351252D02*
X50836500Y-84828748D01*
X61380700Y-84952252D02*
X61380700Y-84429748D01*
X62850700Y-84952252D02*
X62850700Y-84429748D01*
X111482200Y-75360264D02*
X111482200Y-74906136D01*
X112952200Y-75360264D02*
X112952200Y-74906136D01*
X115851000Y-75360264D02*
X115851000Y-74906136D01*
X117321000Y-75360264D02*
X117321000Y-74906136D01*
D11*
X39756142Y-84524333D02*
X39803761Y-84476714D01*
X39851380Y-84333857D01*
X39851380Y-84238619D01*
X39803761Y-84095761D01*
X39708523Y-84000523D01*
X39613285Y-83952904D01*
X39422809Y-83905285D01*
X39279952Y-83905285D01*
X39089476Y-83952904D01*
X38994238Y-84000523D01*
X38899000Y-84095761D01*
X38851380Y-84238619D01*
X38851380Y-84333857D01*
X38899000Y-84476714D01*
X38946619Y-84524333D01*
X38946619Y-84905285D02*
X38899000Y-84952904D01*
X38851380Y-85048142D01*
X38851380Y-85286238D01*
X38899000Y-85381476D01*
X38946619Y-85429095D01*
X39041857Y-85476714D01*
X39137095Y-85476714D01*
X39279952Y-85429095D01*
X39851380Y-84857666D01*
X39851380Y-85476714D01*
X76459142Y-84473533D02*
X76506761Y-84425914D01*
X76554380Y-84283057D01*
X76554380Y-84187819D01*
X76506761Y-84044961D01*
X76411523Y-83949723D01*
X76316285Y-83902104D01*
X76125809Y-83854485D01*
X75982952Y-83854485D01*
X75792476Y-83902104D01*
X75697238Y-83949723D01*
X75602000Y-84044961D01*
X75554380Y-84187819D01*
X75554380Y-84283057D01*
X75602000Y-84425914D01*
X75649619Y-84473533D01*
X75887714Y-85330676D02*
X76554380Y-85330676D01*
X75506761Y-85092580D02*
X76221047Y-84854485D01*
X76221047Y-85473533D01*
X94028742Y-84473533D02*
X94076361Y-84425914D01*
X94123980Y-84283057D01*
X94123980Y-84187819D01*
X94076361Y-84044961D01*
X93981123Y-83949723D01*
X93885885Y-83902104D01*
X93695409Y-83854485D01*
X93552552Y-83854485D01*
X93362076Y-83902104D01*
X93266838Y-83949723D01*
X93171600Y-84044961D01*
X93123980Y-84187819D01*
X93123980Y-84283057D01*
X93171600Y-84425914D01*
X93219219Y-84473533D01*
X93123980Y-85330676D02*
X93123980Y-85140200D01*
X93171600Y-85044961D01*
X93219219Y-84997342D01*
X93362076Y-84902104D01*
X93552552Y-84854485D01*
X93933504Y-84854485D01*
X94028742Y-84902104D01*
X94076361Y-84949723D01*
X94123980Y-85044961D01*
X94123980Y-85235438D01*
X94076361Y-85330676D01*
X94028742Y-85378295D01*
X93933504Y-85425914D01*
X93695409Y-85425914D01*
X93600171Y-85378295D01*
X93552552Y-85330676D01*
X93504933Y-85235438D01*
X93504933Y-85044961D01*
X93552552Y-84949723D01*
X93600171Y-84902104D01*
X93695409Y-84854485D01*
X92286057Y-107955142D02*
X92333676Y-108002761D01*
X92476533Y-108050380D01*
X92571771Y-108050380D01*
X92714628Y-108002761D01*
X92809866Y-107907523D01*
X92857485Y-107812285D01*
X92905104Y-107621809D01*
X92905104Y-107478952D01*
X92857485Y-107288476D01*
X92809866Y-107193238D01*
X92714628Y-107098000D01*
X92571771Y-107050380D01*
X92476533Y-107050380D01*
X92333676Y-107098000D01*
X92286057Y-107145619D01*
X91333676Y-108050380D02*
X91905104Y-108050380D01*
X91619390Y-108050380D02*
X91619390Y-107050380D01*
X91714628Y-107193238D01*
X91809866Y-107288476D01*
X91905104Y-107336095D01*
X90714628Y-107050380D02*
X90619390Y-107050380D01*
X90524152Y-107098000D01*
X90476533Y-107145619D01*
X90428914Y-107240857D01*
X90381295Y-107431333D01*
X90381295Y-107669428D01*
X90428914Y-107859904D01*
X90476533Y-107955142D01*
X90524152Y-108002761D01*
X90619390Y-108050380D01*
X90714628Y-108050380D01*
X90809866Y-108002761D01*
X90857485Y-107955142D01*
X90905104Y-107859904D01*
X90952723Y-107669428D01*
X90952723Y-107431333D01*
X90905104Y-107240857D01*
X90857485Y-107145619D01*
X90809866Y-107098000D01*
X90714628Y-107050380D01*
X40044666Y-107955142D02*
X40092285Y-108002761D01*
X40235142Y-108050380D01*
X40330380Y-108050380D01*
X40473238Y-108002761D01*
X40568476Y-107907523D01*
X40616095Y-107812285D01*
X40663714Y-107621809D01*
X40663714Y-107478952D01*
X40616095Y-107288476D01*
X40568476Y-107193238D01*
X40473238Y-107098000D01*
X40330380Y-107050380D01*
X40235142Y-107050380D01*
X40092285Y-107098000D01*
X40044666Y-107145619D01*
X39568476Y-108050380D02*
X39378000Y-108050380D01*
X39282761Y-108002761D01*
X39235142Y-107955142D01*
X39139904Y-107812285D01*
X39092285Y-107621809D01*
X39092285Y-107240857D01*
X39139904Y-107145619D01*
X39187523Y-107098000D01*
X39282761Y-107050380D01*
X39473238Y-107050380D01*
X39568476Y-107098000D01*
X39616095Y-107145619D01*
X39663714Y-107240857D01*
X39663714Y-107478952D01*
X39616095Y-107574190D01*
X39568476Y-107621809D01*
X39473238Y-107669428D01*
X39282761Y-107669428D01*
X39187523Y-107621809D01*
X39139904Y-107574190D01*
X39092285Y-107478952D01*
X64733466Y-107955142D02*
X64781085Y-108002761D01*
X64923942Y-108050380D01*
X65019180Y-108050380D01*
X65162038Y-108002761D01*
X65257276Y-107907523D01*
X65304895Y-107812285D01*
X65352514Y-107621809D01*
X65352514Y-107478952D01*
X65304895Y-107288476D01*
X65257276Y-107193238D01*
X65162038Y-107098000D01*
X65019180Y-107050380D01*
X64923942Y-107050380D01*
X64781085Y-107098000D01*
X64733466Y-107145619D01*
X64162038Y-107478952D02*
X64257276Y-107431333D01*
X64304895Y-107383714D01*
X64352514Y-107288476D01*
X64352514Y-107240857D01*
X64304895Y-107145619D01*
X64257276Y-107098000D01*
X64162038Y-107050380D01*
X63971561Y-107050380D01*
X63876323Y-107098000D01*
X63828704Y-107145619D01*
X63781085Y-107240857D01*
X63781085Y-107288476D01*
X63828704Y-107383714D01*
X63876323Y-107431333D01*
X63971561Y-107478952D01*
X64162038Y-107478952D01*
X64257276Y-107526571D01*
X64304895Y-107574190D01*
X64352514Y-107669428D01*
X64352514Y-107859904D01*
X64304895Y-107955142D01*
X64257276Y-108002761D01*
X64162038Y-108050380D01*
X63971561Y-108050380D01*
X63876323Y-108002761D01*
X63828704Y-107955142D01*
X63781085Y-107859904D01*
X63781085Y-107669428D01*
X63828704Y-107574190D01*
X63876323Y-107526571D01*
X63971561Y-107478952D01*
X85037142Y-84473533D02*
X85084761Y-84425914D01*
X85132380Y-84283057D01*
X85132380Y-84187819D01*
X85084761Y-84044961D01*
X84989523Y-83949723D01*
X84894285Y-83902104D01*
X84703809Y-83854485D01*
X84560952Y-83854485D01*
X84370476Y-83902104D01*
X84275238Y-83949723D01*
X84180000Y-84044961D01*
X84132380Y-84187819D01*
X84132380Y-84283057D01*
X84180000Y-84425914D01*
X84227619Y-84473533D01*
X84132380Y-84806866D02*
X84132380Y-85473533D01*
X85132380Y-85044961D01*
X106532742Y-84473533D02*
X106580361Y-84425914D01*
X106627980Y-84283057D01*
X106627980Y-84187819D01*
X106580361Y-84044961D01*
X106485123Y-83949723D01*
X106389885Y-83902104D01*
X106199409Y-83854485D01*
X106056552Y-83854485D01*
X105866076Y-83902104D01*
X105770838Y-83949723D01*
X105675600Y-84044961D01*
X105627980Y-84187819D01*
X105627980Y-84283057D01*
X105675600Y-84425914D01*
X105723219Y-84473533D01*
X105627980Y-85378295D02*
X105627980Y-84902104D01*
X106104171Y-84854485D01*
X106056552Y-84902104D01*
X106008933Y-84997342D01*
X106008933Y-85235438D01*
X106056552Y-85330676D01*
X106104171Y-85378295D01*
X106199409Y-85425914D01*
X106437504Y-85425914D01*
X106532742Y-85378295D01*
X106580361Y-85330676D01*
X106627980Y-85235438D01*
X106627980Y-84997342D01*
X106580361Y-84902104D01*
X106532742Y-84854485D01*
X52138642Y-84923333D02*
X52186261Y-84875714D01*
X52233880Y-84732857D01*
X52233880Y-84637619D01*
X52186261Y-84494761D01*
X52091023Y-84399523D01*
X51995785Y-84351904D01*
X51805309Y-84304285D01*
X51662452Y-84304285D01*
X51471976Y-84351904D01*
X51376738Y-84399523D01*
X51281500Y-84494761D01*
X51233880Y-84637619D01*
X51233880Y-84732857D01*
X51281500Y-84875714D01*
X51329119Y-84923333D01*
X51233880Y-85256666D02*
X51233880Y-85875714D01*
X51614833Y-85542380D01*
X51614833Y-85685238D01*
X51662452Y-85780476D01*
X51710071Y-85828095D01*
X51805309Y-85875714D01*
X52043404Y-85875714D01*
X52138642Y-85828095D01*
X52186261Y-85780476D01*
X52233880Y-85685238D01*
X52233880Y-85399523D01*
X52186261Y-85304285D01*
X52138642Y-85256666D01*
X64152842Y-84524333D02*
X64200461Y-84476714D01*
X64248080Y-84333857D01*
X64248080Y-84238619D01*
X64200461Y-84095761D01*
X64105223Y-84000523D01*
X64009985Y-83952904D01*
X63819509Y-83905285D01*
X63676652Y-83905285D01*
X63486176Y-83952904D01*
X63390938Y-84000523D01*
X63295700Y-84095761D01*
X63248080Y-84238619D01*
X63248080Y-84333857D01*
X63295700Y-84476714D01*
X63343319Y-84524333D01*
X64248080Y-85476714D02*
X64248080Y-84905285D01*
X64248080Y-85191000D02*
X63248080Y-85191000D01*
X63390938Y-85095761D01*
X63486176Y-85000523D01*
X63533795Y-84905285D01*
X114319580Y-74966533D02*
X113843390Y-74633200D01*
X114319580Y-74395104D02*
X113319580Y-74395104D01*
X113319580Y-74776057D01*
X113367200Y-74871295D01*
X113414819Y-74918914D01*
X113510057Y-74966533D01*
X113652914Y-74966533D01*
X113748152Y-74918914D01*
X113795771Y-74871295D01*
X113843390Y-74776057D01*
X113843390Y-74395104D01*
X113414819Y-75347485D02*
X113367200Y-75395104D01*
X113319580Y-75490342D01*
X113319580Y-75728438D01*
X113367200Y-75823676D01*
X113414819Y-75871295D01*
X113510057Y-75918914D01*
X113605295Y-75918914D01*
X113748152Y-75871295D01*
X114319580Y-75299866D01*
X114319580Y-75918914D01*
X118688380Y-74966533D02*
X118212190Y-74633200D01*
X118688380Y-74395104D02*
X117688380Y-74395104D01*
X117688380Y-74776057D01*
X117736000Y-74871295D01*
X117783619Y-74918914D01*
X117878857Y-74966533D01*
X118021714Y-74966533D01*
X118116952Y-74918914D01*
X118164571Y-74871295D01*
X118212190Y-74776057D01*
X118212190Y-74395104D01*
X118688380Y-75918914D02*
X118688380Y-75347485D01*
X118688380Y-75633200D02*
X117688380Y-75633200D01*
X117831238Y-75537961D01*
X117926476Y-75442723D01*
X117974095Y-75347485D01*
%LPC*%
D12*
X35789000Y-76690000D03*
X35789000Y-74150000D03*
X38329000Y-76690000D03*
X38329000Y-74150000D03*
X40869000Y-76690000D03*
X40869000Y-74150000D03*
X43409000Y-76690000D03*
X43409000Y-74150000D03*
X45949000Y-76690000D03*
X45949000Y-74150000D03*
X48489000Y-76690000D03*
X48489000Y-74150000D03*
X51029000Y-76690000D03*
X51029000Y-74150000D03*
X53569000Y-76690000D03*
X53569000Y-74150000D03*
X56109000Y-76690000D03*
X56109000Y-74150000D03*
X58649000Y-76690000D03*
X58649000Y-74150000D03*
X61189000Y-76690000D03*
X61189000Y-74150000D03*
X63729000Y-76690000D03*
X63729000Y-74150000D03*
X66269000Y-76690000D03*
D13*
X66269000Y-74150000D03*
G36*
G01*
X38194000Y-84241000D02*
X37244000Y-84241000D01*
G75*
G02*
X36994000Y-83991000I0J250000D01*
G01*
X36994000Y-83316000D01*
G75*
G02*
X37244000Y-83066000I250000J0D01*
G01*
X38194000Y-83066000D01*
G75*
G02*
X38444000Y-83316000I0J-250000D01*
G01*
X38444000Y-83991000D01*
G75*
G02*
X38194000Y-84241000I-250000J0D01*
G01*
G37*
G36*
G01*
X38194000Y-86316000D02*
X37244000Y-86316000D01*
G75*
G02*
X36994000Y-86066000I0J250000D01*
G01*
X36994000Y-85391000D01*
G75*
G02*
X37244000Y-85141000I250000J0D01*
G01*
X38194000Y-85141000D01*
G75*
G02*
X38444000Y-85391000I0J-250000D01*
G01*
X38444000Y-86066000D01*
G75*
G02*
X38194000Y-86316000I-250000J0D01*
G01*
G37*
D12*
X76327000Y-114503200D03*
X76327000Y-117043200D03*
X73787000Y-114503200D03*
X73787000Y-117043200D03*
X71247000Y-114503200D03*
X71247000Y-117043200D03*
X68707000Y-114503200D03*
X68707000Y-117043200D03*
X66167000Y-114503200D03*
D13*
X66167000Y-117043200D03*
G36*
G01*
X74897000Y-84190200D02*
X73947000Y-84190200D01*
G75*
G02*
X73697000Y-83940200I0J250000D01*
G01*
X73697000Y-83265200D01*
G75*
G02*
X73947000Y-83015200I250000J0D01*
G01*
X74897000Y-83015200D01*
G75*
G02*
X75147000Y-83265200I0J-250000D01*
G01*
X75147000Y-83940200D01*
G75*
G02*
X74897000Y-84190200I-250000J0D01*
G01*
G37*
G36*
G01*
X74897000Y-86265200D02*
X73947000Y-86265200D01*
G75*
G02*
X73697000Y-86015200I0J250000D01*
G01*
X73697000Y-85340200D01*
G75*
G02*
X73947000Y-85090200I250000J0D01*
G01*
X74897000Y-85090200D01*
G75*
G02*
X75147000Y-85340200I0J-250000D01*
G01*
X75147000Y-86015200D01*
G75*
G02*
X74897000Y-86265200I-250000J0D01*
G01*
G37*
G36*
G01*
X94876600Y-85090200D02*
X95826600Y-85090200D01*
G75*
G02*
X96076600Y-85340200I0J-250000D01*
G01*
X96076600Y-86015200D01*
G75*
G02*
X95826600Y-86265200I-250000J0D01*
G01*
X94876600Y-86265200D01*
G75*
G02*
X94626600Y-86015200I0J250000D01*
G01*
X94626600Y-85340200D01*
G75*
G02*
X94876600Y-85090200I250000J0D01*
G01*
G37*
G36*
G01*
X94876600Y-83015200D02*
X95826600Y-83015200D01*
G75*
G02*
X96076600Y-83265200I0J-250000D01*
G01*
X96076600Y-83940200D01*
G75*
G02*
X95826600Y-84190200I-250000J0D01*
G01*
X94876600Y-84190200D01*
G75*
G02*
X94626600Y-83940200I0J250000D01*
G01*
X94626600Y-83265200D01*
G75*
G02*
X94876600Y-83015200I250000J0D01*
G01*
G37*
G36*
G01*
X92093200Y-106393000D02*
X92093200Y-105443000D01*
G75*
G02*
X92343200Y-105193000I250000J0D01*
G01*
X93018200Y-105193000D01*
G75*
G02*
X93268200Y-105443000I0J-250000D01*
G01*
X93268200Y-106393000D01*
G75*
G02*
X93018200Y-106643000I-250000J0D01*
G01*
X92343200Y-106643000D01*
G75*
G02*
X92093200Y-106393000I0J250000D01*
G01*
G37*
G36*
G01*
X90018200Y-106393000D02*
X90018200Y-105443000D01*
G75*
G02*
X90268200Y-105193000I250000J0D01*
G01*
X90943200Y-105193000D01*
G75*
G02*
X91193200Y-105443000I0J-250000D01*
G01*
X91193200Y-106393000D01*
G75*
G02*
X90943200Y-106643000I-250000J0D01*
G01*
X90268200Y-106643000D01*
G75*
G02*
X90018200Y-106393000I0J250000D01*
G01*
G37*
G36*
G01*
X40328000Y-106393000D02*
X40328000Y-105443000D01*
G75*
G02*
X40578000Y-105193000I250000J0D01*
G01*
X41253000Y-105193000D01*
G75*
G02*
X41503000Y-105443000I0J-250000D01*
G01*
X41503000Y-106393000D01*
G75*
G02*
X41253000Y-106643000I-250000J0D01*
G01*
X40578000Y-106643000D01*
G75*
G02*
X40328000Y-106393000I0J250000D01*
G01*
G37*
G36*
G01*
X38253000Y-106393000D02*
X38253000Y-105443000D01*
G75*
G02*
X38503000Y-105193000I250000J0D01*
G01*
X39178000Y-105193000D01*
G75*
G02*
X39428000Y-105443000I0J-250000D01*
G01*
X39428000Y-106393000D01*
G75*
G02*
X39178000Y-106643000I-250000J0D01*
G01*
X38503000Y-106643000D01*
G75*
G02*
X38253000Y-106393000I0J250000D01*
G01*
G37*
G36*
G01*
X65016800Y-106393000D02*
X65016800Y-105443000D01*
G75*
G02*
X65266800Y-105193000I250000J0D01*
G01*
X65941800Y-105193000D01*
G75*
G02*
X66191800Y-105443000I0J-250000D01*
G01*
X66191800Y-106393000D01*
G75*
G02*
X65941800Y-106643000I-250000J0D01*
G01*
X65266800Y-106643000D01*
G75*
G02*
X65016800Y-106393000I0J250000D01*
G01*
G37*
G36*
G01*
X62941800Y-106393000D02*
X62941800Y-105443000D01*
G75*
G02*
X63191800Y-105193000I250000J0D01*
G01*
X63866800Y-105193000D01*
G75*
G02*
X64116800Y-105443000I0J-250000D01*
G01*
X64116800Y-106393000D01*
G75*
G02*
X63866800Y-106643000I-250000J0D01*
G01*
X63191800Y-106643000D01*
G75*
G02*
X62941800Y-106393000I0J250000D01*
G01*
G37*
G36*
G01*
X85885000Y-85090200D02*
X86835000Y-85090200D01*
G75*
G02*
X87085000Y-85340200I0J-250000D01*
G01*
X87085000Y-86015200D01*
G75*
G02*
X86835000Y-86265200I-250000J0D01*
G01*
X85885000Y-86265200D01*
G75*
G02*
X85635000Y-86015200I0J250000D01*
G01*
X85635000Y-85340200D01*
G75*
G02*
X85885000Y-85090200I250000J0D01*
G01*
G37*
G36*
G01*
X85885000Y-83015200D02*
X86835000Y-83015200D01*
G75*
G02*
X87085000Y-83265200I0J-250000D01*
G01*
X87085000Y-83940200D01*
G75*
G02*
X86835000Y-84190200I-250000J0D01*
G01*
X85885000Y-84190200D01*
G75*
G02*
X85635000Y-83940200I0J250000D01*
G01*
X85635000Y-83265200D01*
G75*
G02*
X85885000Y-83015200I250000J0D01*
G01*
G37*
G36*
G01*
X104970600Y-84190200D02*
X104020600Y-84190200D01*
G75*
G02*
X103770600Y-83940200I0J250000D01*
G01*
X103770600Y-83265200D01*
G75*
G02*
X104020600Y-83015200I250000J0D01*
G01*
X104970600Y-83015200D01*
G75*
G02*
X105220600Y-83265200I0J-250000D01*
G01*
X105220600Y-83940200D01*
G75*
G02*
X104970600Y-84190200I-250000J0D01*
G01*
G37*
G36*
G01*
X104970600Y-86265200D02*
X104020600Y-86265200D01*
G75*
G02*
X103770600Y-86015200I0J250000D01*
G01*
X103770600Y-85340200D01*
G75*
G02*
X104020600Y-85090200I250000J0D01*
G01*
X104970600Y-85090200D01*
G75*
G02*
X105220600Y-85340200I0J-250000D01*
G01*
X105220600Y-86015200D01*
G75*
G02*
X104970600Y-86265200I-250000J0D01*
G01*
G37*
G36*
G01*
X50576500Y-84640000D02*
X49626500Y-84640000D01*
G75*
G02*
X49376500Y-84390000I0J250000D01*
G01*
X49376500Y-83715000D01*
G75*
G02*
X49626500Y-83465000I250000J0D01*
G01*
X50576500Y-83465000D01*
G75*
G02*
X50826500Y-83715000I0J-250000D01*
G01*
X50826500Y-84390000D01*
G75*
G02*
X50576500Y-84640000I-250000J0D01*
G01*
G37*
G36*
G01*
X50576500Y-86715000D02*
X49626500Y-86715000D01*
G75*
G02*
X49376500Y-86465000I0J250000D01*
G01*
X49376500Y-85790000D01*
G75*
G02*
X49626500Y-85540000I250000J0D01*
G01*
X50576500Y-85540000D01*
G75*
G02*
X50826500Y-85790000I0J-250000D01*
G01*
X50826500Y-86465000D01*
G75*
G02*
X50576500Y-86715000I-250000J0D01*
G01*
G37*
G36*
G01*
X62590700Y-84241000D02*
X61640700Y-84241000D01*
G75*
G02*
X61390700Y-83991000I0J250000D01*
G01*
X61390700Y-83316000D01*
G75*
G02*
X61640700Y-83066000I250000J0D01*
G01*
X62590700Y-83066000D01*
G75*
G02*
X62840700Y-83316000I0J-250000D01*
G01*
X62840700Y-83991000D01*
G75*
G02*
X62590700Y-84241000I-250000J0D01*
G01*
G37*
G36*
G01*
X62590700Y-86316000D02*
X61640700Y-86316000D01*
G75*
G02*
X61390700Y-86066000I0J250000D01*
G01*
X61390700Y-85391000D01*
G75*
G02*
X61640700Y-85141000I250000J0D01*
G01*
X62590700Y-85141000D01*
G75*
G02*
X62840700Y-85391000I0J-250000D01*
G01*
X62840700Y-86066000D01*
G75*
G02*
X62590700Y-86316000I-250000J0D01*
G01*
G37*
D12*
X94107000Y-114503200D03*
X94107000Y-117043200D03*
X91567000Y-114503200D03*
X91567000Y-117043200D03*
X89027000Y-114503200D03*
X89027000Y-117043200D03*
X86487000Y-114503200D03*
X86487000Y-117043200D03*
X83947000Y-114503200D03*
D13*
X83947000Y-117043200D03*
D12*
X124587000Y-114503200D03*
X124587000Y-117043200D03*
X122047000Y-114503200D03*
X122047000Y-117043200D03*
X119507000Y-114503200D03*
X119507000Y-117043200D03*
X116967000Y-114503200D03*
X116967000Y-117043200D03*
X114427000Y-114503200D03*
X114427000Y-117043200D03*
X111887000Y-114503200D03*
X111887000Y-117043200D03*
X109347000Y-114503200D03*
X109347000Y-117043200D03*
X106807000Y-114503200D03*
X106807000Y-117043200D03*
X104267000Y-114503200D03*
X104267000Y-117043200D03*
X101727000Y-114503200D03*
D13*
X101727000Y-117043200D03*
D12*
X58572400Y-114503200D03*
X58572400Y-117043200D03*
X56032400Y-114503200D03*
X56032400Y-117043200D03*
X53492400Y-114503200D03*
X53492400Y-117043200D03*
X50952400Y-114503200D03*
X50952400Y-117043200D03*
X48412400Y-114503200D03*
X48412400Y-117043200D03*
X45872400Y-114503200D03*
X45872400Y-117043200D03*
X43332400Y-114503200D03*
X43332400Y-117043200D03*
X40792400Y-114503200D03*
X40792400Y-117043200D03*
X38252400Y-114503200D03*
X38252400Y-117043200D03*
X35712400Y-114503200D03*
D13*
X35712400Y-117043200D03*
D12*
X83921600Y-76690000D03*
X83921600Y-74150000D03*
X86461600Y-76690000D03*
X86461600Y-74150000D03*
X89001600Y-76690000D03*
X89001600Y-74150000D03*
X91541600Y-76690000D03*
X91541600Y-74150000D03*
X94081600Y-76690000D03*
X94081600Y-74150000D03*
X96621600Y-76690000D03*
X96621600Y-74150000D03*
X99161600Y-76690000D03*
X99161600Y-74150000D03*
X101701600Y-76690000D03*
X101701600Y-74150000D03*
X104241600Y-76690000D03*
X104241600Y-74150000D03*
X106781600Y-76690000D03*
D13*
X106781600Y-74150000D03*
D12*
X122037000Y-74140000D03*
X124577000Y-74140000D03*
X122037000Y-76680000D03*
X124577000Y-76680000D03*
X122037000Y-79220000D03*
X124577000Y-79220000D03*
X122037000Y-81760000D03*
X124577000Y-81760000D03*
X122037000Y-84300000D03*
X124577000Y-84300000D03*
X122037000Y-86840000D03*
X124577000Y-86840000D03*
X122037000Y-89380000D03*
X124577000Y-89380000D03*
X122037000Y-91920000D03*
X124577000Y-91920000D03*
X122037000Y-94460000D03*
X124577000Y-94460000D03*
X122037000Y-97000000D03*
D13*
X124577000Y-97000000D03*
G36*
G01*
X112667201Y-74733200D02*
X111767199Y-74733200D01*
G75*
G02*
X111517200Y-74483201I0J249999D01*
G01*
X111517200Y-73783199D01*
G75*
G02*
X111767199Y-73533200I249999J0D01*
G01*
X112667201Y-73533200D01*
G75*
G02*
X112917200Y-73783199I0J-249999D01*
G01*
X112917200Y-74483201D01*
G75*
G02*
X112667201Y-74733200I-249999J0D01*
G01*
G37*
G36*
G01*
X112667201Y-76733200D02*
X111767199Y-76733200D01*
G75*
G02*
X111517200Y-76483201I0J249999D01*
G01*
X111517200Y-75783199D01*
G75*
G02*
X111767199Y-75533200I249999J0D01*
G01*
X112667201Y-75533200D01*
G75*
G02*
X112917200Y-75783199I0J-249999D01*
G01*
X112917200Y-76483201D01*
G75*
G02*
X112667201Y-76733200I-249999J0D01*
G01*
G37*
G36*
G01*
X117036001Y-74733200D02*
X116135999Y-74733200D01*
G75*
G02*
X115886000Y-74483201I0J249999D01*
G01*
X115886000Y-73783199D01*
G75*
G02*
X116135999Y-73533200I249999J0D01*
G01*
X117036001Y-73533200D01*
G75*
G02*
X117286000Y-73783199I0J-249999D01*
G01*
X117286000Y-74483201D01*
G75*
G02*
X117036001Y-74733200I-249999J0D01*
G01*
G37*
G36*
G01*
X117036001Y-76733200D02*
X116135999Y-76733200D01*
G75*
G02*
X115886000Y-76483201I0J249999D01*
G01*
X115886000Y-75783199D01*
G75*
G02*
X116135999Y-75533200I249999J0D01*
G01*
X117036001Y-75533200D01*
G75*
G02*
X117286000Y-75783199I0J-249999D01*
G01*
X117286000Y-76483201D01*
G75*
G02*
X117036001Y-76733200I-249999J0D01*
G01*
G37*
M02*
