%FSLAX45Y45*%
G04 Gerber Fmt 4.5, Leading zero omitted, Abs format (unit mm)*
G04 Created by KiCad (PCBNEW (5.1.12-1-10_14)) date 2023-09-30 13:23:48*
%MOMM*%
%LPD*%
G01*
G04 APERTURE LIST*
%TA.AperFunction,Profile*%
%ADD10C,0.038100*%
%TD*%
%TA.AperFunction,Profile*%
%ADD11C,0.100000*%
%TD*%
%ADD12C,0.200000*%
%ADD13C,0.300000*%
G04 APERTURE END LIST*
D10*
X3048000Y-12192000D02*
X3810000Y-12192000D01*
X12192000Y-12192000D02*
X13004800Y-12192000D01*
X12192000Y-13462000D02*
X12192000Y-12192000D01*
X3810000Y-13462000D02*
X12192000Y-13462000D01*
X3810000Y-12192000D02*
X3810000Y-13462000D01*
D11*
X3048000Y-6858000D02*
X13004800Y-6858000D01*
X13004800Y-6858000D02*
X13004800Y-12192000D01*
X3048000Y-12192000D02*
X3048000Y-6858000D01*
D12*
X3144760Y-9098520D02*
X3174760Y-9128520D01*
X3174760Y-9098520D02*
X3144760Y-9128520D01*
X3188731Y-8976600D02*
X3218731Y-9006600D01*
X3218731Y-8976600D02*
X3188731Y-9006600D01*
X3214131Y-8722299D02*
X3244131Y-8752299D01*
X3244131Y-8722299D02*
X3214131Y-8752299D01*
X3214132Y-8839440D02*
X3244132Y-8869440D01*
X3244132Y-8839440D02*
X3214132Y-8869440D01*
X3246360Y-10129760D02*
X3276360Y-10159760D01*
X3276360Y-10129760D02*
X3246360Y-10159760D01*
X3264934Y-8234920D02*
X3294934Y-8264920D01*
X3294934Y-8234920D02*
X3264934Y-8264920D01*
X3295411Y-10068800D02*
X3325411Y-10098800D01*
X3325411Y-10068800D02*
X3295411Y-10098800D01*
X3327639Y-8595600D02*
X3357639Y-8625600D01*
X3357639Y-8595600D02*
X3327639Y-8625600D01*
X3332720Y-8976600D02*
X3362720Y-9006600D01*
X3362720Y-8976600D02*
X3332720Y-9006600D01*
X3332720Y-9103600D02*
X3362720Y-9133600D01*
X3362720Y-9103600D02*
X3332720Y-9133600D01*
X3337634Y-8844520D02*
X3367634Y-8874520D01*
X3367634Y-8844520D02*
X3337634Y-8874520D01*
X3368281Y-8722600D02*
X3398281Y-8752600D01*
X3398281Y-8722600D02*
X3368281Y-8752600D01*
X3464800Y-10576800D02*
X3494800Y-10606800D01*
X3494800Y-10576800D02*
X3464800Y-10606800D01*
X3471150Y-10689830D02*
X3501150Y-10719830D01*
X3501150Y-10689830D02*
X3471150Y-10719830D01*
X3480040Y-10307560D02*
X3510040Y-10337560D01*
X3510040Y-10307560D02*
X3480040Y-10337560D01*
X3535920Y-10221200D02*
X3565920Y-10251200D01*
X3565920Y-10221200D02*
X3535920Y-10251200D01*
X3601960Y-10307560D02*
X3631960Y-10337560D01*
X3631960Y-10307560D02*
X3601960Y-10337560D01*
X3647680Y-9230600D02*
X3677680Y-9260600D01*
X3677680Y-9230600D02*
X3647680Y-9260600D01*
X3668000Y-10221200D02*
X3698000Y-10251200D01*
X3698000Y-10221200D02*
X3668000Y-10251200D01*
X3673080Y-11201640D02*
X3703080Y-11231640D01*
X3703080Y-11201640D02*
X3673080Y-11231640D01*
X3703560Y-11867120D02*
X3733560Y-11897120D01*
X3733560Y-11867120D02*
X3703560Y-11897120D01*
X3723880Y-8844520D02*
X3753880Y-8874520D01*
X3753880Y-8844520D02*
X3723880Y-8874520D01*
X3725150Y-11063210D02*
X3755150Y-11093210D01*
X3755150Y-11063210D02*
X3725150Y-11093210D01*
X3734040Y-9042640D02*
X3764040Y-9072640D01*
X3764040Y-9042640D02*
X3734040Y-9072640D01*
X3764520Y-11201640D02*
X3794520Y-11231640D01*
X3794520Y-11201640D02*
X3764520Y-11231640D01*
X3855960Y-10307560D02*
X3885960Y-10337560D01*
X3885960Y-10307560D02*
X3855960Y-10337560D01*
X3867530Y-8350350D02*
X3897530Y-8380350D01*
X3897530Y-8350350D02*
X3867530Y-8380350D01*
X3915123Y-11207862D02*
X3945123Y-11237862D01*
X3945123Y-11207862D02*
X3915123Y-11237862D01*
X3915650Y-9374110D02*
X3945650Y-9404110D01*
X3945650Y-9374110D02*
X3915650Y-9404110D01*
X3977880Y-11166080D02*
X4007880Y-11196080D01*
X4007880Y-11166080D02*
X3977880Y-11196080D01*
X3979150Y-9625570D02*
X4009150Y-9655570D01*
X4009150Y-9625570D02*
X3979150Y-9655570D01*
X4018520Y-8184120D02*
X4048520Y-8214120D01*
X4048520Y-8184120D02*
X4018520Y-8214120D01*
X4038840Y-10068800D02*
X4068840Y-10098800D01*
X4068840Y-10068800D02*
X4038840Y-10098800D01*
X4047922Y-11208880D02*
X4077922Y-11238880D01*
X4077922Y-11208880D02*
X4047922Y-11238880D01*
X4109960Y-10221200D02*
X4139960Y-10251200D01*
X4139960Y-10221200D02*
X4109960Y-10251200D01*
X4130280Y-9357600D02*
X4160280Y-9387600D01*
X4160280Y-9357600D02*
X4130280Y-9387600D01*
X4157428Y-8722600D02*
X4187428Y-8752600D01*
X4187428Y-8722600D02*
X4157428Y-8752600D01*
X4157428Y-8849600D02*
X4187428Y-8879600D01*
X4187428Y-8849600D02*
X4157428Y-8879600D01*
X4157428Y-8976600D02*
X4187428Y-9006600D01*
X4187428Y-8976600D02*
X4157428Y-9006600D01*
X4162508Y-9164560D02*
X4192508Y-9194560D01*
X4192508Y-9164560D02*
X4162508Y-9194560D01*
X4169650Y-10128490D02*
X4199650Y-10158490D01*
X4199650Y-10128490D02*
X4169650Y-10158490D01*
X4181080Y-11902680D02*
X4211080Y-11932680D01*
X4211080Y-11902680D02*
X4181080Y-11932680D01*
X4181080Y-8463520D02*
X4211080Y-8493520D01*
X4211080Y-8463520D02*
X4181080Y-8493520D01*
X4182155Y-10471195D02*
X4212155Y-10501195D01*
X4212155Y-10471195D02*
X4182155Y-10501195D01*
X4219971Y-8382240D02*
X4249971Y-8412240D01*
X4249971Y-8382240D02*
X4219971Y-8412240D01*
X4269464Y-11056414D02*
X4299464Y-11086414D01*
X4299464Y-11056414D02*
X4269464Y-11086414D01*
X4286011Y-9103600D02*
X4316011Y-9133600D01*
X4316011Y-9103600D02*
X4286011Y-9133600D01*
X4286884Y-8108796D02*
X4316884Y-8138796D01*
X4316884Y-8108796D02*
X4286884Y-8138796D01*
X4310056Y-10996100D02*
X4340056Y-11026100D01*
X4340056Y-10996100D02*
X4310056Y-11026100D01*
X4313160Y-9433800D02*
X4343160Y-9463800D01*
X4343160Y-9433800D02*
X4313160Y-9463800D01*
X4323320Y-8910560D02*
X4353320Y-8940560D01*
X4353320Y-8910560D02*
X4323320Y-8940560D01*
X4358880Y-8793720D02*
X4388880Y-8823720D01*
X4388880Y-8793720D02*
X4358880Y-8823720D01*
X4358880Y-11985709D02*
X4388880Y-12015709D01*
X4388880Y-11985709D02*
X4358880Y-12015709D01*
X4379200Y-11912840D02*
X4409200Y-11942840D01*
X4409200Y-11912840D02*
X4379200Y-11942840D01*
X4391157Y-9432659D02*
X4421157Y-9462659D01*
X4421157Y-9432659D02*
X4391157Y-9462659D01*
X4394440Y-8671800D02*
X4424440Y-8701800D01*
X4424440Y-8671800D02*
X4394440Y-8701800D01*
X4450320Y-12329400D02*
X4480320Y-12359400D01*
X4480320Y-12329400D02*
X4450320Y-12359400D01*
X4455400Y-8118080D02*
X4485400Y-8148080D01*
X4485400Y-8118080D02*
X4455400Y-8148080D01*
X4460480Y-8585440D02*
X4490480Y-8615440D01*
X4490480Y-8585440D02*
X4460480Y-8615440D01*
X4463849Y-9433831D02*
X4493849Y-9463831D01*
X4493849Y-9433831D02*
X4463849Y-9463831D01*
X4486950Y-11863789D02*
X4516950Y-11893789D01*
X4516950Y-11863789D02*
X4486950Y-11893789D01*
X4492709Y-8463520D02*
X4522709Y-8493520D01*
X4522709Y-8463520D02*
X4492709Y-8493520D01*
X4531600Y-12100800D02*
X4561600Y-12130800D01*
X4561600Y-12100800D02*
X4531600Y-12130800D01*
X4541760Y-9433800D02*
X4571760Y-9463800D01*
X4571760Y-9433800D02*
X4541760Y-9463800D01*
X4544300Y-8344140D02*
X4574300Y-8374140D01*
X4574300Y-8344140D02*
X4544300Y-8374140D01*
X4551920Y-10221200D02*
X4581920Y-10251200D01*
X4581920Y-10221200D02*
X4551920Y-10251200D01*
X4557000Y-10409160D02*
X4587000Y-10439160D01*
X4587000Y-10409160D02*
X4557000Y-10439160D01*
X4592560Y-8671800D02*
X4622560Y-8701800D01*
X4622560Y-8671800D02*
X4592560Y-8701800D01*
X4592560Y-9103600D02*
X4622560Y-9133600D01*
X4622560Y-9103600D02*
X4592560Y-9133600D01*
X4597640Y-8595600D02*
X4627640Y-8625600D01*
X4627640Y-8595600D02*
X4597640Y-8625600D01*
X4597640Y-8793720D02*
X4627640Y-8823720D01*
X4627640Y-8793720D02*
X4597640Y-8823720D01*
X4602720Y-8910560D02*
X4632720Y-8940560D01*
X4632720Y-8910560D02*
X4602720Y-8940560D01*
X4604301Y-8468600D02*
X4634301Y-8498600D01*
X4634301Y-8468600D02*
X4604301Y-8498600D01*
X4612880Y-9738600D02*
X4642880Y-9768600D01*
X4642880Y-9738600D02*
X4612880Y-9768600D01*
X4632874Y-11861679D02*
X4662874Y-11891679D01*
X4662874Y-11861679D02*
X4632874Y-11891679D01*
X4677650Y-9678910D02*
X4707650Y-9708910D01*
X4707650Y-9678910D02*
X4677650Y-9708910D01*
X4733801Y-9616239D02*
X4763801Y-9646239D01*
X4763801Y-9616239D02*
X4733801Y-9646239D01*
X4790680Y-11150840D02*
X4820680Y-11180840D01*
X4820680Y-11150840D02*
X4790680Y-11180840D01*
X4811000Y-10307560D02*
X4841000Y-10337560D01*
X4841000Y-10307560D02*
X4811000Y-10337560D01*
X4811622Y-11884105D02*
X4841622Y-11914105D01*
X4841622Y-11884105D02*
X4811622Y-11914105D01*
X4861800Y-9642080D02*
X4891800Y-9672080D01*
X4891800Y-9642080D02*
X4861800Y-9672080D01*
X4902440Y-9357600D02*
X4932440Y-9387600D01*
X4932440Y-9357600D02*
X4902440Y-9387600D01*
X4917680Y-9179800D02*
X4947680Y-9209800D01*
X4947680Y-9179800D02*
X4917680Y-9209800D01*
X4922760Y-8844520D02*
X4952760Y-8874520D01*
X4952760Y-8844520D02*
X4922760Y-8874520D01*
X4922760Y-8976600D02*
X4952760Y-9006600D01*
X4952760Y-8976600D02*
X4922760Y-9006600D01*
X4927840Y-8722600D02*
X4957840Y-8752600D01*
X4957840Y-8722600D02*
X4927840Y-8752600D01*
X4993880Y-9235680D02*
X5023880Y-9265680D01*
X5023880Y-9235680D02*
X4993880Y-9265680D01*
X4998960Y-10221200D02*
X5028960Y-10251200D01*
X5028960Y-10221200D02*
X4998960Y-10251200D01*
X5054840Y-10409160D02*
X5084840Y-10439160D01*
X5084840Y-10409160D02*
X5054840Y-10439160D01*
X5070080Y-10307560D02*
X5100080Y-10337560D01*
X5100080Y-10307560D02*
X5070080Y-10337560D01*
X5087860Y-9095980D02*
X5117860Y-9125980D01*
X5117860Y-9095980D02*
X5087860Y-9125980D01*
X5090400Y-9357600D02*
X5120400Y-9387600D01*
X5120400Y-9357600D02*
X5090400Y-9387600D01*
X5115800Y-8336520D02*
X5145800Y-8366520D01*
X5145800Y-8336520D02*
X5115800Y-8366520D01*
X5131040Y-10221200D02*
X5161040Y-10251200D01*
X5161040Y-10221200D02*
X5131040Y-10251200D01*
X5136142Y-12051746D02*
X5166142Y-12081746D01*
X5166142Y-12051746D02*
X5136142Y-12081746D01*
X5181840Y-10688560D02*
X5211840Y-10718560D01*
X5211840Y-10688560D02*
X5181840Y-10718560D01*
X5192000Y-10307560D02*
X5222000Y-10337560D01*
X5222000Y-10307560D02*
X5192000Y-10337560D01*
X5192000Y-12532600D02*
X5222000Y-12562600D01*
X5222000Y-12532600D02*
X5192000Y-12562600D01*
X5222319Y-12051746D02*
X5252319Y-12081746D01*
X5252319Y-12051746D02*
X5222319Y-12081746D01*
X5364720Y-7904720D02*
X5394720Y-7934720D01*
X5394720Y-7904720D02*
X5364720Y-7934720D01*
X5430760Y-8849600D02*
X5460760Y-8879600D01*
X5460760Y-8849600D02*
X5430760Y-8879600D01*
X5430760Y-8976600D02*
X5460760Y-9006600D01*
X5460760Y-8976600D02*
X5430760Y-9006600D01*
X5435840Y-8595600D02*
X5465840Y-8625600D01*
X5465840Y-8595600D02*
X5435840Y-8625600D01*
X5435840Y-8722600D02*
X5465840Y-8752600D01*
X5465840Y-8722600D02*
X5435840Y-8752600D01*
X5440920Y-10998440D02*
X5470920Y-11028440D01*
X5470920Y-10998440D02*
X5440920Y-11028440D01*
X5461240Y-8219680D02*
X5491240Y-8249680D01*
X5491240Y-8219680D02*
X5461240Y-8249680D01*
X5487619Y-11098690D02*
X5517619Y-11128690D01*
X5517619Y-11098690D02*
X5487619Y-11128690D01*
X5603480Y-8671800D02*
X5633480Y-8701800D01*
X5633480Y-8671800D02*
X5603480Y-8701800D01*
X5623800Y-8412721D02*
X5653800Y-8442721D01*
X5653800Y-8412721D02*
X5623800Y-8442721D01*
X5654280Y-7904720D02*
X5684280Y-7934720D01*
X5684280Y-7904720D02*
X5654280Y-7934720D01*
X5700000Y-8514320D02*
X5730000Y-8544320D01*
X5730000Y-8514320D02*
X5700000Y-8544320D01*
X5801600Y-7904720D02*
X5831600Y-7934720D01*
X5831600Y-7904720D02*
X5801600Y-7934720D01*
X5852400Y-12050000D02*
X5882400Y-12080000D01*
X5882400Y-12050000D02*
X5852400Y-12080000D01*
X5857480Y-9484600D02*
X5887480Y-9514600D01*
X5887480Y-9484600D02*
X5857480Y-9514600D01*
X5877800Y-10688560D02*
X5907800Y-10718560D01*
X5907800Y-10688560D02*
X5877800Y-10718560D01*
X5887960Y-10307560D02*
X5917960Y-10337560D01*
X5917960Y-10307560D02*
X5887960Y-10337560D01*
X5948920Y-9362680D02*
X5978920Y-9392680D01*
X5978920Y-9362680D02*
X5948920Y-9392680D01*
X5948920Y-9697960D02*
X5978920Y-9727960D01*
X5978920Y-9697960D02*
X5948920Y-9727960D01*
X5998132Y-9484600D02*
X6028132Y-9514600D01*
X6028132Y-9484600D02*
X5998132Y-9514600D01*
X6004800Y-10307560D02*
X6034800Y-10337560D01*
X6034800Y-10307560D02*
X6004800Y-10337560D01*
X6081001Y-10409160D02*
X6111001Y-10439160D01*
X6111001Y-10409160D02*
X6081001Y-10439160D01*
X6106400Y-8148560D02*
X6136400Y-8178560D01*
X6136400Y-8148560D02*
X6106400Y-8178560D01*
X6106400Y-11796000D02*
X6136400Y-11826000D01*
X6136400Y-11796000D02*
X6106400Y-11826000D01*
X6223240Y-8078941D02*
X6253240Y-8108941D01*
X6253240Y-8078941D02*
X6223240Y-8108941D01*
X6223240Y-10581880D02*
X6253240Y-10611880D01*
X6253240Y-10581880D02*
X6223240Y-10611880D01*
X6233400Y-12038094D02*
X6263400Y-12068094D01*
X6263400Y-12038094D02*
X6233400Y-12068094D01*
X6238480Y-11044160D02*
X6268480Y-11074160D01*
X6268480Y-11044160D02*
X6238480Y-11074160D01*
X6263880Y-10307560D02*
X6293880Y-10337560D01*
X6293880Y-10307560D02*
X6263880Y-10337560D01*
X6265629Y-9484599D02*
X6295629Y-9514599D01*
X6295629Y-9484599D02*
X6265629Y-9514599D01*
X6268960Y-10094200D02*
X6298960Y-10124200D01*
X6298960Y-10094200D02*
X6268960Y-10124200D01*
X6304520Y-9103600D02*
X6334520Y-9133600D01*
X6334520Y-9103600D02*
X6304520Y-9133600D01*
X6304520Y-8844520D02*
X6334520Y-8874520D01*
X6334520Y-8844520D02*
X6304520Y-8874520D01*
X6304520Y-8976600D02*
X6334520Y-9006600D01*
X6334520Y-8976600D02*
X6304520Y-9006600D01*
X6309600Y-8722600D02*
X6339600Y-8752600D01*
X6339600Y-8722600D02*
X6309600Y-8752600D01*
X6334124Y-8317076D02*
X6364124Y-8347076D01*
X6364124Y-8317076D02*
X6334124Y-8347076D01*
X6335000Y-11079720D02*
X6365000Y-11109720D01*
X6365000Y-11079720D02*
X6335000Y-11109720D01*
X6335000Y-12038094D02*
X6365000Y-12068094D01*
X6365000Y-12038094D02*
X6335000Y-12068094D01*
X6578840Y-10078960D02*
X6608840Y-10108960D01*
X6608840Y-10078960D02*
X6578840Y-10108960D01*
X6634720Y-9230600D02*
X6664720Y-9260600D01*
X6664720Y-9230600D02*
X6634720Y-9260600D01*
X6639090Y-12112541D02*
X6669090Y-12142541D01*
X6669090Y-12112541D02*
X6639090Y-12142541D01*
X6656416Y-10073499D02*
X6686416Y-10103499D01*
X6686416Y-10073499D02*
X6656416Y-10103499D01*
X6716000Y-10409160D02*
X6746000Y-10439160D01*
X6746000Y-10409160D02*
X6716000Y-10439160D01*
X6717456Y-9558731D02*
X6747456Y-9588731D01*
X6747456Y-9558731D02*
X6717456Y-9588731D01*
X6729116Y-10073908D02*
X6759116Y-10103908D01*
X6759116Y-10073908D02*
X6729116Y-10103908D01*
X6746480Y-7904720D02*
X6776480Y-7934720D01*
X6776480Y-7904720D02*
X6746480Y-7934720D01*
X6766671Y-9505221D02*
X6796671Y-9535221D01*
X6796671Y-9505221D02*
X6766671Y-9535221D01*
X6771108Y-12112541D02*
X6801108Y-12142541D01*
X6801108Y-12112541D02*
X6771108Y-12142541D01*
X6817992Y-9453727D02*
X6847992Y-9483727D01*
X6847992Y-9453727D02*
X6817992Y-9483727D01*
X6837920Y-11028920D02*
X6867920Y-11058920D01*
X6867920Y-11028920D02*
X6837920Y-11058920D01*
X6858240Y-7904720D02*
X6888240Y-7934720D01*
X6888240Y-7904720D02*
X6858240Y-7934720D01*
X6888720Y-12151600D02*
X6918720Y-12181600D01*
X6918720Y-12151600D02*
X6888720Y-12181600D01*
X6893800Y-10614900D02*
X6923800Y-10644900D01*
X6923800Y-10614900D02*
X6893800Y-10644900D01*
X6926029Y-8549880D02*
X6956029Y-8579880D01*
X6956029Y-8549880D02*
X6926029Y-8579880D01*
X6959840Y-7904720D02*
X6989840Y-7934720D01*
X6989840Y-7904720D02*
X6959840Y-7934720D01*
X6959840Y-10399000D02*
X6989840Y-10429000D01*
X6989840Y-10399000D02*
X6959840Y-10429000D01*
X6964920Y-10221200D02*
X6994920Y-10251200D01*
X6994920Y-10221200D02*
X6964920Y-10251200D01*
X7005560Y-12156680D02*
X7035560Y-12186680D01*
X7035560Y-12156680D02*
X7005560Y-12186680D01*
X7030960Y-8072360D02*
X7060960Y-8102360D01*
X7060960Y-8072360D02*
X7030960Y-8102360D01*
X7158694Y-11092366D02*
X7188694Y-11122366D01*
X7188694Y-11092366D02*
X7158694Y-11122366D01*
X7173200Y-9545560D02*
X7203200Y-9575560D01*
X7203200Y-9545560D02*
X7173200Y-9575560D01*
X7213840Y-11181321D02*
X7243840Y-11211321D01*
X7243840Y-11181321D02*
X7213840Y-11211321D01*
X7218920Y-10307560D02*
X7248920Y-10337560D01*
X7248920Y-10307560D02*
X7218920Y-10337560D01*
X7229080Y-11046700D02*
X7259080Y-11076700D01*
X7259080Y-11046700D02*
X7229080Y-11076700D01*
X7406880Y-10221200D02*
X7436880Y-10251200D01*
X7436880Y-10221200D02*
X7406880Y-10251200D01*
X7467840Y-10307560D02*
X7497840Y-10337560D01*
X7497840Y-10307560D02*
X7467840Y-10337560D01*
X7467840Y-11089880D02*
X7497840Y-11119880D01*
X7497840Y-11089880D02*
X7467840Y-11119880D01*
X7467840Y-12012693D02*
X7497840Y-12042693D01*
X7497840Y-12012693D02*
X7467840Y-12042693D01*
X7472920Y-10399000D02*
X7502920Y-10429000D01*
X7502920Y-10399000D02*
X7472920Y-10429000D01*
X7528800Y-8976600D02*
X7558800Y-9006600D01*
X7558800Y-8976600D02*
X7528800Y-9006600D01*
X7533880Y-8844520D02*
X7563880Y-8874520D01*
X7563880Y-8844520D02*
X7533880Y-8874520D01*
X7538960Y-10221200D02*
X7568960Y-10251200D01*
X7568960Y-10221200D02*
X7538960Y-10251200D01*
X7549120Y-8336520D02*
X7579120Y-8366520D01*
X7579120Y-8336520D02*
X7549120Y-8366520D01*
X7589760Y-10307560D02*
X7619760Y-10337560D01*
X7619760Y-10307560D02*
X7589760Y-10337560D01*
X7594840Y-10688560D02*
X7624840Y-10718560D01*
X7624840Y-10688560D02*
X7594840Y-10718560D01*
X7615160Y-12095720D02*
X7645160Y-12125720D01*
X7645160Y-12095720D02*
X7615160Y-12125720D01*
X7742160Y-11557240D02*
X7772160Y-11587240D01*
X7772160Y-11557240D02*
X7742160Y-11587240D01*
X7809949Y-12095720D02*
X7839949Y-12125720D01*
X7839949Y-12095720D02*
X7809949Y-12125720D01*
X7831859Y-8590520D02*
X7861859Y-8620520D01*
X7861859Y-8590520D02*
X7831859Y-8620520D01*
X7838680Y-10226280D02*
X7868680Y-10256280D01*
X7868680Y-10226280D02*
X7838680Y-10256280D01*
X7843760Y-9403320D02*
X7873760Y-9433320D01*
X7873760Y-9403320D02*
X7843760Y-9433320D01*
X7848840Y-9311880D02*
X7878840Y-9341880D01*
X7878840Y-9311880D02*
X7848840Y-9341880D01*
X7853920Y-8336520D02*
X7883920Y-8366520D01*
X7883920Y-8336520D02*
X7853920Y-8366520D01*
X7914880Y-9098520D02*
X7944880Y-9128520D01*
X7944880Y-9098520D02*
X7914880Y-9128520D01*
X7919960Y-12012693D02*
X7949960Y-12042693D01*
X7949960Y-12012693D02*
X7919960Y-12042693D01*
X7930120Y-12182080D02*
X7960120Y-12212080D01*
X7960120Y-12182080D02*
X7930120Y-12212080D01*
X8025060Y-8681960D02*
X8055060Y-8711960D01*
X8055060Y-8681960D02*
X8025060Y-8711960D01*
X8041880Y-8260320D02*
X8071880Y-8290320D01*
X8071880Y-8260320D02*
X8041880Y-8290320D01*
X8097760Y-8646400D02*
X8127760Y-8676400D01*
X8127760Y-8646400D02*
X8097760Y-8676400D01*
X8097760Y-12141440D02*
X8127760Y-12171440D01*
X8127760Y-12141440D02*
X8097760Y-12171440D01*
X8100300Y-10614900D02*
X8130300Y-10644900D01*
X8130300Y-10614900D02*
X8100300Y-10644900D01*
X8102840Y-9807977D02*
X8132840Y-9837977D01*
X8132840Y-9807977D02*
X8102840Y-9837977D01*
X8128240Y-8189200D02*
X8158240Y-8219200D01*
X8158240Y-8189200D02*
X8128240Y-8219200D01*
X8143480Y-11232120D02*
X8173480Y-11262120D01*
X8173480Y-11232120D02*
X8143480Y-11262120D01*
X8164898Y-12082592D02*
X8194898Y-12112592D01*
X8194898Y-12082592D02*
X8164898Y-12112592D01*
X8209520Y-9782575D02*
X8239520Y-9812575D01*
X8239520Y-9782575D02*
X8209520Y-9812575D01*
X8219680Y-10221200D02*
X8249680Y-10251200D01*
X8249680Y-10221200D02*
X8219680Y-10251200D01*
X8219680Y-10399000D02*
X8249680Y-10429000D01*
X8249680Y-10399000D02*
X8219680Y-10429000D01*
X8275560Y-8189200D02*
X8305560Y-8219200D01*
X8305560Y-8189200D02*
X8275560Y-8219200D01*
X8290800Y-8966440D02*
X8320800Y-8996440D01*
X8320800Y-8966440D02*
X8290800Y-8996440D01*
X8290800Y-9169640D02*
X8320800Y-9199640D01*
X8320800Y-9169640D02*
X8290800Y-9199640D01*
X8311120Y-9403320D02*
X8341120Y-9433320D01*
X8341120Y-9403320D02*
X8311120Y-9433320D01*
X8351760Y-8580360D02*
X8381760Y-8610360D01*
X8381760Y-8580360D02*
X8351760Y-8610360D01*
X8392400Y-10144999D02*
X8422400Y-10174999D01*
X8422400Y-10144999D02*
X8392400Y-10174999D01*
X8392400Y-10386300D02*
X8422400Y-10416300D01*
X8422400Y-10386300D02*
X8392400Y-10416300D01*
X8392401Y-10868900D02*
X8422401Y-10898900D01*
X8422401Y-10868900D02*
X8392401Y-10898900D01*
X8402560Y-9347440D02*
X8432560Y-9377440D01*
X8432560Y-9347440D02*
X8402560Y-9377440D01*
X8422880Y-8260320D02*
X8452880Y-8290320D01*
X8452880Y-8260320D02*
X8422880Y-8290320D01*
X8463520Y-9034228D02*
X8493520Y-9064228D01*
X8493520Y-9034228D02*
X8463520Y-9064228D01*
X8478760Y-8433040D02*
X8508760Y-8463040D01*
X8508760Y-8433040D02*
X8478760Y-8463040D01*
X8481300Y-10614900D02*
X8511300Y-10644900D01*
X8511300Y-10614900D02*
X8481300Y-10644900D01*
X8529560Y-8199360D02*
X8559560Y-8229360D01*
X8559560Y-8199360D02*
X8529560Y-8229360D01*
X8621000Y-8763240D02*
X8651000Y-8793240D01*
X8651000Y-8763240D02*
X8621000Y-8793240D01*
X8629178Y-11980006D02*
X8659178Y-12010006D01*
X8659178Y-11980006D02*
X8629178Y-12010006D01*
X8636240Y-8981680D02*
X8666240Y-9011680D01*
X8666240Y-8981680D02*
X8636240Y-9011680D01*
X8646401Y-10221200D02*
X8676401Y-10251200D01*
X8676401Y-10221200D02*
X8646401Y-10251200D01*
X8659100Y-10665699D02*
X8689100Y-10695699D01*
X8689100Y-10665699D02*
X8659100Y-10695699D01*
X8674630Y-10075150D02*
X8704630Y-10105150D01*
X8704630Y-10075150D02*
X8674630Y-10105150D01*
X8684500Y-10399000D02*
X8714500Y-10429000D01*
X8714500Y-10399000D02*
X8684500Y-10429000D01*
X8742920Y-8407640D02*
X8772920Y-8437640D01*
X8772920Y-8407640D02*
X8742920Y-8437640D01*
X8748000Y-8326360D02*
X8778000Y-8356360D01*
X8778000Y-8326360D02*
X8748000Y-8356360D01*
X8779144Y-10310374D02*
X8809144Y-10340374D01*
X8809144Y-10310374D02*
X8779144Y-10340374D01*
X8786100Y-10500600D02*
X8816100Y-10530600D01*
X8816100Y-10500600D02*
X8786100Y-10530600D01*
X8798800Y-10043400D02*
X8828800Y-10073400D01*
X8828800Y-10043400D02*
X8798800Y-10073400D01*
X8808960Y-8981680D02*
X8838960Y-9011680D01*
X8838960Y-8981680D02*
X8808960Y-9011680D01*
X8810597Y-11993953D02*
X8840597Y-12023953D01*
X8840597Y-11993953D02*
X8810597Y-12023953D01*
X8815789Y-11870451D02*
X8845789Y-11900451D01*
X8845789Y-11870451D02*
X8815789Y-11900451D01*
X8822537Y-11277513D02*
X8852537Y-11307513D01*
X8852537Y-11277513D02*
X8822537Y-11307513D01*
X8848957Y-12055711D02*
X8878957Y-12085711D01*
X8878957Y-12055711D02*
X8848957Y-12085711D01*
X8887095Y-11049865D02*
X8917095Y-11079865D01*
X8917095Y-11049865D02*
X8887095Y-11079865D01*
X8900400Y-10614900D02*
X8930400Y-10644900D01*
X8930400Y-10614900D02*
X8900400Y-10644900D01*
X8925800Y-12227800D02*
X8955800Y-12257800D01*
X8955800Y-12227800D02*
X8925800Y-12257800D01*
X8925800Y-12558000D02*
X8955800Y-12588000D01*
X8955800Y-12558000D02*
X8925800Y-12588000D01*
X8985794Y-11018236D02*
X9015794Y-11048236D01*
X9015794Y-11018236D02*
X8985794Y-11048236D01*
X8992716Y-11866244D02*
X9022716Y-11896244D01*
X9022716Y-11866244D02*
X8992716Y-11896244D01*
X8992995Y-11214438D02*
X9022995Y-11244438D01*
X9022995Y-11214438D02*
X8992995Y-11244438D01*
X9000828Y-12026345D02*
X9030828Y-12056345D01*
X9030828Y-12026345D02*
X9000828Y-12056345D01*
X9001183Y-11116337D02*
X9031183Y-11146337D01*
X9031183Y-11116337D02*
X9001183Y-11146337D01*
X9052842Y-10990129D02*
X9082842Y-11020129D01*
X9082842Y-10990129D02*
X9052842Y-11020129D01*
X9078200Y-11985701D02*
X9108200Y-12015701D01*
X9108200Y-11985701D02*
X9078200Y-12015701D01*
X9078841Y-11171060D02*
X9108841Y-11201060D01*
X9108841Y-11171060D02*
X9078841Y-11201060D01*
X9093440Y-11274509D02*
X9123440Y-11304509D01*
X9123440Y-11274509D02*
X9093440Y-11304509D01*
X9098520Y-8768270D02*
X9128520Y-8798270D01*
X9128520Y-8768270D02*
X9098520Y-8798270D01*
X9112680Y-9638160D02*
X9142680Y-9668160D01*
X9142680Y-9638160D02*
X9112680Y-9668160D01*
X9114015Y-9565471D02*
X9144015Y-9595471D01*
X9144015Y-9565471D02*
X9114015Y-9595471D01*
X9125525Y-10988505D02*
X9155525Y-11018505D01*
X9155525Y-10988505D02*
X9125525Y-11018505D01*
X9157944Y-8045221D02*
X9187944Y-8075221D01*
X9187944Y-8045221D02*
X9157944Y-8075221D01*
X9198226Y-10988618D02*
X9228226Y-11018618D01*
X9228226Y-10988618D02*
X9198226Y-11018618D01*
X9235680Y-8045221D02*
X9265680Y-8075221D01*
X9265680Y-8045221D02*
X9235680Y-8075221D01*
X9288703Y-9730752D02*
X9318703Y-9760752D01*
X9318703Y-9730752D02*
X9288703Y-9760752D01*
X9301720Y-10221200D02*
X9331720Y-10251200D01*
X9331720Y-10221200D02*
X9301720Y-10251200D01*
X9322916Y-9666604D02*
X9352916Y-9696604D01*
X9352916Y-9666604D02*
X9322916Y-9696604D01*
X9339463Y-7994419D02*
X9369463Y-8024419D01*
X9369463Y-7994419D02*
X9339463Y-8024419D01*
X9362680Y-8229840D02*
X9392680Y-8259840D01*
X9392680Y-8229840D02*
X9362680Y-8259840D01*
X9362680Y-8768320D02*
X9392680Y-8798320D01*
X9392680Y-8768320D02*
X9362680Y-8798320D01*
X9365170Y-8323770D02*
X9395170Y-8353770D01*
X9395170Y-8323770D02*
X9365170Y-8353770D01*
X9395701Y-10627600D02*
X9425701Y-10657600D01*
X9425701Y-10627600D02*
X9395701Y-10657600D01*
X9428720Y-7994419D02*
X9458720Y-8024419D01*
X9458720Y-7994419D02*
X9428720Y-8024419D01*
X9449040Y-8204440D02*
X9479040Y-8234440D01*
X9479040Y-8204440D02*
X9449040Y-8234440D01*
X9464280Y-8869920D02*
X9494280Y-8899920D01*
X9494280Y-8869920D02*
X9464280Y-8899920D01*
X9479520Y-11135600D02*
X9509520Y-11165600D01*
X9509520Y-11135600D02*
X9479520Y-11165600D01*
X9530320Y-8204440D02*
X9560320Y-8234440D01*
X9560320Y-8204440D02*
X9530320Y-8234440D01*
X9570388Y-11112958D02*
X9600388Y-11142958D01*
X9600388Y-11112958D02*
X9570388Y-11142958D01*
X9610019Y-8204327D02*
X9640019Y-8234327D01*
X9640019Y-8204327D02*
X9610019Y-8234327D01*
X9616680Y-11215131D02*
X9646680Y-11245131D01*
X9646680Y-11215131D02*
X9616680Y-11245131D01*
X9642080Y-8707360D02*
X9672080Y-8737360D01*
X9672080Y-8707360D02*
X9642080Y-8737360D01*
X9642080Y-11841720D02*
X9672080Y-11871720D01*
X9672080Y-11841720D02*
X9642080Y-11871720D01*
X9647160Y-8331440D02*
X9677160Y-8361440D01*
X9677160Y-8331440D02*
X9647160Y-8361440D01*
X9652240Y-8427960D02*
X9682240Y-8457960D01*
X9682240Y-8427960D02*
X9652240Y-8457960D01*
X9652435Y-7994603D02*
X9682435Y-8024603D01*
X9682435Y-7994603D02*
X9652435Y-8024603D01*
X9682720Y-8204440D02*
X9712720Y-8234440D01*
X9712720Y-8204440D02*
X9682720Y-8234440D01*
X9733520Y-7991080D02*
X9763520Y-8021080D01*
X9763520Y-7991080D02*
X9733520Y-8021080D01*
X9735268Y-11215131D02*
X9765268Y-11245131D01*
X9765268Y-11215131D02*
X9735268Y-11245131D01*
X9738600Y-11841720D02*
X9768600Y-11871720D01*
X9768600Y-11841720D02*
X9738600Y-11871720D01*
X9748760Y-10221200D02*
X9778760Y-10251200D01*
X9778760Y-10221200D02*
X9748760Y-10251200D01*
X9809145Y-7919662D02*
X9839145Y-7949662D01*
X9839145Y-7919662D02*
X9809145Y-7949662D01*
X9870680Y-11333720D02*
X9900680Y-11363720D01*
X9900680Y-11333720D02*
X9870680Y-11363720D01*
X9870680Y-11902680D02*
X9900680Y-11932680D01*
X9900680Y-11902680D02*
X9870680Y-11932680D01*
X9870680Y-12019520D02*
X9900680Y-12049520D01*
X9900680Y-12019520D02*
X9870680Y-12049520D01*
X9891000Y-7914880D02*
X9921000Y-7944880D01*
X9921000Y-7914880D02*
X9891000Y-7944880D01*
X9997680Y-10293901D02*
X10027680Y-10323901D01*
X10027680Y-10293901D02*
X9997680Y-10323901D01*
X9998450Y-10692870D02*
X10028450Y-10722870D01*
X10028450Y-10692870D02*
X9998450Y-10722870D01*
X10018000Y-8001240D02*
X10048000Y-8031240D01*
X10048000Y-8001240D02*
X10018000Y-8031240D01*
X10048480Y-8595600D02*
X10078480Y-8625600D01*
X10078480Y-8595600D02*
X10048480Y-8625600D01*
X10048480Y-8676880D02*
X10078480Y-8706880D01*
X10078480Y-8676880D02*
X10048480Y-8706880D01*
X10190720Y-10221200D02*
X10220720Y-10251200D01*
X10220720Y-10221200D02*
X10190720Y-10251200D01*
X10226280Y-9474440D02*
X10256280Y-9504440D01*
X10256280Y-9474440D02*
X10226280Y-9504440D01*
X10226280Y-9755428D02*
X10256280Y-9785428D01*
X10256280Y-9755428D02*
X10226280Y-9785428D01*
X10246600Y-10691890D02*
X10276600Y-10721890D01*
X10276600Y-10691890D02*
X10246600Y-10721890D01*
X10259299Y-10043400D02*
X10289299Y-10073400D01*
X10289299Y-10043400D02*
X10259299Y-10073400D01*
X10373600Y-10056100D02*
X10403600Y-10086100D01*
X10403600Y-10056100D02*
X10373600Y-10086100D01*
X10378680Y-10373600D02*
X10408680Y-10403600D01*
X10408680Y-10373600D02*
X10378680Y-10403600D01*
X10427730Y-10446470D02*
X10457730Y-10476470D01*
X10457730Y-10446470D02*
X10427730Y-10476470D01*
X10526000Y-10932400D02*
X10556000Y-10962400D01*
X10556000Y-10932400D02*
X10526000Y-10962400D01*
X10538700Y-10449800D02*
X10568700Y-10479800D01*
X10568700Y-10449800D02*
X10538700Y-10479800D01*
X10538700Y-10691100D02*
X10568700Y-10721100D01*
X10568700Y-10691100D02*
X10538700Y-10721100D01*
X10556481Y-8488920D02*
X10586481Y-8518920D01*
X10586481Y-8488920D02*
X10556481Y-8518920D01*
X10566640Y-8600680D02*
X10596640Y-8630680D01*
X10596640Y-8600680D02*
X10566640Y-8630680D01*
X10566640Y-9469360D02*
X10596640Y-9499360D01*
X10596640Y-9469360D02*
X10566640Y-9499360D01*
X10586960Y-8336520D02*
X10616960Y-8366520D01*
X10616960Y-8336520D02*
X10586960Y-8366520D01*
X10719040Y-9347440D02*
X10749040Y-9377440D01*
X10749040Y-9347440D02*
X10719040Y-9377440D01*
X10729200Y-8001240D02*
X10759200Y-8031240D01*
X10759200Y-8001240D02*
X10729200Y-8031240D01*
X10780000Y-10119600D02*
X10810000Y-10149600D01*
X10810000Y-10119600D02*
X10780000Y-10149600D01*
X10881600Y-8971520D02*
X10911600Y-9001520D01*
X10911600Y-8971520D02*
X10881600Y-9001520D01*
X10886680Y-8057120D02*
X10916680Y-8087120D01*
X10916680Y-8057120D02*
X10886680Y-8087120D01*
X10907480Y-8747520D02*
X10937480Y-8777520D01*
X10937480Y-8747520D02*
X10907480Y-8777520D01*
X10912080Y-8656560D02*
X10942080Y-8686560D01*
X10942080Y-8656560D02*
X10912080Y-8686560D01*
X10912080Y-8844520D02*
X10942080Y-8874520D01*
X10942080Y-8844520D02*
X10912080Y-8874520D01*
X10922240Y-7599920D02*
X10952240Y-7629920D01*
X10952240Y-7599920D02*
X10922240Y-7629920D01*
X11052571Y-8590520D02*
X11082571Y-8620520D01*
X11082571Y-8590520D02*
X11052571Y-8620520D01*
X11120360Y-8341600D02*
X11150360Y-8371600D01*
X11150360Y-8341600D02*
X11120360Y-8371600D01*
X11125440Y-9098520D02*
X11155440Y-9128520D01*
X11155440Y-9098520D02*
X11125440Y-9128520D01*
X11224500Y-12367500D02*
X11254500Y-12397500D01*
X11254500Y-12367500D02*
X11224500Y-12397500D01*
X11288000Y-10894300D02*
X11318000Y-10924300D01*
X11318000Y-10894300D02*
X11288000Y-10924300D01*
X11843469Y-7518640D02*
X11873469Y-7548640D01*
X11873469Y-7518640D02*
X11843469Y-7548640D01*
X11843469Y-7721840D02*
X11873469Y-7751840D01*
X11873469Y-7721840D02*
X11843469Y-7751840D01*
X11948400Y-10143251D02*
X11978400Y-10173251D01*
X11978400Y-10143251D02*
X11948400Y-10173251D01*
X11948400Y-10627600D02*
X11978400Y-10657600D01*
X11978400Y-10627600D02*
X11948400Y-10657600D01*
X11958560Y-8001240D02*
X11988560Y-8031240D01*
X11988560Y-8001240D02*
X11958560Y-8031240D01*
X12679920Y-8554960D02*
X12709920Y-8584960D01*
X12709920Y-8554960D02*
X12679920Y-8584960D01*
X12735642Y-10373758D02*
X12765642Y-10403758D01*
X12765642Y-10373758D02*
X12735642Y-10403758D01*
X12806920Y-9550640D02*
X12836920Y-9580640D01*
X12836920Y-9550640D02*
X12806920Y-9580640D01*
X4338000Y-12548780D02*
G75*
G03*
X4338000Y-12548780I-20000J0D01*
G01*
X8940477Y-10434323D02*
G75*
G03*
X8940477Y-10434323I-20000J0D01*
G01*
X11709080Y-12644120D02*
G75*
G03*
X11709080Y-12644120I-20000J0D01*
G01*
X11958000Y-12446000D02*
G75*
G03*
X11958000Y-12446000I-20000J0D01*
G01*
X3571240Y-11400320D02*
X3571240Y-11500320D01*
X3521240Y-11450320D02*
X3621240Y-11450320D01*
X3571240Y-11654320D02*
X3571240Y-11754320D01*
X3521240Y-11704320D02*
X3621240Y-11704320D01*
X3578900Y-7365000D02*
X3578900Y-7465000D01*
X3528900Y-7415000D02*
X3628900Y-7415000D01*
X3578900Y-7619000D02*
X3578900Y-7719000D01*
X3528900Y-7669000D02*
X3628900Y-7669000D01*
X3825240Y-11400320D02*
X3825240Y-11500320D01*
X3775240Y-11450320D02*
X3875240Y-11450320D01*
X3825240Y-11654320D02*
X3825240Y-11754320D01*
X3775240Y-11704320D02*
X3875240Y-11704320D01*
X3832900Y-7365000D02*
X3832900Y-7465000D01*
X3782900Y-7415000D02*
X3882900Y-7415000D01*
X3832900Y-7619000D02*
X3832900Y-7719000D01*
X3782900Y-7669000D02*
X3882900Y-7669000D01*
X4079240Y-11400320D02*
X4079240Y-11500320D01*
X4029240Y-11450320D02*
X4129240Y-11450320D01*
X4079240Y-11654320D02*
X4079240Y-11754320D01*
X4029240Y-11704320D02*
X4129240Y-11704320D01*
X4086900Y-7365000D02*
X4086900Y-7465000D01*
X4036900Y-7415000D02*
X4136900Y-7415000D01*
X4086900Y-7619000D02*
X4086900Y-7719000D01*
X4036900Y-7669000D02*
X4136900Y-7669000D01*
X4333240Y-11400320D02*
X4333240Y-11500320D01*
X4283240Y-11450320D02*
X4383240Y-11450320D01*
X4333240Y-11654320D02*
X4333240Y-11754320D01*
X4283240Y-11704320D02*
X4383240Y-11704320D01*
X4340900Y-7365000D02*
X4340900Y-7465000D01*
X4290900Y-7415000D02*
X4390900Y-7415000D01*
X4340900Y-7619000D02*
X4340900Y-7719000D01*
X4290900Y-7669000D02*
X4390900Y-7669000D01*
X4587240Y-11400320D02*
X4587240Y-11500320D01*
X4537240Y-11450320D02*
X4637240Y-11450320D01*
X4587240Y-11654320D02*
X4587240Y-11754320D01*
X4537240Y-11704320D02*
X4637240Y-11704320D01*
X4594900Y-7365000D02*
X4594900Y-7465000D01*
X4544900Y-7415000D02*
X4644900Y-7415000D01*
X4594900Y-7619000D02*
X4594900Y-7719000D01*
X4544900Y-7669000D02*
X4644900Y-7669000D01*
X4841240Y-11400320D02*
X4841240Y-11500320D01*
X4791240Y-11450320D02*
X4891240Y-11450320D01*
X4841240Y-11654320D02*
X4841240Y-11754320D01*
X4791240Y-11704320D02*
X4891240Y-11704320D01*
X4848900Y-7365000D02*
X4848900Y-7465000D01*
X4798900Y-7415000D02*
X4898900Y-7415000D01*
X4848900Y-7619000D02*
X4848900Y-7719000D01*
X4798900Y-7669000D02*
X4898900Y-7669000D01*
X5095240Y-11400320D02*
X5095240Y-11500320D01*
X5045240Y-11450320D02*
X5145240Y-11450320D01*
X5095240Y-11654320D02*
X5095240Y-11754320D01*
X5045240Y-11704320D02*
X5145240Y-11704320D01*
X5102900Y-7365000D02*
X5102900Y-7465000D01*
X5052900Y-7415000D02*
X5152900Y-7415000D01*
X5102900Y-7619000D02*
X5102900Y-7719000D01*
X5052900Y-7669000D02*
X5152900Y-7669000D01*
X5349240Y-11400320D02*
X5349240Y-11500320D01*
X5299240Y-11450320D02*
X5399240Y-11450320D01*
X5349240Y-11654320D02*
X5349240Y-11754320D01*
X5299240Y-11704320D02*
X5399240Y-11704320D01*
X5356900Y-7365000D02*
X5356900Y-7465000D01*
X5306900Y-7415000D02*
X5406900Y-7415000D01*
X5356900Y-7619000D02*
X5356900Y-7719000D01*
X5306900Y-7669000D02*
X5406900Y-7669000D01*
X5603240Y-11400320D02*
X5603240Y-11500320D01*
X5553240Y-11450320D02*
X5653240Y-11450320D01*
X5603240Y-11654320D02*
X5603240Y-11754320D01*
X5553240Y-11704320D02*
X5653240Y-11704320D01*
X5610900Y-7365000D02*
X5610900Y-7465000D01*
X5560900Y-7415000D02*
X5660900Y-7415000D01*
X5610900Y-7619000D02*
X5610900Y-7719000D01*
X5560900Y-7669000D02*
X5660900Y-7669000D01*
X5857240Y-11400320D02*
X5857240Y-11500320D01*
X5807240Y-11450320D02*
X5907240Y-11450320D01*
X5857240Y-11654320D02*
X5857240Y-11754320D01*
X5807240Y-11704320D02*
X5907240Y-11704320D01*
X5864900Y-7365000D02*
X5864900Y-7465000D01*
X5814900Y-7415000D02*
X5914900Y-7415000D01*
X5864900Y-7619000D02*
X5864900Y-7719000D01*
X5814900Y-7669000D02*
X5914900Y-7669000D01*
X6118900Y-7365000D02*
X6118900Y-7465000D01*
X6068900Y-7415000D02*
X6168900Y-7415000D01*
X6118900Y-7619000D02*
X6118900Y-7719000D01*
X6068900Y-7669000D02*
X6168900Y-7669000D01*
X6372900Y-7365000D02*
X6372900Y-7465000D01*
X6322900Y-7415000D02*
X6422900Y-7415000D01*
X6372900Y-7619000D02*
X6372900Y-7719000D01*
X6322900Y-7669000D02*
X6422900Y-7669000D01*
X6616700Y-11400320D02*
X6616700Y-11500320D01*
X6566700Y-11450320D02*
X6666700Y-11450320D01*
X6616700Y-11654320D02*
X6616700Y-11754320D01*
X6566700Y-11704320D02*
X6666700Y-11704320D01*
X6626900Y-7365000D02*
X6626900Y-7465000D01*
X6576900Y-7415000D02*
X6676900Y-7415000D01*
X6626900Y-7619000D02*
X6626900Y-7719000D01*
X6576900Y-7669000D02*
X6676900Y-7669000D01*
X6870700Y-11400320D02*
X6870700Y-11500320D01*
X6820700Y-11450320D02*
X6920700Y-11450320D01*
X6870700Y-11654320D02*
X6870700Y-11754320D01*
X6820700Y-11704320D02*
X6920700Y-11704320D01*
X7124700Y-11400320D02*
X7124700Y-11500320D01*
X7074700Y-11450320D02*
X7174700Y-11450320D01*
X7124700Y-11654320D02*
X7124700Y-11754320D01*
X7074700Y-11704320D02*
X7174700Y-11704320D01*
X7378700Y-11400320D02*
X7378700Y-11500320D01*
X7328700Y-11450320D02*
X7428700Y-11450320D01*
X7378700Y-11654320D02*
X7378700Y-11754320D01*
X7328700Y-11704320D02*
X7428700Y-11704320D01*
X7632700Y-11400320D02*
X7632700Y-11500320D01*
X7582700Y-11450320D02*
X7682700Y-11450320D01*
X7632700Y-11654320D02*
X7632700Y-11754320D01*
X7582700Y-11704320D02*
X7682700Y-11704320D01*
X8392160Y-7365000D02*
X8392160Y-7465000D01*
X8342160Y-7415000D02*
X8442160Y-7415000D01*
X8392160Y-7619000D02*
X8392160Y-7719000D01*
X8342160Y-7669000D02*
X8442160Y-7669000D01*
X8394700Y-11400320D02*
X8394700Y-11500320D01*
X8344700Y-11450320D02*
X8444700Y-11450320D01*
X8394700Y-11654320D02*
X8394700Y-11754320D01*
X8344700Y-11704320D02*
X8444700Y-11704320D01*
X8646160Y-7365000D02*
X8646160Y-7465000D01*
X8596160Y-7415000D02*
X8696160Y-7415000D01*
X8646160Y-7619000D02*
X8646160Y-7719000D01*
X8596160Y-7669000D02*
X8696160Y-7669000D01*
X8648700Y-11400320D02*
X8648700Y-11500320D01*
X8598700Y-11450320D02*
X8698700Y-11450320D01*
X8648700Y-11654320D02*
X8648700Y-11754320D01*
X8598700Y-11704320D02*
X8698700Y-11704320D01*
X8900160Y-7365000D02*
X8900160Y-7465000D01*
X8850160Y-7415000D02*
X8950160Y-7415000D01*
X8900160Y-7619000D02*
X8900160Y-7719000D01*
X8850160Y-7669000D02*
X8950160Y-7669000D01*
X8902700Y-11400320D02*
X8902700Y-11500320D01*
X8852700Y-11450320D02*
X8952700Y-11450320D01*
X8902700Y-11654320D02*
X8902700Y-11754320D01*
X8852700Y-11704320D02*
X8952700Y-11704320D01*
X9154160Y-7365000D02*
X9154160Y-7465000D01*
X9104160Y-7415000D02*
X9204160Y-7415000D01*
X9154160Y-7619000D02*
X9154160Y-7719000D01*
X9104160Y-7669000D02*
X9204160Y-7669000D01*
X9156700Y-11400320D02*
X9156700Y-11500320D01*
X9106700Y-11450320D02*
X9206700Y-11450320D01*
X9156700Y-11654320D02*
X9156700Y-11754320D01*
X9106700Y-11704320D02*
X9206700Y-11704320D01*
X9408160Y-7365000D02*
X9408160Y-7465000D01*
X9358160Y-7415000D02*
X9458160Y-7415000D01*
X9408160Y-7619000D02*
X9408160Y-7719000D01*
X9358160Y-7669000D02*
X9458160Y-7669000D01*
X9410700Y-11400320D02*
X9410700Y-11500320D01*
X9360700Y-11450320D02*
X9460700Y-11450320D01*
X9410700Y-11654320D02*
X9410700Y-11754320D01*
X9360700Y-11704320D02*
X9460700Y-11704320D01*
X9662160Y-7365000D02*
X9662160Y-7465000D01*
X9612160Y-7415000D02*
X9712160Y-7415000D01*
X9662160Y-7619000D02*
X9662160Y-7719000D01*
X9612160Y-7669000D02*
X9712160Y-7669000D01*
X9916160Y-7365000D02*
X9916160Y-7465000D01*
X9866160Y-7415000D02*
X9966160Y-7415000D01*
X9916160Y-7619000D02*
X9916160Y-7719000D01*
X9866160Y-7669000D02*
X9966160Y-7669000D01*
X10170160Y-7365000D02*
X10170160Y-7465000D01*
X10120160Y-7415000D02*
X10220160Y-7415000D01*
X10170160Y-7619000D02*
X10170160Y-7719000D01*
X10120160Y-7669000D02*
X10220160Y-7669000D01*
X10172700Y-11400320D02*
X10172700Y-11500320D01*
X10122700Y-11450320D02*
X10222700Y-11450320D01*
X10172700Y-11654320D02*
X10172700Y-11754320D01*
X10122700Y-11704320D02*
X10222700Y-11704320D01*
X10424160Y-7365000D02*
X10424160Y-7465000D01*
X10374160Y-7415000D02*
X10474160Y-7415000D01*
X10424160Y-7619000D02*
X10424160Y-7719000D01*
X10374160Y-7669000D02*
X10474160Y-7669000D01*
X10426700Y-11400320D02*
X10426700Y-11500320D01*
X10376700Y-11450320D02*
X10476700Y-11450320D01*
X10426700Y-11654320D02*
X10426700Y-11754320D01*
X10376700Y-11704320D02*
X10476700Y-11704320D01*
X10678160Y-7365000D02*
X10678160Y-7465000D01*
X10628160Y-7415000D02*
X10728160Y-7415000D01*
X10678160Y-7619000D02*
X10678160Y-7719000D01*
X10628160Y-7669000D02*
X10728160Y-7669000D01*
X10680700Y-11400320D02*
X10680700Y-11500320D01*
X10630700Y-11450320D02*
X10730700Y-11450320D01*
X10680700Y-11654320D02*
X10680700Y-11754320D01*
X10630700Y-11704320D02*
X10730700Y-11704320D01*
X10934700Y-11400320D02*
X10934700Y-11500320D01*
X10884700Y-11450320D02*
X10984700Y-11450320D01*
X10934700Y-11654320D02*
X10934700Y-11754320D01*
X10884700Y-11704320D02*
X10984700Y-11704320D01*
X11188700Y-11400320D02*
X11188700Y-11500320D01*
X11138700Y-11450320D02*
X11238700Y-11450320D01*
X11188700Y-11654320D02*
X11188700Y-11754320D01*
X11138700Y-11704320D02*
X11238700Y-11704320D01*
X11442700Y-11400320D02*
X11442700Y-11500320D01*
X11392700Y-11450320D02*
X11492700Y-11450320D01*
X11442700Y-11654320D02*
X11442700Y-11754320D01*
X11392700Y-11704320D02*
X11492700Y-11704320D01*
X11696700Y-11400320D02*
X11696700Y-11500320D01*
X11646700Y-11450320D02*
X11746700Y-11450320D01*
X11696700Y-11654320D02*
X11696700Y-11754320D01*
X11646700Y-11704320D02*
X11746700Y-11704320D01*
X11950700Y-11400320D02*
X11950700Y-11500320D01*
X11900700Y-11450320D02*
X12000700Y-11450320D01*
X11950700Y-11654320D02*
X11950700Y-11754320D01*
X11900700Y-11704320D02*
X12000700Y-11704320D01*
X12203700Y-7364000D02*
X12203700Y-7464000D01*
X12153700Y-7414000D02*
X12253700Y-7414000D01*
X12203700Y-7618000D02*
X12203700Y-7718000D01*
X12153700Y-7668000D02*
X12253700Y-7668000D01*
X12203700Y-7872000D02*
X12203700Y-7972000D01*
X12153700Y-7922000D02*
X12253700Y-7922000D01*
X12203700Y-8126000D02*
X12203700Y-8226000D01*
X12153700Y-8176000D02*
X12253700Y-8176000D01*
X12203700Y-8380000D02*
X12203700Y-8480000D01*
X12153700Y-8430000D02*
X12253700Y-8430000D01*
X12203700Y-8634000D02*
X12203700Y-8734000D01*
X12153700Y-8684000D02*
X12253700Y-8684000D01*
X12203700Y-8888000D02*
X12203700Y-8988000D01*
X12153700Y-8938000D02*
X12253700Y-8938000D01*
X12203700Y-9142000D02*
X12203700Y-9242000D01*
X12153700Y-9192000D02*
X12253700Y-9192000D01*
X12203700Y-9396000D02*
X12203700Y-9496000D01*
X12153700Y-9446000D02*
X12253700Y-9446000D01*
X12203700Y-9650000D02*
X12203700Y-9750000D01*
X12153700Y-9700000D02*
X12253700Y-9700000D01*
X12204700Y-11400320D02*
X12204700Y-11500320D01*
X12154700Y-11450320D02*
X12254700Y-11450320D01*
X12204700Y-11654320D02*
X12204700Y-11754320D01*
X12154700Y-11704320D02*
X12254700Y-11704320D01*
X12457700Y-7364000D02*
X12457700Y-7464000D01*
X12407700Y-7414000D02*
X12507700Y-7414000D01*
X12457700Y-7618000D02*
X12457700Y-7718000D01*
X12407700Y-7668000D02*
X12507700Y-7668000D01*
X12457700Y-7872000D02*
X12457700Y-7972000D01*
X12407700Y-7922000D02*
X12507700Y-7922000D01*
X12457700Y-8126000D02*
X12457700Y-8226000D01*
X12407700Y-8176000D02*
X12507700Y-8176000D01*
X12457700Y-8380000D02*
X12457700Y-8480000D01*
X12407700Y-8430000D02*
X12507700Y-8430000D01*
X12457700Y-8634000D02*
X12457700Y-8734000D01*
X12407700Y-8684000D02*
X12507700Y-8684000D01*
X12457700Y-8888000D02*
X12457700Y-8988000D01*
X12407700Y-8938000D02*
X12507700Y-8938000D01*
X12457700Y-9142000D02*
X12457700Y-9242000D01*
X12407700Y-9192000D02*
X12507700Y-9192000D01*
X12457700Y-9396000D02*
X12457700Y-9496000D01*
X12407700Y-9446000D02*
X12507700Y-9446000D01*
X12457700Y-9650000D02*
X12457700Y-9750000D01*
X12407700Y-9700000D02*
X12507700Y-9700000D01*
X12458700Y-11400320D02*
X12458700Y-11500320D01*
X12408700Y-11450320D02*
X12508700Y-11450320D01*
X12458700Y-11654320D02*
X12458700Y-11754320D01*
X12408700Y-11704320D02*
X12508700Y-11704320D01*
D13*
X3329428Y-13929619D02*
X3329428Y-13629619D01*
X3400857Y-13629619D01*
X3443714Y-13643905D01*
X3472286Y-13672476D01*
X3486571Y-13701048D01*
X3500857Y-13758191D01*
X3500857Y-13801048D01*
X3486571Y-13858191D01*
X3472286Y-13886762D01*
X3443714Y-13915334D01*
X3400857Y-13929619D01*
X3329428Y-13929619D01*
X3629428Y-13929619D02*
X3629428Y-13729619D01*
X3629428Y-13786762D02*
X3643714Y-13758191D01*
X3658000Y-13743905D01*
X3686571Y-13729619D01*
X3715143Y-13729619D01*
X3815143Y-13929619D02*
X3815143Y-13729619D01*
X3815143Y-13629619D02*
X3800857Y-13643905D01*
X3815143Y-13658191D01*
X3829428Y-13643905D01*
X3815143Y-13629619D01*
X3815143Y-13658191D01*
X4000857Y-13929619D02*
X3972286Y-13915334D01*
X3958000Y-13886762D01*
X3958000Y-13629619D01*
X4158000Y-13929619D02*
X4129428Y-13915334D01*
X4115143Y-13886762D01*
X4115143Y-13629619D01*
X4500857Y-13929619D02*
X4500857Y-13629619D01*
X4600857Y-13843905D01*
X4700857Y-13629619D01*
X4700857Y-13929619D01*
X4972286Y-13929619D02*
X4972286Y-13772476D01*
X4958000Y-13743905D01*
X4929428Y-13729619D01*
X4872286Y-13729619D01*
X4843714Y-13743905D01*
X4972286Y-13915334D02*
X4943714Y-13929619D01*
X4872286Y-13929619D01*
X4843714Y-13915334D01*
X4829428Y-13886762D01*
X4829428Y-13858191D01*
X4843714Y-13829619D01*
X4872286Y-13815334D01*
X4943714Y-13815334D01*
X4972286Y-13801048D01*
X5115143Y-13729619D02*
X5115143Y-14029619D01*
X5115143Y-13743905D02*
X5143714Y-13729619D01*
X5200857Y-13729619D01*
X5229428Y-13743905D01*
X5243714Y-13758191D01*
X5258000Y-13786762D01*
X5258000Y-13872476D01*
X5243714Y-13901048D01*
X5229428Y-13915334D01*
X5200857Y-13929619D01*
X5143714Y-13929619D01*
X5115143Y-13915334D01*
X5386571Y-13901048D02*
X5400857Y-13915334D01*
X5386571Y-13929619D01*
X5372286Y-13915334D01*
X5386571Y-13901048D01*
X5386571Y-13929619D01*
X5386571Y-13743905D02*
X5400857Y-13758191D01*
X5386571Y-13772476D01*
X5372286Y-13758191D01*
X5386571Y-13743905D01*
X5386571Y-13772476D01*
X3013000Y-14408905D02*
X3043000Y-14438905D01*
X3043000Y-14408905D02*
X3013000Y-14438905D01*
X3386571Y-14259619D02*
X3415143Y-14259619D01*
X3443714Y-14273905D01*
X3458000Y-14288191D01*
X3472286Y-14316762D01*
X3486571Y-14373905D01*
X3486571Y-14445334D01*
X3472286Y-14502476D01*
X3458000Y-14531048D01*
X3443714Y-14545334D01*
X3415143Y-14559619D01*
X3386571Y-14559619D01*
X3358000Y-14545334D01*
X3343714Y-14531048D01*
X3329428Y-14502476D01*
X3315143Y-14445334D01*
X3315143Y-14373905D01*
X3329428Y-14316762D01*
X3343714Y-14288191D01*
X3358000Y-14273905D01*
X3386571Y-14259619D01*
X3615143Y-14531048D02*
X3629428Y-14545334D01*
X3615143Y-14559619D01*
X3600857Y-14545334D01*
X3615143Y-14531048D01*
X3615143Y-14559619D01*
X3729428Y-14259619D02*
X3915143Y-14259619D01*
X3815143Y-14373905D01*
X3858000Y-14373905D01*
X3886571Y-14388191D01*
X3900857Y-14402476D01*
X3915143Y-14431048D01*
X3915143Y-14502476D01*
X3900857Y-14531048D01*
X3886571Y-14545334D01*
X3858000Y-14559619D01*
X3772286Y-14559619D01*
X3743714Y-14545334D01*
X3729428Y-14531048D01*
X4100857Y-14259619D02*
X4129428Y-14259619D01*
X4158000Y-14273905D01*
X4172286Y-14288191D01*
X4186571Y-14316762D01*
X4200857Y-14373905D01*
X4200857Y-14445334D01*
X4186571Y-14502476D01*
X4172286Y-14531048D01*
X4158000Y-14545334D01*
X4129428Y-14559619D01*
X4100857Y-14559619D01*
X4072286Y-14545334D01*
X4058000Y-14531048D01*
X4043714Y-14502476D01*
X4029428Y-14445334D01*
X4029428Y-14373905D01*
X4043714Y-14316762D01*
X4058000Y-14288191D01*
X4072286Y-14273905D01*
X4100857Y-14259619D01*
X4386571Y-14259619D02*
X4415143Y-14259619D01*
X4443714Y-14273905D01*
X4458000Y-14288191D01*
X4472286Y-14316762D01*
X4486571Y-14373905D01*
X4486571Y-14445334D01*
X4472286Y-14502476D01*
X4458000Y-14531048D01*
X4443714Y-14545334D01*
X4415143Y-14559619D01*
X4386571Y-14559619D01*
X4358000Y-14545334D01*
X4343714Y-14531048D01*
X4329428Y-14502476D01*
X4315143Y-14445334D01*
X4315143Y-14373905D01*
X4329428Y-14316762D01*
X4343714Y-14288191D01*
X4358000Y-14273905D01*
X4386571Y-14259619D01*
X4615143Y-14559619D02*
X4615143Y-14359619D01*
X4615143Y-14388191D02*
X4629428Y-14373905D01*
X4658000Y-14359619D01*
X4700857Y-14359619D01*
X4729428Y-14373905D01*
X4743714Y-14402476D01*
X4743714Y-14559619D01*
X4743714Y-14402476D02*
X4758000Y-14373905D01*
X4786571Y-14359619D01*
X4829428Y-14359619D01*
X4858000Y-14373905D01*
X4872286Y-14402476D01*
X4872286Y-14559619D01*
X5015143Y-14559619D02*
X5015143Y-14359619D01*
X5015143Y-14388191D02*
X5029428Y-14373905D01*
X5058000Y-14359619D01*
X5100857Y-14359619D01*
X5129428Y-14373905D01*
X5143714Y-14402476D01*
X5143714Y-14559619D01*
X5143714Y-14402476D02*
X5158000Y-14373905D01*
X5186571Y-14359619D01*
X5229428Y-14359619D01*
X5258000Y-14373905D01*
X5272286Y-14402476D01*
X5272286Y-14559619D01*
X5858000Y-14245334D02*
X5600857Y-14631048D01*
X6243714Y-14259619D02*
X6272286Y-14259619D01*
X6300857Y-14273905D01*
X6315143Y-14288191D01*
X6329428Y-14316762D01*
X6343714Y-14373905D01*
X6343714Y-14445334D01*
X6329428Y-14502476D01*
X6315143Y-14531048D01*
X6300857Y-14545334D01*
X6272286Y-14559619D01*
X6243714Y-14559619D01*
X6215143Y-14545334D01*
X6200857Y-14531048D01*
X6186571Y-14502476D01*
X6172286Y-14445334D01*
X6172286Y-14373905D01*
X6186571Y-14316762D01*
X6200857Y-14288191D01*
X6215143Y-14273905D01*
X6243714Y-14259619D01*
X6472286Y-14531048D02*
X6486571Y-14545334D01*
X6472286Y-14559619D01*
X6458000Y-14545334D01*
X6472286Y-14531048D01*
X6472286Y-14559619D01*
X6672286Y-14259619D02*
X6700857Y-14259619D01*
X6729428Y-14273905D01*
X6743714Y-14288191D01*
X6758000Y-14316762D01*
X6772286Y-14373905D01*
X6772286Y-14445334D01*
X6758000Y-14502476D01*
X6743714Y-14531048D01*
X6729428Y-14545334D01*
X6700857Y-14559619D01*
X6672286Y-14559619D01*
X6643714Y-14545334D01*
X6629428Y-14531048D01*
X6615143Y-14502476D01*
X6600857Y-14445334D01*
X6600857Y-14373905D01*
X6615143Y-14316762D01*
X6629428Y-14288191D01*
X6643714Y-14273905D01*
X6672286Y-14259619D01*
X7058000Y-14559619D02*
X6886571Y-14559619D01*
X6972286Y-14559619D02*
X6972286Y-14259619D01*
X6943714Y-14302476D01*
X6915143Y-14331048D01*
X6886571Y-14345334D01*
X7343714Y-14559619D02*
X7172286Y-14559619D01*
X7258000Y-14559619D02*
X7258000Y-14259619D01*
X7229428Y-14302476D01*
X7200857Y-14331048D01*
X7172286Y-14345334D01*
X7515143Y-14388191D02*
X7486571Y-14373905D01*
X7472286Y-14359619D01*
X7458000Y-14331048D01*
X7458000Y-14316762D01*
X7472286Y-14288191D01*
X7486571Y-14273905D01*
X7515143Y-14259619D01*
X7572286Y-14259619D01*
X7600857Y-14273905D01*
X7615143Y-14288191D01*
X7629428Y-14316762D01*
X7629428Y-14331048D01*
X7615143Y-14359619D01*
X7600857Y-14373905D01*
X7572286Y-14388191D01*
X7515143Y-14388191D01*
X7486571Y-14402476D01*
X7472286Y-14416762D01*
X7458000Y-14445334D01*
X7458000Y-14502476D01*
X7472286Y-14531048D01*
X7486571Y-14545334D01*
X7515143Y-14559619D01*
X7572286Y-14559619D01*
X7600857Y-14545334D01*
X7615143Y-14531048D01*
X7629428Y-14502476D01*
X7629428Y-14445334D01*
X7615143Y-14416762D01*
X7600857Y-14402476D01*
X7572286Y-14388191D01*
X7743714Y-14259619D02*
X7743714Y-14316762D01*
X7858000Y-14259619D02*
X7858000Y-14316762D01*
X8300857Y-14673905D02*
X8286571Y-14659619D01*
X8258000Y-14616762D01*
X8243714Y-14588191D01*
X8229428Y-14545334D01*
X8215143Y-14473905D01*
X8215143Y-14416762D01*
X8229428Y-14345334D01*
X8243714Y-14302476D01*
X8258000Y-14273905D01*
X8286571Y-14231048D01*
X8300857Y-14216762D01*
X8386571Y-14259619D02*
X8572286Y-14259619D01*
X8472286Y-14373905D01*
X8515143Y-14373905D01*
X8543714Y-14388191D01*
X8558000Y-14402476D01*
X8572286Y-14431048D01*
X8572286Y-14502476D01*
X8558000Y-14531048D01*
X8543714Y-14545334D01*
X8515143Y-14559619D01*
X8429428Y-14559619D01*
X8400857Y-14545334D01*
X8386571Y-14531048D01*
X8686571Y-14288191D02*
X8700857Y-14273905D01*
X8729428Y-14259619D01*
X8800857Y-14259619D01*
X8829428Y-14273905D01*
X8843714Y-14288191D01*
X8858000Y-14316762D01*
X8858000Y-14345334D01*
X8843714Y-14388191D01*
X8672286Y-14559619D01*
X8858000Y-14559619D01*
X9143714Y-14559619D02*
X8972286Y-14559619D01*
X9058000Y-14559619D02*
X9058000Y-14259619D01*
X9029428Y-14302476D01*
X9000857Y-14331048D01*
X8972286Y-14345334D01*
X9500857Y-14559619D02*
X9500857Y-14259619D01*
X9629428Y-14559619D02*
X9629428Y-14402476D01*
X9615143Y-14373905D01*
X9586571Y-14359619D01*
X9543714Y-14359619D01*
X9515143Y-14373905D01*
X9500857Y-14388191D01*
X9815143Y-14559619D02*
X9786571Y-14545334D01*
X9772286Y-14531048D01*
X9758000Y-14502476D01*
X9758000Y-14416762D01*
X9772286Y-14388191D01*
X9786571Y-14373905D01*
X9815143Y-14359619D01*
X9858000Y-14359619D01*
X9886571Y-14373905D01*
X9900857Y-14388191D01*
X9915143Y-14416762D01*
X9915143Y-14502476D01*
X9900857Y-14531048D01*
X9886571Y-14545334D01*
X9858000Y-14559619D01*
X9815143Y-14559619D01*
X10086571Y-14559619D02*
X10058000Y-14545334D01*
X10043714Y-14516762D01*
X10043714Y-14259619D01*
X10315143Y-14545334D02*
X10286571Y-14559619D01*
X10229428Y-14559619D01*
X10200857Y-14545334D01*
X10186571Y-14516762D01*
X10186571Y-14402476D01*
X10200857Y-14373905D01*
X10229428Y-14359619D01*
X10286571Y-14359619D01*
X10315143Y-14373905D01*
X10329428Y-14402476D01*
X10329428Y-14431048D01*
X10186571Y-14459619D01*
X10443714Y-14545334D02*
X10472286Y-14559619D01*
X10529428Y-14559619D01*
X10558000Y-14545334D01*
X10572286Y-14516762D01*
X10572286Y-14502476D01*
X10558000Y-14473905D01*
X10529428Y-14459619D01*
X10486571Y-14459619D01*
X10458000Y-14445334D01*
X10443714Y-14416762D01*
X10443714Y-14402476D01*
X10458000Y-14373905D01*
X10486571Y-14359619D01*
X10529428Y-14359619D01*
X10558000Y-14373905D01*
X10672286Y-14673905D02*
X10686571Y-14659619D01*
X10715143Y-14616762D01*
X10729428Y-14588191D01*
X10743714Y-14545334D01*
X10758000Y-14473905D01*
X10758000Y-14416762D01*
X10743714Y-14345334D01*
X10729428Y-14302476D01*
X10715143Y-14273905D01*
X10686571Y-14231048D01*
X10672286Y-14216762D01*
X3043000Y-14819905D02*
G75*
G03*
X3043000Y-14819905I-20000J0D01*
G01*
X3386571Y-14655619D02*
X3415143Y-14655619D01*
X3443714Y-14669905D01*
X3458000Y-14684191D01*
X3472286Y-14712762D01*
X3486571Y-14769905D01*
X3486571Y-14841334D01*
X3472286Y-14898476D01*
X3458000Y-14927048D01*
X3443714Y-14941334D01*
X3415143Y-14955619D01*
X3386571Y-14955619D01*
X3358000Y-14941334D01*
X3343714Y-14927048D01*
X3329428Y-14898476D01*
X3315143Y-14841334D01*
X3315143Y-14769905D01*
X3329428Y-14712762D01*
X3343714Y-14684191D01*
X3358000Y-14669905D01*
X3386571Y-14655619D01*
X3615143Y-14927048D02*
X3629428Y-14941334D01*
X3615143Y-14955619D01*
X3600857Y-14941334D01*
X3615143Y-14927048D01*
X3615143Y-14955619D01*
X3886571Y-14755619D02*
X3886571Y-14955619D01*
X3815143Y-14641334D02*
X3743714Y-14855619D01*
X3929428Y-14855619D01*
X4100857Y-14655619D02*
X4129428Y-14655619D01*
X4158000Y-14669905D01*
X4172286Y-14684191D01*
X4186571Y-14712762D01*
X4200857Y-14769905D01*
X4200857Y-14841334D01*
X4186571Y-14898476D01*
X4172286Y-14927048D01*
X4158000Y-14941334D01*
X4129428Y-14955619D01*
X4100857Y-14955619D01*
X4072286Y-14941334D01*
X4058000Y-14927048D01*
X4043714Y-14898476D01*
X4029428Y-14841334D01*
X4029428Y-14769905D01*
X4043714Y-14712762D01*
X4058000Y-14684191D01*
X4072286Y-14669905D01*
X4100857Y-14655619D01*
X4386571Y-14655619D02*
X4415143Y-14655619D01*
X4443714Y-14669905D01*
X4458000Y-14684191D01*
X4472286Y-14712762D01*
X4486571Y-14769905D01*
X4486571Y-14841334D01*
X4472286Y-14898476D01*
X4458000Y-14927048D01*
X4443714Y-14941334D01*
X4415143Y-14955619D01*
X4386571Y-14955619D01*
X4358000Y-14941334D01*
X4343714Y-14927048D01*
X4329428Y-14898476D01*
X4315143Y-14841334D01*
X4315143Y-14769905D01*
X4329428Y-14712762D01*
X4343714Y-14684191D01*
X4358000Y-14669905D01*
X4386571Y-14655619D01*
X4615143Y-14955619D02*
X4615143Y-14755619D01*
X4615143Y-14784191D02*
X4629428Y-14769905D01*
X4658000Y-14755619D01*
X4700857Y-14755619D01*
X4729428Y-14769905D01*
X4743714Y-14798476D01*
X4743714Y-14955619D01*
X4743714Y-14798476D02*
X4758000Y-14769905D01*
X4786571Y-14755619D01*
X4829428Y-14755619D01*
X4858000Y-14769905D01*
X4872286Y-14798476D01*
X4872286Y-14955619D01*
X5015143Y-14955619D02*
X5015143Y-14755619D01*
X5015143Y-14784191D02*
X5029428Y-14769905D01*
X5058000Y-14755619D01*
X5100857Y-14755619D01*
X5129428Y-14769905D01*
X5143714Y-14798476D01*
X5143714Y-14955619D01*
X5143714Y-14798476D02*
X5158000Y-14769905D01*
X5186571Y-14755619D01*
X5229428Y-14755619D01*
X5258000Y-14769905D01*
X5272286Y-14798476D01*
X5272286Y-14955619D01*
X5858000Y-14641334D02*
X5600857Y-15027048D01*
X6243714Y-14655619D02*
X6272286Y-14655619D01*
X6300857Y-14669905D01*
X6315143Y-14684191D01*
X6329428Y-14712762D01*
X6343714Y-14769905D01*
X6343714Y-14841334D01*
X6329428Y-14898476D01*
X6315143Y-14927048D01*
X6300857Y-14941334D01*
X6272286Y-14955619D01*
X6243714Y-14955619D01*
X6215143Y-14941334D01*
X6200857Y-14927048D01*
X6186571Y-14898476D01*
X6172286Y-14841334D01*
X6172286Y-14769905D01*
X6186571Y-14712762D01*
X6200857Y-14684191D01*
X6215143Y-14669905D01*
X6243714Y-14655619D01*
X6472286Y-14927048D02*
X6486571Y-14941334D01*
X6472286Y-14955619D01*
X6458000Y-14941334D01*
X6472286Y-14927048D01*
X6472286Y-14955619D01*
X6672286Y-14655619D02*
X6700857Y-14655619D01*
X6729428Y-14669905D01*
X6743714Y-14684191D01*
X6758000Y-14712762D01*
X6772286Y-14769905D01*
X6772286Y-14841334D01*
X6758000Y-14898476D01*
X6743714Y-14927048D01*
X6729428Y-14941334D01*
X6700857Y-14955619D01*
X6672286Y-14955619D01*
X6643714Y-14941334D01*
X6629428Y-14927048D01*
X6615143Y-14898476D01*
X6600857Y-14841334D01*
X6600857Y-14769905D01*
X6615143Y-14712762D01*
X6629428Y-14684191D01*
X6643714Y-14669905D01*
X6672286Y-14655619D01*
X7058000Y-14955619D02*
X6886571Y-14955619D01*
X6972286Y-14955619D02*
X6972286Y-14655619D01*
X6943714Y-14698476D01*
X6915143Y-14727048D01*
X6886571Y-14741334D01*
X7329428Y-14655619D02*
X7186571Y-14655619D01*
X7172286Y-14798476D01*
X7186571Y-14784191D01*
X7215143Y-14769905D01*
X7286571Y-14769905D01*
X7315143Y-14784191D01*
X7329428Y-14798476D01*
X7343714Y-14827048D01*
X7343714Y-14898476D01*
X7329428Y-14927048D01*
X7315143Y-14941334D01*
X7286571Y-14955619D01*
X7215143Y-14955619D01*
X7186571Y-14941334D01*
X7172286Y-14927048D01*
X7443714Y-14655619D02*
X7643714Y-14655619D01*
X7515143Y-14955619D01*
X7743714Y-14655619D02*
X7743714Y-14712762D01*
X7858000Y-14655619D02*
X7858000Y-14712762D01*
X8300857Y-15069905D02*
X8286571Y-15055619D01*
X8258000Y-15012762D01*
X8243714Y-14984191D01*
X8229428Y-14941334D01*
X8215143Y-14869905D01*
X8215143Y-14812762D01*
X8229428Y-14741334D01*
X8243714Y-14698476D01*
X8258000Y-14669905D01*
X8286571Y-14627048D01*
X8300857Y-14612762D01*
X8543714Y-14755619D02*
X8543714Y-14955619D01*
X8472286Y-14641334D02*
X8400857Y-14855619D01*
X8586571Y-14855619D01*
X8929428Y-14955619D02*
X8929428Y-14655619D01*
X9058000Y-14955619D02*
X9058000Y-14798476D01*
X9043714Y-14769905D01*
X9015143Y-14755619D01*
X8972286Y-14755619D01*
X8943714Y-14769905D01*
X8929428Y-14784191D01*
X9243714Y-14955619D02*
X9215143Y-14941334D01*
X9200857Y-14927048D01*
X9186571Y-14898476D01*
X9186571Y-14812762D01*
X9200857Y-14784191D01*
X9215143Y-14769905D01*
X9243714Y-14755619D01*
X9286571Y-14755619D01*
X9315143Y-14769905D01*
X9329428Y-14784191D01*
X9343714Y-14812762D01*
X9343714Y-14898476D01*
X9329428Y-14927048D01*
X9315143Y-14941334D01*
X9286571Y-14955619D01*
X9243714Y-14955619D01*
X9515143Y-14955619D02*
X9486571Y-14941334D01*
X9472286Y-14912762D01*
X9472286Y-14655619D01*
X9743714Y-14941334D02*
X9715143Y-14955619D01*
X9658000Y-14955619D01*
X9629428Y-14941334D01*
X9615143Y-14912762D01*
X9615143Y-14798476D01*
X9629428Y-14769905D01*
X9658000Y-14755619D01*
X9715143Y-14755619D01*
X9743714Y-14769905D01*
X9758000Y-14798476D01*
X9758000Y-14827048D01*
X9615143Y-14855619D01*
X9872286Y-14941334D02*
X9900857Y-14955619D01*
X9958000Y-14955619D01*
X9986571Y-14941334D01*
X10000857Y-14912762D01*
X10000857Y-14898476D01*
X9986571Y-14869905D01*
X9958000Y-14855619D01*
X9915143Y-14855619D01*
X9886571Y-14841334D01*
X9872286Y-14812762D01*
X9872286Y-14798476D01*
X9886571Y-14769905D01*
X9915143Y-14755619D01*
X9958000Y-14755619D01*
X9986571Y-14769905D01*
X10100857Y-15069905D02*
X10115143Y-15055619D01*
X10143714Y-15012762D01*
X10158000Y-14984191D01*
X10172286Y-14941334D01*
X10186571Y-14869905D01*
X10186571Y-14812762D01*
X10172286Y-14741334D01*
X10158000Y-14698476D01*
X10143714Y-14669905D01*
X10115143Y-14627048D01*
X10100857Y-14612762D01*
X2993000Y-15165905D02*
X2993000Y-15265905D01*
X2943000Y-15215905D02*
X3043000Y-15215905D01*
X3486571Y-15351619D02*
X3315143Y-15351619D01*
X3400857Y-15351619D02*
X3400857Y-15051619D01*
X3372286Y-15094476D01*
X3343714Y-15123048D01*
X3315143Y-15137334D01*
X3615143Y-15323048D02*
X3629428Y-15337334D01*
X3615143Y-15351619D01*
X3600857Y-15337334D01*
X3615143Y-15323048D01*
X3615143Y-15351619D01*
X3815143Y-15051619D02*
X3843714Y-15051619D01*
X3872286Y-15065905D01*
X3886571Y-15080191D01*
X3900857Y-15108762D01*
X3915143Y-15165905D01*
X3915143Y-15237334D01*
X3900857Y-15294476D01*
X3886571Y-15323048D01*
X3872286Y-15337334D01*
X3843714Y-15351619D01*
X3815143Y-15351619D01*
X3786571Y-15337334D01*
X3772286Y-15323048D01*
X3758000Y-15294476D01*
X3743714Y-15237334D01*
X3743714Y-15165905D01*
X3758000Y-15108762D01*
X3772286Y-15080191D01*
X3786571Y-15065905D01*
X3815143Y-15051619D01*
X4100857Y-15051619D02*
X4129428Y-15051619D01*
X4158000Y-15065905D01*
X4172286Y-15080191D01*
X4186571Y-15108762D01*
X4200857Y-15165905D01*
X4200857Y-15237334D01*
X4186571Y-15294476D01*
X4172286Y-15323048D01*
X4158000Y-15337334D01*
X4129428Y-15351619D01*
X4100857Y-15351619D01*
X4072286Y-15337334D01*
X4058000Y-15323048D01*
X4043714Y-15294476D01*
X4029428Y-15237334D01*
X4029428Y-15165905D01*
X4043714Y-15108762D01*
X4058000Y-15080191D01*
X4072286Y-15065905D01*
X4100857Y-15051619D01*
X4386571Y-15051619D02*
X4415143Y-15051619D01*
X4443714Y-15065905D01*
X4458000Y-15080191D01*
X4472286Y-15108762D01*
X4486571Y-15165905D01*
X4486571Y-15237334D01*
X4472286Y-15294476D01*
X4458000Y-15323048D01*
X4443714Y-15337334D01*
X4415143Y-15351619D01*
X4386571Y-15351619D01*
X4358000Y-15337334D01*
X4343714Y-15323048D01*
X4329428Y-15294476D01*
X4315143Y-15237334D01*
X4315143Y-15165905D01*
X4329428Y-15108762D01*
X4343714Y-15080191D01*
X4358000Y-15065905D01*
X4386571Y-15051619D01*
X4615143Y-15351619D02*
X4615143Y-15151619D01*
X4615143Y-15180191D02*
X4629428Y-15165905D01*
X4658000Y-15151619D01*
X4700857Y-15151619D01*
X4729428Y-15165905D01*
X4743714Y-15194476D01*
X4743714Y-15351619D01*
X4743714Y-15194476D02*
X4758000Y-15165905D01*
X4786571Y-15151619D01*
X4829428Y-15151619D01*
X4858000Y-15165905D01*
X4872286Y-15194476D01*
X4872286Y-15351619D01*
X5015143Y-15351619D02*
X5015143Y-15151619D01*
X5015143Y-15180191D02*
X5029428Y-15165905D01*
X5058000Y-15151619D01*
X5100857Y-15151619D01*
X5129428Y-15165905D01*
X5143714Y-15194476D01*
X5143714Y-15351619D01*
X5143714Y-15194476D02*
X5158000Y-15165905D01*
X5186571Y-15151619D01*
X5229428Y-15151619D01*
X5258000Y-15165905D01*
X5272286Y-15194476D01*
X5272286Y-15351619D01*
X5858000Y-15037334D02*
X5600857Y-15423048D01*
X6243714Y-15051619D02*
X6272286Y-15051619D01*
X6300857Y-15065905D01*
X6315143Y-15080191D01*
X6329428Y-15108762D01*
X6343714Y-15165905D01*
X6343714Y-15237334D01*
X6329428Y-15294476D01*
X6315143Y-15323048D01*
X6300857Y-15337334D01*
X6272286Y-15351619D01*
X6243714Y-15351619D01*
X6215143Y-15337334D01*
X6200857Y-15323048D01*
X6186571Y-15294476D01*
X6172286Y-15237334D01*
X6172286Y-15165905D01*
X6186571Y-15108762D01*
X6200857Y-15080191D01*
X6215143Y-15065905D01*
X6243714Y-15051619D01*
X6472286Y-15323048D02*
X6486571Y-15337334D01*
X6472286Y-15351619D01*
X6458000Y-15337334D01*
X6472286Y-15323048D01*
X6472286Y-15351619D01*
X6672286Y-15051619D02*
X6700857Y-15051619D01*
X6729428Y-15065905D01*
X6743714Y-15080191D01*
X6758000Y-15108762D01*
X6772286Y-15165905D01*
X6772286Y-15237334D01*
X6758000Y-15294476D01*
X6743714Y-15323048D01*
X6729428Y-15337334D01*
X6700857Y-15351619D01*
X6672286Y-15351619D01*
X6643714Y-15337334D01*
X6629428Y-15323048D01*
X6615143Y-15294476D01*
X6600857Y-15237334D01*
X6600857Y-15165905D01*
X6615143Y-15108762D01*
X6629428Y-15080191D01*
X6643714Y-15065905D01*
X6672286Y-15051619D01*
X6872286Y-15051619D02*
X7058000Y-15051619D01*
X6958000Y-15165905D01*
X7000857Y-15165905D01*
X7029428Y-15180191D01*
X7043714Y-15194476D01*
X7058000Y-15223048D01*
X7058000Y-15294476D01*
X7043714Y-15323048D01*
X7029428Y-15337334D01*
X7000857Y-15351619D01*
X6915143Y-15351619D01*
X6886571Y-15337334D01*
X6872286Y-15323048D01*
X7200857Y-15351619D02*
X7258000Y-15351619D01*
X7286571Y-15337334D01*
X7300857Y-15323048D01*
X7329428Y-15280191D01*
X7343714Y-15223048D01*
X7343714Y-15108762D01*
X7329428Y-15080191D01*
X7315143Y-15065905D01*
X7286571Y-15051619D01*
X7229428Y-15051619D01*
X7200857Y-15065905D01*
X7186571Y-15080191D01*
X7172286Y-15108762D01*
X7172286Y-15180191D01*
X7186571Y-15208762D01*
X7200857Y-15223048D01*
X7229428Y-15237334D01*
X7286571Y-15237334D01*
X7315143Y-15223048D01*
X7329428Y-15208762D01*
X7343714Y-15180191D01*
X7600857Y-15151619D02*
X7600857Y-15351619D01*
X7529428Y-15037334D02*
X7458000Y-15251619D01*
X7643714Y-15251619D01*
X7743714Y-15051619D02*
X7743714Y-15108762D01*
X7858000Y-15051619D02*
X7858000Y-15108762D01*
X8300857Y-15465905D02*
X8286571Y-15451619D01*
X8258000Y-15408762D01*
X8243714Y-15380191D01*
X8229428Y-15337334D01*
X8215143Y-15265905D01*
X8215143Y-15208762D01*
X8229428Y-15137334D01*
X8243714Y-15094476D01*
X8258000Y-15065905D01*
X8286571Y-15023048D01*
X8300857Y-15008762D01*
X8572286Y-15351619D02*
X8400857Y-15351619D01*
X8486571Y-15351619D02*
X8486571Y-15051619D01*
X8458000Y-15094476D01*
X8429428Y-15123048D01*
X8400857Y-15137334D01*
X8686571Y-15080191D02*
X8700857Y-15065905D01*
X8729428Y-15051619D01*
X8800857Y-15051619D01*
X8829428Y-15065905D01*
X8843714Y-15080191D01*
X8858000Y-15108762D01*
X8858000Y-15137334D01*
X8843714Y-15180191D01*
X8672286Y-15351619D01*
X8858000Y-15351619D01*
X9115143Y-15051619D02*
X9058000Y-15051619D01*
X9029428Y-15065905D01*
X9015143Y-15080191D01*
X8986571Y-15123048D01*
X8972286Y-15180191D01*
X8972286Y-15294476D01*
X8986571Y-15323048D01*
X9000857Y-15337334D01*
X9029428Y-15351619D01*
X9086571Y-15351619D01*
X9115143Y-15337334D01*
X9129428Y-15323048D01*
X9143714Y-15294476D01*
X9143714Y-15223048D01*
X9129428Y-15194476D01*
X9115143Y-15180191D01*
X9086571Y-15165905D01*
X9029428Y-15165905D01*
X9000857Y-15180191D01*
X8986571Y-15194476D01*
X8972286Y-15223048D01*
X9500857Y-15351619D02*
X9500857Y-15051619D01*
X9629428Y-15351619D02*
X9629428Y-15194476D01*
X9615143Y-15165905D01*
X9586571Y-15151619D01*
X9543714Y-15151619D01*
X9515143Y-15165905D01*
X9500857Y-15180191D01*
X9815143Y-15351619D02*
X9786571Y-15337334D01*
X9772286Y-15323048D01*
X9758000Y-15294476D01*
X9758000Y-15208762D01*
X9772286Y-15180191D01*
X9786571Y-15165905D01*
X9815143Y-15151619D01*
X9858000Y-15151619D01*
X9886571Y-15165905D01*
X9900857Y-15180191D01*
X9915143Y-15208762D01*
X9915143Y-15294476D01*
X9900857Y-15323048D01*
X9886571Y-15337334D01*
X9858000Y-15351619D01*
X9815143Y-15351619D01*
X10086571Y-15351619D02*
X10058000Y-15337334D01*
X10043714Y-15308762D01*
X10043714Y-15051619D01*
X10315143Y-15337334D02*
X10286571Y-15351619D01*
X10229428Y-15351619D01*
X10200857Y-15337334D01*
X10186571Y-15308762D01*
X10186571Y-15194476D01*
X10200857Y-15165905D01*
X10229428Y-15151619D01*
X10286571Y-15151619D01*
X10315143Y-15165905D01*
X10329428Y-15194476D01*
X10329428Y-15223048D01*
X10186571Y-15251619D01*
X10443714Y-15337334D02*
X10472286Y-15351619D01*
X10529428Y-15351619D01*
X10558000Y-15337334D01*
X10572286Y-15308762D01*
X10572286Y-15294476D01*
X10558000Y-15265905D01*
X10529428Y-15251619D01*
X10486571Y-15251619D01*
X10458000Y-15237334D01*
X10443714Y-15208762D01*
X10443714Y-15194476D01*
X10458000Y-15165905D01*
X10486571Y-15151619D01*
X10529428Y-15151619D01*
X10558000Y-15165905D01*
X10672286Y-15465905D02*
X10686571Y-15451619D01*
X10715143Y-15408762D01*
X10729428Y-15380191D01*
X10743714Y-15337334D01*
X10758000Y-15265905D01*
X10758000Y-15208762D01*
X10743714Y-15137334D01*
X10729428Y-15094476D01*
X10715143Y-15065905D01*
X10686571Y-15023048D01*
X10672286Y-15008762D01*
M02*
