G04 #@! TF.GenerationSoftware,KiCad,Pcbnew,(5.1.12-1-10_14)*
G04 #@! TF.CreationDate,2023-11-15T20:51:55-07:00*
G04 #@! TF.ProjectId,GenMemBlock,47656e4d-656d-4426-9c6f-636b2e6b6963,rev?*
G04 #@! TF.SameCoordinates,Original*
G04 #@! TF.FileFunction,Soldermask,Top*
G04 #@! TF.FilePolarity,Negative*
%FSLAX46Y46*%
G04 Gerber Fmt 4.6, Leading zero omitted, Abs format (unit mm)*
G04 Created by KiCad (PCBNEW (5.1.12-1-10_14)) date 2023-11-15 20:51:55*
%MOMM*%
%LPD*%
G01*
G04 APERTURE LIST*
%ADD10O,1.700000X1.700000*%
%ADD11R,1.700000X1.700000*%
%ADD12R,1.778000X6.985000*%
%ADD13R,1.200000X0.400000*%
%ADD14R,0.406400X2.044700*%
G04 APERTURE END LIST*
D10*
X126238000Y-66040000D03*
X123698000Y-66040000D03*
X121158000Y-66040000D03*
X118618000Y-66040000D03*
X116078000Y-66040000D03*
X113538000Y-66040000D03*
D11*
X110998000Y-66040000D03*
D10*
X122037000Y-74140000D03*
X124577000Y-74140000D03*
X122037000Y-76680000D03*
X124577000Y-76680000D03*
X122037000Y-79220000D03*
X124577000Y-79220000D03*
X122037000Y-81760000D03*
X124577000Y-81760000D03*
X122037000Y-84300000D03*
X124577000Y-84300000D03*
X122037000Y-86840000D03*
X124577000Y-86840000D03*
X122037000Y-89380000D03*
X124577000Y-89380000D03*
X122037000Y-91920000D03*
X124577000Y-91920000D03*
X122037000Y-94460000D03*
X124577000Y-94460000D03*
X122037000Y-97000000D03*
D11*
X124577000Y-97000000D03*
G36*
G01*
X117822000Y-81899000D02*
X117822000Y-81699000D01*
G75*
G02*
X117922000Y-81599000I100000J0D01*
G01*
X119197000Y-81599000D01*
G75*
G02*
X119297000Y-81699000I0J-100000D01*
G01*
X119297000Y-81899000D01*
G75*
G02*
X119197000Y-81999000I-100000J0D01*
G01*
X117922000Y-81999000D01*
G75*
G02*
X117822000Y-81899000I0J100000D01*
G01*
G37*
G36*
G01*
X117822000Y-82549000D02*
X117822000Y-82349000D01*
G75*
G02*
X117922000Y-82249000I100000J0D01*
G01*
X119197000Y-82249000D01*
G75*
G02*
X119297000Y-82349000I0J-100000D01*
G01*
X119297000Y-82549000D01*
G75*
G02*
X119197000Y-82649000I-100000J0D01*
G01*
X117922000Y-82649000D01*
G75*
G02*
X117822000Y-82549000I0J100000D01*
G01*
G37*
G36*
G01*
X117822000Y-83199000D02*
X117822000Y-82999000D01*
G75*
G02*
X117922000Y-82899000I100000J0D01*
G01*
X119197000Y-82899000D01*
G75*
G02*
X119297000Y-82999000I0J-100000D01*
G01*
X119297000Y-83199000D01*
G75*
G02*
X119197000Y-83299000I-100000J0D01*
G01*
X117922000Y-83299000D01*
G75*
G02*
X117822000Y-83199000I0J100000D01*
G01*
G37*
G36*
G01*
X117822000Y-83849000D02*
X117822000Y-83649000D01*
G75*
G02*
X117922000Y-83549000I100000J0D01*
G01*
X119197000Y-83549000D01*
G75*
G02*
X119297000Y-83649000I0J-100000D01*
G01*
X119297000Y-83849000D01*
G75*
G02*
X119197000Y-83949000I-100000J0D01*
G01*
X117922000Y-83949000D01*
G75*
G02*
X117822000Y-83849000I0J100000D01*
G01*
G37*
G36*
G01*
X117822000Y-84499000D02*
X117822000Y-84299000D01*
G75*
G02*
X117922000Y-84199000I100000J0D01*
G01*
X119197000Y-84199000D01*
G75*
G02*
X119297000Y-84299000I0J-100000D01*
G01*
X119297000Y-84499000D01*
G75*
G02*
X119197000Y-84599000I-100000J0D01*
G01*
X117922000Y-84599000D01*
G75*
G02*
X117822000Y-84499000I0J100000D01*
G01*
G37*
G36*
G01*
X117822000Y-85149000D02*
X117822000Y-84949000D01*
G75*
G02*
X117922000Y-84849000I100000J0D01*
G01*
X119197000Y-84849000D01*
G75*
G02*
X119297000Y-84949000I0J-100000D01*
G01*
X119297000Y-85149000D01*
G75*
G02*
X119197000Y-85249000I-100000J0D01*
G01*
X117922000Y-85249000D01*
G75*
G02*
X117822000Y-85149000I0J100000D01*
G01*
G37*
G36*
G01*
X117822000Y-85799000D02*
X117822000Y-85599000D01*
G75*
G02*
X117922000Y-85499000I100000J0D01*
G01*
X119197000Y-85499000D01*
G75*
G02*
X119297000Y-85599000I0J-100000D01*
G01*
X119297000Y-85799000D01*
G75*
G02*
X119197000Y-85899000I-100000J0D01*
G01*
X117922000Y-85899000D01*
G75*
G02*
X117822000Y-85799000I0J100000D01*
G01*
G37*
G36*
G01*
X117822000Y-86449000D02*
X117822000Y-86249000D01*
G75*
G02*
X117922000Y-86149000I100000J0D01*
G01*
X119197000Y-86149000D01*
G75*
G02*
X119297000Y-86249000I0J-100000D01*
G01*
X119297000Y-86449000D01*
G75*
G02*
X119197000Y-86549000I-100000J0D01*
G01*
X117922000Y-86549000D01*
G75*
G02*
X117822000Y-86449000I0J100000D01*
G01*
G37*
G36*
G01*
X112097000Y-86449000D02*
X112097000Y-86249000D01*
G75*
G02*
X112197000Y-86149000I100000J0D01*
G01*
X113472000Y-86149000D01*
G75*
G02*
X113572000Y-86249000I0J-100000D01*
G01*
X113572000Y-86449000D01*
G75*
G02*
X113472000Y-86549000I-100000J0D01*
G01*
X112197000Y-86549000D01*
G75*
G02*
X112097000Y-86449000I0J100000D01*
G01*
G37*
G36*
G01*
X112097000Y-85799000D02*
X112097000Y-85599000D01*
G75*
G02*
X112197000Y-85499000I100000J0D01*
G01*
X113472000Y-85499000D01*
G75*
G02*
X113572000Y-85599000I0J-100000D01*
G01*
X113572000Y-85799000D01*
G75*
G02*
X113472000Y-85899000I-100000J0D01*
G01*
X112197000Y-85899000D01*
G75*
G02*
X112097000Y-85799000I0J100000D01*
G01*
G37*
G36*
G01*
X112097000Y-85149000D02*
X112097000Y-84949000D01*
G75*
G02*
X112197000Y-84849000I100000J0D01*
G01*
X113472000Y-84849000D01*
G75*
G02*
X113572000Y-84949000I0J-100000D01*
G01*
X113572000Y-85149000D01*
G75*
G02*
X113472000Y-85249000I-100000J0D01*
G01*
X112197000Y-85249000D01*
G75*
G02*
X112097000Y-85149000I0J100000D01*
G01*
G37*
G36*
G01*
X112097000Y-84499000D02*
X112097000Y-84299000D01*
G75*
G02*
X112197000Y-84199000I100000J0D01*
G01*
X113472000Y-84199000D01*
G75*
G02*
X113572000Y-84299000I0J-100000D01*
G01*
X113572000Y-84499000D01*
G75*
G02*
X113472000Y-84599000I-100000J0D01*
G01*
X112197000Y-84599000D01*
G75*
G02*
X112097000Y-84499000I0J100000D01*
G01*
G37*
G36*
G01*
X112097000Y-83849000D02*
X112097000Y-83649000D01*
G75*
G02*
X112197000Y-83549000I100000J0D01*
G01*
X113472000Y-83549000D01*
G75*
G02*
X113572000Y-83649000I0J-100000D01*
G01*
X113572000Y-83849000D01*
G75*
G02*
X113472000Y-83949000I-100000J0D01*
G01*
X112197000Y-83949000D01*
G75*
G02*
X112097000Y-83849000I0J100000D01*
G01*
G37*
G36*
G01*
X112097000Y-83199000D02*
X112097000Y-82999000D01*
G75*
G02*
X112197000Y-82899000I100000J0D01*
G01*
X113472000Y-82899000D01*
G75*
G02*
X113572000Y-82999000I0J-100000D01*
G01*
X113572000Y-83199000D01*
G75*
G02*
X113472000Y-83299000I-100000J0D01*
G01*
X112197000Y-83299000D01*
G75*
G02*
X112097000Y-83199000I0J100000D01*
G01*
G37*
G36*
G01*
X112097000Y-82549000D02*
X112097000Y-82349000D01*
G75*
G02*
X112197000Y-82249000I100000J0D01*
G01*
X113472000Y-82249000D01*
G75*
G02*
X113572000Y-82349000I0J-100000D01*
G01*
X113572000Y-82549000D01*
G75*
G02*
X113472000Y-82649000I-100000J0D01*
G01*
X112197000Y-82649000D01*
G75*
G02*
X112097000Y-82549000I0J100000D01*
G01*
G37*
G36*
G01*
X112097000Y-81899000D02*
X112097000Y-81699000D01*
G75*
G02*
X112197000Y-81599000I100000J0D01*
G01*
X113472000Y-81599000D01*
G75*
G02*
X113572000Y-81699000I0J-100000D01*
G01*
X113572000Y-81899000D01*
G75*
G02*
X113472000Y-81999000I-100000J0D01*
G01*
X112197000Y-81999000D01*
G75*
G02*
X112097000Y-81899000I0J100000D01*
G01*
G37*
G36*
G01*
X117822000Y-91622000D02*
X117822000Y-91422000D01*
G75*
G02*
X117922000Y-91322000I100000J0D01*
G01*
X119197000Y-91322000D01*
G75*
G02*
X119297000Y-91422000I0J-100000D01*
G01*
X119297000Y-91622000D01*
G75*
G02*
X119197000Y-91722000I-100000J0D01*
G01*
X117922000Y-91722000D01*
G75*
G02*
X117822000Y-91622000I0J100000D01*
G01*
G37*
G36*
G01*
X117822000Y-92272000D02*
X117822000Y-92072000D01*
G75*
G02*
X117922000Y-91972000I100000J0D01*
G01*
X119197000Y-91972000D01*
G75*
G02*
X119297000Y-92072000I0J-100000D01*
G01*
X119297000Y-92272000D01*
G75*
G02*
X119197000Y-92372000I-100000J0D01*
G01*
X117922000Y-92372000D01*
G75*
G02*
X117822000Y-92272000I0J100000D01*
G01*
G37*
G36*
G01*
X117822000Y-92922000D02*
X117822000Y-92722000D01*
G75*
G02*
X117922000Y-92622000I100000J0D01*
G01*
X119197000Y-92622000D01*
G75*
G02*
X119297000Y-92722000I0J-100000D01*
G01*
X119297000Y-92922000D01*
G75*
G02*
X119197000Y-93022000I-100000J0D01*
G01*
X117922000Y-93022000D01*
G75*
G02*
X117822000Y-92922000I0J100000D01*
G01*
G37*
G36*
G01*
X117822000Y-93572000D02*
X117822000Y-93372000D01*
G75*
G02*
X117922000Y-93272000I100000J0D01*
G01*
X119197000Y-93272000D01*
G75*
G02*
X119297000Y-93372000I0J-100000D01*
G01*
X119297000Y-93572000D01*
G75*
G02*
X119197000Y-93672000I-100000J0D01*
G01*
X117922000Y-93672000D01*
G75*
G02*
X117822000Y-93572000I0J100000D01*
G01*
G37*
G36*
G01*
X117822000Y-94222000D02*
X117822000Y-94022000D01*
G75*
G02*
X117922000Y-93922000I100000J0D01*
G01*
X119197000Y-93922000D01*
G75*
G02*
X119297000Y-94022000I0J-100000D01*
G01*
X119297000Y-94222000D01*
G75*
G02*
X119197000Y-94322000I-100000J0D01*
G01*
X117922000Y-94322000D01*
G75*
G02*
X117822000Y-94222000I0J100000D01*
G01*
G37*
G36*
G01*
X117822000Y-94872000D02*
X117822000Y-94672000D01*
G75*
G02*
X117922000Y-94572000I100000J0D01*
G01*
X119197000Y-94572000D01*
G75*
G02*
X119297000Y-94672000I0J-100000D01*
G01*
X119297000Y-94872000D01*
G75*
G02*
X119197000Y-94972000I-100000J0D01*
G01*
X117922000Y-94972000D01*
G75*
G02*
X117822000Y-94872000I0J100000D01*
G01*
G37*
G36*
G01*
X117822000Y-95522000D02*
X117822000Y-95322000D01*
G75*
G02*
X117922000Y-95222000I100000J0D01*
G01*
X119197000Y-95222000D01*
G75*
G02*
X119297000Y-95322000I0J-100000D01*
G01*
X119297000Y-95522000D01*
G75*
G02*
X119197000Y-95622000I-100000J0D01*
G01*
X117922000Y-95622000D01*
G75*
G02*
X117822000Y-95522000I0J100000D01*
G01*
G37*
G36*
G01*
X112097000Y-95522000D02*
X112097000Y-95322000D01*
G75*
G02*
X112197000Y-95222000I100000J0D01*
G01*
X113472000Y-95222000D01*
G75*
G02*
X113572000Y-95322000I0J-100000D01*
G01*
X113572000Y-95522000D01*
G75*
G02*
X113472000Y-95622000I-100000J0D01*
G01*
X112197000Y-95622000D01*
G75*
G02*
X112097000Y-95522000I0J100000D01*
G01*
G37*
G36*
G01*
X112097000Y-94872000D02*
X112097000Y-94672000D01*
G75*
G02*
X112197000Y-94572000I100000J0D01*
G01*
X113472000Y-94572000D01*
G75*
G02*
X113572000Y-94672000I0J-100000D01*
G01*
X113572000Y-94872000D01*
G75*
G02*
X113472000Y-94972000I-100000J0D01*
G01*
X112197000Y-94972000D01*
G75*
G02*
X112097000Y-94872000I0J100000D01*
G01*
G37*
G36*
G01*
X112097000Y-94222000D02*
X112097000Y-94022000D01*
G75*
G02*
X112197000Y-93922000I100000J0D01*
G01*
X113472000Y-93922000D01*
G75*
G02*
X113572000Y-94022000I0J-100000D01*
G01*
X113572000Y-94222000D01*
G75*
G02*
X113472000Y-94322000I-100000J0D01*
G01*
X112197000Y-94322000D01*
G75*
G02*
X112097000Y-94222000I0J100000D01*
G01*
G37*
G36*
G01*
X112097000Y-93572000D02*
X112097000Y-93372000D01*
G75*
G02*
X112197000Y-93272000I100000J0D01*
G01*
X113472000Y-93272000D01*
G75*
G02*
X113572000Y-93372000I0J-100000D01*
G01*
X113572000Y-93572000D01*
G75*
G02*
X113472000Y-93672000I-100000J0D01*
G01*
X112197000Y-93672000D01*
G75*
G02*
X112097000Y-93572000I0J100000D01*
G01*
G37*
G36*
G01*
X112097000Y-92922000D02*
X112097000Y-92722000D01*
G75*
G02*
X112197000Y-92622000I100000J0D01*
G01*
X113472000Y-92622000D01*
G75*
G02*
X113572000Y-92722000I0J-100000D01*
G01*
X113572000Y-92922000D01*
G75*
G02*
X113472000Y-93022000I-100000J0D01*
G01*
X112197000Y-93022000D01*
G75*
G02*
X112097000Y-92922000I0J100000D01*
G01*
G37*
G36*
G01*
X112097000Y-92272000D02*
X112097000Y-92072000D01*
G75*
G02*
X112197000Y-91972000I100000J0D01*
G01*
X113472000Y-91972000D01*
G75*
G02*
X113572000Y-92072000I0J-100000D01*
G01*
X113572000Y-92272000D01*
G75*
G02*
X113472000Y-92372000I-100000J0D01*
G01*
X112197000Y-92372000D01*
G75*
G02*
X112097000Y-92272000I0J100000D01*
G01*
G37*
G36*
G01*
X112097000Y-91622000D02*
X112097000Y-91422000D01*
G75*
G02*
X112197000Y-91322000I100000J0D01*
G01*
X113472000Y-91322000D01*
G75*
G02*
X113572000Y-91422000I0J-100000D01*
G01*
X113572000Y-91622000D01*
G75*
G02*
X113472000Y-91722000I-100000J0D01*
G01*
X112197000Y-91722000D01*
G75*
G02*
X112097000Y-91622000I0J100000D01*
G01*
G37*
G36*
G01*
X124172000Y-106862000D02*
X124172000Y-106662000D01*
G75*
G02*
X124272000Y-106562000I100000J0D01*
G01*
X125547000Y-106562000D01*
G75*
G02*
X125647000Y-106662000I0J-100000D01*
G01*
X125647000Y-106862000D01*
G75*
G02*
X125547000Y-106962000I-100000J0D01*
G01*
X124272000Y-106962000D01*
G75*
G02*
X124172000Y-106862000I0J100000D01*
G01*
G37*
G36*
G01*
X124172000Y-107512000D02*
X124172000Y-107312000D01*
G75*
G02*
X124272000Y-107212000I100000J0D01*
G01*
X125547000Y-107212000D01*
G75*
G02*
X125647000Y-107312000I0J-100000D01*
G01*
X125647000Y-107512000D01*
G75*
G02*
X125547000Y-107612000I-100000J0D01*
G01*
X124272000Y-107612000D01*
G75*
G02*
X124172000Y-107512000I0J100000D01*
G01*
G37*
G36*
G01*
X124172000Y-108162000D02*
X124172000Y-107962000D01*
G75*
G02*
X124272000Y-107862000I100000J0D01*
G01*
X125547000Y-107862000D01*
G75*
G02*
X125647000Y-107962000I0J-100000D01*
G01*
X125647000Y-108162000D01*
G75*
G02*
X125547000Y-108262000I-100000J0D01*
G01*
X124272000Y-108262000D01*
G75*
G02*
X124172000Y-108162000I0J100000D01*
G01*
G37*
G36*
G01*
X124172000Y-108812000D02*
X124172000Y-108612000D01*
G75*
G02*
X124272000Y-108512000I100000J0D01*
G01*
X125547000Y-108512000D01*
G75*
G02*
X125647000Y-108612000I0J-100000D01*
G01*
X125647000Y-108812000D01*
G75*
G02*
X125547000Y-108912000I-100000J0D01*
G01*
X124272000Y-108912000D01*
G75*
G02*
X124172000Y-108812000I0J100000D01*
G01*
G37*
G36*
G01*
X124172000Y-109462000D02*
X124172000Y-109262000D01*
G75*
G02*
X124272000Y-109162000I100000J0D01*
G01*
X125547000Y-109162000D01*
G75*
G02*
X125647000Y-109262000I0J-100000D01*
G01*
X125647000Y-109462000D01*
G75*
G02*
X125547000Y-109562000I-100000J0D01*
G01*
X124272000Y-109562000D01*
G75*
G02*
X124172000Y-109462000I0J100000D01*
G01*
G37*
G36*
G01*
X124172000Y-110112000D02*
X124172000Y-109912000D01*
G75*
G02*
X124272000Y-109812000I100000J0D01*
G01*
X125547000Y-109812000D01*
G75*
G02*
X125647000Y-109912000I0J-100000D01*
G01*
X125647000Y-110112000D01*
G75*
G02*
X125547000Y-110212000I-100000J0D01*
G01*
X124272000Y-110212000D01*
G75*
G02*
X124172000Y-110112000I0J100000D01*
G01*
G37*
G36*
G01*
X124172000Y-110762000D02*
X124172000Y-110562000D01*
G75*
G02*
X124272000Y-110462000I100000J0D01*
G01*
X125547000Y-110462000D01*
G75*
G02*
X125647000Y-110562000I0J-100000D01*
G01*
X125647000Y-110762000D01*
G75*
G02*
X125547000Y-110862000I-100000J0D01*
G01*
X124272000Y-110862000D01*
G75*
G02*
X124172000Y-110762000I0J100000D01*
G01*
G37*
G36*
G01*
X118447000Y-110762000D02*
X118447000Y-110562000D01*
G75*
G02*
X118547000Y-110462000I100000J0D01*
G01*
X119822000Y-110462000D01*
G75*
G02*
X119922000Y-110562000I0J-100000D01*
G01*
X119922000Y-110762000D01*
G75*
G02*
X119822000Y-110862000I-100000J0D01*
G01*
X118547000Y-110862000D01*
G75*
G02*
X118447000Y-110762000I0J100000D01*
G01*
G37*
G36*
G01*
X118447000Y-110112000D02*
X118447000Y-109912000D01*
G75*
G02*
X118547000Y-109812000I100000J0D01*
G01*
X119822000Y-109812000D01*
G75*
G02*
X119922000Y-109912000I0J-100000D01*
G01*
X119922000Y-110112000D01*
G75*
G02*
X119822000Y-110212000I-100000J0D01*
G01*
X118547000Y-110212000D01*
G75*
G02*
X118447000Y-110112000I0J100000D01*
G01*
G37*
G36*
G01*
X118447000Y-109462000D02*
X118447000Y-109262000D01*
G75*
G02*
X118547000Y-109162000I100000J0D01*
G01*
X119822000Y-109162000D01*
G75*
G02*
X119922000Y-109262000I0J-100000D01*
G01*
X119922000Y-109462000D01*
G75*
G02*
X119822000Y-109562000I-100000J0D01*
G01*
X118547000Y-109562000D01*
G75*
G02*
X118447000Y-109462000I0J100000D01*
G01*
G37*
G36*
G01*
X118447000Y-108812000D02*
X118447000Y-108612000D01*
G75*
G02*
X118547000Y-108512000I100000J0D01*
G01*
X119822000Y-108512000D01*
G75*
G02*
X119922000Y-108612000I0J-100000D01*
G01*
X119922000Y-108812000D01*
G75*
G02*
X119822000Y-108912000I-100000J0D01*
G01*
X118547000Y-108912000D01*
G75*
G02*
X118447000Y-108812000I0J100000D01*
G01*
G37*
G36*
G01*
X118447000Y-108162000D02*
X118447000Y-107962000D01*
G75*
G02*
X118547000Y-107862000I100000J0D01*
G01*
X119822000Y-107862000D01*
G75*
G02*
X119922000Y-107962000I0J-100000D01*
G01*
X119922000Y-108162000D01*
G75*
G02*
X119822000Y-108262000I-100000J0D01*
G01*
X118547000Y-108262000D01*
G75*
G02*
X118447000Y-108162000I0J100000D01*
G01*
G37*
G36*
G01*
X118447000Y-107512000D02*
X118447000Y-107312000D01*
G75*
G02*
X118547000Y-107212000I100000J0D01*
G01*
X119822000Y-107212000D01*
G75*
G02*
X119922000Y-107312000I0J-100000D01*
G01*
X119922000Y-107512000D01*
G75*
G02*
X119822000Y-107612000I-100000J0D01*
G01*
X118547000Y-107612000D01*
G75*
G02*
X118447000Y-107512000I0J100000D01*
G01*
G37*
G36*
G01*
X118447000Y-106862000D02*
X118447000Y-106662000D01*
G75*
G02*
X118547000Y-106562000I100000J0D01*
G01*
X119822000Y-106562000D01*
G75*
G02*
X119922000Y-106662000I0J-100000D01*
G01*
X119922000Y-106862000D01*
G75*
G02*
X119822000Y-106962000I-100000J0D01*
G01*
X118547000Y-106962000D01*
G75*
G02*
X118447000Y-106862000I0J100000D01*
G01*
G37*
G36*
G01*
X114901000Y-106862000D02*
X114901000Y-106662000D01*
G75*
G02*
X115001000Y-106562000I100000J0D01*
G01*
X116276000Y-106562000D01*
G75*
G02*
X116376000Y-106662000I0J-100000D01*
G01*
X116376000Y-106862000D01*
G75*
G02*
X116276000Y-106962000I-100000J0D01*
G01*
X115001000Y-106962000D01*
G75*
G02*
X114901000Y-106862000I0J100000D01*
G01*
G37*
G36*
G01*
X114901000Y-107512000D02*
X114901000Y-107312000D01*
G75*
G02*
X115001000Y-107212000I100000J0D01*
G01*
X116276000Y-107212000D01*
G75*
G02*
X116376000Y-107312000I0J-100000D01*
G01*
X116376000Y-107512000D01*
G75*
G02*
X116276000Y-107612000I-100000J0D01*
G01*
X115001000Y-107612000D01*
G75*
G02*
X114901000Y-107512000I0J100000D01*
G01*
G37*
G36*
G01*
X114901000Y-108162000D02*
X114901000Y-107962000D01*
G75*
G02*
X115001000Y-107862000I100000J0D01*
G01*
X116276000Y-107862000D01*
G75*
G02*
X116376000Y-107962000I0J-100000D01*
G01*
X116376000Y-108162000D01*
G75*
G02*
X116276000Y-108262000I-100000J0D01*
G01*
X115001000Y-108262000D01*
G75*
G02*
X114901000Y-108162000I0J100000D01*
G01*
G37*
G36*
G01*
X114901000Y-108812000D02*
X114901000Y-108612000D01*
G75*
G02*
X115001000Y-108512000I100000J0D01*
G01*
X116276000Y-108512000D01*
G75*
G02*
X116376000Y-108612000I0J-100000D01*
G01*
X116376000Y-108812000D01*
G75*
G02*
X116276000Y-108912000I-100000J0D01*
G01*
X115001000Y-108912000D01*
G75*
G02*
X114901000Y-108812000I0J100000D01*
G01*
G37*
G36*
G01*
X114901000Y-109462000D02*
X114901000Y-109262000D01*
G75*
G02*
X115001000Y-109162000I100000J0D01*
G01*
X116276000Y-109162000D01*
G75*
G02*
X116376000Y-109262000I0J-100000D01*
G01*
X116376000Y-109462000D01*
G75*
G02*
X116276000Y-109562000I-100000J0D01*
G01*
X115001000Y-109562000D01*
G75*
G02*
X114901000Y-109462000I0J100000D01*
G01*
G37*
G36*
G01*
X114901000Y-110112000D02*
X114901000Y-109912000D01*
G75*
G02*
X115001000Y-109812000I100000J0D01*
G01*
X116276000Y-109812000D01*
G75*
G02*
X116376000Y-109912000I0J-100000D01*
G01*
X116376000Y-110112000D01*
G75*
G02*
X116276000Y-110212000I-100000J0D01*
G01*
X115001000Y-110212000D01*
G75*
G02*
X114901000Y-110112000I0J100000D01*
G01*
G37*
G36*
G01*
X114901000Y-110762000D02*
X114901000Y-110562000D01*
G75*
G02*
X115001000Y-110462000I100000J0D01*
G01*
X116276000Y-110462000D01*
G75*
G02*
X116376000Y-110562000I0J-100000D01*
G01*
X116376000Y-110762000D01*
G75*
G02*
X116276000Y-110862000I-100000J0D01*
G01*
X115001000Y-110862000D01*
G75*
G02*
X114901000Y-110762000I0J100000D01*
G01*
G37*
G36*
G01*
X109176000Y-110762000D02*
X109176000Y-110562000D01*
G75*
G02*
X109276000Y-110462000I100000J0D01*
G01*
X110551000Y-110462000D01*
G75*
G02*
X110651000Y-110562000I0J-100000D01*
G01*
X110651000Y-110762000D01*
G75*
G02*
X110551000Y-110862000I-100000J0D01*
G01*
X109276000Y-110862000D01*
G75*
G02*
X109176000Y-110762000I0J100000D01*
G01*
G37*
G36*
G01*
X109176000Y-110112000D02*
X109176000Y-109912000D01*
G75*
G02*
X109276000Y-109812000I100000J0D01*
G01*
X110551000Y-109812000D01*
G75*
G02*
X110651000Y-109912000I0J-100000D01*
G01*
X110651000Y-110112000D01*
G75*
G02*
X110551000Y-110212000I-100000J0D01*
G01*
X109276000Y-110212000D01*
G75*
G02*
X109176000Y-110112000I0J100000D01*
G01*
G37*
G36*
G01*
X109176000Y-109462000D02*
X109176000Y-109262000D01*
G75*
G02*
X109276000Y-109162000I100000J0D01*
G01*
X110551000Y-109162000D01*
G75*
G02*
X110651000Y-109262000I0J-100000D01*
G01*
X110651000Y-109462000D01*
G75*
G02*
X110551000Y-109562000I-100000J0D01*
G01*
X109276000Y-109562000D01*
G75*
G02*
X109176000Y-109462000I0J100000D01*
G01*
G37*
G36*
G01*
X109176000Y-108812000D02*
X109176000Y-108612000D01*
G75*
G02*
X109276000Y-108512000I100000J0D01*
G01*
X110551000Y-108512000D01*
G75*
G02*
X110651000Y-108612000I0J-100000D01*
G01*
X110651000Y-108812000D01*
G75*
G02*
X110551000Y-108912000I-100000J0D01*
G01*
X109276000Y-108912000D01*
G75*
G02*
X109176000Y-108812000I0J100000D01*
G01*
G37*
G36*
G01*
X109176000Y-108162000D02*
X109176000Y-107962000D01*
G75*
G02*
X109276000Y-107862000I100000J0D01*
G01*
X110551000Y-107862000D01*
G75*
G02*
X110651000Y-107962000I0J-100000D01*
G01*
X110651000Y-108162000D01*
G75*
G02*
X110551000Y-108262000I-100000J0D01*
G01*
X109276000Y-108262000D01*
G75*
G02*
X109176000Y-108162000I0J100000D01*
G01*
G37*
G36*
G01*
X109176000Y-107512000D02*
X109176000Y-107312000D01*
G75*
G02*
X109276000Y-107212000I100000J0D01*
G01*
X110551000Y-107212000D01*
G75*
G02*
X110651000Y-107312000I0J-100000D01*
G01*
X110651000Y-107512000D01*
G75*
G02*
X110551000Y-107612000I-100000J0D01*
G01*
X109276000Y-107612000D01*
G75*
G02*
X109176000Y-107512000I0J100000D01*
G01*
G37*
G36*
G01*
X109176000Y-106862000D02*
X109176000Y-106662000D01*
G75*
G02*
X109276000Y-106562000I100000J0D01*
G01*
X110551000Y-106562000D01*
G75*
G02*
X110651000Y-106662000I0J-100000D01*
G01*
X110651000Y-106862000D01*
G75*
G02*
X110551000Y-106962000I-100000J0D01*
G01*
X109276000Y-106962000D01*
G75*
G02*
X109176000Y-106862000I0J100000D01*
G01*
G37*
D12*
X40640000Y-130810000D03*
X43180000Y-130810000D03*
X45720000Y-130810000D03*
X48260000Y-130810000D03*
X50800000Y-130810000D03*
X53340000Y-130810000D03*
X55880000Y-130810000D03*
X58420000Y-130810000D03*
X60960000Y-130810000D03*
X63500000Y-130810000D03*
X66040000Y-130810000D03*
X68580000Y-130810000D03*
X71120000Y-130810000D03*
X73660000Y-130810000D03*
X76200000Y-130810000D03*
X78740000Y-130810000D03*
X81280000Y-130810000D03*
X83820000Y-130810000D03*
X86360000Y-130810000D03*
X88900000Y-130810000D03*
X91440000Y-130810000D03*
X93980000Y-130810000D03*
X96520000Y-130810000D03*
X99060000Y-130810000D03*
X101600000Y-130810000D03*
X104140000Y-130810000D03*
X106680000Y-130810000D03*
X109220000Y-130810000D03*
X111760000Y-130810000D03*
X114300000Y-130810000D03*
X116840000Y-130810000D03*
X119380000Y-130810000D03*
D13*
X99309600Y-83335200D03*
X99309600Y-83985200D03*
X99309600Y-84635200D03*
X99309600Y-85285200D03*
X99309600Y-85935200D03*
X99309600Y-86585200D03*
X99309600Y-87235200D03*
X99309600Y-87885200D03*
X92409600Y-87885200D03*
X92409600Y-87235200D03*
X92409600Y-86585200D03*
X92409600Y-85935200D03*
X92409600Y-85285200D03*
X92409600Y-84635200D03*
X92409600Y-83985200D03*
X92409600Y-83335200D03*
X89200400Y-83373800D03*
X89200400Y-84023800D03*
X89200400Y-84673800D03*
X89200400Y-85323800D03*
X89200400Y-85973800D03*
X89200400Y-86623800D03*
X89200400Y-87273800D03*
X89200400Y-87923800D03*
X82300400Y-87923800D03*
X82300400Y-87273800D03*
X82300400Y-86623800D03*
X82300400Y-85973800D03*
X82300400Y-85323800D03*
X82300400Y-84673800D03*
X82300400Y-84023800D03*
X82300400Y-83373800D03*
D14*
X103944500Y-99218750D03*
X103309500Y-99218750D03*
X102674500Y-99218750D03*
X102039500Y-99218750D03*
X101404500Y-99218750D03*
X100769500Y-99218750D03*
X100134500Y-99218750D03*
X99499500Y-99218750D03*
X98864500Y-99218750D03*
X98229500Y-99218750D03*
X97594500Y-99218750D03*
X96959500Y-99218750D03*
X96324500Y-99218750D03*
X95689500Y-99218750D03*
X95054500Y-99218750D03*
X94419500Y-99218750D03*
X93784500Y-99218750D03*
X93149500Y-99218750D03*
X92514500Y-99218750D03*
X91879500Y-99218750D03*
X91244500Y-99218750D03*
X90609500Y-99218750D03*
X89974500Y-99218750D03*
X89339500Y-99218750D03*
X88704500Y-99218750D03*
X88069500Y-99218750D03*
X87434500Y-99218750D03*
X86799500Y-99218750D03*
X86799500Y-108553250D03*
X87434500Y-108553250D03*
X88069500Y-108553250D03*
X88704500Y-108553250D03*
X89339500Y-108553250D03*
X89974500Y-108553250D03*
X90609500Y-108553250D03*
X91244500Y-108553250D03*
X91879500Y-108553250D03*
X92514500Y-108553250D03*
X93149500Y-108553250D03*
X93784500Y-108553250D03*
X94419500Y-108553250D03*
X95054500Y-108553250D03*
X95689500Y-108553250D03*
X96324500Y-108553250D03*
X96959500Y-108553250D03*
X97594500Y-108553250D03*
X98229500Y-108553250D03*
X98864500Y-108553250D03*
X99499500Y-108553250D03*
X100134500Y-108553250D03*
X100769500Y-108553250D03*
X101404500Y-108553250D03*
X102039500Y-108553250D03*
X102674500Y-108553250D03*
X103309500Y-108553250D03*
X103944500Y-108553250D03*
X52006500Y-108553250D03*
X51371500Y-108553250D03*
X50736500Y-108553250D03*
X50101500Y-108553250D03*
X49466500Y-108553250D03*
X48831500Y-108553250D03*
X48196500Y-108553250D03*
X47561500Y-108553250D03*
X46926500Y-108553250D03*
X46291500Y-108553250D03*
X45656500Y-108553250D03*
X45021500Y-108553250D03*
X44386500Y-108553250D03*
X43751500Y-108553250D03*
X43116500Y-108553250D03*
X42481500Y-108553250D03*
X41846500Y-108553250D03*
X41211500Y-108553250D03*
X40576500Y-108553250D03*
X39941500Y-108553250D03*
X39306500Y-108553250D03*
X38671500Y-108553250D03*
X38036500Y-108553250D03*
X37401500Y-108553250D03*
X36766500Y-108553250D03*
X36131500Y-108553250D03*
X35496500Y-108553250D03*
X34861500Y-108553250D03*
X34861500Y-99218750D03*
X35496500Y-99218750D03*
X36131500Y-99218750D03*
X36766500Y-99218750D03*
X37401500Y-99218750D03*
X38036500Y-99218750D03*
X38671500Y-99218750D03*
X39306500Y-99218750D03*
X39941500Y-99218750D03*
X40576500Y-99218750D03*
X41211500Y-99218750D03*
X41846500Y-99218750D03*
X42481500Y-99218750D03*
X43116500Y-99218750D03*
X43751500Y-99218750D03*
X44386500Y-99218750D03*
X45021500Y-99218750D03*
X45656500Y-99218750D03*
X46291500Y-99218750D03*
X46926500Y-99218750D03*
X47561500Y-99218750D03*
X48196500Y-99218750D03*
X48831500Y-99218750D03*
X49466500Y-99218750D03*
X50101500Y-99218750D03*
X50736500Y-99218750D03*
X51371500Y-99218750D03*
X52006500Y-99218750D03*
X76139900Y-99218750D03*
X75504900Y-99218750D03*
X74869900Y-99218750D03*
X74234900Y-99218750D03*
X73599900Y-99218750D03*
X72964900Y-99218750D03*
X72329900Y-99218750D03*
X71694900Y-99218750D03*
X71059900Y-99218750D03*
X70424900Y-99218750D03*
X69789900Y-99218750D03*
X69154900Y-99218750D03*
X68519900Y-99218750D03*
X67884900Y-99218750D03*
X67249900Y-99218750D03*
X66614900Y-99218750D03*
X65979900Y-99218750D03*
X65344900Y-99218750D03*
X64709900Y-99218750D03*
X64074900Y-99218750D03*
X63439900Y-99218750D03*
X62804900Y-99218750D03*
X62169900Y-99218750D03*
X61534900Y-99218750D03*
X60899900Y-99218750D03*
X60264900Y-99218750D03*
X59629900Y-99218750D03*
X58994900Y-99218750D03*
X58994900Y-108553250D03*
X59629900Y-108553250D03*
X60264900Y-108553250D03*
X60899900Y-108553250D03*
X61534900Y-108553250D03*
X62169900Y-108553250D03*
X62804900Y-108553250D03*
X63439900Y-108553250D03*
X64074900Y-108553250D03*
X64709900Y-108553250D03*
X65344900Y-108553250D03*
X65979900Y-108553250D03*
X66614900Y-108553250D03*
X67249900Y-108553250D03*
X67884900Y-108553250D03*
X68519900Y-108553250D03*
X69154900Y-108553250D03*
X69789900Y-108553250D03*
X70424900Y-108553250D03*
X71059900Y-108553250D03*
X71694900Y-108553250D03*
X72329900Y-108553250D03*
X72964900Y-108553250D03*
X73599900Y-108553250D03*
X74234900Y-108553250D03*
X74869900Y-108553250D03*
X75504900Y-108553250D03*
X76139900Y-108553250D03*
D10*
X35789000Y-76690000D03*
X35789000Y-74150000D03*
X38329000Y-76690000D03*
X38329000Y-74150000D03*
X40869000Y-76690000D03*
X40869000Y-74150000D03*
X43409000Y-76690000D03*
X43409000Y-74150000D03*
X45949000Y-76690000D03*
X45949000Y-74150000D03*
X48489000Y-76690000D03*
X48489000Y-74150000D03*
X51029000Y-76690000D03*
X51029000Y-74150000D03*
X53569000Y-76690000D03*
X53569000Y-74150000D03*
X56109000Y-76690000D03*
X56109000Y-74150000D03*
X58649000Y-76690000D03*
X58649000Y-74150000D03*
X61189000Y-76690000D03*
X61189000Y-74150000D03*
X63729000Y-76690000D03*
X63729000Y-74150000D03*
X66269000Y-76690000D03*
D11*
X66269000Y-74150000D03*
X66167000Y-117043200D03*
D10*
X66167000Y-114503200D03*
X68707000Y-117043200D03*
X68707000Y-114503200D03*
X71247000Y-117043200D03*
X71247000Y-114503200D03*
X73787000Y-117043200D03*
X73787000Y-114503200D03*
X76327000Y-117043200D03*
X76327000Y-114503200D03*
X94107000Y-114503200D03*
X94107000Y-117043200D03*
X91567000Y-114503200D03*
X91567000Y-117043200D03*
X89027000Y-114503200D03*
X89027000Y-117043200D03*
X86487000Y-114503200D03*
X86487000Y-117043200D03*
X83947000Y-114503200D03*
D11*
X83947000Y-117043200D03*
X101727000Y-117043200D03*
D10*
X101727000Y-114503200D03*
X104267000Y-117043200D03*
X104267000Y-114503200D03*
X106807000Y-117043200D03*
X106807000Y-114503200D03*
X109347000Y-117043200D03*
X109347000Y-114503200D03*
X111887000Y-117043200D03*
X111887000Y-114503200D03*
X114427000Y-117043200D03*
X114427000Y-114503200D03*
X116967000Y-117043200D03*
X116967000Y-114503200D03*
X119507000Y-117043200D03*
X119507000Y-114503200D03*
X122047000Y-117043200D03*
X122047000Y-114503200D03*
X124587000Y-117043200D03*
X124587000Y-114503200D03*
X58572400Y-114503200D03*
X58572400Y-117043200D03*
X56032400Y-114503200D03*
X56032400Y-117043200D03*
X53492400Y-114503200D03*
X53492400Y-117043200D03*
X50952400Y-114503200D03*
X50952400Y-117043200D03*
X48412400Y-114503200D03*
X48412400Y-117043200D03*
X45872400Y-114503200D03*
X45872400Y-117043200D03*
X43332400Y-114503200D03*
X43332400Y-117043200D03*
X40792400Y-114503200D03*
X40792400Y-117043200D03*
X38252400Y-114503200D03*
X38252400Y-117043200D03*
X35712400Y-114503200D03*
D11*
X35712400Y-117043200D03*
D10*
X83921600Y-76690000D03*
X83921600Y-74150000D03*
X86461600Y-76690000D03*
X86461600Y-74150000D03*
X89001600Y-76690000D03*
X89001600Y-74150000D03*
X91541600Y-76690000D03*
X91541600Y-74150000D03*
X94081600Y-76690000D03*
X94081600Y-74150000D03*
X96621600Y-76690000D03*
X96621600Y-74150000D03*
X99161600Y-76690000D03*
X99161600Y-74150000D03*
X101701600Y-76690000D03*
X101701600Y-74150000D03*
X104241600Y-76690000D03*
X104241600Y-74150000D03*
X106781600Y-76690000D03*
D11*
X106781600Y-74150000D03*
G36*
G01*
X39219000Y-83716000D02*
X39219000Y-83416000D01*
G75*
G02*
X39369000Y-83266000I150000J0D01*
G01*
X41019000Y-83266000D01*
G75*
G02*
X41169000Y-83416000I0J-150000D01*
G01*
X41169000Y-83716000D01*
G75*
G02*
X41019000Y-83866000I-150000J0D01*
G01*
X39369000Y-83866000D01*
G75*
G02*
X39219000Y-83716000I0J150000D01*
G01*
G37*
G36*
G01*
X39219000Y-84986000D02*
X39219000Y-84686000D01*
G75*
G02*
X39369000Y-84536000I150000J0D01*
G01*
X41019000Y-84536000D01*
G75*
G02*
X41169000Y-84686000I0J-150000D01*
G01*
X41169000Y-84986000D01*
G75*
G02*
X41019000Y-85136000I-150000J0D01*
G01*
X39369000Y-85136000D01*
G75*
G02*
X39219000Y-84986000I0J150000D01*
G01*
G37*
G36*
G01*
X39219000Y-86256000D02*
X39219000Y-85956000D01*
G75*
G02*
X39369000Y-85806000I150000J0D01*
G01*
X41019000Y-85806000D01*
G75*
G02*
X41169000Y-85956000I0J-150000D01*
G01*
X41169000Y-86256000D01*
G75*
G02*
X41019000Y-86406000I-150000J0D01*
G01*
X39369000Y-86406000D01*
G75*
G02*
X39219000Y-86256000I0J150000D01*
G01*
G37*
G36*
G01*
X39219000Y-87526000D02*
X39219000Y-87226000D01*
G75*
G02*
X39369000Y-87076000I150000J0D01*
G01*
X41019000Y-87076000D01*
G75*
G02*
X41169000Y-87226000I0J-150000D01*
G01*
X41169000Y-87526000D01*
G75*
G02*
X41019000Y-87676000I-150000J0D01*
G01*
X39369000Y-87676000D01*
G75*
G02*
X39219000Y-87526000I0J150000D01*
G01*
G37*
G36*
G01*
X39219000Y-88796000D02*
X39219000Y-88496000D01*
G75*
G02*
X39369000Y-88346000I150000J0D01*
G01*
X41019000Y-88346000D01*
G75*
G02*
X41169000Y-88496000I0J-150000D01*
G01*
X41169000Y-88796000D01*
G75*
G02*
X41019000Y-88946000I-150000J0D01*
G01*
X39369000Y-88946000D01*
G75*
G02*
X39219000Y-88796000I0J150000D01*
G01*
G37*
G36*
G01*
X39219000Y-90066000D02*
X39219000Y-89766000D01*
G75*
G02*
X39369000Y-89616000I150000J0D01*
G01*
X41019000Y-89616000D01*
G75*
G02*
X41169000Y-89766000I0J-150000D01*
G01*
X41169000Y-90066000D01*
G75*
G02*
X41019000Y-90216000I-150000J0D01*
G01*
X39369000Y-90216000D01*
G75*
G02*
X39219000Y-90066000I0J150000D01*
G01*
G37*
G36*
G01*
X39219000Y-91336000D02*
X39219000Y-91036000D01*
G75*
G02*
X39369000Y-90886000I150000J0D01*
G01*
X41019000Y-90886000D01*
G75*
G02*
X41169000Y-91036000I0J-150000D01*
G01*
X41169000Y-91336000D01*
G75*
G02*
X41019000Y-91486000I-150000J0D01*
G01*
X39369000Y-91486000D01*
G75*
G02*
X39219000Y-91336000I0J150000D01*
G01*
G37*
G36*
G01*
X39219000Y-92606000D02*
X39219000Y-92306000D01*
G75*
G02*
X39369000Y-92156000I150000J0D01*
G01*
X41019000Y-92156000D01*
G75*
G02*
X41169000Y-92306000I0J-150000D01*
G01*
X41169000Y-92606000D01*
G75*
G02*
X41019000Y-92756000I-150000J0D01*
G01*
X39369000Y-92756000D01*
G75*
G02*
X39219000Y-92606000I0J150000D01*
G01*
G37*
G36*
G01*
X34269000Y-92606000D02*
X34269000Y-92306000D01*
G75*
G02*
X34419000Y-92156000I150000J0D01*
G01*
X36069000Y-92156000D01*
G75*
G02*
X36219000Y-92306000I0J-150000D01*
G01*
X36219000Y-92606000D01*
G75*
G02*
X36069000Y-92756000I-150000J0D01*
G01*
X34419000Y-92756000D01*
G75*
G02*
X34269000Y-92606000I0J150000D01*
G01*
G37*
G36*
G01*
X34269000Y-91336000D02*
X34269000Y-91036000D01*
G75*
G02*
X34419000Y-90886000I150000J0D01*
G01*
X36069000Y-90886000D01*
G75*
G02*
X36219000Y-91036000I0J-150000D01*
G01*
X36219000Y-91336000D01*
G75*
G02*
X36069000Y-91486000I-150000J0D01*
G01*
X34419000Y-91486000D01*
G75*
G02*
X34269000Y-91336000I0J150000D01*
G01*
G37*
G36*
G01*
X34269000Y-90066000D02*
X34269000Y-89766000D01*
G75*
G02*
X34419000Y-89616000I150000J0D01*
G01*
X36069000Y-89616000D01*
G75*
G02*
X36219000Y-89766000I0J-150000D01*
G01*
X36219000Y-90066000D01*
G75*
G02*
X36069000Y-90216000I-150000J0D01*
G01*
X34419000Y-90216000D01*
G75*
G02*
X34269000Y-90066000I0J150000D01*
G01*
G37*
G36*
G01*
X34269000Y-88796000D02*
X34269000Y-88496000D01*
G75*
G02*
X34419000Y-88346000I150000J0D01*
G01*
X36069000Y-88346000D01*
G75*
G02*
X36219000Y-88496000I0J-150000D01*
G01*
X36219000Y-88796000D01*
G75*
G02*
X36069000Y-88946000I-150000J0D01*
G01*
X34419000Y-88946000D01*
G75*
G02*
X34269000Y-88796000I0J150000D01*
G01*
G37*
G36*
G01*
X34269000Y-87526000D02*
X34269000Y-87226000D01*
G75*
G02*
X34419000Y-87076000I150000J0D01*
G01*
X36069000Y-87076000D01*
G75*
G02*
X36219000Y-87226000I0J-150000D01*
G01*
X36219000Y-87526000D01*
G75*
G02*
X36069000Y-87676000I-150000J0D01*
G01*
X34419000Y-87676000D01*
G75*
G02*
X34269000Y-87526000I0J150000D01*
G01*
G37*
G36*
G01*
X34269000Y-86256000D02*
X34269000Y-85956000D01*
G75*
G02*
X34419000Y-85806000I150000J0D01*
G01*
X36069000Y-85806000D01*
G75*
G02*
X36219000Y-85956000I0J-150000D01*
G01*
X36219000Y-86256000D01*
G75*
G02*
X36069000Y-86406000I-150000J0D01*
G01*
X34419000Y-86406000D01*
G75*
G02*
X34269000Y-86256000I0J150000D01*
G01*
G37*
G36*
G01*
X34269000Y-84986000D02*
X34269000Y-84686000D01*
G75*
G02*
X34419000Y-84536000I150000J0D01*
G01*
X36069000Y-84536000D01*
G75*
G02*
X36219000Y-84686000I0J-150000D01*
G01*
X36219000Y-84986000D01*
G75*
G02*
X36069000Y-85136000I-150000J0D01*
G01*
X34419000Y-85136000D01*
G75*
G02*
X34269000Y-84986000I0J150000D01*
G01*
G37*
G36*
G01*
X34269000Y-83716000D02*
X34269000Y-83416000D01*
G75*
G02*
X34419000Y-83266000I150000J0D01*
G01*
X36069000Y-83266000D01*
G75*
G02*
X36219000Y-83416000I0J-150000D01*
G01*
X36219000Y-83716000D01*
G75*
G02*
X36069000Y-83866000I-150000J0D01*
G01*
X34419000Y-83866000D01*
G75*
G02*
X34269000Y-83716000I0J150000D01*
G01*
G37*
G36*
G01*
X63615700Y-83716000D02*
X63615700Y-83416000D01*
G75*
G02*
X63765700Y-83266000I150000J0D01*
G01*
X65415700Y-83266000D01*
G75*
G02*
X65565700Y-83416000I0J-150000D01*
G01*
X65565700Y-83716000D01*
G75*
G02*
X65415700Y-83866000I-150000J0D01*
G01*
X63765700Y-83866000D01*
G75*
G02*
X63615700Y-83716000I0J150000D01*
G01*
G37*
G36*
G01*
X63615700Y-84986000D02*
X63615700Y-84686000D01*
G75*
G02*
X63765700Y-84536000I150000J0D01*
G01*
X65415700Y-84536000D01*
G75*
G02*
X65565700Y-84686000I0J-150000D01*
G01*
X65565700Y-84986000D01*
G75*
G02*
X65415700Y-85136000I-150000J0D01*
G01*
X63765700Y-85136000D01*
G75*
G02*
X63615700Y-84986000I0J150000D01*
G01*
G37*
G36*
G01*
X63615700Y-86256000D02*
X63615700Y-85956000D01*
G75*
G02*
X63765700Y-85806000I150000J0D01*
G01*
X65415700Y-85806000D01*
G75*
G02*
X65565700Y-85956000I0J-150000D01*
G01*
X65565700Y-86256000D01*
G75*
G02*
X65415700Y-86406000I-150000J0D01*
G01*
X63765700Y-86406000D01*
G75*
G02*
X63615700Y-86256000I0J150000D01*
G01*
G37*
G36*
G01*
X63615700Y-87526000D02*
X63615700Y-87226000D01*
G75*
G02*
X63765700Y-87076000I150000J0D01*
G01*
X65415700Y-87076000D01*
G75*
G02*
X65565700Y-87226000I0J-150000D01*
G01*
X65565700Y-87526000D01*
G75*
G02*
X65415700Y-87676000I-150000J0D01*
G01*
X63765700Y-87676000D01*
G75*
G02*
X63615700Y-87526000I0J150000D01*
G01*
G37*
G36*
G01*
X63615700Y-88796000D02*
X63615700Y-88496000D01*
G75*
G02*
X63765700Y-88346000I150000J0D01*
G01*
X65415700Y-88346000D01*
G75*
G02*
X65565700Y-88496000I0J-150000D01*
G01*
X65565700Y-88796000D01*
G75*
G02*
X65415700Y-88946000I-150000J0D01*
G01*
X63765700Y-88946000D01*
G75*
G02*
X63615700Y-88796000I0J150000D01*
G01*
G37*
G36*
G01*
X63615700Y-90066000D02*
X63615700Y-89766000D01*
G75*
G02*
X63765700Y-89616000I150000J0D01*
G01*
X65415700Y-89616000D01*
G75*
G02*
X65565700Y-89766000I0J-150000D01*
G01*
X65565700Y-90066000D01*
G75*
G02*
X65415700Y-90216000I-150000J0D01*
G01*
X63765700Y-90216000D01*
G75*
G02*
X63615700Y-90066000I0J150000D01*
G01*
G37*
G36*
G01*
X63615700Y-91336000D02*
X63615700Y-91036000D01*
G75*
G02*
X63765700Y-90886000I150000J0D01*
G01*
X65415700Y-90886000D01*
G75*
G02*
X65565700Y-91036000I0J-150000D01*
G01*
X65565700Y-91336000D01*
G75*
G02*
X65415700Y-91486000I-150000J0D01*
G01*
X63765700Y-91486000D01*
G75*
G02*
X63615700Y-91336000I0J150000D01*
G01*
G37*
G36*
G01*
X63615700Y-92606000D02*
X63615700Y-92306000D01*
G75*
G02*
X63765700Y-92156000I150000J0D01*
G01*
X65415700Y-92156000D01*
G75*
G02*
X65565700Y-92306000I0J-150000D01*
G01*
X65565700Y-92606000D01*
G75*
G02*
X65415700Y-92756000I-150000J0D01*
G01*
X63765700Y-92756000D01*
G75*
G02*
X63615700Y-92606000I0J150000D01*
G01*
G37*
G36*
G01*
X58665700Y-92606000D02*
X58665700Y-92306000D01*
G75*
G02*
X58815700Y-92156000I150000J0D01*
G01*
X60465700Y-92156000D01*
G75*
G02*
X60615700Y-92306000I0J-150000D01*
G01*
X60615700Y-92606000D01*
G75*
G02*
X60465700Y-92756000I-150000J0D01*
G01*
X58815700Y-92756000D01*
G75*
G02*
X58665700Y-92606000I0J150000D01*
G01*
G37*
G36*
G01*
X58665700Y-91336000D02*
X58665700Y-91036000D01*
G75*
G02*
X58815700Y-90886000I150000J0D01*
G01*
X60465700Y-90886000D01*
G75*
G02*
X60615700Y-91036000I0J-150000D01*
G01*
X60615700Y-91336000D01*
G75*
G02*
X60465700Y-91486000I-150000J0D01*
G01*
X58815700Y-91486000D01*
G75*
G02*
X58665700Y-91336000I0J150000D01*
G01*
G37*
G36*
G01*
X58665700Y-90066000D02*
X58665700Y-89766000D01*
G75*
G02*
X58815700Y-89616000I150000J0D01*
G01*
X60465700Y-89616000D01*
G75*
G02*
X60615700Y-89766000I0J-150000D01*
G01*
X60615700Y-90066000D01*
G75*
G02*
X60465700Y-90216000I-150000J0D01*
G01*
X58815700Y-90216000D01*
G75*
G02*
X58665700Y-90066000I0J150000D01*
G01*
G37*
G36*
G01*
X58665700Y-88796000D02*
X58665700Y-88496000D01*
G75*
G02*
X58815700Y-88346000I150000J0D01*
G01*
X60465700Y-88346000D01*
G75*
G02*
X60615700Y-88496000I0J-150000D01*
G01*
X60615700Y-88796000D01*
G75*
G02*
X60465700Y-88946000I-150000J0D01*
G01*
X58815700Y-88946000D01*
G75*
G02*
X58665700Y-88796000I0J150000D01*
G01*
G37*
G36*
G01*
X58665700Y-87526000D02*
X58665700Y-87226000D01*
G75*
G02*
X58815700Y-87076000I150000J0D01*
G01*
X60465700Y-87076000D01*
G75*
G02*
X60615700Y-87226000I0J-150000D01*
G01*
X60615700Y-87526000D01*
G75*
G02*
X60465700Y-87676000I-150000J0D01*
G01*
X58815700Y-87676000D01*
G75*
G02*
X58665700Y-87526000I0J150000D01*
G01*
G37*
G36*
G01*
X58665700Y-86256000D02*
X58665700Y-85956000D01*
G75*
G02*
X58815700Y-85806000I150000J0D01*
G01*
X60465700Y-85806000D01*
G75*
G02*
X60615700Y-85956000I0J-150000D01*
G01*
X60615700Y-86256000D01*
G75*
G02*
X60465700Y-86406000I-150000J0D01*
G01*
X58815700Y-86406000D01*
G75*
G02*
X58665700Y-86256000I0J150000D01*
G01*
G37*
G36*
G01*
X58665700Y-84986000D02*
X58665700Y-84686000D01*
G75*
G02*
X58815700Y-84536000I150000J0D01*
G01*
X60465700Y-84536000D01*
G75*
G02*
X60615700Y-84686000I0J-150000D01*
G01*
X60615700Y-84986000D01*
G75*
G02*
X60465700Y-85136000I-150000J0D01*
G01*
X58815700Y-85136000D01*
G75*
G02*
X58665700Y-84986000I0J150000D01*
G01*
G37*
G36*
G01*
X58665700Y-83716000D02*
X58665700Y-83416000D01*
G75*
G02*
X58815700Y-83266000I150000J0D01*
G01*
X60465700Y-83266000D01*
G75*
G02*
X60615700Y-83416000I0J-150000D01*
G01*
X60615700Y-83716000D01*
G75*
G02*
X60465700Y-83866000I-150000J0D01*
G01*
X58815700Y-83866000D01*
G75*
G02*
X58665700Y-83716000I0J150000D01*
G01*
G37*
G36*
G01*
X51601500Y-83716000D02*
X51601500Y-83416000D01*
G75*
G02*
X51751500Y-83266000I150000J0D01*
G01*
X53401500Y-83266000D01*
G75*
G02*
X53551500Y-83416000I0J-150000D01*
G01*
X53551500Y-83716000D01*
G75*
G02*
X53401500Y-83866000I-150000J0D01*
G01*
X51751500Y-83866000D01*
G75*
G02*
X51601500Y-83716000I0J150000D01*
G01*
G37*
G36*
G01*
X51601500Y-84986000D02*
X51601500Y-84686000D01*
G75*
G02*
X51751500Y-84536000I150000J0D01*
G01*
X53401500Y-84536000D01*
G75*
G02*
X53551500Y-84686000I0J-150000D01*
G01*
X53551500Y-84986000D01*
G75*
G02*
X53401500Y-85136000I-150000J0D01*
G01*
X51751500Y-85136000D01*
G75*
G02*
X51601500Y-84986000I0J150000D01*
G01*
G37*
G36*
G01*
X51601500Y-86256000D02*
X51601500Y-85956000D01*
G75*
G02*
X51751500Y-85806000I150000J0D01*
G01*
X53401500Y-85806000D01*
G75*
G02*
X53551500Y-85956000I0J-150000D01*
G01*
X53551500Y-86256000D01*
G75*
G02*
X53401500Y-86406000I-150000J0D01*
G01*
X51751500Y-86406000D01*
G75*
G02*
X51601500Y-86256000I0J150000D01*
G01*
G37*
G36*
G01*
X51601500Y-87526000D02*
X51601500Y-87226000D01*
G75*
G02*
X51751500Y-87076000I150000J0D01*
G01*
X53401500Y-87076000D01*
G75*
G02*
X53551500Y-87226000I0J-150000D01*
G01*
X53551500Y-87526000D01*
G75*
G02*
X53401500Y-87676000I-150000J0D01*
G01*
X51751500Y-87676000D01*
G75*
G02*
X51601500Y-87526000I0J150000D01*
G01*
G37*
G36*
G01*
X51601500Y-88796000D02*
X51601500Y-88496000D01*
G75*
G02*
X51751500Y-88346000I150000J0D01*
G01*
X53401500Y-88346000D01*
G75*
G02*
X53551500Y-88496000I0J-150000D01*
G01*
X53551500Y-88796000D01*
G75*
G02*
X53401500Y-88946000I-150000J0D01*
G01*
X51751500Y-88946000D01*
G75*
G02*
X51601500Y-88796000I0J150000D01*
G01*
G37*
G36*
G01*
X51601500Y-90066000D02*
X51601500Y-89766000D01*
G75*
G02*
X51751500Y-89616000I150000J0D01*
G01*
X53401500Y-89616000D01*
G75*
G02*
X53551500Y-89766000I0J-150000D01*
G01*
X53551500Y-90066000D01*
G75*
G02*
X53401500Y-90216000I-150000J0D01*
G01*
X51751500Y-90216000D01*
G75*
G02*
X51601500Y-90066000I0J150000D01*
G01*
G37*
G36*
G01*
X51601500Y-91336000D02*
X51601500Y-91036000D01*
G75*
G02*
X51751500Y-90886000I150000J0D01*
G01*
X53401500Y-90886000D01*
G75*
G02*
X53551500Y-91036000I0J-150000D01*
G01*
X53551500Y-91336000D01*
G75*
G02*
X53401500Y-91486000I-150000J0D01*
G01*
X51751500Y-91486000D01*
G75*
G02*
X51601500Y-91336000I0J150000D01*
G01*
G37*
G36*
G01*
X51601500Y-92606000D02*
X51601500Y-92306000D01*
G75*
G02*
X51751500Y-92156000I150000J0D01*
G01*
X53401500Y-92156000D01*
G75*
G02*
X53551500Y-92306000I0J-150000D01*
G01*
X53551500Y-92606000D01*
G75*
G02*
X53401500Y-92756000I-150000J0D01*
G01*
X51751500Y-92756000D01*
G75*
G02*
X51601500Y-92606000I0J150000D01*
G01*
G37*
G36*
G01*
X46651500Y-92606000D02*
X46651500Y-92306000D01*
G75*
G02*
X46801500Y-92156000I150000J0D01*
G01*
X48451500Y-92156000D01*
G75*
G02*
X48601500Y-92306000I0J-150000D01*
G01*
X48601500Y-92606000D01*
G75*
G02*
X48451500Y-92756000I-150000J0D01*
G01*
X46801500Y-92756000D01*
G75*
G02*
X46651500Y-92606000I0J150000D01*
G01*
G37*
G36*
G01*
X46651500Y-91336000D02*
X46651500Y-91036000D01*
G75*
G02*
X46801500Y-90886000I150000J0D01*
G01*
X48451500Y-90886000D01*
G75*
G02*
X48601500Y-91036000I0J-150000D01*
G01*
X48601500Y-91336000D01*
G75*
G02*
X48451500Y-91486000I-150000J0D01*
G01*
X46801500Y-91486000D01*
G75*
G02*
X46651500Y-91336000I0J150000D01*
G01*
G37*
G36*
G01*
X46651500Y-90066000D02*
X46651500Y-89766000D01*
G75*
G02*
X46801500Y-89616000I150000J0D01*
G01*
X48451500Y-89616000D01*
G75*
G02*
X48601500Y-89766000I0J-150000D01*
G01*
X48601500Y-90066000D01*
G75*
G02*
X48451500Y-90216000I-150000J0D01*
G01*
X46801500Y-90216000D01*
G75*
G02*
X46651500Y-90066000I0J150000D01*
G01*
G37*
G36*
G01*
X46651500Y-88796000D02*
X46651500Y-88496000D01*
G75*
G02*
X46801500Y-88346000I150000J0D01*
G01*
X48451500Y-88346000D01*
G75*
G02*
X48601500Y-88496000I0J-150000D01*
G01*
X48601500Y-88796000D01*
G75*
G02*
X48451500Y-88946000I-150000J0D01*
G01*
X46801500Y-88946000D01*
G75*
G02*
X46651500Y-88796000I0J150000D01*
G01*
G37*
G36*
G01*
X46651500Y-87526000D02*
X46651500Y-87226000D01*
G75*
G02*
X46801500Y-87076000I150000J0D01*
G01*
X48451500Y-87076000D01*
G75*
G02*
X48601500Y-87226000I0J-150000D01*
G01*
X48601500Y-87526000D01*
G75*
G02*
X48451500Y-87676000I-150000J0D01*
G01*
X46801500Y-87676000D01*
G75*
G02*
X46651500Y-87526000I0J150000D01*
G01*
G37*
G36*
G01*
X46651500Y-86256000D02*
X46651500Y-85956000D01*
G75*
G02*
X46801500Y-85806000I150000J0D01*
G01*
X48451500Y-85806000D01*
G75*
G02*
X48601500Y-85956000I0J-150000D01*
G01*
X48601500Y-86256000D01*
G75*
G02*
X48451500Y-86406000I-150000J0D01*
G01*
X46801500Y-86406000D01*
G75*
G02*
X46651500Y-86256000I0J150000D01*
G01*
G37*
G36*
G01*
X46651500Y-84986000D02*
X46651500Y-84686000D01*
G75*
G02*
X46801500Y-84536000I150000J0D01*
G01*
X48451500Y-84536000D01*
G75*
G02*
X48601500Y-84686000I0J-150000D01*
G01*
X48601500Y-84986000D01*
G75*
G02*
X48451500Y-85136000I-150000J0D01*
G01*
X46801500Y-85136000D01*
G75*
G02*
X46651500Y-84986000I0J150000D01*
G01*
G37*
G36*
G01*
X46651500Y-83716000D02*
X46651500Y-83416000D01*
G75*
G02*
X46801500Y-83266000I150000J0D01*
G01*
X48451500Y-83266000D01*
G75*
G02*
X48601500Y-83416000I0J-150000D01*
G01*
X48601500Y-83716000D01*
G75*
G02*
X48451500Y-83866000I-150000J0D01*
G01*
X46801500Y-83866000D01*
G75*
G02*
X46651500Y-83716000I0J150000D01*
G01*
G37*
G36*
G01*
X75922000Y-83665200D02*
X75922000Y-83365200D01*
G75*
G02*
X76072000Y-83215200I150000J0D01*
G01*
X77722000Y-83215200D01*
G75*
G02*
X77872000Y-83365200I0J-150000D01*
G01*
X77872000Y-83665200D01*
G75*
G02*
X77722000Y-83815200I-150000J0D01*
G01*
X76072000Y-83815200D01*
G75*
G02*
X75922000Y-83665200I0J150000D01*
G01*
G37*
G36*
G01*
X75922000Y-84935200D02*
X75922000Y-84635200D01*
G75*
G02*
X76072000Y-84485200I150000J0D01*
G01*
X77722000Y-84485200D01*
G75*
G02*
X77872000Y-84635200I0J-150000D01*
G01*
X77872000Y-84935200D01*
G75*
G02*
X77722000Y-85085200I-150000J0D01*
G01*
X76072000Y-85085200D01*
G75*
G02*
X75922000Y-84935200I0J150000D01*
G01*
G37*
G36*
G01*
X75922000Y-86205200D02*
X75922000Y-85905200D01*
G75*
G02*
X76072000Y-85755200I150000J0D01*
G01*
X77722000Y-85755200D01*
G75*
G02*
X77872000Y-85905200I0J-150000D01*
G01*
X77872000Y-86205200D01*
G75*
G02*
X77722000Y-86355200I-150000J0D01*
G01*
X76072000Y-86355200D01*
G75*
G02*
X75922000Y-86205200I0J150000D01*
G01*
G37*
G36*
G01*
X75922000Y-87475200D02*
X75922000Y-87175200D01*
G75*
G02*
X76072000Y-87025200I150000J0D01*
G01*
X77722000Y-87025200D01*
G75*
G02*
X77872000Y-87175200I0J-150000D01*
G01*
X77872000Y-87475200D01*
G75*
G02*
X77722000Y-87625200I-150000J0D01*
G01*
X76072000Y-87625200D01*
G75*
G02*
X75922000Y-87475200I0J150000D01*
G01*
G37*
G36*
G01*
X75922000Y-88745200D02*
X75922000Y-88445200D01*
G75*
G02*
X76072000Y-88295200I150000J0D01*
G01*
X77722000Y-88295200D01*
G75*
G02*
X77872000Y-88445200I0J-150000D01*
G01*
X77872000Y-88745200D01*
G75*
G02*
X77722000Y-88895200I-150000J0D01*
G01*
X76072000Y-88895200D01*
G75*
G02*
X75922000Y-88745200I0J150000D01*
G01*
G37*
G36*
G01*
X75922000Y-90015200D02*
X75922000Y-89715200D01*
G75*
G02*
X76072000Y-89565200I150000J0D01*
G01*
X77722000Y-89565200D01*
G75*
G02*
X77872000Y-89715200I0J-150000D01*
G01*
X77872000Y-90015200D01*
G75*
G02*
X77722000Y-90165200I-150000J0D01*
G01*
X76072000Y-90165200D01*
G75*
G02*
X75922000Y-90015200I0J150000D01*
G01*
G37*
G36*
G01*
X75922000Y-91285200D02*
X75922000Y-90985200D01*
G75*
G02*
X76072000Y-90835200I150000J0D01*
G01*
X77722000Y-90835200D01*
G75*
G02*
X77872000Y-90985200I0J-150000D01*
G01*
X77872000Y-91285200D01*
G75*
G02*
X77722000Y-91435200I-150000J0D01*
G01*
X76072000Y-91435200D01*
G75*
G02*
X75922000Y-91285200I0J150000D01*
G01*
G37*
G36*
G01*
X75922000Y-92555200D02*
X75922000Y-92255200D01*
G75*
G02*
X76072000Y-92105200I150000J0D01*
G01*
X77722000Y-92105200D01*
G75*
G02*
X77872000Y-92255200I0J-150000D01*
G01*
X77872000Y-92555200D01*
G75*
G02*
X77722000Y-92705200I-150000J0D01*
G01*
X76072000Y-92705200D01*
G75*
G02*
X75922000Y-92555200I0J150000D01*
G01*
G37*
G36*
G01*
X70972000Y-92555200D02*
X70972000Y-92255200D01*
G75*
G02*
X71122000Y-92105200I150000J0D01*
G01*
X72772000Y-92105200D01*
G75*
G02*
X72922000Y-92255200I0J-150000D01*
G01*
X72922000Y-92555200D01*
G75*
G02*
X72772000Y-92705200I-150000J0D01*
G01*
X71122000Y-92705200D01*
G75*
G02*
X70972000Y-92555200I0J150000D01*
G01*
G37*
G36*
G01*
X70972000Y-91285200D02*
X70972000Y-90985200D01*
G75*
G02*
X71122000Y-90835200I150000J0D01*
G01*
X72772000Y-90835200D01*
G75*
G02*
X72922000Y-90985200I0J-150000D01*
G01*
X72922000Y-91285200D01*
G75*
G02*
X72772000Y-91435200I-150000J0D01*
G01*
X71122000Y-91435200D01*
G75*
G02*
X70972000Y-91285200I0J150000D01*
G01*
G37*
G36*
G01*
X70972000Y-90015200D02*
X70972000Y-89715200D01*
G75*
G02*
X71122000Y-89565200I150000J0D01*
G01*
X72772000Y-89565200D01*
G75*
G02*
X72922000Y-89715200I0J-150000D01*
G01*
X72922000Y-90015200D01*
G75*
G02*
X72772000Y-90165200I-150000J0D01*
G01*
X71122000Y-90165200D01*
G75*
G02*
X70972000Y-90015200I0J150000D01*
G01*
G37*
G36*
G01*
X70972000Y-88745200D02*
X70972000Y-88445200D01*
G75*
G02*
X71122000Y-88295200I150000J0D01*
G01*
X72772000Y-88295200D01*
G75*
G02*
X72922000Y-88445200I0J-150000D01*
G01*
X72922000Y-88745200D01*
G75*
G02*
X72772000Y-88895200I-150000J0D01*
G01*
X71122000Y-88895200D01*
G75*
G02*
X70972000Y-88745200I0J150000D01*
G01*
G37*
G36*
G01*
X70972000Y-87475200D02*
X70972000Y-87175200D01*
G75*
G02*
X71122000Y-87025200I150000J0D01*
G01*
X72772000Y-87025200D01*
G75*
G02*
X72922000Y-87175200I0J-150000D01*
G01*
X72922000Y-87475200D01*
G75*
G02*
X72772000Y-87625200I-150000J0D01*
G01*
X71122000Y-87625200D01*
G75*
G02*
X70972000Y-87475200I0J150000D01*
G01*
G37*
G36*
G01*
X70972000Y-86205200D02*
X70972000Y-85905200D01*
G75*
G02*
X71122000Y-85755200I150000J0D01*
G01*
X72772000Y-85755200D01*
G75*
G02*
X72922000Y-85905200I0J-150000D01*
G01*
X72922000Y-86205200D01*
G75*
G02*
X72772000Y-86355200I-150000J0D01*
G01*
X71122000Y-86355200D01*
G75*
G02*
X70972000Y-86205200I0J150000D01*
G01*
G37*
G36*
G01*
X70972000Y-84935200D02*
X70972000Y-84635200D01*
G75*
G02*
X71122000Y-84485200I150000J0D01*
G01*
X72772000Y-84485200D01*
G75*
G02*
X72922000Y-84635200I0J-150000D01*
G01*
X72922000Y-84935200D01*
G75*
G02*
X72772000Y-85085200I-150000J0D01*
G01*
X71122000Y-85085200D01*
G75*
G02*
X70972000Y-84935200I0J150000D01*
G01*
G37*
G36*
G01*
X70972000Y-83665200D02*
X70972000Y-83365200D01*
G75*
G02*
X71122000Y-83215200I150000J0D01*
G01*
X72772000Y-83215200D01*
G75*
G02*
X72922000Y-83365200I0J-150000D01*
G01*
X72922000Y-83665200D01*
G75*
G02*
X72772000Y-83815200I-150000J0D01*
G01*
X71122000Y-83815200D01*
G75*
G02*
X70972000Y-83665200I0J150000D01*
G01*
G37*
G36*
G01*
X106381600Y-83665200D02*
X106381600Y-83365200D01*
G75*
G02*
X106531600Y-83215200I150000J0D01*
G01*
X108181600Y-83215200D01*
G75*
G02*
X108331600Y-83365200I0J-150000D01*
G01*
X108331600Y-83665200D01*
G75*
G02*
X108181600Y-83815200I-150000J0D01*
G01*
X106531600Y-83815200D01*
G75*
G02*
X106381600Y-83665200I0J150000D01*
G01*
G37*
G36*
G01*
X106381600Y-84935200D02*
X106381600Y-84635200D01*
G75*
G02*
X106531600Y-84485200I150000J0D01*
G01*
X108181600Y-84485200D01*
G75*
G02*
X108331600Y-84635200I0J-150000D01*
G01*
X108331600Y-84935200D01*
G75*
G02*
X108181600Y-85085200I-150000J0D01*
G01*
X106531600Y-85085200D01*
G75*
G02*
X106381600Y-84935200I0J150000D01*
G01*
G37*
G36*
G01*
X106381600Y-86205200D02*
X106381600Y-85905200D01*
G75*
G02*
X106531600Y-85755200I150000J0D01*
G01*
X108181600Y-85755200D01*
G75*
G02*
X108331600Y-85905200I0J-150000D01*
G01*
X108331600Y-86205200D01*
G75*
G02*
X108181600Y-86355200I-150000J0D01*
G01*
X106531600Y-86355200D01*
G75*
G02*
X106381600Y-86205200I0J150000D01*
G01*
G37*
G36*
G01*
X106381600Y-87475200D02*
X106381600Y-87175200D01*
G75*
G02*
X106531600Y-87025200I150000J0D01*
G01*
X108181600Y-87025200D01*
G75*
G02*
X108331600Y-87175200I0J-150000D01*
G01*
X108331600Y-87475200D01*
G75*
G02*
X108181600Y-87625200I-150000J0D01*
G01*
X106531600Y-87625200D01*
G75*
G02*
X106381600Y-87475200I0J150000D01*
G01*
G37*
G36*
G01*
X106381600Y-88745200D02*
X106381600Y-88445200D01*
G75*
G02*
X106531600Y-88295200I150000J0D01*
G01*
X108181600Y-88295200D01*
G75*
G02*
X108331600Y-88445200I0J-150000D01*
G01*
X108331600Y-88745200D01*
G75*
G02*
X108181600Y-88895200I-150000J0D01*
G01*
X106531600Y-88895200D01*
G75*
G02*
X106381600Y-88745200I0J150000D01*
G01*
G37*
G36*
G01*
X106381600Y-90015200D02*
X106381600Y-89715200D01*
G75*
G02*
X106531600Y-89565200I150000J0D01*
G01*
X108181600Y-89565200D01*
G75*
G02*
X108331600Y-89715200I0J-150000D01*
G01*
X108331600Y-90015200D01*
G75*
G02*
X108181600Y-90165200I-150000J0D01*
G01*
X106531600Y-90165200D01*
G75*
G02*
X106381600Y-90015200I0J150000D01*
G01*
G37*
G36*
G01*
X106381600Y-91285200D02*
X106381600Y-90985200D01*
G75*
G02*
X106531600Y-90835200I150000J0D01*
G01*
X108181600Y-90835200D01*
G75*
G02*
X108331600Y-90985200I0J-150000D01*
G01*
X108331600Y-91285200D01*
G75*
G02*
X108181600Y-91435200I-150000J0D01*
G01*
X106531600Y-91435200D01*
G75*
G02*
X106381600Y-91285200I0J150000D01*
G01*
G37*
G36*
G01*
X106381600Y-92555200D02*
X106381600Y-92255200D01*
G75*
G02*
X106531600Y-92105200I150000J0D01*
G01*
X108181600Y-92105200D01*
G75*
G02*
X108331600Y-92255200I0J-150000D01*
G01*
X108331600Y-92555200D01*
G75*
G02*
X108181600Y-92705200I-150000J0D01*
G01*
X106531600Y-92705200D01*
G75*
G02*
X106381600Y-92555200I0J150000D01*
G01*
G37*
G36*
G01*
X101431600Y-92555200D02*
X101431600Y-92255200D01*
G75*
G02*
X101581600Y-92105200I150000J0D01*
G01*
X103231600Y-92105200D01*
G75*
G02*
X103381600Y-92255200I0J-150000D01*
G01*
X103381600Y-92555200D01*
G75*
G02*
X103231600Y-92705200I-150000J0D01*
G01*
X101581600Y-92705200D01*
G75*
G02*
X101431600Y-92555200I0J150000D01*
G01*
G37*
G36*
G01*
X101431600Y-91285200D02*
X101431600Y-90985200D01*
G75*
G02*
X101581600Y-90835200I150000J0D01*
G01*
X103231600Y-90835200D01*
G75*
G02*
X103381600Y-90985200I0J-150000D01*
G01*
X103381600Y-91285200D01*
G75*
G02*
X103231600Y-91435200I-150000J0D01*
G01*
X101581600Y-91435200D01*
G75*
G02*
X101431600Y-91285200I0J150000D01*
G01*
G37*
G36*
G01*
X101431600Y-90015200D02*
X101431600Y-89715200D01*
G75*
G02*
X101581600Y-89565200I150000J0D01*
G01*
X103231600Y-89565200D01*
G75*
G02*
X103381600Y-89715200I0J-150000D01*
G01*
X103381600Y-90015200D01*
G75*
G02*
X103231600Y-90165200I-150000J0D01*
G01*
X101581600Y-90165200D01*
G75*
G02*
X101431600Y-90015200I0J150000D01*
G01*
G37*
G36*
G01*
X101431600Y-88745200D02*
X101431600Y-88445200D01*
G75*
G02*
X101581600Y-88295200I150000J0D01*
G01*
X103231600Y-88295200D01*
G75*
G02*
X103381600Y-88445200I0J-150000D01*
G01*
X103381600Y-88745200D01*
G75*
G02*
X103231600Y-88895200I-150000J0D01*
G01*
X101581600Y-88895200D01*
G75*
G02*
X101431600Y-88745200I0J150000D01*
G01*
G37*
G36*
G01*
X101431600Y-87475200D02*
X101431600Y-87175200D01*
G75*
G02*
X101581600Y-87025200I150000J0D01*
G01*
X103231600Y-87025200D01*
G75*
G02*
X103381600Y-87175200I0J-150000D01*
G01*
X103381600Y-87475200D01*
G75*
G02*
X103231600Y-87625200I-150000J0D01*
G01*
X101581600Y-87625200D01*
G75*
G02*
X101431600Y-87475200I0J150000D01*
G01*
G37*
G36*
G01*
X101431600Y-86205200D02*
X101431600Y-85905200D01*
G75*
G02*
X101581600Y-85755200I150000J0D01*
G01*
X103231600Y-85755200D01*
G75*
G02*
X103381600Y-85905200I0J-150000D01*
G01*
X103381600Y-86205200D01*
G75*
G02*
X103231600Y-86355200I-150000J0D01*
G01*
X101581600Y-86355200D01*
G75*
G02*
X101431600Y-86205200I0J150000D01*
G01*
G37*
G36*
G01*
X101431600Y-84935200D02*
X101431600Y-84635200D01*
G75*
G02*
X101581600Y-84485200I150000J0D01*
G01*
X103231600Y-84485200D01*
G75*
G02*
X103381600Y-84635200I0J-150000D01*
G01*
X103381600Y-84935200D01*
G75*
G02*
X103231600Y-85085200I-150000J0D01*
G01*
X101581600Y-85085200D01*
G75*
G02*
X101431600Y-84935200I0J150000D01*
G01*
G37*
G36*
G01*
X101431600Y-83665200D02*
X101431600Y-83365200D01*
G75*
G02*
X101581600Y-83215200I150000J0D01*
G01*
X103231600Y-83215200D01*
G75*
G02*
X103381600Y-83365200I0J-150000D01*
G01*
X103381600Y-83665200D01*
G75*
G02*
X103231600Y-83815200I-150000J0D01*
G01*
X101581600Y-83815200D01*
G75*
G02*
X101431600Y-83665200I0J150000D01*
G01*
G37*
M02*
