G04 #@! TF.GenerationSoftware,KiCad,Pcbnew,(5.1.12-1-10_14)*
G04 #@! TF.CreationDate,2023-11-15T20:51:55-07:00*
G04 #@! TF.ProjectId,GenMemBlock,47656e4d-656d-4426-9c6f-636b2e6b6963,rev?*
G04 #@! TF.SameCoordinates,Original*
G04 #@! TF.FileFunction,Copper,L1,Top*
G04 #@! TF.FilePolarity,Positive*
%FSLAX46Y46*%
G04 Gerber Fmt 4.6, Leading zero omitted, Abs format (unit mm)*
G04 Created by KiCad (PCBNEW (5.1.12-1-10_14)) date 2023-11-15 20:51:55*
%MOMM*%
%LPD*%
G01*
G04 APERTURE LIST*
G04 #@! TA.AperFunction,ComponentPad*
%ADD10O,1.700000X1.700000*%
G04 #@! TD*
G04 #@! TA.AperFunction,ComponentPad*
%ADD11R,1.700000X1.700000*%
G04 #@! TD*
G04 #@! TA.AperFunction,SMDPad,CuDef*
%ADD12R,1.778000X6.985000*%
G04 #@! TD*
G04 #@! TA.AperFunction,SMDPad,CuDef*
%ADD13R,1.200000X0.400000*%
G04 #@! TD*
G04 #@! TA.AperFunction,SMDPad,CuDef*
%ADD14R,0.406400X2.044700*%
G04 #@! TD*
G04 #@! TA.AperFunction,ViaPad*
%ADD15C,0.600000*%
G04 #@! TD*
G04 #@! TA.AperFunction,ViaPad*
%ADD16C,0.900000*%
G04 #@! TD*
G04 #@! TA.AperFunction,Conductor*
%ADD17C,0.127000*%
G04 #@! TD*
G04 #@! TA.AperFunction,Conductor*
%ADD18C,0.150000*%
G04 #@! TD*
G04 #@! TA.AperFunction,Conductor*
%ADD19C,0.400000*%
G04 #@! TD*
G04 #@! TA.AperFunction,Conductor*
%ADD20C,0.600000*%
G04 #@! TD*
G04 APERTURE END LIST*
D10*
X126238000Y-66040000D03*
X123698000Y-66040000D03*
X121158000Y-66040000D03*
X118618000Y-66040000D03*
X116078000Y-66040000D03*
X113538000Y-66040000D03*
D11*
X110998000Y-66040000D03*
D10*
X122037000Y-74140000D03*
X124577000Y-74140000D03*
X122037000Y-76680000D03*
X124577000Y-76680000D03*
X122037000Y-79220000D03*
X124577000Y-79220000D03*
X122037000Y-81760000D03*
X124577000Y-81760000D03*
X122037000Y-84300000D03*
X124577000Y-84300000D03*
X122037000Y-86840000D03*
X124577000Y-86840000D03*
X122037000Y-89380000D03*
X124577000Y-89380000D03*
X122037000Y-91920000D03*
X124577000Y-91920000D03*
X122037000Y-94460000D03*
X124577000Y-94460000D03*
X122037000Y-97000000D03*
D11*
X124577000Y-97000000D03*
G04 #@! TA.AperFunction,SMDPad,CuDef*
G36*
G01*
X117822000Y-81899000D02*
X117822000Y-81699000D01*
G75*
G02*
X117922000Y-81599000I100000J0D01*
G01*
X119197000Y-81599000D01*
G75*
G02*
X119297000Y-81699000I0J-100000D01*
G01*
X119297000Y-81899000D01*
G75*
G02*
X119197000Y-81999000I-100000J0D01*
G01*
X117922000Y-81999000D01*
G75*
G02*
X117822000Y-81899000I0J100000D01*
G01*
G37*
G04 #@! TD.AperFunction*
G04 #@! TA.AperFunction,SMDPad,CuDef*
G36*
G01*
X117822000Y-82549000D02*
X117822000Y-82349000D01*
G75*
G02*
X117922000Y-82249000I100000J0D01*
G01*
X119197000Y-82249000D01*
G75*
G02*
X119297000Y-82349000I0J-100000D01*
G01*
X119297000Y-82549000D01*
G75*
G02*
X119197000Y-82649000I-100000J0D01*
G01*
X117922000Y-82649000D01*
G75*
G02*
X117822000Y-82549000I0J100000D01*
G01*
G37*
G04 #@! TD.AperFunction*
G04 #@! TA.AperFunction,SMDPad,CuDef*
G36*
G01*
X117822000Y-83199000D02*
X117822000Y-82999000D01*
G75*
G02*
X117922000Y-82899000I100000J0D01*
G01*
X119197000Y-82899000D01*
G75*
G02*
X119297000Y-82999000I0J-100000D01*
G01*
X119297000Y-83199000D01*
G75*
G02*
X119197000Y-83299000I-100000J0D01*
G01*
X117922000Y-83299000D01*
G75*
G02*
X117822000Y-83199000I0J100000D01*
G01*
G37*
G04 #@! TD.AperFunction*
G04 #@! TA.AperFunction,SMDPad,CuDef*
G36*
G01*
X117822000Y-83849000D02*
X117822000Y-83649000D01*
G75*
G02*
X117922000Y-83549000I100000J0D01*
G01*
X119197000Y-83549000D01*
G75*
G02*
X119297000Y-83649000I0J-100000D01*
G01*
X119297000Y-83849000D01*
G75*
G02*
X119197000Y-83949000I-100000J0D01*
G01*
X117922000Y-83949000D01*
G75*
G02*
X117822000Y-83849000I0J100000D01*
G01*
G37*
G04 #@! TD.AperFunction*
G04 #@! TA.AperFunction,SMDPad,CuDef*
G36*
G01*
X117822000Y-84499000D02*
X117822000Y-84299000D01*
G75*
G02*
X117922000Y-84199000I100000J0D01*
G01*
X119197000Y-84199000D01*
G75*
G02*
X119297000Y-84299000I0J-100000D01*
G01*
X119297000Y-84499000D01*
G75*
G02*
X119197000Y-84599000I-100000J0D01*
G01*
X117922000Y-84599000D01*
G75*
G02*
X117822000Y-84499000I0J100000D01*
G01*
G37*
G04 #@! TD.AperFunction*
G04 #@! TA.AperFunction,SMDPad,CuDef*
G36*
G01*
X117822000Y-85149000D02*
X117822000Y-84949000D01*
G75*
G02*
X117922000Y-84849000I100000J0D01*
G01*
X119197000Y-84849000D01*
G75*
G02*
X119297000Y-84949000I0J-100000D01*
G01*
X119297000Y-85149000D01*
G75*
G02*
X119197000Y-85249000I-100000J0D01*
G01*
X117922000Y-85249000D01*
G75*
G02*
X117822000Y-85149000I0J100000D01*
G01*
G37*
G04 #@! TD.AperFunction*
G04 #@! TA.AperFunction,SMDPad,CuDef*
G36*
G01*
X117822000Y-85799000D02*
X117822000Y-85599000D01*
G75*
G02*
X117922000Y-85499000I100000J0D01*
G01*
X119197000Y-85499000D01*
G75*
G02*
X119297000Y-85599000I0J-100000D01*
G01*
X119297000Y-85799000D01*
G75*
G02*
X119197000Y-85899000I-100000J0D01*
G01*
X117922000Y-85899000D01*
G75*
G02*
X117822000Y-85799000I0J100000D01*
G01*
G37*
G04 #@! TD.AperFunction*
G04 #@! TA.AperFunction,SMDPad,CuDef*
G36*
G01*
X117822000Y-86449000D02*
X117822000Y-86249000D01*
G75*
G02*
X117922000Y-86149000I100000J0D01*
G01*
X119197000Y-86149000D01*
G75*
G02*
X119297000Y-86249000I0J-100000D01*
G01*
X119297000Y-86449000D01*
G75*
G02*
X119197000Y-86549000I-100000J0D01*
G01*
X117922000Y-86549000D01*
G75*
G02*
X117822000Y-86449000I0J100000D01*
G01*
G37*
G04 #@! TD.AperFunction*
G04 #@! TA.AperFunction,SMDPad,CuDef*
G36*
G01*
X112097000Y-86449000D02*
X112097000Y-86249000D01*
G75*
G02*
X112197000Y-86149000I100000J0D01*
G01*
X113472000Y-86149000D01*
G75*
G02*
X113572000Y-86249000I0J-100000D01*
G01*
X113572000Y-86449000D01*
G75*
G02*
X113472000Y-86549000I-100000J0D01*
G01*
X112197000Y-86549000D01*
G75*
G02*
X112097000Y-86449000I0J100000D01*
G01*
G37*
G04 #@! TD.AperFunction*
G04 #@! TA.AperFunction,SMDPad,CuDef*
G36*
G01*
X112097000Y-85799000D02*
X112097000Y-85599000D01*
G75*
G02*
X112197000Y-85499000I100000J0D01*
G01*
X113472000Y-85499000D01*
G75*
G02*
X113572000Y-85599000I0J-100000D01*
G01*
X113572000Y-85799000D01*
G75*
G02*
X113472000Y-85899000I-100000J0D01*
G01*
X112197000Y-85899000D01*
G75*
G02*
X112097000Y-85799000I0J100000D01*
G01*
G37*
G04 #@! TD.AperFunction*
G04 #@! TA.AperFunction,SMDPad,CuDef*
G36*
G01*
X112097000Y-85149000D02*
X112097000Y-84949000D01*
G75*
G02*
X112197000Y-84849000I100000J0D01*
G01*
X113472000Y-84849000D01*
G75*
G02*
X113572000Y-84949000I0J-100000D01*
G01*
X113572000Y-85149000D01*
G75*
G02*
X113472000Y-85249000I-100000J0D01*
G01*
X112197000Y-85249000D01*
G75*
G02*
X112097000Y-85149000I0J100000D01*
G01*
G37*
G04 #@! TD.AperFunction*
G04 #@! TA.AperFunction,SMDPad,CuDef*
G36*
G01*
X112097000Y-84499000D02*
X112097000Y-84299000D01*
G75*
G02*
X112197000Y-84199000I100000J0D01*
G01*
X113472000Y-84199000D01*
G75*
G02*
X113572000Y-84299000I0J-100000D01*
G01*
X113572000Y-84499000D01*
G75*
G02*
X113472000Y-84599000I-100000J0D01*
G01*
X112197000Y-84599000D01*
G75*
G02*
X112097000Y-84499000I0J100000D01*
G01*
G37*
G04 #@! TD.AperFunction*
G04 #@! TA.AperFunction,SMDPad,CuDef*
G36*
G01*
X112097000Y-83849000D02*
X112097000Y-83649000D01*
G75*
G02*
X112197000Y-83549000I100000J0D01*
G01*
X113472000Y-83549000D01*
G75*
G02*
X113572000Y-83649000I0J-100000D01*
G01*
X113572000Y-83849000D01*
G75*
G02*
X113472000Y-83949000I-100000J0D01*
G01*
X112197000Y-83949000D01*
G75*
G02*
X112097000Y-83849000I0J100000D01*
G01*
G37*
G04 #@! TD.AperFunction*
G04 #@! TA.AperFunction,SMDPad,CuDef*
G36*
G01*
X112097000Y-83199000D02*
X112097000Y-82999000D01*
G75*
G02*
X112197000Y-82899000I100000J0D01*
G01*
X113472000Y-82899000D01*
G75*
G02*
X113572000Y-82999000I0J-100000D01*
G01*
X113572000Y-83199000D01*
G75*
G02*
X113472000Y-83299000I-100000J0D01*
G01*
X112197000Y-83299000D01*
G75*
G02*
X112097000Y-83199000I0J100000D01*
G01*
G37*
G04 #@! TD.AperFunction*
G04 #@! TA.AperFunction,SMDPad,CuDef*
G36*
G01*
X112097000Y-82549000D02*
X112097000Y-82349000D01*
G75*
G02*
X112197000Y-82249000I100000J0D01*
G01*
X113472000Y-82249000D01*
G75*
G02*
X113572000Y-82349000I0J-100000D01*
G01*
X113572000Y-82549000D01*
G75*
G02*
X113472000Y-82649000I-100000J0D01*
G01*
X112197000Y-82649000D01*
G75*
G02*
X112097000Y-82549000I0J100000D01*
G01*
G37*
G04 #@! TD.AperFunction*
G04 #@! TA.AperFunction,SMDPad,CuDef*
G36*
G01*
X112097000Y-81899000D02*
X112097000Y-81699000D01*
G75*
G02*
X112197000Y-81599000I100000J0D01*
G01*
X113472000Y-81599000D01*
G75*
G02*
X113572000Y-81699000I0J-100000D01*
G01*
X113572000Y-81899000D01*
G75*
G02*
X113472000Y-81999000I-100000J0D01*
G01*
X112197000Y-81999000D01*
G75*
G02*
X112097000Y-81899000I0J100000D01*
G01*
G37*
G04 #@! TD.AperFunction*
G04 #@! TA.AperFunction,SMDPad,CuDef*
G36*
G01*
X117822000Y-91622000D02*
X117822000Y-91422000D01*
G75*
G02*
X117922000Y-91322000I100000J0D01*
G01*
X119197000Y-91322000D01*
G75*
G02*
X119297000Y-91422000I0J-100000D01*
G01*
X119297000Y-91622000D01*
G75*
G02*
X119197000Y-91722000I-100000J0D01*
G01*
X117922000Y-91722000D01*
G75*
G02*
X117822000Y-91622000I0J100000D01*
G01*
G37*
G04 #@! TD.AperFunction*
G04 #@! TA.AperFunction,SMDPad,CuDef*
G36*
G01*
X117822000Y-92272000D02*
X117822000Y-92072000D01*
G75*
G02*
X117922000Y-91972000I100000J0D01*
G01*
X119197000Y-91972000D01*
G75*
G02*
X119297000Y-92072000I0J-100000D01*
G01*
X119297000Y-92272000D01*
G75*
G02*
X119197000Y-92372000I-100000J0D01*
G01*
X117922000Y-92372000D01*
G75*
G02*
X117822000Y-92272000I0J100000D01*
G01*
G37*
G04 #@! TD.AperFunction*
G04 #@! TA.AperFunction,SMDPad,CuDef*
G36*
G01*
X117822000Y-92922000D02*
X117822000Y-92722000D01*
G75*
G02*
X117922000Y-92622000I100000J0D01*
G01*
X119197000Y-92622000D01*
G75*
G02*
X119297000Y-92722000I0J-100000D01*
G01*
X119297000Y-92922000D01*
G75*
G02*
X119197000Y-93022000I-100000J0D01*
G01*
X117922000Y-93022000D01*
G75*
G02*
X117822000Y-92922000I0J100000D01*
G01*
G37*
G04 #@! TD.AperFunction*
G04 #@! TA.AperFunction,SMDPad,CuDef*
G36*
G01*
X117822000Y-93572000D02*
X117822000Y-93372000D01*
G75*
G02*
X117922000Y-93272000I100000J0D01*
G01*
X119197000Y-93272000D01*
G75*
G02*
X119297000Y-93372000I0J-100000D01*
G01*
X119297000Y-93572000D01*
G75*
G02*
X119197000Y-93672000I-100000J0D01*
G01*
X117922000Y-93672000D01*
G75*
G02*
X117822000Y-93572000I0J100000D01*
G01*
G37*
G04 #@! TD.AperFunction*
G04 #@! TA.AperFunction,SMDPad,CuDef*
G36*
G01*
X117822000Y-94222000D02*
X117822000Y-94022000D01*
G75*
G02*
X117922000Y-93922000I100000J0D01*
G01*
X119197000Y-93922000D01*
G75*
G02*
X119297000Y-94022000I0J-100000D01*
G01*
X119297000Y-94222000D01*
G75*
G02*
X119197000Y-94322000I-100000J0D01*
G01*
X117922000Y-94322000D01*
G75*
G02*
X117822000Y-94222000I0J100000D01*
G01*
G37*
G04 #@! TD.AperFunction*
G04 #@! TA.AperFunction,SMDPad,CuDef*
G36*
G01*
X117822000Y-94872000D02*
X117822000Y-94672000D01*
G75*
G02*
X117922000Y-94572000I100000J0D01*
G01*
X119197000Y-94572000D01*
G75*
G02*
X119297000Y-94672000I0J-100000D01*
G01*
X119297000Y-94872000D01*
G75*
G02*
X119197000Y-94972000I-100000J0D01*
G01*
X117922000Y-94972000D01*
G75*
G02*
X117822000Y-94872000I0J100000D01*
G01*
G37*
G04 #@! TD.AperFunction*
G04 #@! TA.AperFunction,SMDPad,CuDef*
G36*
G01*
X117822000Y-95522000D02*
X117822000Y-95322000D01*
G75*
G02*
X117922000Y-95222000I100000J0D01*
G01*
X119197000Y-95222000D01*
G75*
G02*
X119297000Y-95322000I0J-100000D01*
G01*
X119297000Y-95522000D01*
G75*
G02*
X119197000Y-95622000I-100000J0D01*
G01*
X117922000Y-95622000D01*
G75*
G02*
X117822000Y-95522000I0J100000D01*
G01*
G37*
G04 #@! TD.AperFunction*
G04 #@! TA.AperFunction,SMDPad,CuDef*
G36*
G01*
X112097000Y-95522000D02*
X112097000Y-95322000D01*
G75*
G02*
X112197000Y-95222000I100000J0D01*
G01*
X113472000Y-95222000D01*
G75*
G02*
X113572000Y-95322000I0J-100000D01*
G01*
X113572000Y-95522000D01*
G75*
G02*
X113472000Y-95622000I-100000J0D01*
G01*
X112197000Y-95622000D01*
G75*
G02*
X112097000Y-95522000I0J100000D01*
G01*
G37*
G04 #@! TD.AperFunction*
G04 #@! TA.AperFunction,SMDPad,CuDef*
G36*
G01*
X112097000Y-94872000D02*
X112097000Y-94672000D01*
G75*
G02*
X112197000Y-94572000I100000J0D01*
G01*
X113472000Y-94572000D01*
G75*
G02*
X113572000Y-94672000I0J-100000D01*
G01*
X113572000Y-94872000D01*
G75*
G02*
X113472000Y-94972000I-100000J0D01*
G01*
X112197000Y-94972000D01*
G75*
G02*
X112097000Y-94872000I0J100000D01*
G01*
G37*
G04 #@! TD.AperFunction*
G04 #@! TA.AperFunction,SMDPad,CuDef*
G36*
G01*
X112097000Y-94222000D02*
X112097000Y-94022000D01*
G75*
G02*
X112197000Y-93922000I100000J0D01*
G01*
X113472000Y-93922000D01*
G75*
G02*
X113572000Y-94022000I0J-100000D01*
G01*
X113572000Y-94222000D01*
G75*
G02*
X113472000Y-94322000I-100000J0D01*
G01*
X112197000Y-94322000D01*
G75*
G02*
X112097000Y-94222000I0J100000D01*
G01*
G37*
G04 #@! TD.AperFunction*
G04 #@! TA.AperFunction,SMDPad,CuDef*
G36*
G01*
X112097000Y-93572000D02*
X112097000Y-93372000D01*
G75*
G02*
X112197000Y-93272000I100000J0D01*
G01*
X113472000Y-93272000D01*
G75*
G02*
X113572000Y-93372000I0J-100000D01*
G01*
X113572000Y-93572000D01*
G75*
G02*
X113472000Y-93672000I-100000J0D01*
G01*
X112197000Y-93672000D01*
G75*
G02*
X112097000Y-93572000I0J100000D01*
G01*
G37*
G04 #@! TD.AperFunction*
G04 #@! TA.AperFunction,SMDPad,CuDef*
G36*
G01*
X112097000Y-92922000D02*
X112097000Y-92722000D01*
G75*
G02*
X112197000Y-92622000I100000J0D01*
G01*
X113472000Y-92622000D01*
G75*
G02*
X113572000Y-92722000I0J-100000D01*
G01*
X113572000Y-92922000D01*
G75*
G02*
X113472000Y-93022000I-100000J0D01*
G01*
X112197000Y-93022000D01*
G75*
G02*
X112097000Y-92922000I0J100000D01*
G01*
G37*
G04 #@! TD.AperFunction*
G04 #@! TA.AperFunction,SMDPad,CuDef*
G36*
G01*
X112097000Y-92272000D02*
X112097000Y-92072000D01*
G75*
G02*
X112197000Y-91972000I100000J0D01*
G01*
X113472000Y-91972000D01*
G75*
G02*
X113572000Y-92072000I0J-100000D01*
G01*
X113572000Y-92272000D01*
G75*
G02*
X113472000Y-92372000I-100000J0D01*
G01*
X112197000Y-92372000D01*
G75*
G02*
X112097000Y-92272000I0J100000D01*
G01*
G37*
G04 #@! TD.AperFunction*
G04 #@! TA.AperFunction,SMDPad,CuDef*
G36*
G01*
X112097000Y-91622000D02*
X112097000Y-91422000D01*
G75*
G02*
X112197000Y-91322000I100000J0D01*
G01*
X113472000Y-91322000D01*
G75*
G02*
X113572000Y-91422000I0J-100000D01*
G01*
X113572000Y-91622000D01*
G75*
G02*
X113472000Y-91722000I-100000J0D01*
G01*
X112197000Y-91722000D01*
G75*
G02*
X112097000Y-91622000I0J100000D01*
G01*
G37*
G04 #@! TD.AperFunction*
G04 #@! TA.AperFunction,SMDPad,CuDef*
G36*
G01*
X124172000Y-106862000D02*
X124172000Y-106662000D01*
G75*
G02*
X124272000Y-106562000I100000J0D01*
G01*
X125547000Y-106562000D01*
G75*
G02*
X125647000Y-106662000I0J-100000D01*
G01*
X125647000Y-106862000D01*
G75*
G02*
X125547000Y-106962000I-100000J0D01*
G01*
X124272000Y-106962000D01*
G75*
G02*
X124172000Y-106862000I0J100000D01*
G01*
G37*
G04 #@! TD.AperFunction*
G04 #@! TA.AperFunction,SMDPad,CuDef*
G36*
G01*
X124172000Y-107512000D02*
X124172000Y-107312000D01*
G75*
G02*
X124272000Y-107212000I100000J0D01*
G01*
X125547000Y-107212000D01*
G75*
G02*
X125647000Y-107312000I0J-100000D01*
G01*
X125647000Y-107512000D01*
G75*
G02*
X125547000Y-107612000I-100000J0D01*
G01*
X124272000Y-107612000D01*
G75*
G02*
X124172000Y-107512000I0J100000D01*
G01*
G37*
G04 #@! TD.AperFunction*
G04 #@! TA.AperFunction,SMDPad,CuDef*
G36*
G01*
X124172000Y-108162000D02*
X124172000Y-107962000D01*
G75*
G02*
X124272000Y-107862000I100000J0D01*
G01*
X125547000Y-107862000D01*
G75*
G02*
X125647000Y-107962000I0J-100000D01*
G01*
X125647000Y-108162000D01*
G75*
G02*
X125547000Y-108262000I-100000J0D01*
G01*
X124272000Y-108262000D01*
G75*
G02*
X124172000Y-108162000I0J100000D01*
G01*
G37*
G04 #@! TD.AperFunction*
G04 #@! TA.AperFunction,SMDPad,CuDef*
G36*
G01*
X124172000Y-108812000D02*
X124172000Y-108612000D01*
G75*
G02*
X124272000Y-108512000I100000J0D01*
G01*
X125547000Y-108512000D01*
G75*
G02*
X125647000Y-108612000I0J-100000D01*
G01*
X125647000Y-108812000D01*
G75*
G02*
X125547000Y-108912000I-100000J0D01*
G01*
X124272000Y-108912000D01*
G75*
G02*
X124172000Y-108812000I0J100000D01*
G01*
G37*
G04 #@! TD.AperFunction*
G04 #@! TA.AperFunction,SMDPad,CuDef*
G36*
G01*
X124172000Y-109462000D02*
X124172000Y-109262000D01*
G75*
G02*
X124272000Y-109162000I100000J0D01*
G01*
X125547000Y-109162000D01*
G75*
G02*
X125647000Y-109262000I0J-100000D01*
G01*
X125647000Y-109462000D01*
G75*
G02*
X125547000Y-109562000I-100000J0D01*
G01*
X124272000Y-109562000D01*
G75*
G02*
X124172000Y-109462000I0J100000D01*
G01*
G37*
G04 #@! TD.AperFunction*
G04 #@! TA.AperFunction,SMDPad,CuDef*
G36*
G01*
X124172000Y-110112000D02*
X124172000Y-109912000D01*
G75*
G02*
X124272000Y-109812000I100000J0D01*
G01*
X125547000Y-109812000D01*
G75*
G02*
X125647000Y-109912000I0J-100000D01*
G01*
X125647000Y-110112000D01*
G75*
G02*
X125547000Y-110212000I-100000J0D01*
G01*
X124272000Y-110212000D01*
G75*
G02*
X124172000Y-110112000I0J100000D01*
G01*
G37*
G04 #@! TD.AperFunction*
G04 #@! TA.AperFunction,SMDPad,CuDef*
G36*
G01*
X124172000Y-110762000D02*
X124172000Y-110562000D01*
G75*
G02*
X124272000Y-110462000I100000J0D01*
G01*
X125547000Y-110462000D01*
G75*
G02*
X125647000Y-110562000I0J-100000D01*
G01*
X125647000Y-110762000D01*
G75*
G02*
X125547000Y-110862000I-100000J0D01*
G01*
X124272000Y-110862000D01*
G75*
G02*
X124172000Y-110762000I0J100000D01*
G01*
G37*
G04 #@! TD.AperFunction*
G04 #@! TA.AperFunction,SMDPad,CuDef*
G36*
G01*
X118447000Y-110762000D02*
X118447000Y-110562000D01*
G75*
G02*
X118547000Y-110462000I100000J0D01*
G01*
X119822000Y-110462000D01*
G75*
G02*
X119922000Y-110562000I0J-100000D01*
G01*
X119922000Y-110762000D01*
G75*
G02*
X119822000Y-110862000I-100000J0D01*
G01*
X118547000Y-110862000D01*
G75*
G02*
X118447000Y-110762000I0J100000D01*
G01*
G37*
G04 #@! TD.AperFunction*
G04 #@! TA.AperFunction,SMDPad,CuDef*
G36*
G01*
X118447000Y-110112000D02*
X118447000Y-109912000D01*
G75*
G02*
X118547000Y-109812000I100000J0D01*
G01*
X119822000Y-109812000D01*
G75*
G02*
X119922000Y-109912000I0J-100000D01*
G01*
X119922000Y-110112000D01*
G75*
G02*
X119822000Y-110212000I-100000J0D01*
G01*
X118547000Y-110212000D01*
G75*
G02*
X118447000Y-110112000I0J100000D01*
G01*
G37*
G04 #@! TD.AperFunction*
G04 #@! TA.AperFunction,SMDPad,CuDef*
G36*
G01*
X118447000Y-109462000D02*
X118447000Y-109262000D01*
G75*
G02*
X118547000Y-109162000I100000J0D01*
G01*
X119822000Y-109162000D01*
G75*
G02*
X119922000Y-109262000I0J-100000D01*
G01*
X119922000Y-109462000D01*
G75*
G02*
X119822000Y-109562000I-100000J0D01*
G01*
X118547000Y-109562000D01*
G75*
G02*
X118447000Y-109462000I0J100000D01*
G01*
G37*
G04 #@! TD.AperFunction*
G04 #@! TA.AperFunction,SMDPad,CuDef*
G36*
G01*
X118447000Y-108812000D02*
X118447000Y-108612000D01*
G75*
G02*
X118547000Y-108512000I100000J0D01*
G01*
X119822000Y-108512000D01*
G75*
G02*
X119922000Y-108612000I0J-100000D01*
G01*
X119922000Y-108812000D01*
G75*
G02*
X119822000Y-108912000I-100000J0D01*
G01*
X118547000Y-108912000D01*
G75*
G02*
X118447000Y-108812000I0J100000D01*
G01*
G37*
G04 #@! TD.AperFunction*
G04 #@! TA.AperFunction,SMDPad,CuDef*
G36*
G01*
X118447000Y-108162000D02*
X118447000Y-107962000D01*
G75*
G02*
X118547000Y-107862000I100000J0D01*
G01*
X119822000Y-107862000D01*
G75*
G02*
X119922000Y-107962000I0J-100000D01*
G01*
X119922000Y-108162000D01*
G75*
G02*
X119822000Y-108262000I-100000J0D01*
G01*
X118547000Y-108262000D01*
G75*
G02*
X118447000Y-108162000I0J100000D01*
G01*
G37*
G04 #@! TD.AperFunction*
G04 #@! TA.AperFunction,SMDPad,CuDef*
G36*
G01*
X118447000Y-107512000D02*
X118447000Y-107312000D01*
G75*
G02*
X118547000Y-107212000I100000J0D01*
G01*
X119822000Y-107212000D01*
G75*
G02*
X119922000Y-107312000I0J-100000D01*
G01*
X119922000Y-107512000D01*
G75*
G02*
X119822000Y-107612000I-100000J0D01*
G01*
X118547000Y-107612000D01*
G75*
G02*
X118447000Y-107512000I0J100000D01*
G01*
G37*
G04 #@! TD.AperFunction*
G04 #@! TA.AperFunction,SMDPad,CuDef*
G36*
G01*
X118447000Y-106862000D02*
X118447000Y-106662000D01*
G75*
G02*
X118547000Y-106562000I100000J0D01*
G01*
X119822000Y-106562000D01*
G75*
G02*
X119922000Y-106662000I0J-100000D01*
G01*
X119922000Y-106862000D01*
G75*
G02*
X119822000Y-106962000I-100000J0D01*
G01*
X118547000Y-106962000D01*
G75*
G02*
X118447000Y-106862000I0J100000D01*
G01*
G37*
G04 #@! TD.AperFunction*
G04 #@! TA.AperFunction,SMDPad,CuDef*
G36*
G01*
X114901000Y-106862000D02*
X114901000Y-106662000D01*
G75*
G02*
X115001000Y-106562000I100000J0D01*
G01*
X116276000Y-106562000D01*
G75*
G02*
X116376000Y-106662000I0J-100000D01*
G01*
X116376000Y-106862000D01*
G75*
G02*
X116276000Y-106962000I-100000J0D01*
G01*
X115001000Y-106962000D01*
G75*
G02*
X114901000Y-106862000I0J100000D01*
G01*
G37*
G04 #@! TD.AperFunction*
G04 #@! TA.AperFunction,SMDPad,CuDef*
G36*
G01*
X114901000Y-107512000D02*
X114901000Y-107312000D01*
G75*
G02*
X115001000Y-107212000I100000J0D01*
G01*
X116276000Y-107212000D01*
G75*
G02*
X116376000Y-107312000I0J-100000D01*
G01*
X116376000Y-107512000D01*
G75*
G02*
X116276000Y-107612000I-100000J0D01*
G01*
X115001000Y-107612000D01*
G75*
G02*
X114901000Y-107512000I0J100000D01*
G01*
G37*
G04 #@! TD.AperFunction*
G04 #@! TA.AperFunction,SMDPad,CuDef*
G36*
G01*
X114901000Y-108162000D02*
X114901000Y-107962000D01*
G75*
G02*
X115001000Y-107862000I100000J0D01*
G01*
X116276000Y-107862000D01*
G75*
G02*
X116376000Y-107962000I0J-100000D01*
G01*
X116376000Y-108162000D01*
G75*
G02*
X116276000Y-108262000I-100000J0D01*
G01*
X115001000Y-108262000D01*
G75*
G02*
X114901000Y-108162000I0J100000D01*
G01*
G37*
G04 #@! TD.AperFunction*
G04 #@! TA.AperFunction,SMDPad,CuDef*
G36*
G01*
X114901000Y-108812000D02*
X114901000Y-108612000D01*
G75*
G02*
X115001000Y-108512000I100000J0D01*
G01*
X116276000Y-108512000D01*
G75*
G02*
X116376000Y-108612000I0J-100000D01*
G01*
X116376000Y-108812000D01*
G75*
G02*
X116276000Y-108912000I-100000J0D01*
G01*
X115001000Y-108912000D01*
G75*
G02*
X114901000Y-108812000I0J100000D01*
G01*
G37*
G04 #@! TD.AperFunction*
G04 #@! TA.AperFunction,SMDPad,CuDef*
G36*
G01*
X114901000Y-109462000D02*
X114901000Y-109262000D01*
G75*
G02*
X115001000Y-109162000I100000J0D01*
G01*
X116276000Y-109162000D01*
G75*
G02*
X116376000Y-109262000I0J-100000D01*
G01*
X116376000Y-109462000D01*
G75*
G02*
X116276000Y-109562000I-100000J0D01*
G01*
X115001000Y-109562000D01*
G75*
G02*
X114901000Y-109462000I0J100000D01*
G01*
G37*
G04 #@! TD.AperFunction*
G04 #@! TA.AperFunction,SMDPad,CuDef*
G36*
G01*
X114901000Y-110112000D02*
X114901000Y-109912000D01*
G75*
G02*
X115001000Y-109812000I100000J0D01*
G01*
X116276000Y-109812000D01*
G75*
G02*
X116376000Y-109912000I0J-100000D01*
G01*
X116376000Y-110112000D01*
G75*
G02*
X116276000Y-110212000I-100000J0D01*
G01*
X115001000Y-110212000D01*
G75*
G02*
X114901000Y-110112000I0J100000D01*
G01*
G37*
G04 #@! TD.AperFunction*
G04 #@! TA.AperFunction,SMDPad,CuDef*
G36*
G01*
X114901000Y-110762000D02*
X114901000Y-110562000D01*
G75*
G02*
X115001000Y-110462000I100000J0D01*
G01*
X116276000Y-110462000D01*
G75*
G02*
X116376000Y-110562000I0J-100000D01*
G01*
X116376000Y-110762000D01*
G75*
G02*
X116276000Y-110862000I-100000J0D01*
G01*
X115001000Y-110862000D01*
G75*
G02*
X114901000Y-110762000I0J100000D01*
G01*
G37*
G04 #@! TD.AperFunction*
G04 #@! TA.AperFunction,SMDPad,CuDef*
G36*
G01*
X109176000Y-110762000D02*
X109176000Y-110562000D01*
G75*
G02*
X109276000Y-110462000I100000J0D01*
G01*
X110551000Y-110462000D01*
G75*
G02*
X110651000Y-110562000I0J-100000D01*
G01*
X110651000Y-110762000D01*
G75*
G02*
X110551000Y-110862000I-100000J0D01*
G01*
X109276000Y-110862000D01*
G75*
G02*
X109176000Y-110762000I0J100000D01*
G01*
G37*
G04 #@! TD.AperFunction*
G04 #@! TA.AperFunction,SMDPad,CuDef*
G36*
G01*
X109176000Y-110112000D02*
X109176000Y-109912000D01*
G75*
G02*
X109276000Y-109812000I100000J0D01*
G01*
X110551000Y-109812000D01*
G75*
G02*
X110651000Y-109912000I0J-100000D01*
G01*
X110651000Y-110112000D01*
G75*
G02*
X110551000Y-110212000I-100000J0D01*
G01*
X109276000Y-110212000D01*
G75*
G02*
X109176000Y-110112000I0J100000D01*
G01*
G37*
G04 #@! TD.AperFunction*
G04 #@! TA.AperFunction,SMDPad,CuDef*
G36*
G01*
X109176000Y-109462000D02*
X109176000Y-109262000D01*
G75*
G02*
X109276000Y-109162000I100000J0D01*
G01*
X110551000Y-109162000D01*
G75*
G02*
X110651000Y-109262000I0J-100000D01*
G01*
X110651000Y-109462000D01*
G75*
G02*
X110551000Y-109562000I-100000J0D01*
G01*
X109276000Y-109562000D01*
G75*
G02*
X109176000Y-109462000I0J100000D01*
G01*
G37*
G04 #@! TD.AperFunction*
G04 #@! TA.AperFunction,SMDPad,CuDef*
G36*
G01*
X109176000Y-108812000D02*
X109176000Y-108612000D01*
G75*
G02*
X109276000Y-108512000I100000J0D01*
G01*
X110551000Y-108512000D01*
G75*
G02*
X110651000Y-108612000I0J-100000D01*
G01*
X110651000Y-108812000D01*
G75*
G02*
X110551000Y-108912000I-100000J0D01*
G01*
X109276000Y-108912000D01*
G75*
G02*
X109176000Y-108812000I0J100000D01*
G01*
G37*
G04 #@! TD.AperFunction*
G04 #@! TA.AperFunction,SMDPad,CuDef*
G36*
G01*
X109176000Y-108162000D02*
X109176000Y-107962000D01*
G75*
G02*
X109276000Y-107862000I100000J0D01*
G01*
X110551000Y-107862000D01*
G75*
G02*
X110651000Y-107962000I0J-100000D01*
G01*
X110651000Y-108162000D01*
G75*
G02*
X110551000Y-108262000I-100000J0D01*
G01*
X109276000Y-108262000D01*
G75*
G02*
X109176000Y-108162000I0J100000D01*
G01*
G37*
G04 #@! TD.AperFunction*
G04 #@! TA.AperFunction,SMDPad,CuDef*
G36*
G01*
X109176000Y-107512000D02*
X109176000Y-107312000D01*
G75*
G02*
X109276000Y-107212000I100000J0D01*
G01*
X110551000Y-107212000D01*
G75*
G02*
X110651000Y-107312000I0J-100000D01*
G01*
X110651000Y-107512000D01*
G75*
G02*
X110551000Y-107612000I-100000J0D01*
G01*
X109276000Y-107612000D01*
G75*
G02*
X109176000Y-107512000I0J100000D01*
G01*
G37*
G04 #@! TD.AperFunction*
G04 #@! TA.AperFunction,SMDPad,CuDef*
G36*
G01*
X109176000Y-106862000D02*
X109176000Y-106662000D01*
G75*
G02*
X109276000Y-106562000I100000J0D01*
G01*
X110551000Y-106562000D01*
G75*
G02*
X110651000Y-106662000I0J-100000D01*
G01*
X110651000Y-106862000D01*
G75*
G02*
X110551000Y-106962000I-100000J0D01*
G01*
X109276000Y-106962000D01*
G75*
G02*
X109176000Y-106862000I0J100000D01*
G01*
G37*
G04 #@! TD.AperFunction*
D12*
X40640000Y-130810000D03*
X43180000Y-130810000D03*
X45720000Y-130810000D03*
X48260000Y-130810000D03*
X50800000Y-130810000D03*
X53340000Y-130810000D03*
X55880000Y-130810000D03*
X58420000Y-130810000D03*
X60960000Y-130810000D03*
X63500000Y-130810000D03*
X66040000Y-130810000D03*
X68580000Y-130810000D03*
X71120000Y-130810000D03*
X73660000Y-130810000D03*
X76200000Y-130810000D03*
X78740000Y-130810000D03*
X81280000Y-130810000D03*
X83820000Y-130810000D03*
X86360000Y-130810000D03*
X88900000Y-130810000D03*
X91440000Y-130810000D03*
X93980000Y-130810000D03*
X96520000Y-130810000D03*
X99060000Y-130810000D03*
X101600000Y-130810000D03*
X104140000Y-130810000D03*
X106680000Y-130810000D03*
X109220000Y-130810000D03*
X111760000Y-130810000D03*
X114300000Y-130810000D03*
X116840000Y-130810000D03*
X119380000Y-130810000D03*
D13*
X99309600Y-83335200D03*
X99309600Y-83985200D03*
X99309600Y-84635200D03*
X99309600Y-85285200D03*
X99309600Y-85935200D03*
X99309600Y-86585200D03*
X99309600Y-87235200D03*
X99309600Y-87885200D03*
X92409600Y-87885200D03*
X92409600Y-87235200D03*
X92409600Y-86585200D03*
X92409600Y-85935200D03*
X92409600Y-85285200D03*
X92409600Y-84635200D03*
X92409600Y-83985200D03*
X92409600Y-83335200D03*
X89200400Y-83373800D03*
X89200400Y-84023800D03*
X89200400Y-84673800D03*
X89200400Y-85323800D03*
X89200400Y-85973800D03*
X89200400Y-86623800D03*
X89200400Y-87273800D03*
X89200400Y-87923800D03*
X82300400Y-87923800D03*
X82300400Y-87273800D03*
X82300400Y-86623800D03*
X82300400Y-85973800D03*
X82300400Y-85323800D03*
X82300400Y-84673800D03*
X82300400Y-84023800D03*
X82300400Y-83373800D03*
D14*
X103944500Y-99218750D03*
X103309500Y-99218750D03*
X102674500Y-99218750D03*
X102039500Y-99218750D03*
X101404500Y-99218750D03*
X100769500Y-99218750D03*
X100134500Y-99218750D03*
X99499500Y-99218750D03*
X98864500Y-99218750D03*
X98229500Y-99218750D03*
X97594500Y-99218750D03*
X96959500Y-99218750D03*
X96324500Y-99218750D03*
X95689500Y-99218750D03*
X95054500Y-99218750D03*
X94419500Y-99218750D03*
X93784500Y-99218750D03*
X93149500Y-99218750D03*
X92514500Y-99218750D03*
X91879500Y-99218750D03*
X91244500Y-99218750D03*
X90609500Y-99218750D03*
X89974500Y-99218750D03*
X89339500Y-99218750D03*
X88704500Y-99218750D03*
X88069500Y-99218750D03*
X87434500Y-99218750D03*
X86799500Y-99218750D03*
X86799500Y-108553250D03*
X87434500Y-108553250D03*
X88069500Y-108553250D03*
X88704500Y-108553250D03*
X89339500Y-108553250D03*
X89974500Y-108553250D03*
X90609500Y-108553250D03*
X91244500Y-108553250D03*
X91879500Y-108553250D03*
X92514500Y-108553250D03*
X93149500Y-108553250D03*
X93784500Y-108553250D03*
X94419500Y-108553250D03*
X95054500Y-108553250D03*
X95689500Y-108553250D03*
X96324500Y-108553250D03*
X96959500Y-108553250D03*
X97594500Y-108553250D03*
X98229500Y-108553250D03*
X98864500Y-108553250D03*
X99499500Y-108553250D03*
X100134500Y-108553250D03*
X100769500Y-108553250D03*
X101404500Y-108553250D03*
X102039500Y-108553250D03*
X102674500Y-108553250D03*
X103309500Y-108553250D03*
X103944500Y-108553250D03*
X52006500Y-108553250D03*
X51371500Y-108553250D03*
X50736500Y-108553250D03*
X50101500Y-108553250D03*
X49466500Y-108553250D03*
X48831500Y-108553250D03*
X48196500Y-108553250D03*
X47561500Y-108553250D03*
X46926500Y-108553250D03*
X46291500Y-108553250D03*
X45656500Y-108553250D03*
X45021500Y-108553250D03*
X44386500Y-108553250D03*
X43751500Y-108553250D03*
X43116500Y-108553250D03*
X42481500Y-108553250D03*
X41846500Y-108553250D03*
X41211500Y-108553250D03*
X40576500Y-108553250D03*
X39941500Y-108553250D03*
X39306500Y-108553250D03*
X38671500Y-108553250D03*
X38036500Y-108553250D03*
X37401500Y-108553250D03*
X36766500Y-108553250D03*
X36131500Y-108553250D03*
X35496500Y-108553250D03*
X34861500Y-108553250D03*
X34861500Y-99218750D03*
X35496500Y-99218750D03*
X36131500Y-99218750D03*
X36766500Y-99218750D03*
X37401500Y-99218750D03*
X38036500Y-99218750D03*
X38671500Y-99218750D03*
X39306500Y-99218750D03*
X39941500Y-99218750D03*
X40576500Y-99218750D03*
X41211500Y-99218750D03*
X41846500Y-99218750D03*
X42481500Y-99218750D03*
X43116500Y-99218750D03*
X43751500Y-99218750D03*
X44386500Y-99218750D03*
X45021500Y-99218750D03*
X45656500Y-99218750D03*
X46291500Y-99218750D03*
X46926500Y-99218750D03*
X47561500Y-99218750D03*
X48196500Y-99218750D03*
X48831500Y-99218750D03*
X49466500Y-99218750D03*
X50101500Y-99218750D03*
X50736500Y-99218750D03*
X51371500Y-99218750D03*
X52006500Y-99218750D03*
X76139900Y-99218750D03*
X75504900Y-99218750D03*
X74869900Y-99218750D03*
X74234900Y-99218750D03*
X73599900Y-99218750D03*
X72964900Y-99218750D03*
X72329900Y-99218750D03*
X71694900Y-99218750D03*
X71059900Y-99218750D03*
X70424900Y-99218750D03*
X69789900Y-99218750D03*
X69154900Y-99218750D03*
X68519900Y-99218750D03*
X67884900Y-99218750D03*
X67249900Y-99218750D03*
X66614900Y-99218750D03*
X65979900Y-99218750D03*
X65344900Y-99218750D03*
X64709900Y-99218750D03*
X64074900Y-99218750D03*
X63439900Y-99218750D03*
X62804900Y-99218750D03*
X62169900Y-99218750D03*
X61534900Y-99218750D03*
X60899900Y-99218750D03*
X60264900Y-99218750D03*
X59629900Y-99218750D03*
X58994900Y-99218750D03*
X58994900Y-108553250D03*
X59629900Y-108553250D03*
X60264900Y-108553250D03*
X60899900Y-108553250D03*
X61534900Y-108553250D03*
X62169900Y-108553250D03*
X62804900Y-108553250D03*
X63439900Y-108553250D03*
X64074900Y-108553250D03*
X64709900Y-108553250D03*
X65344900Y-108553250D03*
X65979900Y-108553250D03*
X66614900Y-108553250D03*
X67249900Y-108553250D03*
X67884900Y-108553250D03*
X68519900Y-108553250D03*
X69154900Y-108553250D03*
X69789900Y-108553250D03*
X70424900Y-108553250D03*
X71059900Y-108553250D03*
X71694900Y-108553250D03*
X72329900Y-108553250D03*
X72964900Y-108553250D03*
X73599900Y-108553250D03*
X74234900Y-108553250D03*
X74869900Y-108553250D03*
X75504900Y-108553250D03*
X76139900Y-108553250D03*
D10*
X35789000Y-76690000D03*
X35789000Y-74150000D03*
X38329000Y-76690000D03*
X38329000Y-74150000D03*
X40869000Y-76690000D03*
X40869000Y-74150000D03*
X43409000Y-76690000D03*
X43409000Y-74150000D03*
X45949000Y-76690000D03*
X45949000Y-74150000D03*
X48489000Y-76690000D03*
X48489000Y-74150000D03*
X51029000Y-76690000D03*
X51029000Y-74150000D03*
X53569000Y-76690000D03*
X53569000Y-74150000D03*
X56109000Y-76690000D03*
X56109000Y-74150000D03*
X58649000Y-76690000D03*
X58649000Y-74150000D03*
X61189000Y-76690000D03*
X61189000Y-74150000D03*
X63729000Y-76690000D03*
X63729000Y-74150000D03*
X66269000Y-76690000D03*
D11*
X66269000Y-74150000D03*
X66167000Y-117043200D03*
D10*
X66167000Y-114503200D03*
X68707000Y-117043200D03*
X68707000Y-114503200D03*
X71247000Y-117043200D03*
X71247000Y-114503200D03*
X73787000Y-117043200D03*
X73787000Y-114503200D03*
X76327000Y-117043200D03*
X76327000Y-114503200D03*
X94107000Y-114503200D03*
X94107000Y-117043200D03*
X91567000Y-114503200D03*
X91567000Y-117043200D03*
X89027000Y-114503200D03*
X89027000Y-117043200D03*
X86487000Y-114503200D03*
X86487000Y-117043200D03*
X83947000Y-114503200D03*
D11*
X83947000Y-117043200D03*
X101727000Y-117043200D03*
D10*
X101727000Y-114503200D03*
X104267000Y-117043200D03*
X104267000Y-114503200D03*
X106807000Y-117043200D03*
X106807000Y-114503200D03*
X109347000Y-117043200D03*
X109347000Y-114503200D03*
X111887000Y-117043200D03*
X111887000Y-114503200D03*
X114427000Y-117043200D03*
X114427000Y-114503200D03*
X116967000Y-117043200D03*
X116967000Y-114503200D03*
X119507000Y-117043200D03*
X119507000Y-114503200D03*
X122047000Y-117043200D03*
X122047000Y-114503200D03*
X124587000Y-117043200D03*
X124587000Y-114503200D03*
X58572400Y-114503200D03*
X58572400Y-117043200D03*
X56032400Y-114503200D03*
X56032400Y-117043200D03*
X53492400Y-114503200D03*
X53492400Y-117043200D03*
X50952400Y-114503200D03*
X50952400Y-117043200D03*
X48412400Y-114503200D03*
X48412400Y-117043200D03*
X45872400Y-114503200D03*
X45872400Y-117043200D03*
X43332400Y-114503200D03*
X43332400Y-117043200D03*
X40792400Y-114503200D03*
X40792400Y-117043200D03*
X38252400Y-114503200D03*
X38252400Y-117043200D03*
X35712400Y-114503200D03*
D11*
X35712400Y-117043200D03*
D10*
X83921600Y-76690000D03*
X83921600Y-74150000D03*
X86461600Y-76690000D03*
X86461600Y-74150000D03*
X89001600Y-76690000D03*
X89001600Y-74150000D03*
X91541600Y-76690000D03*
X91541600Y-74150000D03*
X94081600Y-76690000D03*
X94081600Y-74150000D03*
X96621600Y-76690000D03*
X96621600Y-74150000D03*
X99161600Y-76690000D03*
X99161600Y-74150000D03*
X101701600Y-76690000D03*
X101701600Y-74150000D03*
X104241600Y-76690000D03*
X104241600Y-74150000D03*
X106781600Y-76690000D03*
D11*
X106781600Y-74150000D03*
G04 #@! TA.AperFunction,SMDPad,CuDef*
G36*
G01*
X39219000Y-83716000D02*
X39219000Y-83416000D01*
G75*
G02*
X39369000Y-83266000I150000J0D01*
G01*
X41019000Y-83266000D01*
G75*
G02*
X41169000Y-83416000I0J-150000D01*
G01*
X41169000Y-83716000D01*
G75*
G02*
X41019000Y-83866000I-150000J0D01*
G01*
X39369000Y-83866000D01*
G75*
G02*
X39219000Y-83716000I0J150000D01*
G01*
G37*
G04 #@! TD.AperFunction*
G04 #@! TA.AperFunction,SMDPad,CuDef*
G36*
G01*
X39219000Y-84986000D02*
X39219000Y-84686000D01*
G75*
G02*
X39369000Y-84536000I150000J0D01*
G01*
X41019000Y-84536000D01*
G75*
G02*
X41169000Y-84686000I0J-150000D01*
G01*
X41169000Y-84986000D01*
G75*
G02*
X41019000Y-85136000I-150000J0D01*
G01*
X39369000Y-85136000D01*
G75*
G02*
X39219000Y-84986000I0J150000D01*
G01*
G37*
G04 #@! TD.AperFunction*
G04 #@! TA.AperFunction,SMDPad,CuDef*
G36*
G01*
X39219000Y-86256000D02*
X39219000Y-85956000D01*
G75*
G02*
X39369000Y-85806000I150000J0D01*
G01*
X41019000Y-85806000D01*
G75*
G02*
X41169000Y-85956000I0J-150000D01*
G01*
X41169000Y-86256000D01*
G75*
G02*
X41019000Y-86406000I-150000J0D01*
G01*
X39369000Y-86406000D01*
G75*
G02*
X39219000Y-86256000I0J150000D01*
G01*
G37*
G04 #@! TD.AperFunction*
G04 #@! TA.AperFunction,SMDPad,CuDef*
G36*
G01*
X39219000Y-87526000D02*
X39219000Y-87226000D01*
G75*
G02*
X39369000Y-87076000I150000J0D01*
G01*
X41019000Y-87076000D01*
G75*
G02*
X41169000Y-87226000I0J-150000D01*
G01*
X41169000Y-87526000D01*
G75*
G02*
X41019000Y-87676000I-150000J0D01*
G01*
X39369000Y-87676000D01*
G75*
G02*
X39219000Y-87526000I0J150000D01*
G01*
G37*
G04 #@! TD.AperFunction*
G04 #@! TA.AperFunction,SMDPad,CuDef*
G36*
G01*
X39219000Y-88796000D02*
X39219000Y-88496000D01*
G75*
G02*
X39369000Y-88346000I150000J0D01*
G01*
X41019000Y-88346000D01*
G75*
G02*
X41169000Y-88496000I0J-150000D01*
G01*
X41169000Y-88796000D01*
G75*
G02*
X41019000Y-88946000I-150000J0D01*
G01*
X39369000Y-88946000D01*
G75*
G02*
X39219000Y-88796000I0J150000D01*
G01*
G37*
G04 #@! TD.AperFunction*
G04 #@! TA.AperFunction,SMDPad,CuDef*
G36*
G01*
X39219000Y-90066000D02*
X39219000Y-89766000D01*
G75*
G02*
X39369000Y-89616000I150000J0D01*
G01*
X41019000Y-89616000D01*
G75*
G02*
X41169000Y-89766000I0J-150000D01*
G01*
X41169000Y-90066000D01*
G75*
G02*
X41019000Y-90216000I-150000J0D01*
G01*
X39369000Y-90216000D01*
G75*
G02*
X39219000Y-90066000I0J150000D01*
G01*
G37*
G04 #@! TD.AperFunction*
G04 #@! TA.AperFunction,SMDPad,CuDef*
G36*
G01*
X39219000Y-91336000D02*
X39219000Y-91036000D01*
G75*
G02*
X39369000Y-90886000I150000J0D01*
G01*
X41019000Y-90886000D01*
G75*
G02*
X41169000Y-91036000I0J-150000D01*
G01*
X41169000Y-91336000D01*
G75*
G02*
X41019000Y-91486000I-150000J0D01*
G01*
X39369000Y-91486000D01*
G75*
G02*
X39219000Y-91336000I0J150000D01*
G01*
G37*
G04 #@! TD.AperFunction*
G04 #@! TA.AperFunction,SMDPad,CuDef*
G36*
G01*
X39219000Y-92606000D02*
X39219000Y-92306000D01*
G75*
G02*
X39369000Y-92156000I150000J0D01*
G01*
X41019000Y-92156000D01*
G75*
G02*
X41169000Y-92306000I0J-150000D01*
G01*
X41169000Y-92606000D01*
G75*
G02*
X41019000Y-92756000I-150000J0D01*
G01*
X39369000Y-92756000D01*
G75*
G02*
X39219000Y-92606000I0J150000D01*
G01*
G37*
G04 #@! TD.AperFunction*
G04 #@! TA.AperFunction,SMDPad,CuDef*
G36*
G01*
X34269000Y-92606000D02*
X34269000Y-92306000D01*
G75*
G02*
X34419000Y-92156000I150000J0D01*
G01*
X36069000Y-92156000D01*
G75*
G02*
X36219000Y-92306000I0J-150000D01*
G01*
X36219000Y-92606000D01*
G75*
G02*
X36069000Y-92756000I-150000J0D01*
G01*
X34419000Y-92756000D01*
G75*
G02*
X34269000Y-92606000I0J150000D01*
G01*
G37*
G04 #@! TD.AperFunction*
G04 #@! TA.AperFunction,SMDPad,CuDef*
G36*
G01*
X34269000Y-91336000D02*
X34269000Y-91036000D01*
G75*
G02*
X34419000Y-90886000I150000J0D01*
G01*
X36069000Y-90886000D01*
G75*
G02*
X36219000Y-91036000I0J-150000D01*
G01*
X36219000Y-91336000D01*
G75*
G02*
X36069000Y-91486000I-150000J0D01*
G01*
X34419000Y-91486000D01*
G75*
G02*
X34269000Y-91336000I0J150000D01*
G01*
G37*
G04 #@! TD.AperFunction*
G04 #@! TA.AperFunction,SMDPad,CuDef*
G36*
G01*
X34269000Y-90066000D02*
X34269000Y-89766000D01*
G75*
G02*
X34419000Y-89616000I150000J0D01*
G01*
X36069000Y-89616000D01*
G75*
G02*
X36219000Y-89766000I0J-150000D01*
G01*
X36219000Y-90066000D01*
G75*
G02*
X36069000Y-90216000I-150000J0D01*
G01*
X34419000Y-90216000D01*
G75*
G02*
X34269000Y-90066000I0J150000D01*
G01*
G37*
G04 #@! TD.AperFunction*
G04 #@! TA.AperFunction,SMDPad,CuDef*
G36*
G01*
X34269000Y-88796000D02*
X34269000Y-88496000D01*
G75*
G02*
X34419000Y-88346000I150000J0D01*
G01*
X36069000Y-88346000D01*
G75*
G02*
X36219000Y-88496000I0J-150000D01*
G01*
X36219000Y-88796000D01*
G75*
G02*
X36069000Y-88946000I-150000J0D01*
G01*
X34419000Y-88946000D01*
G75*
G02*
X34269000Y-88796000I0J150000D01*
G01*
G37*
G04 #@! TD.AperFunction*
G04 #@! TA.AperFunction,SMDPad,CuDef*
G36*
G01*
X34269000Y-87526000D02*
X34269000Y-87226000D01*
G75*
G02*
X34419000Y-87076000I150000J0D01*
G01*
X36069000Y-87076000D01*
G75*
G02*
X36219000Y-87226000I0J-150000D01*
G01*
X36219000Y-87526000D01*
G75*
G02*
X36069000Y-87676000I-150000J0D01*
G01*
X34419000Y-87676000D01*
G75*
G02*
X34269000Y-87526000I0J150000D01*
G01*
G37*
G04 #@! TD.AperFunction*
G04 #@! TA.AperFunction,SMDPad,CuDef*
G36*
G01*
X34269000Y-86256000D02*
X34269000Y-85956000D01*
G75*
G02*
X34419000Y-85806000I150000J0D01*
G01*
X36069000Y-85806000D01*
G75*
G02*
X36219000Y-85956000I0J-150000D01*
G01*
X36219000Y-86256000D01*
G75*
G02*
X36069000Y-86406000I-150000J0D01*
G01*
X34419000Y-86406000D01*
G75*
G02*
X34269000Y-86256000I0J150000D01*
G01*
G37*
G04 #@! TD.AperFunction*
G04 #@! TA.AperFunction,SMDPad,CuDef*
G36*
G01*
X34269000Y-84986000D02*
X34269000Y-84686000D01*
G75*
G02*
X34419000Y-84536000I150000J0D01*
G01*
X36069000Y-84536000D01*
G75*
G02*
X36219000Y-84686000I0J-150000D01*
G01*
X36219000Y-84986000D01*
G75*
G02*
X36069000Y-85136000I-150000J0D01*
G01*
X34419000Y-85136000D01*
G75*
G02*
X34269000Y-84986000I0J150000D01*
G01*
G37*
G04 #@! TD.AperFunction*
G04 #@! TA.AperFunction,SMDPad,CuDef*
G36*
G01*
X34269000Y-83716000D02*
X34269000Y-83416000D01*
G75*
G02*
X34419000Y-83266000I150000J0D01*
G01*
X36069000Y-83266000D01*
G75*
G02*
X36219000Y-83416000I0J-150000D01*
G01*
X36219000Y-83716000D01*
G75*
G02*
X36069000Y-83866000I-150000J0D01*
G01*
X34419000Y-83866000D01*
G75*
G02*
X34269000Y-83716000I0J150000D01*
G01*
G37*
G04 #@! TD.AperFunction*
G04 #@! TA.AperFunction,SMDPad,CuDef*
G36*
G01*
X63615700Y-83716000D02*
X63615700Y-83416000D01*
G75*
G02*
X63765700Y-83266000I150000J0D01*
G01*
X65415700Y-83266000D01*
G75*
G02*
X65565700Y-83416000I0J-150000D01*
G01*
X65565700Y-83716000D01*
G75*
G02*
X65415700Y-83866000I-150000J0D01*
G01*
X63765700Y-83866000D01*
G75*
G02*
X63615700Y-83716000I0J150000D01*
G01*
G37*
G04 #@! TD.AperFunction*
G04 #@! TA.AperFunction,SMDPad,CuDef*
G36*
G01*
X63615700Y-84986000D02*
X63615700Y-84686000D01*
G75*
G02*
X63765700Y-84536000I150000J0D01*
G01*
X65415700Y-84536000D01*
G75*
G02*
X65565700Y-84686000I0J-150000D01*
G01*
X65565700Y-84986000D01*
G75*
G02*
X65415700Y-85136000I-150000J0D01*
G01*
X63765700Y-85136000D01*
G75*
G02*
X63615700Y-84986000I0J150000D01*
G01*
G37*
G04 #@! TD.AperFunction*
G04 #@! TA.AperFunction,SMDPad,CuDef*
G36*
G01*
X63615700Y-86256000D02*
X63615700Y-85956000D01*
G75*
G02*
X63765700Y-85806000I150000J0D01*
G01*
X65415700Y-85806000D01*
G75*
G02*
X65565700Y-85956000I0J-150000D01*
G01*
X65565700Y-86256000D01*
G75*
G02*
X65415700Y-86406000I-150000J0D01*
G01*
X63765700Y-86406000D01*
G75*
G02*
X63615700Y-86256000I0J150000D01*
G01*
G37*
G04 #@! TD.AperFunction*
G04 #@! TA.AperFunction,SMDPad,CuDef*
G36*
G01*
X63615700Y-87526000D02*
X63615700Y-87226000D01*
G75*
G02*
X63765700Y-87076000I150000J0D01*
G01*
X65415700Y-87076000D01*
G75*
G02*
X65565700Y-87226000I0J-150000D01*
G01*
X65565700Y-87526000D01*
G75*
G02*
X65415700Y-87676000I-150000J0D01*
G01*
X63765700Y-87676000D01*
G75*
G02*
X63615700Y-87526000I0J150000D01*
G01*
G37*
G04 #@! TD.AperFunction*
G04 #@! TA.AperFunction,SMDPad,CuDef*
G36*
G01*
X63615700Y-88796000D02*
X63615700Y-88496000D01*
G75*
G02*
X63765700Y-88346000I150000J0D01*
G01*
X65415700Y-88346000D01*
G75*
G02*
X65565700Y-88496000I0J-150000D01*
G01*
X65565700Y-88796000D01*
G75*
G02*
X65415700Y-88946000I-150000J0D01*
G01*
X63765700Y-88946000D01*
G75*
G02*
X63615700Y-88796000I0J150000D01*
G01*
G37*
G04 #@! TD.AperFunction*
G04 #@! TA.AperFunction,SMDPad,CuDef*
G36*
G01*
X63615700Y-90066000D02*
X63615700Y-89766000D01*
G75*
G02*
X63765700Y-89616000I150000J0D01*
G01*
X65415700Y-89616000D01*
G75*
G02*
X65565700Y-89766000I0J-150000D01*
G01*
X65565700Y-90066000D01*
G75*
G02*
X65415700Y-90216000I-150000J0D01*
G01*
X63765700Y-90216000D01*
G75*
G02*
X63615700Y-90066000I0J150000D01*
G01*
G37*
G04 #@! TD.AperFunction*
G04 #@! TA.AperFunction,SMDPad,CuDef*
G36*
G01*
X63615700Y-91336000D02*
X63615700Y-91036000D01*
G75*
G02*
X63765700Y-90886000I150000J0D01*
G01*
X65415700Y-90886000D01*
G75*
G02*
X65565700Y-91036000I0J-150000D01*
G01*
X65565700Y-91336000D01*
G75*
G02*
X65415700Y-91486000I-150000J0D01*
G01*
X63765700Y-91486000D01*
G75*
G02*
X63615700Y-91336000I0J150000D01*
G01*
G37*
G04 #@! TD.AperFunction*
G04 #@! TA.AperFunction,SMDPad,CuDef*
G36*
G01*
X63615700Y-92606000D02*
X63615700Y-92306000D01*
G75*
G02*
X63765700Y-92156000I150000J0D01*
G01*
X65415700Y-92156000D01*
G75*
G02*
X65565700Y-92306000I0J-150000D01*
G01*
X65565700Y-92606000D01*
G75*
G02*
X65415700Y-92756000I-150000J0D01*
G01*
X63765700Y-92756000D01*
G75*
G02*
X63615700Y-92606000I0J150000D01*
G01*
G37*
G04 #@! TD.AperFunction*
G04 #@! TA.AperFunction,SMDPad,CuDef*
G36*
G01*
X58665700Y-92606000D02*
X58665700Y-92306000D01*
G75*
G02*
X58815700Y-92156000I150000J0D01*
G01*
X60465700Y-92156000D01*
G75*
G02*
X60615700Y-92306000I0J-150000D01*
G01*
X60615700Y-92606000D01*
G75*
G02*
X60465700Y-92756000I-150000J0D01*
G01*
X58815700Y-92756000D01*
G75*
G02*
X58665700Y-92606000I0J150000D01*
G01*
G37*
G04 #@! TD.AperFunction*
G04 #@! TA.AperFunction,SMDPad,CuDef*
G36*
G01*
X58665700Y-91336000D02*
X58665700Y-91036000D01*
G75*
G02*
X58815700Y-90886000I150000J0D01*
G01*
X60465700Y-90886000D01*
G75*
G02*
X60615700Y-91036000I0J-150000D01*
G01*
X60615700Y-91336000D01*
G75*
G02*
X60465700Y-91486000I-150000J0D01*
G01*
X58815700Y-91486000D01*
G75*
G02*
X58665700Y-91336000I0J150000D01*
G01*
G37*
G04 #@! TD.AperFunction*
G04 #@! TA.AperFunction,SMDPad,CuDef*
G36*
G01*
X58665700Y-90066000D02*
X58665700Y-89766000D01*
G75*
G02*
X58815700Y-89616000I150000J0D01*
G01*
X60465700Y-89616000D01*
G75*
G02*
X60615700Y-89766000I0J-150000D01*
G01*
X60615700Y-90066000D01*
G75*
G02*
X60465700Y-90216000I-150000J0D01*
G01*
X58815700Y-90216000D01*
G75*
G02*
X58665700Y-90066000I0J150000D01*
G01*
G37*
G04 #@! TD.AperFunction*
G04 #@! TA.AperFunction,SMDPad,CuDef*
G36*
G01*
X58665700Y-88796000D02*
X58665700Y-88496000D01*
G75*
G02*
X58815700Y-88346000I150000J0D01*
G01*
X60465700Y-88346000D01*
G75*
G02*
X60615700Y-88496000I0J-150000D01*
G01*
X60615700Y-88796000D01*
G75*
G02*
X60465700Y-88946000I-150000J0D01*
G01*
X58815700Y-88946000D01*
G75*
G02*
X58665700Y-88796000I0J150000D01*
G01*
G37*
G04 #@! TD.AperFunction*
G04 #@! TA.AperFunction,SMDPad,CuDef*
G36*
G01*
X58665700Y-87526000D02*
X58665700Y-87226000D01*
G75*
G02*
X58815700Y-87076000I150000J0D01*
G01*
X60465700Y-87076000D01*
G75*
G02*
X60615700Y-87226000I0J-150000D01*
G01*
X60615700Y-87526000D01*
G75*
G02*
X60465700Y-87676000I-150000J0D01*
G01*
X58815700Y-87676000D01*
G75*
G02*
X58665700Y-87526000I0J150000D01*
G01*
G37*
G04 #@! TD.AperFunction*
G04 #@! TA.AperFunction,SMDPad,CuDef*
G36*
G01*
X58665700Y-86256000D02*
X58665700Y-85956000D01*
G75*
G02*
X58815700Y-85806000I150000J0D01*
G01*
X60465700Y-85806000D01*
G75*
G02*
X60615700Y-85956000I0J-150000D01*
G01*
X60615700Y-86256000D01*
G75*
G02*
X60465700Y-86406000I-150000J0D01*
G01*
X58815700Y-86406000D01*
G75*
G02*
X58665700Y-86256000I0J150000D01*
G01*
G37*
G04 #@! TD.AperFunction*
G04 #@! TA.AperFunction,SMDPad,CuDef*
G36*
G01*
X58665700Y-84986000D02*
X58665700Y-84686000D01*
G75*
G02*
X58815700Y-84536000I150000J0D01*
G01*
X60465700Y-84536000D01*
G75*
G02*
X60615700Y-84686000I0J-150000D01*
G01*
X60615700Y-84986000D01*
G75*
G02*
X60465700Y-85136000I-150000J0D01*
G01*
X58815700Y-85136000D01*
G75*
G02*
X58665700Y-84986000I0J150000D01*
G01*
G37*
G04 #@! TD.AperFunction*
G04 #@! TA.AperFunction,SMDPad,CuDef*
G36*
G01*
X58665700Y-83716000D02*
X58665700Y-83416000D01*
G75*
G02*
X58815700Y-83266000I150000J0D01*
G01*
X60465700Y-83266000D01*
G75*
G02*
X60615700Y-83416000I0J-150000D01*
G01*
X60615700Y-83716000D01*
G75*
G02*
X60465700Y-83866000I-150000J0D01*
G01*
X58815700Y-83866000D01*
G75*
G02*
X58665700Y-83716000I0J150000D01*
G01*
G37*
G04 #@! TD.AperFunction*
G04 #@! TA.AperFunction,SMDPad,CuDef*
G36*
G01*
X51601500Y-83716000D02*
X51601500Y-83416000D01*
G75*
G02*
X51751500Y-83266000I150000J0D01*
G01*
X53401500Y-83266000D01*
G75*
G02*
X53551500Y-83416000I0J-150000D01*
G01*
X53551500Y-83716000D01*
G75*
G02*
X53401500Y-83866000I-150000J0D01*
G01*
X51751500Y-83866000D01*
G75*
G02*
X51601500Y-83716000I0J150000D01*
G01*
G37*
G04 #@! TD.AperFunction*
G04 #@! TA.AperFunction,SMDPad,CuDef*
G36*
G01*
X51601500Y-84986000D02*
X51601500Y-84686000D01*
G75*
G02*
X51751500Y-84536000I150000J0D01*
G01*
X53401500Y-84536000D01*
G75*
G02*
X53551500Y-84686000I0J-150000D01*
G01*
X53551500Y-84986000D01*
G75*
G02*
X53401500Y-85136000I-150000J0D01*
G01*
X51751500Y-85136000D01*
G75*
G02*
X51601500Y-84986000I0J150000D01*
G01*
G37*
G04 #@! TD.AperFunction*
G04 #@! TA.AperFunction,SMDPad,CuDef*
G36*
G01*
X51601500Y-86256000D02*
X51601500Y-85956000D01*
G75*
G02*
X51751500Y-85806000I150000J0D01*
G01*
X53401500Y-85806000D01*
G75*
G02*
X53551500Y-85956000I0J-150000D01*
G01*
X53551500Y-86256000D01*
G75*
G02*
X53401500Y-86406000I-150000J0D01*
G01*
X51751500Y-86406000D01*
G75*
G02*
X51601500Y-86256000I0J150000D01*
G01*
G37*
G04 #@! TD.AperFunction*
G04 #@! TA.AperFunction,SMDPad,CuDef*
G36*
G01*
X51601500Y-87526000D02*
X51601500Y-87226000D01*
G75*
G02*
X51751500Y-87076000I150000J0D01*
G01*
X53401500Y-87076000D01*
G75*
G02*
X53551500Y-87226000I0J-150000D01*
G01*
X53551500Y-87526000D01*
G75*
G02*
X53401500Y-87676000I-150000J0D01*
G01*
X51751500Y-87676000D01*
G75*
G02*
X51601500Y-87526000I0J150000D01*
G01*
G37*
G04 #@! TD.AperFunction*
G04 #@! TA.AperFunction,SMDPad,CuDef*
G36*
G01*
X51601500Y-88796000D02*
X51601500Y-88496000D01*
G75*
G02*
X51751500Y-88346000I150000J0D01*
G01*
X53401500Y-88346000D01*
G75*
G02*
X53551500Y-88496000I0J-150000D01*
G01*
X53551500Y-88796000D01*
G75*
G02*
X53401500Y-88946000I-150000J0D01*
G01*
X51751500Y-88946000D01*
G75*
G02*
X51601500Y-88796000I0J150000D01*
G01*
G37*
G04 #@! TD.AperFunction*
G04 #@! TA.AperFunction,SMDPad,CuDef*
G36*
G01*
X51601500Y-90066000D02*
X51601500Y-89766000D01*
G75*
G02*
X51751500Y-89616000I150000J0D01*
G01*
X53401500Y-89616000D01*
G75*
G02*
X53551500Y-89766000I0J-150000D01*
G01*
X53551500Y-90066000D01*
G75*
G02*
X53401500Y-90216000I-150000J0D01*
G01*
X51751500Y-90216000D01*
G75*
G02*
X51601500Y-90066000I0J150000D01*
G01*
G37*
G04 #@! TD.AperFunction*
G04 #@! TA.AperFunction,SMDPad,CuDef*
G36*
G01*
X51601500Y-91336000D02*
X51601500Y-91036000D01*
G75*
G02*
X51751500Y-90886000I150000J0D01*
G01*
X53401500Y-90886000D01*
G75*
G02*
X53551500Y-91036000I0J-150000D01*
G01*
X53551500Y-91336000D01*
G75*
G02*
X53401500Y-91486000I-150000J0D01*
G01*
X51751500Y-91486000D01*
G75*
G02*
X51601500Y-91336000I0J150000D01*
G01*
G37*
G04 #@! TD.AperFunction*
G04 #@! TA.AperFunction,SMDPad,CuDef*
G36*
G01*
X51601500Y-92606000D02*
X51601500Y-92306000D01*
G75*
G02*
X51751500Y-92156000I150000J0D01*
G01*
X53401500Y-92156000D01*
G75*
G02*
X53551500Y-92306000I0J-150000D01*
G01*
X53551500Y-92606000D01*
G75*
G02*
X53401500Y-92756000I-150000J0D01*
G01*
X51751500Y-92756000D01*
G75*
G02*
X51601500Y-92606000I0J150000D01*
G01*
G37*
G04 #@! TD.AperFunction*
G04 #@! TA.AperFunction,SMDPad,CuDef*
G36*
G01*
X46651500Y-92606000D02*
X46651500Y-92306000D01*
G75*
G02*
X46801500Y-92156000I150000J0D01*
G01*
X48451500Y-92156000D01*
G75*
G02*
X48601500Y-92306000I0J-150000D01*
G01*
X48601500Y-92606000D01*
G75*
G02*
X48451500Y-92756000I-150000J0D01*
G01*
X46801500Y-92756000D01*
G75*
G02*
X46651500Y-92606000I0J150000D01*
G01*
G37*
G04 #@! TD.AperFunction*
G04 #@! TA.AperFunction,SMDPad,CuDef*
G36*
G01*
X46651500Y-91336000D02*
X46651500Y-91036000D01*
G75*
G02*
X46801500Y-90886000I150000J0D01*
G01*
X48451500Y-90886000D01*
G75*
G02*
X48601500Y-91036000I0J-150000D01*
G01*
X48601500Y-91336000D01*
G75*
G02*
X48451500Y-91486000I-150000J0D01*
G01*
X46801500Y-91486000D01*
G75*
G02*
X46651500Y-91336000I0J150000D01*
G01*
G37*
G04 #@! TD.AperFunction*
G04 #@! TA.AperFunction,SMDPad,CuDef*
G36*
G01*
X46651500Y-90066000D02*
X46651500Y-89766000D01*
G75*
G02*
X46801500Y-89616000I150000J0D01*
G01*
X48451500Y-89616000D01*
G75*
G02*
X48601500Y-89766000I0J-150000D01*
G01*
X48601500Y-90066000D01*
G75*
G02*
X48451500Y-90216000I-150000J0D01*
G01*
X46801500Y-90216000D01*
G75*
G02*
X46651500Y-90066000I0J150000D01*
G01*
G37*
G04 #@! TD.AperFunction*
G04 #@! TA.AperFunction,SMDPad,CuDef*
G36*
G01*
X46651500Y-88796000D02*
X46651500Y-88496000D01*
G75*
G02*
X46801500Y-88346000I150000J0D01*
G01*
X48451500Y-88346000D01*
G75*
G02*
X48601500Y-88496000I0J-150000D01*
G01*
X48601500Y-88796000D01*
G75*
G02*
X48451500Y-88946000I-150000J0D01*
G01*
X46801500Y-88946000D01*
G75*
G02*
X46651500Y-88796000I0J150000D01*
G01*
G37*
G04 #@! TD.AperFunction*
G04 #@! TA.AperFunction,SMDPad,CuDef*
G36*
G01*
X46651500Y-87526000D02*
X46651500Y-87226000D01*
G75*
G02*
X46801500Y-87076000I150000J0D01*
G01*
X48451500Y-87076000D01*
G75*
G02*
X48601500Y-87226000I0J-150000D01*
G01*
X48601500Y-87526000D01*
G75*
G02*
X48451500Y-87676000I-150000J0D01*
G01*
X46801500Y-87676000D01*
G75*
G02*
X46651500Y-87526000I0J150000D01*
G01*
G37*
G04 #@! TD.AperFunction*
G04 #@! TA.AperFunction,SMDPad,CuDef*
G36*
G01*
X46651500Y-86256000D02*
X46651500Y-85956000D01*
G75*
G02*
X46801500Y-85806000I150000J0D01*
G01*
X48451500Y-85806000D01*
G75*
G02*
X48601500Y-85956000I0J-150000D01*
G01*
X48601500Y-86256000D01*
G75*
G02*
X48451500Y-86406000I-150000J0D01*
G01*
X46801500Y-86406000D01*
G75*
G02*
X46651500Y-86256000I0J150000D01*
G01*
G37*
G04 #@! TD.AperFunction*
G04 #@! TA.AperFunction,SMDPad,CuDef*
G36*
G01*
X46651500Y-84986000D02*
X46651500Y-84686000D01*
G75*
G02*
X46801500Y-84536000I150000J0D01*
G01*
X48451500Y-84536000D01*
G75*
G02*
X48601500Y-84686000I0J-150000D01*
G01*
X48601500Y-84986000D01*
G75*
G02*
X48451500Y-85136000I-150000J0D01*
G01*
X46801500Y-85136000D01*
G75*
G02*
X46651500Y-84986000I0J150000D01*
G01*
G37*
G04 #@! TD.AperFunction*
G04 #@! TA.AperFunction,SMDPad,CuDef*
G36*
G01*
X46651500Y-83716000D02*
X46651500Y-83416000D01*
G75*
G02*
X46801500Y-83266000I150000J0D01*
G01*
X48451500Y-83266000D01*
G75*
G02*
X48601500Y-83416000I0J-150000D01*
G01*
X48601500Y-83716000D01*
G75*
G02*
X48451500Y-83866000I-150000J0D01*
G01*
X46801500Y-83866000D01*
G75*
G02*
X46651500Y-83716000I0J150000D01*
G01*
G37*
G04 #@! TD.AperFunction*
G04 #@! TA.AperFunction,SMDPad,CuDef*
G36*
G01*
X75922000Y-83665200D02*
X75922000Y-83365200D01*
G75*
G02*
X76072000Y-83215200I150000J0D01*
G01*
X77722000Y-83215200D01*
G75*
G02*
X77872000Y-83365200I0J-150000D01*
G01*
X77872000Y-83665200D01*
G75*
G02*
X77722000Y-83815200I-150000J0D01*
G01*
X76072000Y-83815200D01*
G75*
G02*
X75922000Y-83665200I0J150000D01*
G01*
G37*
G04 #@! TD.AperFunction*
G04 #@! TA.AperFunction,SMDPad,CuDef*
G36*
G01*
X75922000Y-84935200D02*
X75922000Y-84635200D01*
G75*
G02*
X76072000Y-84485200I150000J0D01*
G01*
X77722000Y-84485200D01*
G75*
G02*
X77872000Y-84635200I0J-150000D01*
G01*
X77872000Y-84935200D01*
G75*
G02*
X77722000Y-85085200I-150000J0D01*
G01*
X76072000Y-85085200D01*
G75*
G02*
X75922000Y-84935200I0J150000D01*
G01*
G37*
G04 #@! TD.AperFunction*
G04 #@! TA.AperFunction,SMDPad,CuDef*
G36*
G01*
X75922000Y-86205200D02*
X75922000Y-85905200D01*
G75*
G02*
X76072000Y-85755200I150000J0D01*
G01*
X77722000Y-85755200D01*
G75*
G02*
X77872000Y-85905200I0J-150000D01*
G01*
X77872000Y-86205200D01*
G75*
G02*
X77722000Y-86355200I-150000J0D01*
G01*
X76072000Y-86355200D01*
G75*
G02*
X75922000Y-86205200I0J150000D01*
G01*
G37*
G04 #@! TD.AperFunction*
G04 #@! TA.AperFunction,SMDPad,CuDef*
G36*
G01*
X75922000Y-87475200D02*
X75922000Y-87175200D01*
G75*
G02*
X76072000Y-87025200I150000J0D01*
G01*
X77722000Y-87025200D01*
G75*
G02*
X77872000Y-87175200I0J-150000D01*
G01*
X77872000Y-87475200D01*
G75*
G02*
X77722000Y-87625200I-150000J0D01*
G01*
X76072000Y-87625200D01*
G75*
G02*
X75922000Y-87475200I0J150000D01*
G01*
G37*
G04 #@! TD.AperFunction*
G04 #@! TA.AperFunction,SMDPad,CuDef*
G36*
G01*
X75922000Y-88745200D02*
X75922000Y-88445200D01*
G75*
G02*
X76072000Y-88295200I150000J0D01*
G01*
X77722000Y-88295200D01*
G75*
G02*
X77872000Y-88445200I0J-150000D01*
G01*
X77872000Y-88745200D01*
G75*
G02*
X77722000Y-88895200I-150000J0D01*
G01*
X76072000Y-88895200D01*
G75*
G02*
X75922000Y-88745200I0J150000D01*
G01*
G37*
G04 #@! TD.AperFunction*
G04 #@! TA.AperFunction,SMDPad,CuDef*
G36*
G01*
X75922000Y-90015200D02*
X75922000Y-89715200D01*
G75*
G02*
X76072000Y-89565200I150000J0D01*
G01*
X77722000Y-89565200D01*
G75*
G02*
X77872000Y-89715200I0J-150000D01*
G01*
X77872000Y-90015200D01*
G75*
G02*
X77722000Y-90165200I-150000J0D01*
G01*
X76072000Y-90165200D01*
G75*
G02*
X75922000Y-90015200I0J150000D01*
G01*
G37*
G04 #@! TD.AperFunction*
G04 #@! TA.AperFunction,SMDPad,CuDef*
G36*
G01*
X75922000Y-91285200D02*
X75922000Y-90985200D01*
G75*
G02*
X76072000Y-90835200I150000J0D01*
G01*
X77722000Y-90835200D01*
G75*
G02*
X77872000Y-90985200I0J-150000D01*
G01*
X77872000Y-91285200D01*
G75*
G02*
X77722000Y-91435200I-150000J0D01*
G01*
X76072000Y-91435200D01*
G75*
G02*
X75922000Y-91285200I0J150000D01*
G01*
G37*
G04 #@! TD.AperFunction*
G04 #@! TA.AperFunction,SMDPad,CuDef*
G36*
G01*
X75922000Y-92555200D02*
X75922000Y-92255200D01*
G75*
G02*
X76072000Y-92105200I150000J0D01*
G01*
X77722000Y-92105200D01*
G75*
G02*
X77872000Y-92255200I0J-150000D01*
G01*
X77872000Y-92555200D01*
G75*
G02*
X77722000Y-92705200I-150000J0D01*
G01*
X76072000Y-92705200D01*
G75*
G02*
X75922000Y-92555200I0J150000D01*
G01*
G37*
G04 #@! TD.AperFunction*
G04 #@! TA.AperFunction,SMDPad,CuDef*
G36*
G01*
X70972000Y-92555200D02*
X70972000Y-92255200D01*
G75*
G02*
X71122000Y-92105200I150000J0D01*
G01*
X72772000Y-92105200D01*
G75*
G02*
X72922000Y-92255200I0J-150000D01*
G01*
X72922000Y-92555200D01*
G75*
G02*
X72772000Y-92705200I-150000J0D01*
G01*
X71122000Y-92705200D01*
G75*
G02*
X70972000Y-92555200I0J150000D01*
G01*
G37*
G04 #@! TD.AperFunction*
G04 #@! TA.AperFunction,SMDPad,CuDef*
G36*
G01*
X70972000Y-91285200D02*
X70972000Y-90985200D01*
G75*
G02*
X71122000Y-90835200I150000J0D01*
G01*
X72772000Y-90835200D01*
G75*
G02*
X72922000Y-90985200I0J-150000D01*
G01*
X72922000Y-91285200D01*
G75*
G02*
X72772000Y-91435200I-150000J0D01*
G01*
X71122000Y-91435200D01*
G75*
G02*
X70972000Y-91285200I0J150000D01*
G01*
G37*
G04 #@! TD.AperFunction*
G04 #@! TA.AperFunction,SMDPad,CuDef*
G36*
G01*
X70972000Y-90015200D02*
X70972000Y-89715200D01*
G75*
G02*
X71122000Y-89565200I150000J0D01*
G01*
X72772000Y-89565200D01*
G75*
G02*
X72922000Y-89715200I0J-150000D01*
G01*
X72922000Y-90015200D01*
G75*
G02*
X72772000Y-90165200I-150000J0D01*
G01*
X71122000Y-90165200D01*
G75*
G02*
X70972000Y-90015200I0J150000D01*
G01*
G37*
G04 #@! TD.AperFunction*
G04 #@! TA.AperFunction,SMDPad,CuDef*
G36*
G01*
X70972000Y-88745200D02*
X70972000Y-88445200D01*
G75*
G02*
X71122000Y-88295200I150000J0D01*
G01*
X72772000Y-88295200D01*
G75*
G02*
X72922000Y-88445200I0J-150000D01*
G01*
X72922000Y-88745200D01*
G75*
G02*
X72772000Y-88895200I-150000J0D01*
G01*
X71122000Y-88895200D01*
G75*
G02*
X70972000Y-88745200I0J150000D01*
G01*
G37*
G04 #@! TD.AperFunction*
G04 #@! TA.AperFunction,SMDPad,CuDef*
G36*
G01*
X70972000Y-87475200D02*
X70972000Y-87175200D01*
G75*
G02*
X71122000Y-87025200I150000J0D01*
G01*
X72772000Y-87025200D01*
G75*
G02*
X72922000Y-87175200I0J-150000D01*
G01*
X72922000Y-87475200D01*
G75*
G02*
X72772000Y-87625200I-150000J0D01*
G01*
X71122000Y-87625200D01*
G75*
G02*
X70972000Y-87475200I0J150000D01*
G01*
G37*
G04 #@! TD.AperFunction*
G04 #@! TA.AperFunction,SMDPad,CuDef*
G36*
G01*
X70972000Y-86205200D02*
X70972000Y-85905200D01*
G75*
G02*
X71122000Y-85755200I150000J0D01*
G01*
X72772000Y-85755200D01*
G75*
G02*
X72922000Y-85905200I0J-150000D01*
G01*
X72922000Y-86205200D01*
G75*
G02*
X72772000Y-86355200I-150000J0D01*
G01*
X71122000Y-86355200D01*
G75*
G02*
X70972000Y-86205200I0J150000D01*
G01*
G37*
G04 #@! TD.AperFunction*
G04 #@! TA.AperFunction,SMDPad,CuDef*
G36*
G01*
X70972000Y-84935200D02*
X70972000Y-84635200D01*
G75*
G02*
X71122000Y-84485200I150000J0D01*
G01*
X72772000Y-84485200D01*
G75*
G02*
X72922000Y-84635200I0J-150000D01*
G01*
X72922000Y-84935200D01*
G75*
G02*
X72772000Y-85085200I-150000J0D01*
G01*
X71122000Y-85085200D01*
G75*
G02*
X70972000Y-84935200I0J150000D01*
G01*
G37*
G04 #@! TD.AperFunction*
G04 #@! TA.AperFunction,SMDPad,CuDef*
G36*
G01*
X70972000Y-83665200D02*
X70972000Y-83365200D01*
G75*
G02*
X71122000Y-83215200I150000J0D01*
G01*
X72772000Y-83215200D01*
G75*
G02*
X72922000Y-83365200I0J-150000D01*
G01*
X72922000Y-83665200D01*
G75*
G02*
X72772000Y-83815200I-150000J0D01*
G01*
X71122000Y-83815200D01*
G75*
G02*
X70972000Y-83665200I0J150000D01*
G01*
G37*
G04 #@! TD.AperFunction*
G04 #@! TA.AperFunction,SMDPad,CuDef*
G36*
G01*
X106381600Y-83665200D02*
X106381600Y-83365200D01*
G75*
G02*
X106531600Y-83215200I150000J0D01*
G01*
X108181600Y-83215200D01*
G75*
G02*
X108331600Y-83365200I0J-150000D01*
G01*
X108331600Y-83665200D01*
G75*
G02*
X108181600Y-83815200I-150000J0D01*
G01*
X106531600Y-83815200D01*
G75*
G02*
X106381600Y-83665200I0J150000D01*
G01*
G37*
G04 #@! TD.AperFunction*
G04 #@! TA.AperFunction,SMDPad,CuDef*
G36*
G01*
X106381600Y-84935200D02*
X106381600Y-84635200D01*
G75*
G02*
X106531600Y-84485200I150000J0D01*
G01*
X108181600Y-84485200D01*
G75*
G02*
X108331600Y-84635200I0J-150000D01*
G01*
X108331600Y-84935200D01*
G75*
G02*
X108181600Y-85085200I-150000J0D01*
G01*
X106531600Y-85085200D01*
G75*
G02*
X106381600Y-84935200I0J150000D01*
G01*
G37*
G04 #@! TD.AperFunction*
G04 #@! TA.AperFunction,SMDPad,CuDef*
G36*
G01*
X106381600Y-86205200D02*
X106381600Y-85905200D01*
G75*
G02*
X106531600Y-85755200I150000J0D01*
G01*
X108181600Y-85755200D01*
G75*
G02*
X108331600Y-85905200I0J-150000D01*
G01*
X108331600Y-86205200D01*
G75*
G02*
X108181600Y-86355200I-150000J0D01*
G01*
X106531600Y-86355200D01*
G75*
G02*
X106381600Y-86205200I0J150000D01*
G01*
G37*
G04 #@! TD.AperFunction*
G04 #@! TA.AperFunction,SMDPad,CuDef*
G36*
G01*
X106381600Y-87475200D02*
X106381600Y-87175200D01*
G75*
G02*
X106531600Y-87025200I150000J0D01*
G01*
X108181600Y-87025200D01*
G75*
G02*
X108331600Y-87175200I0J-150000D01*
G01*
X108331600Y-87475200D01*
G75*
G02*
X108181600Y-87625200I-150000J0D01*
G01*
X106531600Y-87625200D01*
G75*
G02*
X106381600Y-87475200I0J150000D01*
G01*
G37*
G04 #@! TD.AperFunction*
G04 #@! TA.AperFunction,SMDPad,CuDef*
G36*
G01*
X106381600Y-88745200D02*
X106381600Y-88445200D01*
G75*
G02*
X106531600Y-88295200I150000J0D01*
G01*
X108181600Y-88295200D01*
G75*
G02*
X108331600Y-88445200I0J-150000D01*
G01*
X108331600Y-88745200D01*
G75*
G02*
X108181600Y-88895200I-150000J0D01*
G01*
X106531600Y-88895200D01*
G75*
G02*
X106381600Y-88745200I0J150000D01*
G01*
G37*
G04 #@! TD.AperFunction*
G04 #@! TA.AperFunction,SMDPad,CuDef*
G36*
G01*
X106381600Y-90015200D02*
X106381600Y-89715200D01*
G75*
G02*
X106531600Y-89565200I150000J0D01*
G01*
X108181600Y-89565200D01*
G75*
G02*
X108331600Y-89715200I0J-150000D01*
G01*
X108331600Y-90015200D01*
G75*
G02*
X108181600Y-90165200I-150000J0D01*
G01*
X106531600Y-90165200D01*
G75*
G02*
X106381600Y-90015200I0J150000D01*
G01*
G37*
G04 #@! TD.AperFunction*
G04 #@! TA.AperFunction,SMDPad,CuDef*
G36*
G01*
X106381600Y-91285200D02*
X106381600Y-90985200D01*
G75*
G02*
X106531600Y-90835200I150000J0D01*
G01*
X108181600Y-90835200D01*
G75*
G02*
X108331600Y-90985200I0J-150000D01*
G01*
X108331600Y-91285200D01*
G75*
G02*
X108181600Y-91435200I-150000J0D01*
G01*
X106531600Y-91435200D01*
G75*
G02*
X106381600Y-91285200I0J150000D01*
G01*
G37*
G04 #@! TD.AperFunction*
G04 #@! TA.AperFunction,SMDPad,CuDef*
G36*
G01*
X106381600Y-92555200D02*
X106381600Y-92255200D01*
G75*
G02*
X106531600Y-92105200I150000J0D01*
G01*
X108181600Y-92105200D01*
G75*
G02*
X108331600Y-92255200I0J-150000D01*
G01*
X108331600Y-92555200D01*
G75*
G02*
X108181600Y-92705200I-150000J0D01*
G01*
X106531600Y-92705200D01*
G75*
G02*
X106381600Y-92555200I0J150000D01*
G01*
G37*
G04 #@! TD.AperFunction*
G04 #@! TA.AperFunction,SMDPad,CuDef*
G36*
G01*
X101431600Y-92555200D02*
X101431600Y-92255200D01*
G75*
G02*
X101581600Y-92105200I150000J0D01*
G01*
X103231600Y-92105200D01*
G75*
G02*
X103381600Y-92255200I0J-150000D01*
G01*
X103381600Y-92555200D01*
G75*
G02*
X103231600Y-92705200I-150000J0D01*
G01*
X101581600Y-92705200D01*
G75*
G02*
X101431600Y-92555200I0J150000D01*
G01*
G37*
G04 #@! TD.AperFunction*
G04 #@! TA.AperFunction,SMDPad,CuDef*
G36*
G01*
X101431600Y-91285200D02*
X101431600Y-90985200D01*
G75*
G02*
X101581600Y-90835200I150000J0D01*
G01*
X103231600Y-90835200D01*
G75*
G02*
X103381600Y-90985200I0J-150000D01*
G01*
X103381600Y-91285200D01*
G75*
G02*
X103231600Y-91435200I-150000J0D01*
G01*
X101581600Y-91435200D01*
G75*
G02*
X101431600Y-91285200I0J150000D01*
G01*
G37*
G04 #@! TD.AperFunction*
G04 #@! TA.AperFunction,SMDPad,CuDef*
G36*
G01*
X101431600Y-90015200D02*
X101431600Y-89715200D01*
G75*
G02*
X101581600Y-89565200I150000J0D01*
G01*
X103231600Y-89565200D01*
G75*
G02*
X103381600Y-89715200I0J-150000D01*
G01*
X103381600Y-90015200D01*
G75*
G02*
X103231600Y-90165200I-150000J0D01*
G01*
X101581600Y-90165200D01*
G75*
G02*
X101431600Y-90015200I0J150000D01*
G01*
G37*
G04 #@! TD.AperFunction*
G04 #@! TA.AperFunction,SMDPad,CuDef*
G36*
G01*
X101431600Y-88745200D02*
X101431600Y-88445200D01*
G75*
G02*
X101581600Y-88295200I150000J0D01*
G01*
X103231600Y-88295200D01*
G75*
G02*
X103381600Y-88445200I0J-150000D01*
G01*
X103381600Y-88745200D01*
G75*
G02*
X103231600Y-88895200I-150000J0D01*
G01*
X101581600Y-88895200D01*
G75*
G02*
X101431600Y-88745200I0J150000D01*
G01*
G37*
G04 #@! TD.AperFunction*
G04 #@! TA.AperFunction,SMDPad,CuDef*
G36*
G01*
X101431600Y-87475200D02*
X101431600Y-87175200D01*
G75*
G02*
X101581600Y-87025200I150000J0D01*
G01*
X103231600Y-87025200D01*
G75*
G02*
X103381600Y-87175200I0J-150000D01*
G01*
X103381600Y-87475200D01*
G75*
G02*
X103231600Y-87625200I-150000J0D01*
G01*
X101581600Y-87625200D01*
G75*
G02*
X101431600Y-87475200I0J150000D01*
G01*
G37*
G04 #@! TD.AperFunction*
G04 #@! TA.AperFunction,SMDPad,CuDef*
G36*
G01*
X101431600Y-86205200D02*
X101431600Y-85905200D01*
G75*
G02*
X101581600Y-85755200I150000J0D01*
G01*
X103231600Y-85755200D01*
G75*
G02*
X103381600Y-85905200I0J-150000D01*
G01*
X103381600Y-86205200D01*
G75*
G02*
X103231600Y-86355200I-150000J0D01*
G01*
X101581600Y-86355200D01*
G75*
G02*
X101431600Y-86205200I0J150000D01*
G01*
G37*
G04 #@! TD.AperFunction*
G04 #@! TA.AperFunction,SMDPad,CuDef*
G36*
G01*
X101431600Y-84935200D02*
X101431600Y-84635200D01*
G75*
G02*
X101581600Y-84485200I150000J0D01*
G01*
X103231600Y-84485200D01*
G75*
G02*
X103381600Y-84635200I0J-150000D01*
G01*
X103381600Y-84935200D01*
G75*
G02*
X103231600Y-85085200I-150000J0D01*
G01*
X101581600Y-85085200D01*
G75*
G02*
X101431600Y-84935200I0J150000D01*
G01*
G37*
G04 #@! TD.AperFunction*
G04 #@! TA.AperFunction,SMDPad,CuDef*
G36*
G01*
X101431600Y-83665200D02*
X101431600Y-83365200D01*
G75*
G02*
X101581600Y-83215200I150000J0D01*
G01*
X103231600Y-83215200D01*
G75*
G02*
X103381600Y-83365200I0J-150000D01*
G01*
X103381600Y-83665200D01*
G75*
G02*
X103231600Y-83815200I-150000J0D01*
G01*
X101581600Y-83815200D01*
G75*
G02*
X101431600Y-83665200I0J150000D01*
G01*
G37*
G04 #@! TD.AperFunction*
D15*
X94640400Y-82194400D03*
X105714808Y-85039200D03*
X100634800Y-86105996D03*
X93544631Y-80094187D03*
X94437200Y-80094187D03*
X91729436Y-80602209D03*
X92506800Y-80602209D03*
X96977200Y-82194400D03*
X96250189Y-82193269D03*
X95453200Y-82194400D03*
X88239600Y-89966800D03*
X86512400Y-89966800D03*
X96674349Y-80096035D03*
X81127600Y-86614000D03*
X81407000Y-96774000D03*
X83667600Y-85953600D03*
X82296000Y-96266000D03*
X82905600Y-82042000D03*
X81432400Y-82042000D03*
X98241448Y-79346620D03*
X93037031Y-97457523D03*
X91276803Y-96531600D03*
X99060000Y-79298800D03*
X93379157Y-96816043D03*
X91290150Y-95804711D03*
X97485200Y-80060800D03*
X36626800Y-92456000D03*
X67310000Y-104241600D03*
X60960014Y-104241600D03*
X35509200Y-102362000D03*
X36830000Y-102362000D03*
X41249600Y-102362000D03*
X45669200Y-102362000D03*
X50139600Y-102362000D03*
X51460400Y-102362000D03*
X41971550Y-104861950D03*
X45720000Y-104241600D03*
X50698400Y-104241600D03*
X69748400Y-104140000D03*
X74879200Y-104140000D03*
X75539600Y-102362000D03*
X74218800Y-102362000D03*
X93167200Y-102362000D03*
X102057200Y-102362000D03*
X97637600Y-102362000D03*
X78536800Y-102412800D03*
X50088800Y-92506800D03*
X59639200Y-97129600D03*
X69799200Y-102362000D03*
X56184800Y-86868000D03*
X69410290Y-85648802D03*
X86360000Y-87782400D03*
X87579200Y-84226400D03*
X93776800Y-87833200D03*
X71882000Y-95605600D03*
X102412800Y-97704277D03*
X91135200Y-87832700D03*
X80400598Y-86969600D03*
X96672404Y-84429600D03*
X105816400Y-86156798D03*
D16*
X119380000Y-124460000D03*
D15*
X86614014Y-102362000D03*
X94107012Y-106426000D03*
X80391000Y-102362000D03*
X80264000Y-104267000D03*
X59740834Y-93803239D03*
X100330000Y-94615000D03*
X122301000Y-110744000D03*
X112776000Y-110617000D03*
X117348000Y-82423000D03*
X113919000Y-86360000D03*
X115794657Y-95406343D03*
X81584800Y-112471200D03*
X81798976Y-120975918D03*
X81127600Y-121564400D03*
X89020952Y-110648648D03*
X91405253Y-110035053D03*
X92132264Y-110036183D03*
X90007937Y-110332355D03*
X90079947Y-112294378D03*
X90161829Y-111313366D03*
X90938410Y-111860597D03*
X90932000Y-120007013D03*
X96570800Y-118567200D03*
X94945200Y-111506000D03*
X88639573Y-120707106D03*
X97536000Y-118567200D03*
X95853882Y-111279580D03*
X86441779Y-119950058D03*
X96316800Y-112301310D03*
X90077157Y-118812443D03*
X91084400Y-112895090D03*
X88375370Y-112925133D03*
X88307890Y-118854510D03*
X97502679Y-112301310D03*
X98856800Y-113487200D03*
X98856800Y-119176800D03*
X98856800Y-120345200D03*
X90158277Y-120413446D03*
X88255973Y-120089532D03*
X83058000Y-89814400D03*
X114935000Y-76454000D03*
X108669604Y-87951969D03*
X118617988Y-77401698D03*
X49377600Y-89916000D03*
X54457600Y-89916000D03*
X63195200Y-89916000D03*
X41724279Y-89916000D03*
X108966000Y-89865200D03*
X75438000Y-89916002D03*
X93776800Y-82448400D03*
X109016800Y-80721200D03*
X84937600Y-84480400D03*
X85445600Y-82143600D03*
X84785200Y-90492279D03*
X111760006Y-83693000D03*
X128219200Y-95656400D03*
X54762400Y-82346800D03*
X54508400Y-86106000D03*
X51308000Y-83515200D03*
X38825300Y-83653500D03*
X60198000Y-103225600D03*
X59029600Y-103225600D03*
X36169600Y-103225600D03*
X34950400Y-103225600D03*
X50850800Y-103225600D03*
X52070000Y-103225600D03*
X48260000Y-103225600D03*
X38709600Y-103225600D03*
X72339200Y-103225600D03*
X62382400Y-105968800D03*
X62788800Y-103225600D03*
X76047600Y-103225600D03*
X74828400Y-103225600D03*
X100134500Y-107078700D03*
X51028600Y-91109802D03*
X63491242Y-83320756D03*
X62839600Y-101092000D03*
X63195199Y-91186000D03*
X106019600Y-83515200D03*
X75641200Y-83515200D03*
X87630000Y-83413600D03*
X96621600Y-83464398D03*
X80568800Y-82753200D03*
D16*
X43180000Y-125487800D03*
D15*
X34798000Y-105918002D03*
D16*
X116890800Y-126441200D03*
X89204767Y-104343233D03*
D15*
X87941435Y-103253735D03*
X90678423Y-110051294D03*
X100126800Y-103089010D03*
X79298802Y-91135200D03*
X78689198Y-83515200D03*
X123571000Y-106807000D03*
X115824000Y-81661000D03*
X115824000Y-91440000D03*
X115824000Y-93345000D03*
X112141000Y-89916000D03*
X109296204Y-83515200D03*
X118999000Y-71628000D03*
X49428400Y-87376000D03*
X54508400Y-87376000D03*
X63246000Y-87376004D03*
X70459600Y-80873600D03*
X109372400Y-76149200D03*
X41724279Y-87376000D03*
X53797200Y-79197200D03*
X46075600Y-91186000D03*
X43010110Y-91186000D03*
X46177200Y-89255600D03*
X43383200Y-89255600D03*
X44704000Y-81330800D03*
X43018843Y-81237957D03*
X46126400Y-88087200D03*
X43738800Y-88087200D03*
X46278800Y-97536000D03*
X43281600Y-94488000D03*
X46075600Y-86868000D03*
X44094402Y-86868000D03*
X46926500Y-96939100D03*
X44061572Y-94476586D03*
X46126400Y-86106000D03*
X44754800Y-86004400D03*
X41960800Y-84785200D03*
X44788490Y-94488314D03*
X47488005Y-96312390D03*
X46193011Y-84836000D03*
X45077090Y-84785200D03*
X42349710Y-83972400D03*
X48768000Y-96570800D03*
X45567600Y-94488000D03*
X45593000Y-83591400D03*
X40335200Y-81991200D03*
X62382400Y-80939410D03*
X56388000Y-84277210D03*
X61214000Y-81635600D03*
X57150000Y-85293200D03*
X56692800Y-79197200D03*
X58166000Y-79197200D03*
X33477200Y-91186000D03*
X31597600Y-91135200D03*
X33477200Y-89916000D03*
X32037310Y-89916000D03*
X39306500Y-93891100D03*
X32291321Y-88544399D03*
X33526344Y-88595200D03*
X37490396Y-90576400D03*
X39941500Y-96405700D03*
X37388800Y-88595200D03*
X33832812Y-87376000D03*
X32291313Y-87372986D03*
X40538400Y-100838000D03*
X33104110Y-100838000D03*
X33426388Y-86106000D03*
X32799343Y-82499200D03*
X41846500Y-101434900D03*
X32613600Y-101447604D03*
X93801700Y-83387700D03*
X84378800Y-82753200D03*
X100330000Y-80162400D03*
X107442000Y-80162400D03*
X121412000Y-80391000D03*
X100634800Y-86918800D03*
X105918000Y-89281000D03*
X48056800Y-111658400D03*
X37401500Y-110782100D03*
X36880800Y-112166400D03*
X39301229Y-112228616D03*
X46478740Y-118766790D03*
X39928800Y-111810800D03*
X43942000Y-119278400D03*
X40629225Y-112238796D03*
X41960798Y-119176800D03*
X37795200Y-112166400D03*
X44653200Y-123444001D03*
X42844639Y-110714136D03*
X55026194Y-111136895D03*
X52373190Y-120667457D03*
X43250560Y-110110999D03*
X54559198Y-110134400D03*
X51511421Y-120667457D03*
X37185600Y-118821200D03*
X43738800Y-120007090D03*
X45019495Y-118787890D03*
X48266217Y-118991046D03*
X72440800Y-110617000D03*
X68529200Y-110439200D03*
X78249490Y-121107200D03*
X76301600Y-121107200D03*
X77571600Y-115722400D03*
X70205600Y-121716800D03*
X72288400Y-111963208D03*
X69037200Y-121666000D03*
X79121000Y-110363000D03*
X81661000Y-107526100D03*
X81661000Y-103797098D03*
X81788000Y-101635000D03*
X114300000Y-101662866D03*
X114300000Y-104521000D03*
X114300000Y-107950000D03*
X71736943Y-111073657D03*
X67861076Y-121275411D03*
X66540905Y-121275411D03*
X74828400Y-111048800D03*
X74828400Y-120276932D03*
X49377599Y-88595199D03*
X54457600Y-88646000D03*
X63195200Y-88595200D03*
X41724279Y-88646000D03*
X75488800Y-88595200D03*
X83058000Y-91846400D03*
X109114402Y-88660763D03*
X67614800Y-79197200D03*
X67441159Y-100889084D03*
X67324557Y-95737312D03*
X61214000Y-118110000D03*
X58674000Y-120650000D03*
X45466000Y-121158000D03*
X52070000Y-125476000D03*
X84074000Y-104013000D03*
X84074012Y-108839000D03*
X84074000Y-100711000D03*
X107696000Y-100838000D03*
X68732400Y-79197200D03*
X66714158Y-100884994D03*
X67816708Y-95202211D03*
X34861500Y-107048300D03*
X51968400Y-107035600D03*
X58928000Y-107035600D03*
X76098400Y-107035600D03*
X127506417Y-103887582D03*
X102108000Y-103251000D03*
X107061000Y-103124000D03*
X126949200Y-85699600D03*
X69748400Y-79197200D03*
X65938402Y-100939600D03*
X68329916Y-94687270D03*
X62534800Y-110591600D03*
X62484000Y-120530943D03*
X103886000Y-100711000D03*
X105537000Y-107061000D03*
X105537000Y-104648000D03*
X86896299Y-100855490D03*
X66497200Y-92456000D03*
X78587600Y-94183200D03*
X83261203Y-94183203D03*
X109202510Y-86055200D03*
X78638400Y-93268800D03*
X78468590Y-86055200D03*
X84181346Y-92569374D03*
X108966000Y-91330490D03*
X49326802Y-91948000D03*
X41775079Y-91795600D03*
X41452800Y-93726000D03*
X49174400Y-93726000D03*
X60131323Y-94996000D03*
X62806290Y-94995991D03*
X59016482Y-93741107D03*
X50897657Y-93569657D03*
X94792800Y-88849200D03*
X96570800Y-87223600D03*
X63500000Y-110947200D03*
X79451200Y-121970800D03*
X63500000Y-120530943D03*
X79349600Y-120276932D03*
X102616000Y-107068900D03*
X86995000Y-104140000D03*
X88011004Y-105156000D03*
X104427301Y-104614697D03*
X107458534Y-108060466D03*
X105410004Y-108077000D03*
X102742983Y-100578470D03*
X88137996Y-100710996D03*
X69088000Y-106299000D03*
X84962997Y-106298997D03*
X86741000Y-106806986D03*
X89154000Y-106299000D03*
X79470389Y-106414736D03*
X103043523Y-105935499D03*
X106299000Y-103360500D03*
X111125000Y-94869000D03*
X114034147Y-94869000D03*
X120540490Y-108047664D03*
X121123013Y-103378000D03*
X121122614Y-100178946D03*
X120142000Y-106426000D03*
X120396000Y-103378000D03*
X120396000Y-100203000D03*
X112395000Y-123825000D03*
X104267000Y-110490000D03*
X108331000Y-107421500D03*
X108331000Y-104521000D03*
X109093000Y-100076002D03*
X114524657Y-94136343D03*
X116713000Y-109982000D03*
X116713000Y-107442000D03*
X111125000Y-106807000D03*
X111125000Y-109347000D03*
X121666000Y-99077500D03*
X120650000Y-109982000D03*
X121850026Y-103378000D03*
X121849051Y-100207842D03*
X89408000Y-122428000D03*
X89408000Y-125730000D03*
X119507000Y-99077500D03*
X119507000Y-101600000D03*
X117602000Y-104648000D03*
X117221000Y-111506000D03*
X119888000Y-83820000D03*
X117221000Y-84328000D03*
X119858664Y-83028664D03*
X118745000Y-80772000D03*
X113411000Y-90551000D03*
X110853500Y-87122000D03*
X117544974Y-71628000D03*
X118271987Y-71628000D03*
X119507000Y-93472000D03*
X116586000Y-95377000D03*
X110617000Y-92710000D03*
X109491490Y-86995000D03*
X118443190Y-75194900D03*
X119888001Y-88900000D03*
X119761000Y-92202000D03*
X112903000Y-88104700D03*
X112903000Y-89933500D03*
X119507000Y-85090000D03*
X123680500Y-85344000D03*
D17*
X965200Y-14020800D02*
X258368800Y-14020800D01*
X103987589Y-81178389D02*
X98269182Y-81178389D01*
X95892924Y-80941876D02*
X94640400Y-82194400D01*
X98032670Y-80941876D02*
X95892924Y-80941876D01*
X107356600Y-84785200D02*
X106381600Y-84785200D01*
X98269182Y-81178389D02*
X98032670Y-80941876D01*
X103987589Y-82391189D02*
X103987589Y-81178389D01*
X106381600Y-84785200D02*
X103987589Y-82391189D01*
X99364300Y-86562700D02*
X100178096Y-86562700D01*
X100178096Y-86562700D02*
X100634800Y-86105996D01*
X100177596Y-86563200D02*
X100634800Y-86105996D01*
X96661525Y-86563200D02*
X100177596Y-86563200D01*
X94640400Y-84542075D02*
X96661525Y-86563200D01*
X94640400Y-82194400D02*
X94640400Y-84542075D01*
X104034786Y-94487989D02*
X103399786Y-94487989D01*
X105155989Y-85672728D02*
X105155989Y-93366786D01*
X105155989Y-93366786D02*
X104034786Y-94487989D01*
X106043517Y-84785200D02*
X105155989Y-85672728D01*
X101404500Y-96483275D02*
X101404500Y-99218750D01*
X107356600Y-84785200D02*
X106043517Y-84785200D01*
X103399786Y-94487989D02*
X101404500Y-96483275D01*
X99364810Y-94132390D02*
X95689500Y-97807700D01*
X102406600Y-91135200D02*
X100279200Y-91135200D01*
X99364800Y-94132390D02*
X99364810Y-94132390D01*
X99364800Y-92049600D02*
X99364800Y-94132390D01*
X95689500Y-97807700D02*
X95689500Y-99218750D01*
X100279200Y-91135200D02*
X99364800Y-92049600D01*
X93359402Y-86562700D02*
X92646500Y-86562700D01*
X97931902Y-91135200D02*
X93359402Y-86562700D01*
X102406600Y-91135200D02*
X97931902Y-91135200D01*
X93308132Y-79857688D02*
X93544631Y-80094187D01*
X91719500Y-86562700D02*
X90779633Y-85622833D01*
X90779567Y-83301092D02*
X90779567Y-80448864D01*
X90779633Y-83301158D02*
X90779567Y-83301092D01*
X90779567Y-80448864D02*
X91370743Y-79857688D01*
X91370743Y-79857688D02*
X93308132Y-79857688D01*
X92646500Y-86562700D02*
X91719500Y-86562700D01*
X90779633Y-85622833D02*
X90779633Y-83301158D01*
X102406600Y-89865200D02*
X102106600Y-90165200D01*
X93359402Y-85927700D02*
X92646500Y-85927700D01*
X102106600Y-90165200D02*
X97596900Y-90165200D01*
X97596900Y-90165200D02*
X93359402Y-85927700D01*
X91475957Y-80111699D02*
X92836199Y-80111699D01*
X93309189Y-80584689D02*
X93946698Y-80584689D01*
X91033644Y-85241844D02*
X91033644Y-80554012D01*
X93946698Y-80584689D02*
X94437200Y-80094187D01*
X91719500Y-85927700D02*
X91033644Y-85241844D01*
X91033644Y-80554012D02*
X91475957Y-80111699D01*
X92836199Y-80111699D02*
X93309189Y-80584689D01*
X92646500Y-85927700D02*
X91719500Y-85927700D01*
X96324500Y-98069400D02*
X96324500Y-99218750D01*
X102768502Y-92963923D02*
X100228425Y-95504000D01*
X100228425Y-95504000D02*
X98889900Y-95504000D01*
X103631923Y-90115523D02*
X103631923Y-92735503D01*
X98889900Y-95504000D02*
X96324500Y-98069400D01*
X103381600Y-89865200D02*
X103631923Y-90115523D01*
X102406600Y-89865200D02*
X103381600Y-89865200D01*
X103631923Y-92735503D02*
X103403503Y-92963923D01*
X103403503Y-92963923D02*
X102768502Y-92963923D01*
X100282824Y-88595200D02*
X99266814Y-89611211D01*
X97402136Y-89611211D02*
X93637001Y-85846076D01*
X93637001Y-85846076D02*
X93637001Y-85617662D01*
X91287655Y-84860855D02*
X91287655Y-81043990D01*
X91287655Y-81043990D02*
X91729436Y-80602209D01*
X102406600Y-88595200D02*
X100282824Y-88595200D01*
X93312039Y-85292700D02*
X91719500Y-85292700D01*
X99266814Y-89611211D02*
X97402136Y-89611211D01*
X93637001Y-85617662D02*
X93312039Y-85292700D01*
X91719500Y-85292700D02*
X91287655Y-84860855D01*
X96959500Y-98069400D02*
X96959500Y-99218750D01*
X103885934Y-89099534D02*
X103885934Y-92840716D01*
X99270889Y-95758011D02*
X96959500Y-98069400D01*
X102406600Y-88595200D02*
X103381600Y-88595200D01*
X102873716Y-93217934D02*
X100333639Y-95758011D01*
X103508716Y-93217934D02*
X102873716Y-93217934D01*
X103885934Y-92840716D02*
X103508716Y-93217934D01*
X100333639Y-95758011D02*
X99270889Y-95758011D01*
X103381600Y-88595200D02*
X103885934Y-89099534D01*
X93891012Y-85189310D02*
X93359402Y-84657700D01*
X93359402Y-84657700D02*
X92659700Y-84657700D01*
X91541666Y-84479866D02*
X91541666Y-81567343D01*
X101956750Y-87775050D02*
X100743750Y-87775050D01*
X91719500Y-84657700D02*
X91541666Y-84479866D01*
X92646500Y-84670900D02*
X92646500Y-84657700D01*
X91541666Y-81567343D02*
X92506800Y-80602209D01*
X92659700Y-84657700D02*
X92646500Y-84670900D01*
X100743750Y-87775050D02*
X99161600Y-89357200D01*
X93891012Y-85740862D02*
X93891012Y-85189310D01*
X102406600Y-87325200D02*
X101956750Y-87775050D01*
X99161600Y-89357200D02*
X97507350Y-89357200D01*
X97507350Y-89357200D02*
X93891012Y-85740862D01*
X92646500Y-84657700D02*
X91719500Y-84657700D01*
X100329352Y-96121523D02*
X100177377Y-96121523D01*
X102978930Y-93471945D02*
X100329352Y-96121523D01*
X103613930Y-93471945D02*
X102978930Y-93471945D01*
X102406600Y-87325200D02*
X103381600Y-87325200D01*
X104139945Y-88083545D02*
X104139945Y-92945930D01*
X104139945Y-92945930D02*
X103613930Y-93471945D01*
X100177377Y-96121523D02*
X98229500Y-98069400D01*
X103381600Y-87325200D02*
X104139945Y-88083545D01*
X98229500Y-98069400D02*
X98229500Y-99218750D01*
X102406600Y-86055200D02*
X101342376Y-86055200D01*
X95758000Y-83413600D02*
X96977200Y-82194400D01*
X95758000Y-84582000D02*
X95758000Y-83413600D01*
X96096105Y-84920105D02*
X95758000Y-84582000D01*
X99287100Y-84657700D02*
X97162903Y-84657700D01*
X96900498Y-84920105D02*
X96096105Y-84920105D01*
X97162903Y-84657700D02*
X96900498Y-84920105D01*
X99309600Y-84635200D02*
X99287100Y-84657700D01*
X101431600Y-86055200D02*
X100011600Y-84635200D01*
X100011600Y-84635200D02*
X99309600Y-84635200D01*
X102406600Y-86055200D02*
X101431600Y-86055200D01*
X98864500Y-98069400D02*
X98864500Y-99218750D01*
X103719144Y-93725956D02*
X103084144Y-93725956D01*
X103084144Y-93725956D02*
X98864500Y-97945600D01*
X102406600Y-86055200D02*
X103381600Y-86055200D01*
X103381600Y-86055200D02*
X104393956Y-87067556D01*
X104393956Y-93051144D02*
X103719144Y-93725956D01*
X98864500Y-97945600D02*
X98864500Y-98069400D01*
X104393956Y-87067556D02*
X104393956Y-93051144D01*
X96739560Y-81703898D02*
X96250189Y-82193269D01*
X102209600Y-84785200D02*
X99128298Y-81703898D01*
X99128298Y-81703898D02*
X96739560Y-81703898D01*
X102406600Y-84785200D02*
X102209600Y-84785200D01*
X95224590Y-83218868D02*
X96250189Y-82193269D01*
X95224590Y-84407815D02*
X95224590Y-83218868D01*
X96101975Y-85285200D02*
X95224590Y-84407815D01*
X99309600Y-85285200D02*
X96101975Y-85285200D01*
X102406600Y-84785200D02*
X103381600Y-84785200D01*
X103381600Y-84785200D02*
X104647967Y-86051567D01*
X103824358Y-93979967D02*
X103189358Y-93979967D01*
X104647967Y-86051567D02*
X104647967Y-93156358D01*
X103189358Y-93979967D02*
X99499500Y-97669825D01*
X99499500Y-97669825D02*
X99499500Y-99218750D01*
X104647967Y-93156358D02*
X103824358Y-93979967D01*
X100341287Y-81449887D02*
X96197713Y-81449887D01*
X95753199Y-81894401D02*
X95453200Y-82194400D01*
X102406600Y-83515200D02*
X100341287Y-81449887D01*
X96197713Y-81449887D02*
X95753199Y-81894401D01*
X94970580Y-82677020D02*
X95453200Y-82194400D01*
X94970580Y-84513030D02*
X94970580Y-82677020D01*
X96392750Y-85935200D02*
X94970580Y-84513030D01*
X99309600Y-85935200D02*
X96392750Y-85935200D01*
X103929572Y-94233978D02*
X103294572Y-94233978D01*
X100769500Y-96759050D02*
X100769500Y-99218750D01*
X102406600Y-83515200D02*
X103381600Y-83515200D01*
X104901978Y-85035578D02*
X104901978Y-93261572D01*
X103294572Y-94233978D02*
X100769500Y-96759050D01*
X104901978Y-93261572D02*
X103929572Y-94233978D01*
X103381600Y-83515200D02*
X104901978Y-85035578D01*
X88239600Y-88228201D02*
X88239600Y-89966800D01*
X88011099Y-88228201D02*
X88239600Y-88228201D01*
X87972999Y-86626601D02*
X87972999Y-88190101D01*
X87972999Y-88190101D02*
X88011099Y-88228201D01*
X88036900Y-86562700D02*
X87972999Y-86626601D01*
X88963500Y-86562700D02*
X88036900Y-86562700D01*
X95054500Y-97797700D02*
X95054500Y-99218750D01*
X88239600Y-90982800D02*
X95054500Y-97797700D01*
X88239600Y-89966800D02*
X88239600Y-90982800D01*
X94672641Y-79603686D02*
X95164990Y-80096035D01*
X89890500Y-86562700D02*
X90525622Y-85927578D01*
X90525556Y-80343650D02*
X91265520Y-79603686D01*
X91265520Y-79603686D02*
X94672641Y-79603686D01*
X88963500Y-86562700D02*
X89890500Y-86562700D01*
X90525622Y-83406372D02*
X90525556Y-83406306D01*
X90525556Y-83406306D02*
X90525556Y-80343650D01*
X95164990Y-80096035D02*
X96674349Y-80096035D01*
X90525622Y-85927578D02*
X90525622Y-83406372D01*
X77197000Y-84485200D02*
X79608400Y-84485200D01*
X82299615Y-88561899D02*
X82779029Y-89041313D01*
X76897000Y-84785200D02*
X77197000Y-84485200D01*
X79908400Y-84785200D02*
X79908400Y-87172800D01*
X81297499Y-88561899D02*
X82299615Y-88561899D01*
X82779029Y-89041313D02*
X85586913Y-89041313D01*
X79908400Y-87172800D02*
X81297499Y-88561899D01*
X85586913Y-89041313D02*
X86212401Y-89666801D01*
X86212401Y-89666801D02*
X86512400Y-89966800D01*
X79608400Y-84485200D02*
X79908400Y-84785200D01*
X83654900Y-86562700D02*
X82727900Y-86562700D01*
X86207611Y-84936989D02*
X86207611Y-79955564D01*
X83654900Y-86562700D02*
X84581900Y-86562700D01*
X99379542Y-78892400D02*
X103579142Y-78892400D01*
X84581900Y-86562700D02*
X86207611Y-84936989D01*
X95314120Y-78808266D02*
X99295408Y-78808266D01*
X105282101Y-77189441D02*
X105282101Y-75190501D01*
X103579142Y-78892400D02*
X105282101Y-77189441D01*
X99295408Y-78808266D02*
X99379542Y-78892400D01*
X87612514Y-78550661D02*
X95056515Y-78550661D01*
X105282101Y-75190501D02*
X104241600Y-74150000D01*
X95056515Y-78550661D02*
X95314120Y-78808266D01*
X86207611Y-79955564D02*
X87612514Y-78550661D01*
X83654900Y-86562700D02*
X83654894Y-86562700D01*
X81137400Y-86623800D02*
X81127600Y-86614000D01*
X82300400Y-86623800D02*
X81137400Y-86623800D01*
X72922000Y-91135200D02*
X73863134Y-92076334D01*
X89339500Y-99218750D02*
X89339500Y-98285298D01*
X73863134Y-92076334D02*
X73863134Y-95119284D01*
X71947000Y-91135200D02*
X72922000Y-91135200D01*
X73863134Y-95119284D02*
X75517850Y-96774000D01*
X75517850Y-96774000D02*
X81407000Y-96774000D01*
X89339500Y-98285298D02*
X88806090Y-97751888D01*
X88806090Y-97751888D02*
X82384888Y-97751888D01*
X82384888Y-97751888D02*
X81407000Y-96774000D01*
X83654900Y-85927700D02*
X82357958Y-85927700D01*
X85953600Y-79850350D02*
X87519626Y-78284324D01*
X100024680Y-78554255D02*
X100024712Y-78554287D01*
X103391601Y-77539999D02*
X104241600Y-76690000D01*
X85953600Y-84556000D02*
X85953600Y-79850350D01*
X83654900Y-85927700D02*
X84581900Y-85927700D01*
X95149403Y-78284324D02*
X95419334Y-78554255D01*
X84581900Y-85927700D02*
X85953600Y-84556000D01*
X102377312Y-78554288D02*
X103391601Y-77539999D01*
X95419334Y-78554255D02*
X100024680Y-78554255D01*
X100024712Y-78554287D02*
X102377312Y-78554288D01*
X87519626Y-78284324D02*
X95149403Y-78284324D01*
X83527877Y-97497877D02*
X82296000Y-96266000D01*
X89254260Y-97840833D02*
X88911304Y-97497877D01*
X75369075Y-96266000D02*
X82296000Y-96266000D01*
X88911304Y-97497877D02*
X83527877Y-97497877D01*
X89745933Y-97840833D02*
X89254260Y-97840833D01*
X74117145Y-91848789D02*
X74117145Y-95014070D01*
X74117145Y-95014070D02*
X75369075Y-96266000D01*
X89974500Y-98069400D02*
X89745933Y-97840833D01*
X89974500Y-99218750D02*
X89974500Y-98069400D01*
X72133556Y-89865200D02*
X74117145Y-91848789D01*
X71947000Y-89865200D02*
X72133556Y-89865200D01*
X70972000Y-88595200D02*
X71947000Y-88595200D01*
X69900800Y-87524000D02*
X70972000Y-88595200D01*
X69900800Y-83007200D02*
X69900800Y-87524000D01*
X70002400Y-82905600D02*
X69900800Y-83007200D01*
X70307200Y-82600800D02*
X70002400Y-82905600D01*
X82092800Y-81534000D02*
X71374000Y-81534000D01*
X71374000Y-81534000D02*
X70002400Y-82905600D01*
X82143600Y-81483200D02*
X82092800Y-81534000D01*
X82143600Y-81483200D02*
X82143600Y-80565175D01*
X82143600Y-80565175D02*
X83917975Y-78790800D01*
X95629762Y-78046233D02*
X99814316Y-78046233D01*
X100661099Y-77199450D02*
X100661099Y-75190501D01*
X86294701Y-78790800D02*
X87333851Y-77751650D01*
X83917975Y-78790800D02*
X86294701Y-78790800D01*
X99814316Y-78046233D02*
X100661099Y-77199450D01*
X100661099Y-75190501D02*
X101701600Y-74150000D01*
X87333851Y-77751650D02*
X95335179Y-77751650D01*
X95335179Y-77751650D02*
X95629762Y-78046233D01*
X81025989Y-83146084D02*
X82143600Y-82028473D01*
X81025989Y-84776389D02*
X81025989Y-83146084D01*
X82300400Y-85323800D02*
X81573400Y-85323800D01*
X81573400Y-85323800D02*
X81025989Y-84776389D01*
X82143600Y-82028473D02*
X82143600Y-81483200D01*
X91244500Y-98069400D02*
X91244500Y-99218750D01*
X90761922Y-97586822D02*
X91244500Y-98069400D01*
X86128257Y-97243866D02*
X89016518Y-97243866D01*
X84642391Y-95758000D02*
X86128257Y-97243866D01*
X74371156Y-94908856D02*
X75220300Y-95758000D01*
X74371156Y-91743575D02*
X74371156Y-94908856D01*
X72922000Y-88595200D02*
X73151967Y-88825167D01*
X71947000Y-88595200D02*
X72922000Y-88595200D01*
X73151967Y-88825167D02*
X73151967Y-90524387D01*
X89359474Y-97586822D02*
X90761922Y-97586822D01*
X73151967Y-90524387D02*
X74371156Y-91743575D01*
X89016518Y-97243866D02*
X89359474Y-97586822D01*
X75220300Y-95758000D02*
X84642391Y-95758000D01*
X70154800Y-86508000D02*
X70972000Y-87325200D01*
X70972000Y-87325200D02*
X71947000Y-87325200D01*
X70154800Y-83159600D02*
X70154800Y-86508000D01*
X71272400Y-82042000D02*
X70154800Y-83159600D01*
X81432400Y-82042000D02*
X71272400Y-82042000D01*
X87426739Y-78017987D02*
X83402726Y-82042000D01*
X100091356Y-78300244D02*
X95524548Y-78300244D01*
X83402726Y-82042000D02*
X83329864Y-82042000D01*
X83329864Y-82042000D02*
X82905600Y-82042000D01*
X101701600Y-76690000D02*
X100091356Y-78300244D01*
X95524548Y-78300244D02*
X95242291Y-78017987D01*
X95242291Y-78017987D02*
X87426739Y-78017987D01*
X81807498Y-84673800D02*
X82300400Y-84673800D01*
X81280000Y-83251298D02*
X81280000Y-84146302D01*
X81280000Y-84146302D02*
X81807498Y-84673800D01*
X81778098Y-82753200D02*
X81280000Y-83251298D01*
X82905600Y-82499200D02*
X82651600Y-82753200D01*
X82651600Y-82753200D02*
X81778098Y-82753200D01*
X82905600Y-82042000D02*
X82905600Y-82499200D01*
X74625167Y-91638361D02*
X74625167Y-94803642D01*
X74625167Y-94803642D02*
X75325514Y-95503989D01*
X73405978Y-87809178D02*
X73405978Y-90419173D01*
X71947000Y-87325200D02*
X72922000Y-87325200D01*
X84747605Y-95503989D02*
X86233471Y-96989855D01*
X89121732Y-96989855D02*
X89464688Y-97332811D01*
X89464688Y-97332811D02*
X91142911Y-97332811D01*
X91142911Y-97332811D02*
X91879500Y-98069400D01*
X91879500Y-98069400D02*
X91879500Y-99218750D01*
X72922000Y-87325200D02*
X73405978Y-87809178D01*
X75325514Y-95503989D02*
X84747605Y-95503989D01*
X73405978Y-90419173D02*
X74625167Y-91638361D01*
X86233471Y-96989855D02*
X89121732Y-96989855D01*
X88963500Y-84657700D02*
X88162900Y-84657700D01*
X92514500Y-98069400D02*
X92514500Y-99218750D01*
X92514500Y-96335374D02*
X92514500Y-98069400D01*
X87210966Y-91031840D02*
X92514500Y-96335374D01*
X87210966Y-85609634D02*
X87210966Y-91031840D01*
X88162900Y-84657700D02*
X87210966Y-85609634D01*
X97957105Y-79062277D02*
X98241448Y-79346620D01*
X86461622Y-80060778D02*
X87705402Y-78816998D01*
X88162900Y-84657700D02*
X88035400Y-84785200D01*
X95208906Y-79062277D02*
X97957105Y-79062277D01*
X94963627Y-78816998D02*
X95208906Y-79062277D01*
X88035400Y-84785200D02*
X86480394Y-84785200D01*
X86480394Y-84785200D02*
X86461622Y-84766428D01*
X86461622Y-84766428D02*
X86461622Y-80060778D01*
X87705402Y-78816998D02*
X94963627Y-78816998D01*
X89226946Y-96735844D02*
X89519102Y-97028000D01*
X75430728Y-95249978D02*
X84852819Y-95249978D01*
X73152000Y-87195975D02*
X73659989Y-87703964D01*
X74879178Y-91533147D02*
X74879178Y-94698428D01*
X73659989Y-87703964D02*
X73659989Y-90313959D01*
X73659989Y-90313959D02*
X74879178Y-91533147D01*
X72922000Y-86055200D02*
X73152000Y-86285200D01*
X74879178Y-94698428D02*
X75430728Y-95249978D01*
X84852819Y-95249978D02*
X86338685Y-96735844D01*
X86338685Y-96735844D02*
X89226946Y-96735844D01*
X89519102Y-97028000D02*
X91473100Y-97028000D01*
X91473100Y-97028000D02*
X92514500Y-98069400D01*
X71947000Y-86055200D02*
X72922000Y-86055200D01*
X73152000Y-86285200D02*
X73152000Y-87195975D01*
X91338400Y-96418400D02*
X91338400Y-96418400D01*
X93784500Y-99218750D02*
X93784500Y-98204992D01*
X93784500Y-98204992D02*
X93037031Y-97457523D01*
X92769949Y-97190441D02*
X93037031Y-97457523D01*
X92769949Y-96231598D02*
X92769949Y-97190441D01*
X87464977Y-85864223D02*
X87464977Y-90926626D01*
X88963500Y-85292700D02*
X88036500Y-85292700D01*
X88036500Y-85292700D02*
X87464977Y-85864223D01*
X87464977Y-90926626D02*
X92769949Y-96231598D01*
X90017600Y-83616800D02*
X90017534Y-83616734D01*
X88963500Y-85292700D02*
X89890500Y-85292700D01*
X90017534Y-80133222D02*
X91055092Y-79095664D01*
X91055092Y-79095664D02*
X94883069Y-79095664D01*
X89890500Y-85292700D02*
X90017600Y-85165600D01*
X98331302Y-80027498D02*
X99060000Y-79298800D01*
X98228640Y-80027498D02*
X98331302Y-80027498D01*
X97517430Y-79316288D02*
X98228640Y-80027498D01*
X95103692Y-79316288D02*
X97517430Y-79316288D01*
X90017534Y-83616734D02*
X90017534Y-80133222D01*
X90017600Y-85165600D02*
X90017600Y-83616800D01*
X94883069Y-79095664D02*
X95103692Y-79316288D01*
X73914000Y-85777200D02*
X73914000Y-90208744D01*
X90976804Y-96231601D02*
X91276803Y-96531600D01*
X72922000Y-84785200D02*
X73914000Y-85777200D01*
X75133189Y-94593214D02*
X75535942Y-94995967D01*
X71947000Y-84785200D02*
X72922000Y-84785200D01*
X73914000Y-90208744D02*
X75133189Y-91427933D01*
X89741170Y-94995967D02*
X90976804Y-96231601D01*
X75535942Y-94995967D02*
X89741170Y-94995967D01*
X75133189Y-91427933D02*
X75133189Y-94593214D01*
X94419500Y-99218750D02*
X94419500Y-97856386D01*
X94419500Y-97856386D02*
X93379157Y-96816043D01*
X93379157Y-96481581D02*
X93379157Y-96816043D01*
X88963500Y-85927700D02*
X88036500Y-85927700D01*
X87718988Y-86245212D02*
X87718988Y-90821412D01*
X88036500Y-85927700D02*
X87718988Y-86245212D01*
X87718988Y-90821412D02*
X93379157Y-96481581D01*
X89890500Y-85927700D02*
X90271611Y-85546589D01*
X90271545Y-83511520D02*
X90271545Y-80238436D01*
X90271545Y-80238436D02*
X91160306Y-79349675D01*
X91160306Y-79349675D02*
X94777855Y-79349675D01*
X96994699Y-79570299D02*
X97485200Y-80060800D01*
X90271611Y-83511586D02*
X90271545Y-83511520D01*
X94777855Y-79349675D02*
X94998478Y-79570299D01*
X90271611Y-85546589D02*
X90271611Y-83511586D01*
X88963500Y-85927700D02*
X89890500Y-85927700D01*
X94998478Y-79570299D02*
X96994699Y-79570299D01*
X90227395Y-94741956D02*
X90990151Y-95504712D01*
X74269600Y-90205120D02*
X75387200Y-91322719D01*
X75641156Y-94741956D02*
X90227395Y-94741956D01*
X75387200Y-94488000D02*
X75641156Y-94741956D01*
X71947000Y-83515200D02*
X72922000Y-83515200D01*
X72922000Y-83515200D02*
X74269600Y-84862800D01*
X74269600Y-84862800D02*
X74269600Y-90205120D01*
X75387200Y-91322719D02*
X75387200Y-94488000D01*
X90990151Y-95504712D02*
X91290150Y-95804711D01*
D18*
X35244000Y-92456000D02*
X36626800Y-92456000D01*
X36766500Y-92595700D02*
X36626800Y-92456000D01*
X36766500Y-99218750D02*
X36766500Y-92595700D01*
X36714499Y-97994399D02*
X36766500Y-98046400D01*
X35766699Y-97994399D02*
X36714499Y-97994399D01*
X35496500Y-98264598D02*
X35766699Y-97994399D01*
X36766500Y-98046400D02*
X36766500Y-99218750D01*
X35496500Y-99218750D02*
X35496500Y-98264598D01*
D19*
X79756000Y-102362000D02*
X79756000Y-102362000D01*
D20*
X62331600Y-104241600D02*
X60909200Y-104241600D01*
X60909200Y-104241600D02*
X60960014Y-104241600D01*
D17*
X60960014Y-99278864D02*
X60899900Y-99218750D01*
X60960014Y-104241600D02*
X60960014Y-99278864D01*
D20*
X65532000Y-104241600D02*
X60909200Y-104241600D01*
X67310000Y-104241600D02*
X65532000Y-104241600D01*
D17*
X59537600Y-104241600D02*
X60960014Y-104241600D01*
X59537600Y-100460400D02*
X59537600Y-104241600D01*
X59629900Y-100368100D02*
X59537600Y-100460400D01*
X59629900Y-99218750D02*
X59629900Y-100368100D01*
X35509200Y-99231450D02*
X35496500Y-99218750D01*
X35509200Y-102362000D02*
X35509200Y-99231450D01*
X36830000Y-99282250D02*
X36766500Y-99218750D01*
X36830000Y-102362000D02*
X36830000Y-99282250D01*
X41249600Y-99256850D02*
X41211500Y-99218750D01*
X41249600Y-102362000D02*
X41249600Y-99256850D01*
X45669200Y-99231450D02*
X45656500Y-99218750D01*
X45669200Y-102362000D02*
X45669200Y-99231450D01*
X50139600Y-99256850D02*
X50101500Y-99218750D01*
X50139600Y-102362000D02*
X50139600Y-99256850D01*
X51460400Y-99307650D02*
X51371500Y-99218750D01*
X51460400Y-102362000D02*
X51460400Y-99307650D01*
X41211500Y-105622000D02*
X41211500Y-108553250D01*
X41971550Y-104861950D02*
X41211500Y-105622000D01*
X45720000Y-108489750D02*
X45656500Y-108553250D01*
X45720000Y-104241600D02*
X45720000Y-108489750D01*
X50698400Y-108515150D02*
X50736500Y-108553250D01*
X50698400Y-104241600D02*
X50698400Y-108515150D01*
X50736500Y-108553250D02*
X50101500Y-108553250D01*
X50736500Y-108553250D02*
X51371500Y-108553250D01*
X35509200Y-108540550D02*
X35496500Y-108553250D01*
X35509200Y-102362000D02*
X35509200Y-108540550D01*
X35496500Y-108553250D02*
X36766500Y-108553250D01*
X60960014Y-108493136D02*
X60899900Y-108553250D01*
X60960014Y-104241600D02*
X60960014Y-108493136D01*
X59629900Y-108553250D02*
X60899900Y-108553250D01*
X65344900Y-104428700D02*
X65532000Y-104241600D01*
X65344900Y-108553250D02*
X65344900Y-104428700D01*
X69789900Y-104181500D02*
X69748400Y-104140000D01*
X69789900Y-108553250D02*
X69789900Y-104181500D01*
X74869900Y-104149300D02*
X74879200Y-104140000D01*
X74869900Y-108553250D02*
X74869900Y-104149300D01*
X74234900Y-108553250D02*
X75504900Y-108553250D01*
X75539600Y-99253450D02*
X75504900Y-99218750D01*
X75539600Y-102362000D02*
X75539600Y-99253450D01*
X74234900Y-102345900D02*
X74218800Y-102362000D01*
X74234900Y-99218750D02*
X74234900Y-102345900D01*
X97594500Y-107403900D02*
X97594500Y-108553250D01*
X97310100Y-107119500D02*
X97594500Y-107403900D01*
X93149500Y-102344300D02*
X93167200Y-102362000D01*
X93149500Y-99218750D02*
X93149500Y-102344300D01*
X102039500Y-102344300D02*
X102057200Y-102362000D01*
X102039500Y-107403900D02*
X102039500Y-108553250D01*
X101214000Y-106578400D02*
X102039500Y-107403900D01*
X97851200Y-106578400D02*
X101214000Y-106578400D01*
X97310100Y-107119500D02*
X97851200Y-106578400D01*
X97594500Y-102318900D02*
X97637600Y-102362000D01*
X97594500Y-99218750D02*
X97594500Y-102318900D01*
X102039500Y-100566300D02*
X102057200Y-100584000D01*
X102039500Y-100566300D02*
X102039500Y-102344300D01*
X47626500Y-92456000D02*
X47926500Y-92756000D01*
X47926500Y-92756000D02*
X49839600Y-92756000D01*
X49839600Y-92756000D02*
X50088800Y-92506800D01*
X59629900Y-97138900D02*
X59639200Y-97129600D01*
X59629900Y-99218750D02*
X59629900Y-97138900D01*
X69789900Y-102352700D02*
X69799200Y-102362000D01*
X69789900Y-99218750D02*
X69789900Y-102352700D01*
X56184800Y-86868000D02*
X56235600Y-86868000D01*
X65344900Y-99218750D02*
X65143098Y-99420552D01*
X65143098Y-99420552D02*
X65143098Y-101225842D01*
X65344900Y-101427644D02*
X65344900Y-104054500D01*
X65143098Y-101225842D02*
X65344900Y-101427644D01*
X65344900Y-104054500D02*
X65532000Y-104241600D01*
X69410290Y-90843490D02*
X69410290Y-85648802D01*
X71947000Y-92405200D02*
X70972000Y-92405200D01*
X70972000Y-92405200D02*
X69410290Y-90843490D01*
X87782900Y-84022700D02*
X87579200Y-84226400D01*
X88963500Y-84022700D02*
X87782900Y-84022700D01*
X93776300Y-87832700D02*
X93776800Y-87833200D01*
X92646500Y-87832700D02*
X93776300Y-87832700D01*
X71947000Y-92405200D02*
X71947000Y-95540600D01*
X71947000Y-95540600D02*
X71882000Y-95605600D01*
X102039500Y-100566300D02*
X102039500Y-98077577D01*
X102039500Y-98077577D02*
X102412800Y-97704277D01*
X91135200Y-87832700D02*
X92646500Y-87832700D01*
X97116804Y-83985200D02*
X96672404Y-84429600D01*
X99309600Y-83985200D02*
X97116804Y-83985200D01*
X81354798Y-87923800D02*
X80400598Y-86969600D01*
X82300400Y-87923800D02*
X81354798Y-87923800D01*
X86218600Y-87923800D02*
X86360000Y-87782400D01*
X82300400Y-87923800D02*
X86218600Y-87923800D01*
X90576300Y-87273800D02*
X91135200Y-87832700D01*
X89200400Y-87273800D02*
X90576300Y-87273800D01*
X87434500Y-108553250D02*
X87434500Y-107619798D01*
X103309500Y-107411373D02*
X103309500Y-108553250D01*
X103327200Y-106578400D02*
X103309500Y-107411373D01*
X101214000Y-106578400D02*
X103327200Y-106578400D01*
D20*
X119380000Y-124460000D02*
X119380000Y-131368800D01*
D17*
X87434500Y-101541514D02*
X86614014Y-102362000D01*
X87434500Y-99218750D02*
X87434500Y-101541514D01*
X88704500Y-98069400D02*
X88704500Y-99218750D01*
X87498001Y-98005899D02*
X88640999Y-98005899D01*
X87434500Y-98069400D02*
X87498001Y-98005899D01*
X88640999Y-98005899D02*
X88704500Y-98069400D01*
X87434500Y-99218750D02*
X87434500Y-98069400D01*
X102944377Y-97704277D02*
X102412800Y-97704277D01*
X103309500Y-98069400D02*
X102944377Y-97704277D01*
X103309500Y-99218750D02*
X103309500Y-98069400D01*
X88704500Y-109702600D02*
X88704500Y-108553250D01*
X88298100Y-110109000D02*
X88704500Y-109702600D01*
X87840900Y-110109000D02*
X88298100Y-110109000D01*
X87434500Y-109702600D02*
X87840900Y-110109000D01*
X87434500Y-108553250D02*
X87434500Y-109702600D01*
X97114600Y-107315000D02*
X97310100Y-107119500D01*
X93218000Y-107315000D02*
X97114600Y-107315000D01*
X93149500Y-107383500D02*
X93218000Y-107315000D01*
X93149500Y-107383500D02*
X94107000Y-106426000D01*
X94107000Y-106426000D02*
X94107012Y-106426000D01*
X93149500Y-108553250D02*
X93149500Y-107383500D01*
X93081000Y-107315000D02*
X93149500Y-107383500D01*
X88704500Y-107315000D02*
X93081000Y-107315000D01*
X88704500Y-108553250D02*
X88704500Y-107315000D01*
D20*
X80340200Y-102412800D02*
X80391000Y-102362000D01*
X78536800Y-102412800D02*
X80340200Y-102412800D01*
X80264000Y-102489000D02*
X80264000Y-104267000D01*
X80391000Y-102362000D02*
X80264000Y-102489000D01*
D17*
X59640700Y-92456000D02*
X59640700Y-93703105D01*
X59640700Y-93703105D02*
X59740834Y-93803239D01*
X59639200Y-96469200D02*
X58166000Y-94996000D01*
X58166000Y-88849200D02*
X56184800Y-86868000D01*
X58166000Y-94996000D02*
X58166000Y-88849200D01*
X59639200Y-97129600D02*
X59639200Y-96469200D01*
X100330000Y-92837000D02*
X100330000Y-94615000D01*
X100330000Y-92710000D02*
X100330000Y-92837000D01*
X100634800Y-92405200D02*
X100330000Y-92710000D01*
X102406600Y-92405200D02*
X100634800Y-92405200D01*
X122219000Y-110662000D02*
X122301000Y-110744000D01*
X119184500Y-110662000D02*
X122219000Y-110662000D01*
X112731000Y-110662000D02*
X112776000Y-110617000D01*
X109913500Y-110662000D02*
X112731000Y-110662000D01*
X117374000Y-82449000D02*
X117348000Y-82423000D01*
X118559500Y-82449000D02*
X117374000Y-82449000D01*
X113908000Y-86349000D02*
X113919000Y-86360000D01*
X112834500Y-86349000D02*
X113908000Y-86349000D01*
X115779000Y-95422000D02*
X115794657Y-95406343D01*
X112834500Y-95422000D02*
X115779000Y-95422000D01*
X102412800Y-96469200D02*
X102412800Y-97704277D01*
X105410000Y-91695060D02*
X105808498Y-92093558D01*
X105808498Y-93073502D02*
X102412800Y-96469200D01*
X105808498Y-92093558D02*
X105808498Y-93073502D01*
X105410000Y-86563198D02*
X105410000Y-91695060D01*
X105816400Y-86156798D02*
X105410000Y-86563198D01*
X81584800Y-112471200D02*
X81584800Y-112471200D01*
X88539086Y-110503014D02*
X86570900Y-112471200D01*
X89339500Y-109613350D02*
X88539086Y-110413764D01*
X86570900Y-112471200D02*
X82009064Y-112471200D01*
X82009064Y-112471200D02*
X81584800Y-112471200D01*
X89339500Y-108553250D02*
X89339500Y-109613350D01*
X88539086Y-110413764D02*
X88539086Y-110503014D01*
X82098975Y-121275917D02*
X81798976Y-120975918D01*
X82149314Y-121326256D02*
X82098975Y-121275917D01*
X87108095Y-121359587D02*
X87074764Y-121326256D01*
X87363187Y-121359587D02*
X87108095Y-121359587D01*
X91005522Y-122428000D02*
X90497522Y-122936000D01*
X109042200Y-122428000D02*
X91005522Y-122428000D01*
X87074764Y-121326256D02*
X82149314Y-121326256D01*
X88939600Y-122936000D02*
X87363187Y-121359587D01*
X114427000Y-117043200D02*
X109042200Y-122428000D01*
X90497522Y-122936000D02*
X88939600Y-122936000D01*
X93472000Y-130302000D02*
X93980000Y-130810000D01*
X89999149Y-124714000D02*
X92202000Y-124714000D01*
X87340050Y-122054901D02*
X89999149Y-124714000D01*
X93472000Y-125984000D02*
X93472000Y-130302000D01*
X80990140Y-120975918D02*
X80637099Y-121328959D01*
X80892159Y-122054901D02*
X87340050Y-122054901D01*
X92202000Y-124714000D02*
X93472000Y-125984000D01*
X80637099Y-121799841D02*
X80892159Y-122054901D01*
X80637099Y-121328959D02*
X80637099Y-121799841D01*
X81798976Y-120975918D02*
X80990140Y-120975918D01*
X89154000Y-110693200D02*
X89154000Y-110693200D01*
X89974500Y-109636781D02*
X89020952Y-110590329D01*
X89974500Y-108553250D02*
X89974500Y-109636781D01*
X89020952Y-110590329D02*
X89020952Y-110648648D01*
X96520000Y-126746000D02*
X96520000Y-130810000D01*
X98552000Y-126746000D02*
X96520000Y-126746000D01*
X101981000Y-123317000D02*
X98552000Y-126746000D01*
X102438046Y-123317000D02*
X101981000Y-123317000D01*
X115620800Y-117500400D02*
X110185200Y-122936000D01*
X102870000Y-122936000D02*
X102489000Y-123317000D01*
X110185200Y-122936000D02*
X102870000Y-122936000D01*
X115620800Y-115697000D02*
X115620800Y-117500400D01*
X102489000Y-123317000D02*
X102438046Y-123317000D01*
X114427000Y-114503200D02*
X115620800Y-115697000D01*
X93831236Y-123190011D02*
X88834386Y-123190011D01*
X88834386Y-123190011D02*
X87257973Y-121613598D01*
X87002881Y-121613598D02*
X86969550Y-121580267D01*
X87257973Y-121613598D02*
X87002881Y-121613598D01*
X102438046Y-123317000D02*
X93958225Y-123317000D01*
X81567731Y-121580267D02*
X81551864Y-121564400D01*
X93958225Y-123317000D02*
X93831236Y-123190011D01*
X86969550Y-121580267D02*
X81567731Y-121580267D01*
X81551864Y-121564400D02*
X81127600Y-121564400D01*
X91244500Y-109874300D02*
X91405253Y-110035053D01*
X91244500Y-108553250D02*
X91244500Y-109874300D01*
X116117001Y-117893199D02*
X115587226Y-117893199D01*
X116967000Y-117043200D02*
X116117001Y-117893199D01*
X103060489Y-123190011D02*
X99060000Y-127190500D01*
X115587226Y-117893199D02*
X110290414Y-123190011D01*
X110290414Y-123190011D02*
X103060489Y-123190011D01*
X99060000Y-127190500D02*
X99060000Y-130810000D01*
X91879500Y-108553250D02*
X91879500Y-109783419D01*
X91879500Y-109783419D02*
X92132264Y-110036183D01*
X111818050Y-122021600D02*
X110395628Y-123444022D01*
X118007501Y-115543701D02*
X118007501Y-117653699D01*
X113639600Y-122021600D02*
X111818050Y-122021600D01*
X110395628Y-123444022D02*
X105346478Y-123444022D01*
X118007501Y-117653699D02*
X113639600Y-122021600D01*
X105346478Y-123444022D02*
X101600000Y-127190500D01*
X116967000Y-114503200D02*
X118007501Y-115543701D01*
X101600000Y-127190500D02*
X101600000Y-130810000D01*
X92502286Y-115797710D02*
X91321568Y-115797710D01*
X93747776Y-117043200D02*
X92502286Y-115797710D01*
X92622766Y-108661516D02*
X92622766Y-110363487D01*
X90079947Y-114556089D02*
X90079947Y-112294378D01*
X92514500Y-108553250D02*
X92622766Y-108661516D01*
X94107000Y-117043200D02*
X93747776Y-117043200D01*
X90565428Y-110572109D02*
X90502485Y-110509166D01*
X92622766Y-110363487D02*
X92414144Y-110572109D01*
X92414144Y-110572109D02*
X90565428Y-110572109D01*
X91321568Y-115797710D02*
X90079947Y-114556089D01*
X90502485Y-110509166D02*
X90184748Y-110509166D01*
X90184748Y-110509166D02*
X90007937Y-110332355D01*
X90161829Y-111313366D02*
X90161829Y-112212496D01*
X90161829Y-112212496D02*
X90079947Y-112294378D01*
X89027000Y-111662564D02*
X89866708Y-110822856D01*
X92520723Y-110966377D02*
X93784500Y-109702600D01*
X90456950Y-110822856D02*
X90600471Y-110966377D01*
X89027000Y-114503200D02*
X89027000Y-111662564D01*
X90600471Y-110966377D02*
X92520723Y-110966377D01*
X93784500Y-109702600D02*
X93784500Y-108553250D01*
X89866708Y-110822856D02*
X90456950Y-110822856D01*
X92261503Y-111860597D02*
X90938410Y-111860597D01*
X94419500Y-109702600D02*
X92261503Y-111860597D01*
X94419500Y-108553250D02*
X94419500Y-109702600D01*
X88072449Y-119345011D02*
X90269998Y-119345011D01*
X90269998Y-119345011D02*
X90932000Y-120007013D01*
X86487000Y-117759562D02*
X88072449Y-119345011D01*
X86487000Y-117043200D02*
X86487000Y-117759562D01*
X95054500Y-111404400D02*
X95054500Y-111404400D01*
X95054500Y-111396700D02*
X94945200Y-111506000D01*
X95054500Y-108553250D02*
X95054500Y-111396700D01*
X60142399Y-118972424D02*
X60600786Y-119430811D01*
X57531899Y-118001639D02*
X58502684Y-118972424D01*
X88147605Y-120707106D02*
X88639573Y-120707106D01*
X86616219Y-119430811D02*
X87528951Y-120343543D01*
X87528951Y-120343543D02*
X87784042Y-120343543D01*
X58502684Y-118972424D02*
X60142399Y-118972424D01*
X58572400Y-114503200D02*
X57531899Y-115543701D01*
X87784042Y-120343543D02*
X88147605Y-120707106D01*
X60600786Y-119430811D02*
X86616219Y-119430811D01*
X57531899Y-115543701D02*
X57531899Y-118001639D01*
X90819611Y-121005545D02*
X90667189Y-121157967D01*
X96570800Y-118567200D02*
X94132455Y-121005545D01*
X90667189Y-121157967D02*
X89090434Y-121157967D01*
X94132455Y-121005545D02*
X90819611Y-121005545D01*
X89090434Y-121157967D02*
X88639573Y-120707106D01*
X95689500Y-111320500D02*
X95689500Y-111320500D01*
X95689500Y-111115198D02*
X95853882Y-111279580D01*
X95689500Y-108553250D02*
X95689500Y-111115198D01*
X57277888Y-115748688D02*
X57277888Y-118106853D01*
X60495572Y-119684822D02*
X86176543Y-119684822D01*
X60089161Y-119278411D02*
X60495572Y-119684822D01*
X58449446Y-119278411D02*
X60089161Y-119278411D01*
X57277888Y-118106853D02*
X58449446Y-119278411D01*
X56032400Y-114503200D02*
X57277888Y-115748688D01*
X86176543Y-119684822D02*
X86441779Y-119950058D01*
X86776241Y-119950058D02*
X86441779Y-119950058D01*
X90924825Y-121259556D02*
X90772403Y-121411978D01*
X87423737Y-120597554D02*
X86776241Y-119950058D01*
X87678829Y-120597554D02*
X87423737Y-120597554D01*
X90772403Y-121411978D02*
X88493253Y-121411978D01*
X97536000Y-118567200D02*
X94843644Y-121259556D01*
X94843644Y-121259556D02*
X90924825Y-121259556D01*
X88493253Y-121411978D02*
X87678829Y-120597554D01*
X83947000Y-117043200D02*
X83972400Y-117043200D01*
X96344383Y-112273727D02*
X96316800Y-112301310D01*
X96344383Y-108573133D02*
X96344383Y-112273727D01*
X96324500Y-108553250D02*
X96344383Y-108573133D01*
X90170000Y-118725959D02*
X90163641Y-118725959D01*
X90163641Y-118725959D02*
X90077157Y-118812443D01*
X96959500Y-108553250D02*
X96959500Y-112452842D01*
X96517252Y-112895090D02*
X91084400Y-112895090D01*
X86487000Y-114503200D02*
X88065067Y-112925133D01*
X96959500Y-112452842D02*
X96517252Y-112895090D01*
X88065067Y-112925133D02*
X88375370Y-112925133D01*
X90035090Y-118854510D02*
X90077157Y-118812443D01*
X88307890Y-118854510D02*
X90035090Y-118854510D01*
X98229500Y-111574489D02*
X97502679Y-112301310D01*
X98229500Y-108553250D02*
X98229500Y-111574489D01*
X98864500Y-109702600D02*
X98864500Y-108553250D01*
X96774000Y-115570000D02*
X98856800Y-113487200D01*
X98864500Y-113479500D02*
X98864500Y-109702600D01*
X92633800Y-115570000D02*
X96774000Y-115570000D01*
X91567000Y-114503200D02*
X92633800Y-115570000D01*
X98856800Y-113487200D02*
X98864500Y-113479500D01*
X98856800Y-119176800D02*
X98856800Y-120345200D01*
X93980000Y-119634000D02*
X99499500Y-114114500D01*
X91592400Y-119634000D02*
X93980000Y-119634000D01*
X89027000Y-117043200D02*
X89027000Y-117068600D01*
X89027000Y-117068600D02*
X91592400Y-119634000D01*
X99499500Y-114114500D02*
X99499500Y-108553250D01*
X93475702Y-120497523D02*
X90242354Y-120497523D01*
X89343853Y-119599022D02*
X90158277Y-120413446D01*
X87502880Y-119599022D02*
X89343853Y-119599022D01*
X85446499Y-117542641D02*
X87502880Y-119599022D01*
X100769500Y-113203725D02*
X93475702Y-120497523D01*
X100769500Y-108553250D02*
X100769500Y-113203725D01*
X90242354Y-120497523D02*
X90158277Y-120413446D01*
X85446499Y-116002699D02*
X85446499Y-117542641D01*
X83947000Y-114503200D02*
X85446499Y-116002699D01*
X87634165Y-120089532D02*
X88255973Y-120089532D01*
X60706000Y-119176800D02*
X86721433Y-119176800D01*
X86721433Y-119176800D02*
X87634165Y-120089532D01*
X58572400Y-117043200D02*
X60706000Y-119176800D01*
X89545461Y-120903956D02*
X88731037Y-120089532D01*
X90561975Y-120903956D02*
X89545461Y-120903956D01*
X88731037Y-120089532D02*
X88255973Y-120089532D01*
X101404500Y-108553250D02*
X101404500Y-112927950D01*
X93580916Y-120751534D02*
X90714397Y-120751534D01*
X101404500Y-112927950D02*
X93580916Y-120751534D01*
X90714397Y-120751534D02*
X90561975Y-120903956D01*
X78486000Y-87680800D02*
X78486000Y-87680800D01*
X83058000Y-89814400D02*
X83058000Y-89814400D01*
X82758001Y-90114399D02*
X83058000Y-89814400D01*
X80919599Y-90114399D02*
X82758001Y-90114399D01*
X76897000Y-87325200D02*
X78130400Y-87325200D01*
X78130400Y-87325200D02*
X80919599Y-90114399D01*
X107356600Y-87325200D02*
X107983369Y-87951969D01*
X107983369Y-87951969D02*
X108669604Y-87951969D01*
X109660031Y-87951969D02*
X108669604Y-87951969D01*
X114300000Y-76454000D02*
X110109000Y-80645000D01*
X110109000Y-87503000D02*
X109660031Y-87951969D01*
X110109000Y-80645000D02*
X110109000Y-87503000D01*
X114935000Y-76454000D02*
X114300000Y-76454000D01*
X41808400Y-89916000D02*
X41808400Y-89916000D01*
X49377600Y-89916000D02*
X52576500Y-89916000D01*
X52576500Y-89916000D02*
X54457600Y-89916000D01*
X54457600Y-89916000D02*
X54457600Y-89916000D01*
X64590700Y-89916000D02*
X63195200Y-89916000D01*
X40194000Y-89916000D02*
X41724279Y-89916000D01*
X107356600Y-89865200D02*
X108966000Y-89865200D01*
X76897000Y-89865200D02*
X75488802Y-89865200D01*
X75488802Y-89865200D02*
X75438000Y-89916002D01*
X93776800Y-82448400D02*
X93776800Y-82346800D01*
X109016800Y-80721200D02*
X108983466Y-80687866D01*
X84785200Y-90678000D02*
X84785200Y-90678000D01*
X83654900Y-84022700D02*
X84479900Y-84022700D01*
X84479900Y-84022700D02*
X84937600Y-84480400D01*
X84937600Y-84480400D02*
X84937600Y-84480400D01*
X85395300Y-84022700D02*
X85445600Y-83972400D01*
X83654900Y-84022700D02*
X85395300Y-84022700D01*
X85445600Y-83972400D02*
X85445600Y-82143600D01*
X95113071Y-80687865D02*
X108559201Y-80687865D01*
X92646500Y-84022700D02*
X94386389Y-84022700D01*
X94386389Y-83057989D02*
X93776800Y-82448400D01*
X108559201Y-80687865D02*
X108592536Y-80721200D01*
X93776800Y-82448400D02*
X93776800Y-82024136D01*
X108592536Y-80721200D02*
X109016800Y-80721200D01*
X94386389Y-84022700D02*
X94386389Y-83057989D01*
X93776800Y-82024136D02*
X95113071Y-80687865D01*
X77524079Y-90492279D02*
X84785200Y-90492279D01*
X76897000Y-89865200D02*
X77524079Y-90492279D01*
X83653800Y-84023800D02*
X83654900Y-84022700D01*
X82300400Y-84023800D02*
X83653800Y-84023800D01*
X111816006Y-83749000D02*
X111760006Y-83693000D01*
X112834500Y-83749000D02*
X111816006Y-83749000D01*
X128219200Y-95656400D02*
X128168400Y-95605600D01*
X128219200Y-95554800D02*
X128219200Y-95656400D01*
X127711200Y-95046800D02*
X128219200Y-95554800D01*
X127711200Y-69592376D02*
X127711200Y-95046800D01*
X54762400Y-82397600D02*
X54762400Y-82346800D01*
X127664014Y-69545190D02*
X127711200Y-69592376D01*
X54762400Y-69596000D02*
X54813210Y-69545190D01*
X54762400Y-82346800D02*
X54762400Y-69596000D01*
X52576500Y-86106000D02*
X54508400Y-86106000D01*
X54508400Y-86106000D02*
X54508400Y-86106000D01*
X54813210Y-69545190D02*
X115874810Y-69545190D01*
X121158000Y-66040000D02*
X121158000Y-69469000D01*
X121234190Y-69545190D02*
X127664014Y-69545190D01*
X121158000Y-69469000D02*
X121234190Y-69545190D01*
X115874810Y-69545190D02*
X121234190Y-69545190D01*
D18*
X51358800Y-83566000D02*
X51308000Y-83515200D01*
X52576500Y-83566000D02*
X51358800Y-83566000D01*
X38912800Y-83566000D02*
X38825300Y-83653500D01*
X40194000Y-83566000D02*
X38912800Y-83566000D01*
X122037000Y-74140000D02*
X122037000Y-74132600D01*
D17*
X60198000Y-99285650D02*
X60264900Y-99218750D01*
X60198000Y-103225600D02*
X60198000Y-99285650D01*
X59029600Y-99253450D02*
X58994900Y-99218750D01*
X59029600Y-103225600D02*
X59029600Y-99253450D01*
X36169600Y-99256850D02*
X36131500Y-99218750D01*
X36169600Y-103225600D02*
X36169600Y-99256850D01*
X34950400Y-99307650D02*
X34861500Y-99218750D01*
X34950400Y-103225600D02*
X34950400Y-99307650D01*
X50850800Y-99333050D02*
X50736500Y-99218750D01*
X50850800Y-103225600D02*
X50850800Y-99333050D01*
X52070000Y-99282250D02*
X52006500Y-99218750D01*
X52070000Y-103225600D02*
X52070000Y-99282250D01*
X48260000Y-99282250D02*
X48196500Y-99218750D01*
X48260000Y-103225600D02*
X48260000Y-99282250D01*
X38709600Y-99256850D02*
X38671500Y-99218750D01*
X38709600Y-103225600D02*
X38709600Y-99256850D01*
X48260000Y-108489750D02*
X48196500Y-108553250D01*
X48260000Y-103225600D02*
X48260000Y-108489750D01*
X38709600Y-108515150D02*
X38671500Y-108553250D01*
X38709600Y-103225600D02*
X38709600Y-108515150D01*
X72329900Y-103234900D02*
X72339200Y-103225600D01*
X72329900Y-108553250D02*
X72329900Y-103234900D01*
X62804900Y-108553250D02*
X62804900Y-106391300D01*
X62804900Y-106391300D02*
X62382400Y-105968800D01*
X62382400Y-105968800D02*
X62382400Y-105968800D01*
X62804900Y-103209500D02*
X62788800Y-103225600D01*
X62804900Y-99218750D02*
X62839600Y-101092000D01*
X76047600Y-99311050D02*
X76139900Y-99218750D01*
X76047600Y-103225600D02*
X76047600Y-99311050D01*
X74869900Y-103184100D02*
X74828400Y-103225600D01*
X74869900Y-99218750D02*
X74869900Y-103184100D01*
X100134500Y-108553250D02*
X100134500Y-107078700D01*
X100134500Y-107078700D02*
X100134500Y-106840100D01*
D18*
X38671500Y-99218750D02*
X38671500Y-92119464D01*
X39604964Y-91186000D02*
X40194000Y-91186000D01*
X38671500Y-92119464D02*
X39604964Y-91186000D01*
D17*
X51104798Y-91186000D02*
X51028600Y-91109802D01*
X52576500Y-91186000D02*
X51104798Y-91186000D01*
X72329900Y-103216300D02*
X72339200Y-103225600D01*
X72329900Y-99218750D02*
X72329900Y-103216300D01*
X63736486Y-83566000D02*
X63491242Y-83320756D01*
X64590700Y-83566000D02*
X63736486Y-83566000D01*
X62839600Y-101092000D02*
X62804900Y-103209500D01*
X64590700Y-91186000D02*
X63195199Y-91186000D01*
X107356600Y-83515200D02*
X106019600Y-83515200D01*
X106019600Y-83515200D02*
X106070400Y-83515200D01*
X76897000Y-83515200D02*
X75641200Y-83515200D01*
X75641200Y-83515200D02*
X75641200Y-83515200D01*
X88963500Y-83387700D02*
X87630000Y-83413600D01*
X87630000Y-83413600D02*
X87655900Y-83387700D01*
X96750798Y-83335200D02*
X96621600Y-83464398D01*
X99309600Y-83335200D02*
X96750798Y-83335200D01*
D19*
X34747198Y-105918002D02*
X34798000Y-105918002D01*
X33375600Y-107289600D02*
X34747198Y-105918002D01*
X33375600Y-115976400D02*
X33375600Y-107289600D01*
X34442400Y-117043200D02*
X33375600Y-115976400D01*
X35712400Y-117043200D02*
X34442400Y-117043200D01*
X43180000Y-123444000D02*
X39878000Y-120142000D01*
X35712400Y-119329200D02*
X35712400Y-117043200D01*
X36525200Y-120142000D02*
X35712400Y-119329200D01*
X39878000Y-120142000D02*
X36525200Y-120142000D01*
X43180000Y-125487800D02*
X43180000Y-123444000D01*
D17*
X90609500Y-100585670D02*
X87941435Y-103253735D01*
X88008265Y-103253735D02*
X87941435Y-103253735D01*
X90609500Y-99218750D02*
X90609500Y-100585670D01*
X88069500Y-103192500D02*
X88008265Y-103253735D01*
D19*
X89117850Y-104430150D02*
X89204767Y-104343233D01*
D20*
X116890800Y-126441200D02*
X116890800Y-126318376D01*
D17*
X90609500Y-108553250D02*
X90609500Y-109982371D01*
X90609500Y-109982371D02*
X90678423Y-110051294D01*
X100134500Y-99218750D02*
X100134500Y-103081310D01*
X100134500Y-103081310D02*
X100126800Y-103089010D01*
X76897000Y-91135200D02*
X79298802Y-91135200D01*
X76897000Y-83515200D02*
X78689198Y-83515200D01*
X80568800Y-82753200D02*
X79806800Y-83515200D01*
X79806800Y-83515200D02*
X78689198Y-83515200D01*
D19*
X116890800Y-123444000D02*
X116890800Y-126318376D01*
X125882400Y-118872000D02*
X121462800Y-118872000D01*
X121462800Y-118872000D02*
X116890800Y-123444000D01*
X127101600Y-117652800D02*
X125882400Y-118872000D01*
X89204767Y-104343233D02*
X89781001Y-103766999D01*
X98178999Y-103766999D02*
X99695000Y-105283000D01*
X89781001Y-103766999D02*
X98178999Y-103766999D01*
D17*
X127213000Y-107737000D02*
X127223900Y-107726100D01*
D19*
X127223900Y-107726100D02*
X127101600Y-117652800D01*
X120777000Y-105283000D02*
X127254000Y-105283000D01*
X99695000Y-105283000D02*
X120777000Y-105283000D01*
D17*
X127172000Y-106762000D02*
X127236573Y-106697427D01*
X124909500Y-106762000D02*
X127172000Y-106762000D01*
D19*
X127236573Y-106697427D02*
X127223900Y-107726100D01*
X127254000Y-105283000D02*
X127236573Y-106697427D01*
D17*
X124864500Y-106807000D02*
X124909500Y-106762000D01*
X123571000Y-106807000D02*
X124864500Y-106807000D01*
X120650000Y-108712000D02*
X119184500Y-108712000D01*
X123571000Y-106807000D02*
X122555000Y-106807000D01*
X121890000Y-107412000D02*
X121920000Y-107442000D01*
X121920000Y-107442000D02*
X120650000Y-108712000D01*
X119184500Y-107412000D02*
X121890000Y-107412000D01*
X122555000Y-106807000D02*
X121920000Y-107442000D01*
X117748077Y-107412000D02*
X119184500Y-107412000D01*
X117098077Y-106762000D02*
X117748077Y-107412000D01*
X115638500Y-106762000D02*
X117098077Y-106762000D01*
D18*
X115962000Y-81799000D02*
X115824000Y-81661000D01*
X118559500Y-81799000D02*
X115962000Y-81799000D01*
D17*
X117393000Y-91440000D02*
X115824000Y-91440000D01*
X118477500Y-91440000D02*
X117393000Y-91440000D01*
X118559500Y-91522000D02*
X118477500Y-91440000D01*
X116586000Y-91440000D02*
X117393000Y-91440000D01*
X118061154Y-94772000D02*
X118559500Y-94772000D01*
X116743000Y-94772000D02*
X118061154Y-94772000D01*
X115824000Y-93345000D02*
X115824000Y-93853000D01*
X115824000Y-93853000D02*
X116743000Y-94772000D01*
X107656600Y-90835200D02*
X111221800Y-90835200D01*
X111221800Y-90835200D02*
X112141000Y-89916000D01*
X107356600Y-91135200D02*
X107656600Y-90835200D01*
X107356600Y-83515200D02*
X109296204Y-83515200D01*
X41808400Y-87376000D02*
X41808400Y-87376000D01*
X49428400Y-87376000D02*
X52576500Y-87376000D01*
X52576500Y-87376000D02*
X54508400Y-87376000D01*
X54508400Y-87376000D02*
X54508400Y-87376000D01*
X63246004Y-87376000D02*
X63246000Y-87376004D01*
X64590700Y-87376000D02*
X63246004Y-87376000D01*
X70459600Y-80873600D02*
X70459600Y-70561233D01*
X108305633Y-70561233D02*
X109423200Y-71678800D01*
X70459600Y-70561233D02*
X108305633Y-70561233D01*
X109423200Y-71678800D02*
X109372400Y-76149200D01*
X109372400Y-76149200D02*
X109423200Y-76098400D01*
X40194000Y-87376000D02*
X41724279Y-87376000D01*
X53551500Y-84836000D02*
X53797200Y-84590300D01*
X52576500Y-84836000D02*
X53551500Y-84836000D01*
X53797200Y-84590300D02*
X53797200Y-79197200D01*
X53797200Y-79197200D02*
X53797200Y-79197200D01*
X52468479Y-93200521D02*
X49466500Y-96202500D01*
X53647760Y-93200521D02*
X52468479Y-93200521D01*
X53996021Y-92852260D02*
X53647760Y-93200521D01*
X53996021Y-92059740D02*
X53996021Y-92852260D01*
X53993140Y-92056860D02*
X53996021Y-92059740D01*
X49466500Y-96202500D02*
X49466500Y-99218750D01*
X55270400Y-90779600D02*
X53993140Y-92056860D01*
X54356000Y-84836000D02*
X55270400Y-85750400D01*
X55270400Y-85750400D02*
X55270400Y-90779600D01*
X52576500Y-84836000D02*
X54356000Y-84836000D01*
X46075600Y-95453200D02*
X46075600Y-95961200D01*
X43751500Y-98285300D02*
X43751500Y-99218750D01*
X46075600Y-95961200D02*
X43751500Y-98285300D01*
X46075590Y-95453190D02*
X46075600Y-95453200D01*
X46075590Y-91186000D02*
X46075590Y-95453190D01*
X47626500Y-91186000D02*
X46075600Y-91186000D01*
X46075600Y-91186000D02*
X46075590Y-91186000D01*
X43010110Y-91186000D02*
X43010110Y-90761736D01*
X42840212Y-81753012D02*
X39574490Y-78487290D01*
X43010110Y-90761736D02*
X42840212Y-90591838D01*
X39574490Y-78487290D02*
X39574490Y-73904568D01*
X42840212Y-90591838D02*
X42840212Y-81753012D01*
X42368499Y-73109499D02*
X43409000Y-74150000D01*
X40369559Y-73109499D02*
X42368499Y-73109499D01*
X39574490Y-73904568D02*
X40369559Y-73109499D01*
X44386500Y-98285298D02*
X44386500Y-99218750D01*
X44767490Y-97904308D02*
X44386500Y-98285298D01*
X44627799Y-98977451D02*
X44386500Y-99218750D01*
X44627799Y-98043999D02*
X44627799Y-98977451D01*
X44767490Y-97904308D02*
X44627799Y-98043999D01*
X48792010Y-90894954D02*
X48792010Y-91477046D01*
X47626500Y-89916000D02*
X47813056Y-89916000D01*
X47813056Y-89916000D02*
X48792010Y-90894954D01*
X48592546Y-91676510D02*
X46520214Y-91676510D01*
X46520214Y-91676510D02*
X46329601Y-91867123D01*
X46329601Y-91867123D02*
X46329601Y-96342197D01*
X46329601Y-96342197D02*
X44767490Y-97904308D01*
X48792010Y-91477046D02*
X48592546Y-91676510D01*
X47626500Y-89916000D02*
X46966100Y-89255600D01*
X46966100Y-89255600D02*
X46177200Y-89255600D01*
X46177200Y-89255600D02*
X46177200Y-89255600D01*
X44704000Y-77985000D02*
X43409000Y-76690000D01*
X44704000Y-81330800D02*
X44704000Y-77985000D01*
X43383200Y-88831336D02*
X43094223Y-88542359D01*
X43383200Y-89255600D02*
X43383200Y-88831336D01*
X43094223Y-88542359D02*
X43094223Y-81313337D01*
X43094223Y-81313337D02*
X43018843Y-81237957D01*
X47626500Y-88646000D02*
X47067700Y-88087200D01*
X47067700Y-88087200D02*
X46126400Y-88087200D01*
X46126400Y-88087200D02*
X46126400Y-88087200D01*
X39828499Y-75190501D02*
X40869000Y-74150000D01*
X43738800Y-88087200D02*
X43738800Y-87662936D01*
X43509345Y-87433481D02*
X43509345Y-80952569D01*
X43738800Y-87662936D02*
X43509345Y-87433481D01*
X43509345Y-80952569D02*
X39828499Y-77271723D01*
X39828499Y-77271723D02*
X39828499Y-75190501D01*
X48856900Y-94234000D02*
X45021500Y-98069400D01*
X53542546Y-92946510D02*
X52363266Y-92946510D01*
X48792010Y-88836510D02*
X48792010Y-90207046D01*
X53742010Y-92164954D02*
X53742010Y-92747046D01*
X53742010Y-92747046D02*
X53542546Y-92946510D01*
X47626500Y-88646000D02*
X48601500Y-88646000D01*
X52363266Y-92946510D02*
X51075776Y-94234000D01*
X48792010Y-90207046D02*
X50278953Y-91693989D01*
X50278953Y-91693989D02*
X53271045Y-91693989D01*
X53271045Y-91693989D02*
X53742010Y-92164954D01*
X51075776Y-94234000D02*
X48856900Y-94234000D01*
X48601500Y-88646000D02*
X48792010Y-88836510D01*
X45021500Y-98069400D02*
X45021500Y-99218750D01*
X46291500Y-99218750D02*
X46278800Y-97536000D01*
X46278800Y-97536000D02*
X46291500Y-97523300D01*
X46583600Y-87376000D02*
X46075600Y-86868000D01*
X47626500Y-87376000D02*
X46583600Y-87376000D01*
X43281600Y-94488000D02*
X44704000Y-93065600D01*
X44704000Y-93065600D02*
X44704000Y-87477598D01*
X44704000Y-87477598D02*
X44094402Y-86868000D01*
X40869000Y-77953000D02*
X40869000Y-76690000D01*
X44094402Y-86868000D02*
X44094402Y-81178402D01*
X44094402Y-81178402D02*
X40869000Y-77953000D01*
X46926500Y-99218750D02*
X46926500Y-96939100D01*
X46926500Y-96939100D02*
X46926500Y-96888300D01*
X47626500Y-86106000D02*
X46126400Y-86106000D01*
X46126400Y-86106000D02*
X46177200Y-86106000D01*
X45003999Y-86304399D02*
X44704000Y-86004400D01*
X44061572Y-94476586D02*
X45003999Y-93534159D01*
X45003999Y-93534159D02*
X45003999Y-86304399D01*
X37288499Y-75190501D02*
X38329000Y-74150000D01*
X37288499Y-77623699D02*
X37288499Y-75190501D01*
X41859200Y-82194400D02*
X37288499Y-77623699D01*
X41859200Y-84683600D02*
X41859200Y-82194400D01*
X41960800Y-84785200D02*
X41859200Y-84683600D01*
X47527810Y-96312390D02*
X47488005Y-96312390D01*
X47561500Y-99218750D02*
X47561500Y-96385885D01*
X47561500Y-96385885D02*
X47488005Y-96312390D01*
X47561500Y-96278700D02*
X47527810Y-96312390D01*
X46177200Y-84836000D02*
X46177200Y-84836000D01*
X47626500Y-84836000D02*
X46193011Y-84836000D01*
X44788490Y-94488314D02*
X45308801Y-93968003D01*
X45043400Y-84818890D02*
X45077090Y-84785200D01*
X45308801Y-93968003D02*
X45308801Y-85016911D01*
X45308801Y-85016911D02*
X45077090Y-84785200D01*
X38329000Y-76690000D02*
X38329000Y-77892081D01*
X38329000Y-77892081D02*
X42349710Y-81912791D01*
X42349710Y-81912791D02*
X42349710Y-83972400D01*
X48831500Y-99218750D02*
X48831500Y-96634300D01*
X48831500Y-96634300D02*
X48768000Y-96570800D01*
X45567600Y-83616800D02*
X45593000Y-83591400D01*
X45618400Y-83566000D02*
X47626500Y-83566000D01*
X45567600Y-94488000D02*
X45567600Y-83616800D01*
X45593000Y-83591400D02*
X45618400Y-83566000D01*
X37034489Y-75395489D02*
X35789000Y-74150000D01*
X37034489Y-78690489D02*
X37034489Y-75395489D01*
X40335200Y-81991200D02*
X37034489Y-78690489D01*
X63466458Y-84836000D02*
X64590700Y-84836000D01*
X59894711Y-81264253D02*
X63466458Y-84836000D01*
X56109000Y-76690000D02*
X57295389Y-77876389D01*
X59894711Y-78025186D02*
X59894711Y-81264253D01*
X59745914Y-77876389D02*
X59894711Y-78025186D01*
X57295389Y-77876389D02*
X59745914Y-77876389D01*
X67645364Y-96215200D02*
X67632742Y-96227822D01*
X67632742Y-96227822D02*
X63312177Y-96227822D01*
X62361678Y-94714659D02*
X62361678Y-86878466D01*
X63312177Y-96227822D02*
X62315788Y-95231433D01*
X73599900Y-98069400D02*
X71745700Y-96215200D01*
X62361678Y-86878466D02*
X64404144Y-84836000D01*
X62315788Y-95231433D02*
X62315788Y-94760549D01*
X71745700Y-96215200D02*
X67645364Y-96215200D01*
X62315788Y-94760549D02*
X62361678Y-94714659D01*
X73599900Y-99218750D02*
X73599900Y-98069400D01*
X67821399Y-98005899D02*
X67884900Y-98069400D01*
X61607713Y-98005899D02*
X67821399Y-98005899D01*
X59640700Y-91186000D02*
X59454144Y-91186000D01*
X58420000Y-92220144D02*
X58420000Y-94818186D01*
X67884900Y-98069400D02*
X67884900Y-99218750D01*
X58420000Y-94818186D02*
X61607713Y-98005899D01*
X59454144Y-91186000D02*
X58420000Y-92220144D01*
X68202391Y-97751891D02*
X68519900Y-98069400D01*
X59640700Y-89916000D02*
X60615700Y-89916000D01*
X60615700Y-89916000D02*
X60806210Y-90106510D01*
X60806210Y-94114777D02*
X60791722Y-94129265D01*
X60806210Y-90106510D02*
X60806210Y-94114777D01*
X60791722Y-94129265D02*
X60791722Y-96830683D01*
X60791722Y-96830683D02*
X61712930Y-97751891D01*
X68519900Y-98069400D02*
X68519900Y-99218750D01*
X61712930Y-97751891D02*
X68202391Y-97751891D01*
X62382400Y-75343400D02*
X62382400Y-80939410D01*
X61189000Y-74150000D02*
X62382400Y-75343400D01*
X56388000Y-86156800D02*
X56388000Y-84277210D01*
X58877200Y-88646000D02*
X56388000Y-86156800D01*
X59640700Y-88646000D02*
X58877200Y-88646000D01*
X68583380Y-97497880D02*
X69154900Y-98069400D01*
X61060221Y-92135517D02*
X61061534Y-92136830D01*
X59640700Y-88646000D02*
X60615700Y-88646000D01*
X61061534Y-92136830D02*
X61061534Y-94218678D01*
X60615700Y-88646000D02*
X61060221Y-89090521D01*
X61045733Y-94234479D02*
X61045733Y-96725469D01*
X69154900Y-98069400D02*
X69154900Y-99218750D01*
X61061534Y-94218678D02*
X61045733Y-94234479D01*
X61818144Y-97497880D02*
X68583380Y-97497880D01*
X61045733Y-96725469D02*
X61818144Y-97497880D01*
X61060221Y-89090521D02*
X61060221Y-92135517D01*
X61214000Y-76715000D02*
X61189000Y-76690000D01*
X61214000Y-81635600D02*
X61214000Y-76715000D01*
X56743600Y-85293200D02*
X57150000Y-85293200D01*
X59640700Y-87376000D02*
X59232800Y-87376000D01*
X59232800Y-87376000D02*
X57150000Y-85293200D01*
X59640700Y-87376000D02*
X60615700Y-87376000D01*
X61923358Y-97243869D02*
X69599369Y-97243869D01*
X61314232Y-88074532D02*
X61314232Y-92030303D01*
X61315545Y-94323892D02*
X61299744Y-94339693D01*
X60615700Y-87376000D02*
X61314232Y-88074532D01*
X61299744Y-96620255D02*
X61923358Y-97243869D01*
X61314232Y-92030303D02*
X61315545Y-92031616D01*
X61315545Y-92031616D02*
X61315545Y-94323892D01*
X70424900Y-98069400D02*
X70424900Y-99218750D01*
X61299744Y-94339693D02*
X61299744Y-96620255D01*
X69599369Y-97243869D02*
X70424900Y-98069400D01*
X56692800Y-79197200D02*
X56692800Y-79197200D01*
X57912000Y-80416400D02*
X56692800Y-79197200D01*
X57912000Y-85352300D02*
X57912000Y-80416400D01*
X58665700Y-86106000D02*
X57912000Y-85352300D01*
X59640700Y-86106000D02*
X58665700Y-86106000D01*
X61568243Y-87058543D02*
X61568243Y-91924974D01*
X61553755Y-94444907D02*
X61553755Y-96515041D01*
X60615700Y-86106000D02*
X61568243Y-87058543D01*
X61569556Y-94429106D02*
X61553755Y-94444907D01*
X61553755Y-96515041D02*
X62028572Y-96989858D01*
X62028572Y-96989858D02*
X69980358Y-96989858D01*
X61568243Y-91924974D02*
X61569556Y-91926287D01*
X59640700Y-86106000D02*
X60615700Y-86106000D01*
X69980358Y-96989858D02*
X71059900Y-98069400D01*
X71059900Y-98069400D02*
X71059900Y-99218750D01*
X61569556Y-91926287D02*
X61569556Y-94429106D01*
X59640700Y-84836000D02*
X58665700Y-84836000D01*
X58665700Y-84836000D02*
X58166000Y-84336300D01*
X58166000Y-84336300D02*
X58166000Y-79197200D01*
X58166000Y-79197200D02*
X58166000Y-79197200D01*
X59640700Y-84836000D02*
X60615700Y-84836000D01*
X62133783Y-96735844D02*
X70361344Y-96735844D01*
X70361344Y-96735844D02*
X71694900Y-98069400D01*
X60615700Y-84836000D02*
X61822254Y-86042554D01*
X61823567Y-94534320D02*
X61807766Y-94550121D01*
X61822254Y-86042554D02*
X61822254Y-91819875D01*
X61807766Y-94550121D02*
X61807766Y-96409827D01*
X61807766Y-96409827D02*
X62133783Y-96735844D01*
X71694900Y-98069400D02*
X71694900Y-99218750D01*
X61823567Y-91821188D02*
X61823567Y-94534320D01*
X61822254Y-91819875D02*
X61823567Y-91821188D01*
X59640700Y-81789500D02*
X59640700Y-83566000D01*
X59640700Y-78130400D02*
X59640700Y-81789500D01*
X55981600Y-78130400D02*
X59640700Y-78130400D01*
X55068499Y-77217299D02*
X55981600Y-78130400D01*
X56109000Y-74150000D02*
X55068499Y-75190501D01*
X55068499Y-75190501D02*
X55068499Y-77217299D01*
X67750578Y-96469211D02*
X71364711Y-96469211D01*
X60615700Y-83566000D02*
X62077589Y-85027889D01*
X72964900Y-98069400D02*
X72964900Y-99218750D01*
X67737956Y-96481833D02*
X67750578Y-96469211D01*
X59640700Y-83566000D02*
X60615700Y-83566000D01*
X62061777Y-94655335D02*
X62061777Y-96304613D01*
X71364711Y-96469211D02*
X72964900Y-98069400D01*
X62238997Y-96481833D02*
X67737956Y-96481833D01*
X62077589Y-85027889D02*
X62077589Y-94639523D01*
X62061777Y-96304613D02*
X62238997Y-96481833D01*
X62077589Y-94639523D02*
X62061777Y-94655335D01*
X42875201Y-98977451D02*
X43116500Y-99218750D01*
X42519600Y-86186600D02*
X42519600Y-98005899D01*
X40194000Y-84836000D02*
X41169000Y-84836000D01*
X41169000Y-84836000D02*
X42519600Y-86186600D01*
X42519600Y-98005899D02*
X42837101Y-98005899D01*
X42837101Y-98005899D02*
X42875201Y-98043999D01*
X42875201Y-98043999D02*
X42875201Y-98977451D01*
X33375600Y-73914000D02*
X34950400Y-72339200D01*
X40194000Y-84836000D02*
X37970556Y-84836000D01*
X44908499Y-73650559D02*
X44908499Y-75649499D01*
X37970556Y-84836000D02*
X33375600Y-80241044D01*
X43597140Y-72339200D02*
X44908499Y-73650559D01*
X33375600Y-80241044D02*
X33375600Y-73914000D01*
X44908499Y-75649499D02*
X45949000Y-76690000D01*
X34950400Y-72339200D02*
X43597140Y-72339200D01*
D18*
X37401500Y-92368500D02*
X37401500Y-99218750D01*
X36219000Y-91186000D02*
X37401500Y-92368500D01*
X35244000Y-91186000D02*
X36219000Y-91186000D01*
D17*
X35244000Y-91186000D02*
X33477200Y-91186000D01*
X33477200Y-91186000D02*
X33528000Y-91186000D01*
X31292790Y-86927117D02*
X31292790Y-90830390D01*
X34086873Y-70561123D02*
X31297601Y-73350395D01*
X31297601Y-90835201D02*
X31597600Y-91135200D01*
X53569000Y-74150000D02*
X49980123Y-70561123D01*
X49980123Y-70561123D02*
X34086873Y-70561123D01*
X31292790Y-90830390D02*
X31297601Y-90835201D01*
X31297601Y-86922306D02*
X31292790Y-86927117D01*
X31297601Y-73350395D02*
X31297601Y-86922306D01*
D18*
X35529886Y-89916000D02*
X35244000Y-89916000D01*
X38036500Y-92422614D02*
X35529886Y-89916000D01*
X38036500Y-99218750D02*
X38036500Y-92422614D01*
D17*
X35244000Y-89916000D02*
X33477200Y-89916000D01*
X33477200Y-89916000D02*
X33477200Y-89916000D01*
X52273200Y-75394200D02*
X52273200Y-73395260D01*
X31546801Y-87032331D02*
X31546801Y-87734840D01*
X31737311Y-73269910D02*
X31737311Y-86841822D01*
X50251951Y-71374011D02*
X44787301Y-71374011D01*
X31737311Y-86841822D02*
X31546801Y-87032331D01*
X44787301Y-71374011D02*
X44228424Y-70815134D01*
X44228424Y-70815134D02*
X34192087Y-70815134D01*
X31546801Y-87734840D02*
X31737311Y-87925350D01*
X34192087Y-70815134D02*
X31737311Y-73269910D01*
X31737311Y-87925350D02*
X31737311Y-89616001D01*
X31737311Y-89616001D02*
X32037310Y-89916000D01*
X53569000Y-76690000D02*
X52273200Y-75394200D01*
X52273200Y-73395260D02*
X50251951Y-71374011D01*
D18*
X39306500Y-99218750D02*
X39306500Y-93891100D01*
X39306500Y-93891100D02*
X39306500Y-93891100D01*
D17*
X51029000Y-74150000D02*
X51029000Y-74143000D01*
X35244000Y-88646000D02*
X33577144Y-88646000D01*
X33577144Y-88646000D02*
X33526344Y-88595200D01*
X33526344Y-88644344D02*
X33526344Y-88595200D01*
X33528000Y-88646000D02*
X33526344Y-88644344D01*
D18*
X37490396Y-90373196D02*
X37490396Y-90576400D01*
X35763200Y-88646000D02*
X37490396Y-90373196D01*
X35244000Y-88646000D02*
X35763200Y-88646000D01*
D17*
X51029000Y-74150000D02*
X48507022Y-71628022D01*
X31991322Y-73375124D02*
X31991322Y-86947035D01*
X44682087Y-71628022D02*
X44123210Y-71069145D01*
X34297301Y-71069145D02*
X31991322Y-73375124D01*
X31800812Y-87137545D02*
X31800812Y-87629626D01*
X32291321Y-88120135D02*
X32291321Y-88544399D01*
X31991322Y-86947035D02*
X31800812Y-87137545D01*
X48507022Y-71628022D02*
X44682087Y-71628022D01*
X44123210Y-71069145D02*
X34297301Y-71069145D01*
X31800812Y-87629626D02*
X32291321Y-88120135D01*
D18*
X39941500Y-99218750D02*
X39941500Y-96405700D01*
X36169600Y-87376000D02*
X37388800Y-88595200D01*
X35244000Y-87376000D02*
X36169600Y-87376000D01*
D17*
X35244000Y-87376000D02*
X33832812Y-87376000D01*
X34402515Y-71323156D02*
X32245322Y-73480349D01*
X32245322Y-87326995D02*
X32291313Y-87372986D01*
X49733200Y-73395260D02*
X48219973Y-71882033D01*
X44576873Y-71882033D02*
X44017996Y-71323156D01*
X32245322Y-73480349D02*
X32245322Y-87326995D01*
X49733200Y-75394200D02*
X49733200Y-73395260D01*
X48219973Y-71882033D02*
X44576873Y-71882033D01*
X44017996Y-71323156D02*
X34402515Y-71323156D01*
X51029000Y-76690000D02*
X49733200Y-75394200D01*
X33020000Y-100838000D02*
X33020000Y-100838000D01*
X40576500Y-100799900D02*
X40538400Y-100838000D01*
X40576500Y-99218750D02*
X40576500Y-100799900D01*
X35244000Y-86106000D02*
X33426388Y-86106000D01*
X48489000Y-74150000D02*
X46475044Y-72136044D01*
X34507729Y-71577167D02*
X32499344Y-73585552D01*
X46475044Y-72136044D02*
X44471659Y-72136044D01*
X32499344Y-82199201D02*
X32799343Y-82499200D01*
X32499344Y-73585552D02*
X32499344Y-82199201D01*
X44471659Y-72136044D02*
X43912782Y-71577167D01*
X43912782Y-71577167D02*
X34507729Y-71577167D01*
X33289856Y-86242532D02*
X33426388Y-86106000D01*
X33035834Y-87970688D02*
X33289856Y-87716666D01*
X33035834Y-88885055D02*
X33035834Y-87970688D01*
X32985045Y-88935844D02*
X33035834Y-88885055D01*
X33289856Y-87716666D02*
X33289856Y-86242532D01*
X32985045Y-100294671D02*
X32985045Y-88935844D01*
X33104110Y-100413736D02*
X32985045Y-100294671D01*
X33104110Y-100838000D02*
X33104110Y-100413736D01*
X41846500Y-99218750D02*
X41846500Y-101434900D01*
X41846500Y-101434900D02*
X41846500Y-101434900D01*
X35244000Y-84836000D02*
X34269000Y-84836000D01*
X35244000Y-84836000D02*
X33426400Y-84836000D01*
X33426400Y-84836000D02*
X33070800Y-84836000D01*
X32816855Y-81498080D02*
X32816855Y-73754295D01*
X44366445Y-72390055D02*
X46228055Y-72390055D01*
X33070800Y-84836000D02*
X33289845Y-84616955D01*
X33289845Y-81971070D02*
X32816855Y-81498080D01*
X46228055Y-72390055D02*
X47193200Y-73355200D01*
X47193200Y-73355200D02*
X47193200Y-75394200D01*
X47193200Y-75394200D02*
X48489000Y-76690000D01*
X34739972Y-71831178D02*
X43807568Y-71831178D01*
X43807568Y-71831178D02*
X44366445Y-72390055D01*
X33289845Y-84616955D02*
X33289845Y-81971070D01*
X32816855Y-73754295D02*
X34739972Y-71831178D01*
X32613600Y-88948064D02*
X32613600Y-101447604D01*
X32781823Y-88779841D02*
X32613600Y-88948064D01*
X32781823Y-86528243D02*
X32781823Y-88779841D01*
X33070800Y-84836000D02*
X32934233Y-84972567D01*
X32934233Y-86375833D02*
X32781823Y-86528243D01*
X32934233Y-84972567D02*
X32934233Y-86375833D01*
X42265589Y-99002839D02*
X42481500Y-99218750D01*
X41300400Y-85445600D02*
X42265589Y-86410789D01*
X38098600Y-85445600D02*
X41300400Y-85445600D01*
X36219000Y-83566000D02*
X38098600Y-85445600D01*
X35244000Y-83566000D02*
X36219000Y-83566000D01*
X42265589Y-86410789D02*
X42265589Y-99002839D01*
X45767165Y-74150000D02*
X45949000Y-74150000D01*
X35244000Y-83566000D02*
X33070866Y-81392866D01*
X33070866Y-81392866D02*
X33070866Y-73859509D01*
X33070866Y-73859509D02*
X34845186Y-72085189D01*
X34845186Y-72085189D02*
X43702354Y-72085189D01*
X43702354Y-72085189D02*
X45767165Y-74150000D01*
X92646500Y-83387700D02*
X93801700Y-83387700D01*
X93801700Y-83387700D02*
X93801700Y-83387700D01*
X84289400Y-82753200D02*
X84378800Y-82753200D01*
X83654900Y-83387700D02*
X84289400Y-82753200D01*
X100330000Y-80162400D02*
X107442000Y-80162400D01*
X83641000Y-83373800D02*
X83654900Y-83387700D01*
X82300400Y-83373800D02*
X83641000Y-83373800D01*
X122037000Y-77680058D02*
X120978155Y-78738903D01*
X122037000Y-76680000D02*
X122037000Y-77680058D01*
X120978155Y-78738903D02*
X120978155Y-79957155D01*
X120978155Y-79957155D02*
X121412000Y-80391000D01*
X100634800Y-87287000D02*
X100634800Y-86918800D01*
X100036600Y-87885200D02*
X100634800Y-87287000D01*
X99309600Y-87885200D02*
X100036600Y-87885200D01*
X115301000Y-92822000D02*
X118559500Y-92822000D01*
X112976442Y-89281000D02*
X115301000Y-91605558D01*
X115301000Y-91605558D02*
X115301000Y-92822000D01*
X105918000Y-89281000D02*
X112976442Y-89281000D01*
X49682400Y-115773200D02*
X50952400Y-117043200D01*
X49682400Y-113592424D02*
X48056800Y-111966824D01*
X49682400Y-115773200D02*
X49682400Y-113592424D01*
X48056800Y-111966824D02*
X48056800Y-111658400D01*
X37401500Y-108553250D02*
X37401500Y-110782100D01*
X38036500Y-108553250D02*
X38036500Y-111010700D01*
X38036500Y-111010700D02*
X36880800Y-112166400D01*
X36880800Y-112166400D02*
X36880800Y-112166400D01*
X39306500Y-112223345D02*
X39301229Y-112228616D01*
X39306500Y-108553250D02*
X39306500Y-112223345D01*
X45872400Y-117043200D02*
X45872400Y-118160450D01*
X45872400Y-118160450D02*
X46478740Y-118766790D01*
X39941500Y-108553250D02*
X39941500Y-111798100D01*
X39941500Y-111798100D02*
X39928800Y-111810800D01*
X43332400Y-117043200D02*
X43332400Y-118668800D01*
X43332400Y-118668800D02*
X43942000Y-119278400D01*
X40576500Y-108553250D02*
X40576500Y-112186071D01*
X40576500Y-112186071D02*
X40629225Y-112238796D01*
X40792400Y-117043200D02*
X41960798Y-118211598D01*
X41960798Y-118211598D02*
X41960798Y-119176800D01*
X37795200Y-112166400D02*
X37795200Y-112166400D01*
X38095199Y-112466399D02*
X37795200Y-112166400D01*
X38387302Y-112758502D02*
X38095199Y-112466399D01*
X40824642Y-112758502D02*
X38387302Y-112758502D01*
X41846500Y-108553250D02*
X41846500Y-111736644D01*
X41846500Y-111736644D02*
X40824642Y-112758502D01*
X44653200Y-123444000D02*
X44653200Y-123444001D01*
X38252400Y-117043200D02*
X44653200Y-123444000D01*
X42481500Y-110350997D02*
X42844639Y-110714136D01*
X42481500Y-108553250D02*
X42481500Y-110350997D01*
X65963811Y-111760011D02*
X55649310Y-111760011D01*
X55649310Y-111760011D02*
X55026194Y-111136895D01*
X68707000Y-114503200D02*
X65963811Y-111760011D01*
X54948110Y-111214979D02*
X54948110Y-114927091D01*
X52992960Y-116002699D02*
X52373190Y-116622468D01*
X55026194Y-111136895D02*
X54948110Y-111214979D01*
X53872502Y-116002699D02*
X52992960Y-116002699D01*
X54948110Y-114927091D02*
X53872502Y-116002699D01*
X52373190Y-116622468D02*
X52373190Y-120667457D01*
X50800000Y-126492000D02*
X50800000Y-130619490D01*
X48514000Y-126492000D02*
X50800000Y-126492000D01*
X48514000Y-124526647D02*
X48514000Y-126492000D01*
X52373190Y-120667457D02*
X48514000Y-124526647D01*
X43116500Y-109486702D02*
X43116500Y-108553250D01*
X43116500Y-109976939D02*
X43250560Y-110110999D01*
X43116500Y-108553250D02*
X43116500Y-109976939D01*
X69747501Y-116002699D02*
X69747501Y-114003759D01*
X67249742Y-111506000D02*
X56355062Y-111506000D01*
X68707000Y-117043200D02*
X69747501Y-116002699D01*
X69747501Y-114003759D02*
X67249742Y-111506000D01*
X56355062Y-111506000D02*
X54983462Y-110134400D01*
X54983462Y-110134400D02*
X54559198Y-110134400D01*
X54532901Y-110160697D02*
X54532901Y-114983075D01*
X54532901Y-114983075D02*
X53767288Y-115748688D01*
X54559198Y-110134400D02*
X54532901Y-110160697D01*
X51992901Y-116643533D02*
X51992901Y-120185977D01*
X52887745Y-115748688D02*
X51992901Y-116643533D01*
X53767288Y-115748688D02*
X52887745Y-115748688D01*
X51992901Y-120185977D02*
X51511421Y-120667457D01*
X48260000Y-123918878D02*
X48260000Y-130619490D01*
X51511421Y-120667457D02*
X48260000Y-123918878D01*
X41934511Y-113208689D02*
X37006911Y-113208689D01*
X43751500Y-108553250D02*
X43751500Y-111391700D01*
X43751500Y-111391700D02*
X41934511Y-113208689D01*
X37006911Y-113208689D02*
X35712400Y-114503200D01*
X42039725Y-113462700D02*
X39292900Y-113462700D01*
X39292900Y-113462700D02*
X38252400Y-114503200D01*
X44386500Y-108553250D02*
X44386500Y-111115925D01*
X44386500Y-111115925D02*
X42039725Y-113462700D01*
X38252400Y-114503200D02*
X37185600Y-115570000D01*
X37185600Y-115570000D02*
X37185600Y-118821200D01*
X45021500Y-110840150D02*
X41358450Y-114503200D01*
X45021500Y-108553250D02*
X45021500Y-110840150D01*
X41358450Y-114503200D02*
X40792400Y-114503200D01*
X42291899Y-116002699D02*
X42291899Y-118560189D01*
X42291899Y-118560189D02*
X43738800Y-120007090D01*
X40792400Y-114503200D02*
X42291899Y-116002699D01*
X44332458Y-114503200D02*
X43332400Y-114503200D01*
X46291500Y-112544158D02*
X44332458Y-114503200D01*
X46291500Y-108553250D02*
X46291500Y-112544158D01*
X43332400Y-114503200D02*
X44831899Y-116002699D01*
X44831899Y-118600294D02*
X45019495Y-118787890D01*
X44831899Y-116002699D02*
X44831899Y-118600294D01*
X46926500Y-113449100D02*
X45872400Y-114503200D01*
X46926500Y-108553250D02*
X46926500Y-113449100D01*
X47371899Y-116002699D02*
X47371899Y-118096728D01*
X47371899Y-118096728D02*
X48266217Y-118991046D01*
X45872400Y-114503200D02*
X47371899Y-116002699D01*
X47561500Y-113652300D02*
X48412400Y-114503200D01*
X47561500Y-108553250D02*
X47561500Y-113652300D01*
X48831500Y-112382300D02*
X50952400Y-114503200D01*
X48831500Y-108553250D02*
X48831500Y-112382300D01*
X53492400Y-113728500D02*
X53492400Y-114503200D01*
X49466500Y-109702600D02*
X53492400Y-113728500D01*
X49466500Y-108553250D02*
X49466500Y-109702600D01*
X68519900Y-109210700D02*
X68519900Y-108553250D01*
X76327000Y-114503200D02*
X76327000Y-113715800D01*
X76327000Y-114503200D02*
X72440800Y-110617000D01*
X72440800Y-110617000D02*
X72440800Y-110617000D01*
X68529200Y-110439200D02*
X68519900Y-109210700D01*
X66040000Y-130619490D02*
X66040000Y-127254000D01*
X66040000Y-127254000D02*
X71696299Y-121597701D01*
X71696299Y-121597701D02*
X77758989Y-121597701D01*
X77758989Y-121597701D02*
X78249490Y-121107200D01*
X72287501Y-113388325D02*
X69154900Y-110255724D01*
X69154900Y-110255724D02*
X69154900Y-108553250D01*
X73287559Y-115543701D02*
X72287501Y-114543643D01*
X74827501Y-115543701D02*
X73287559Y-115543701D01*
X72287501Y-114543643D02*
X72287501Y-113388325D01*
X76327000Y-117043200D02*
X74827501Y-115543701D01*
X70154800Y-122580400D02*
X66294000Y-122580400D01*
X76301600Y-121107200D02*
X76133344Y-121275456D01*
X63500000Y-125374400D02*
X63500000Y-130619490D01*
X76133344Y-121275456D02*
X71459744Y-121275456D01*
X71459744Y-121275456D02*
X70154800Y-122580400D01*
X66294000Y-122580400D02*
X63500000Y-125374400D01*
X70424900Y-111166500D02*
X70424900Y-108553250D01*
X73761600Y-114503200D02*
X70424900Y-111166500D01*
X73787000Y-114503200D02*
X73761600Y-114503200D01*
X74787058Y-114503200D02*
X76006258Y-115722400D01*
X73787000Y-114503200D02*
X74787058Y-114503200D01*
X76006258Y-115722400D02*
X77571600Y-115722400D01*
X69646800Y-122275600D02*
X63906400Y-122275600D01*
X63906400Y-122275600D02*
X60960000Y-125222000D01*
X70205600Y-121716800D02*
X69646800Y-122275600D01*
X60960000Y-125222000D02*
X60960000Y-130619490D01*
X71900552Y-111963208D02*
X72288400Y-111963208D01*
X71059900Y-111122556D02*
X71900552Y-111963208D01*
X71059900Y-108553250D02*
X71059900Y-111122556D01*
X60961676Y-122019924D02*
X59918599Y-123063001D01*
X59918599Y-123063001D02*
X59918599Y-125450601D01*
X69037200Y-121666000D02*
X68683276Y-122019924D01*
X59918599Y-125450601D02*
X58420000Y-126949200D01*
X58420000Y-126949200D02*
X58420000Y-130619490D01*
X68683276Y-122019924D02*
X60961676Y-122019924D01*
X79121000Y-110363000D02*
X81661000Y-107823000D01*
X81661000Y-107823000D02*
X81661000Y-107526100D01*
X81661000Y-101762000D02*
X81788000Y-101635000D01*
X81661000Y-103797098D02*
X81661000Y-101762000D01*
X114300000Y-101662866D02*
X114300000Y-104521000D01*
X115526500Y-107950000D02*
X115638500Y-108062000D01*
X114300000Y-107950000D02*
X115526500Y-107950000D01*
X115638500Y-108062000D02*
X115638500Y-108712000D01*
X71694900Y-111115700D02*
X71694900Y-111115700D01*
X71694900Y-108553250D02*
X71694900Y-111031614D01*
X71694900Y-111031614D02*
X71736943Y-111073657D01*
X60856462Y-121765913D02*
X67370574Y-121765913D01*
X67370574Y-121765913D02*
X67861076Y-121275411D01*
X55880000Y-126949200D02*
X59664588Y-123164612D01*
X59664588Y-123164612D02*
X59664588Y-122957787D01*
X55880000Y-130619490D02*
X55880000Y-126949200D01*
X59664588Y-122957787D02*
X60856462Y-121765913D01*
X72964900Y-110760100D02*
X72964900Y-108553250D01*
X73812400Y-111607600D02*
X72964900Y-110760100D01*
X78790800Y-114350800D02*
X76047600Y-111607600D01*
X71259700Y-117030500D02*
X72312901Y-118083701D01*
X76826441Y-118083701D02*
X78790800Y-116119342D01*
X72312901Y-118083701D02*
X76826441Y-118083701D01*
X78790800Y-116119342D02*
X78790800Y-114350800D01*
X76047600Y-111607600D02*
X73812400Y-111607600D01*
X71247000Y-117043200D02*
X71259700Y-117030500D01*
X66540860Y-121275456D02*
X66540905Y-121275411D01*
X58962944Y-121275456D02*
X66540860Y-121275456D01*
X53340000Y-130619490D02*
X53340000Y-126898400D01*
X53340000Y-126898400D02*
X58962944Y-121275456D01*
X73599900Y-108553250D02*
X73599900Y-109566300D01*
X73599900Y-108553250D02*
X73599900Y-109820300D01*
X73599900Y-109820300D02*
X74828400Y-111048800D01*
X74828400Y-111048800D02*
X74828400Y-111048800D01*
X74591901Y-120040433D02*
X74828400Y-120276932D01*
X53492400Y-117043200D02*
X56489633Y-120040433D01*
X56489633Y-120040433D02*
X74591901Y-120040433D01*
X41757600Y-88646000D02*
X41757600Y-88646000D01*
X52576500Y-88646000D02*
X49428400Y-88646000D01*
X49428400Y-88646000D02*
X49377599Y-88595199D01*
X52576500Y-88646000D02*
X54457600Y-88646000D01*
X54457600Y-88646000D02*
X54457600Y-88646000D01*
X63246000Y-88646000D02*
X63195200Y-88595200D01*
X64590700Y-88646000D02*
X63246000Y-88646000D01*
X40194000Y-88646000D02*
X41724279Y-88646000D01*
X76897000Y-88595200D02*
X75488800Y-88595200D01*
X74947499Y-90151443D02*
X74947499Y-89680561D01*
X76032860Y-88595200D02*
X76897000Y-88595200D01*
X75731490Y-90935434D02*
X74947499Y-90151443D01*
X75731490Y-91426246D02*
X75731490Y-90935434D01*
X74947499Y-89680561D02*
X76032860Y-88595200D01*
X76151644Y-91846400D02*
X75731490Y-91426246D01*
X83058000Y-91846400D02*
X76151644Y-91846400D01*
X107356600Y-88595200D02*
X109048839Y-88595200D01*
X109048839Y-88595200D02*
X109114402Y-88660763D01*
X122037000Y-91920000D02*
X118777763Y-88660763D01*
X118777763Y-88660763D02*
X109114402Y-88660763D01*
X70154800Y-74625200D02*
X67049499Y-77730501D01*
X64769501Y-77730501D02*
X63729000Y-76690000D01*
X70154800Y-70307223D02*
X70154800Y-74625200D01*
X67049499Y-77730501D02*
X64769501Y-77730501D01*
X67310000Y-100757925D02*
X67441159Y-100889084D01*
X67310000Y-99278850D02*
X67310000Y-100757925D01*
X67249900Y-99218750D02*
X67310000Y-99278850D01*
X67310000Y-95722755D02*
X67324557Y-95737312D01*
X67310000Y-79502000D02*
X67310000Y-95722755D01*
X67614800Y-79197200D02*
X67310000Y-79502000D01*
X110236000Y-70307223D02*
X110134423Y-70307223D01*
X110134423Y-70307223D02*
X70154800Y-70307223D01*
X120665936Y-88458736D02*
X121587200Y-89380000D01*
X121587200Y-89380000D02*
X122037000Y-89380000D01*
X120665936Y-70307223D02*
X120665936Y-88458736D01*
X110134423Y-70307223D02*
X120665936Y-70307223D01*
X122068700Y-81791700D02*
X122037000Y-81760000D01*
X66167000Y-117043200D02*
X62280800Y-117043200D01*
X62280800Y-117043200D02*
X61214000Y-118110000D01*
X43180000Y-130810000D02*
X43180000Y-126408264D01*
X45466000Y-124122264D02*
X45466000Y-121158000D01*
X43180000Y-126408264D02*
X45466000Y-124122264D01*
X58674000Y-120650000D02*
X56896000Y-120650000D01*
X56896000Y-120650000D02*
X52070000Y-125476000D01*
X67741800Y-118618000D02*
X76651366Y-118618000D01*
X79044810Y-116224556D02*
X79044810Y-113868202D01*
X66167000Y-117043200D02*
X67741800Y-118618000D01*
X79044810Y-113868202D02*
X84074012Y-108839000D01*
X76651366Y-118618000D02*
X79044810Y-116224556D01*
X84074000Y-104013000D02*
X84074000Y-100711000D01*
X107696000Y-100965000D02*
X107696000Y-100838000D01*
X125374400Y-88036400D02*
X127000000Y-89662000D01*
X124155200Y-88036400D02*
X125374400Y-88036400D01*
X107696000Y-100620058D02*
X107696000Y-100838000D01*
X108748058Y-99568000D02*
X107696000Y-100620058D01*
X123190000Y-87071200D02*
X124155200Y-88036400D01*
X123190000Y-82913000D02*
X123190000Y-87071200D01*
X122037000Y-81760000D02*
X123190000Y-82913000D01*
X127000000Y-89662000D02*
X127000000Y-99568000D01*
X127000000Y-99568000D02*
X108748058Y-99568000D01*
X66614900Y-99218750D02*
X66614900Y-100785736D01*
X66614900Y-100785736D02*
X66714158Y-100884994D01*
X68732400Y-79197200D02*
X67614789Y-80314811D01*
X67614789Y-95000292D02*
X67816708Y-95202211D01*
X67614789Y-80314811D02*
X67614789Y-95000292D01*
X69900789Y-70201986D02*
X70049563Y-70053212D01*
X123342400Y-77914600D02*
X122037000Y-79220000D01*
X123342400Y-72132398D02*
X123342400Y-77914600D01*
X66269000Y-76690000D02*
X69900789Y-73058211D01*
X70049563Y-70053212D02*
X121263214Y-70053212D01*
X69900789Y-73058211D02*
X69900789Y-70201986D01*
X121263214Y-70053212D02*
X123342400Y-72132398D01*
X34861500Y-108553250D02*
X34861500Y-107048300D01*
X34861500Y-107048300D02*
X34861500Y-107048300D01*
X52006500Y-107073700D02*
X51968400Y-107035600D01*
X52006500Y-108553250D02*
X52006500Y-107073700D01*
X51968400Y-107035600D02*
X58928000Y-107035600D01*
X58928000Y-107035600D02*
X58928000Y-107035600D01*
X58928000Y-108486350D02*
X58994900Y-108553250D01*
X58928000Y-107035600D02*
X58928000Y-108486350D01*
X76139900Y-107077100D02*
X76098400Y-107035600D01*
X76139900Y-108553250D02*
X76139900Y-107077100D01*
X127457200Y-89720200D02*
X127457200Y-103838365D01*
X127457200Y-103838365D02*
X127506417Y-103887582D01*
X124577000Y-86840000D02*
X127457200Y-89720200D01*
X84988400Y-107035600D02*
X84277200Y-107035600D01*
X84988400Y-107035600D02*
X76098400Y-107035600D01*
X85047828Y-107035600D02*
X89111828Y-102971600D01*
X84988400Y-107035600D02*
X85047828Y-107035600D01*
X101681001Y-103677999D02*
X102108000Y-103251000D01*
X89111828Y-102971600D02*
X99283448Y-102971600D01*
X99283448Y-102971600D02*
X99989847Y-103677999D01*
X99989847Y-103677999D02*
X101681001Y-103677999D01*
X111906490Y-93662510D02*
X111906490Y-95923343D01*
X107061000Y-102699736D02*
X107061000Y-103124000D01*
X112097000Y-93472000D02*
X111906490Y-93662510D01*
X111906490Y-95923343D02*
X107061000Y-100768833D01*
X107061000Y-100768833D02*
X107061000Y-102699736D01*
X112834500Y-93472000D02*
X112097000Y-93472000D01*
X66269000Y-74150000D02*
X66269000Y-73173000D01*
X66269000Y-73173000D02*
X69642799Y-69799201D01*
X69642799Y-69799201D02*
X126339601Y-69799201D01*
X126339601Y-69799201D02*
X126949200Y-70408800D01*
X126949200Y-70408800D02*
X126949200Y-85699600D01*
X65979900Y-99218750D02*
X65979900Y-100898102D01*
X65979900Y-100898102D02*
X65938402Y-100939600D01*
X67868800Y-94226154D02*
X68329916Y-94687270D01*
X67868800Y-81076800D02*
X67868800Y-94226154D01*
X69748400Y-79197200D02*
X67868800Y-81076800D01*
X62534800Y-110591600D02*
X62534800Y-110591600D01*
X62738000Y-110388400D02*
X62534800Y-110591600D01*
X65929100Y-110388400D02*
X62738000Y-110388400D01*
X66614900Y-109702600D02*
X65929100Y-110388400D01*
X66614900Y-108553250D02*
X66614900Y-109702600D01*
X63735442Y-121021445D02*
X62974502Y-121021445D01*
X62974502Y-121021445D02*
X62484000Y-120530943D01*
X63971986Y-120784901D02*
X63735442Y-121021445D01*
X74251201Y-120784901D02*
X63971986Y-120784901D01*
X74487744Y-121021445D02*
X74251201Y-120784901D01*
X75169056Y-121021445D02*
X74487744Y-121021445D01*
X75692901Y-120497600D02*
X75169056Y-121021445D01*
X78740000Y-120497600D02*
X75692901Y-120497600D01*
X78740000Y-130810000D02*
X78740000Y-121612476D01*
X78740000Y-121612476D02*
X78740000Y-120497600D01*
X102082622Y-121767578D02*
X105957001Y-117893199D01*
X91135253Y-121767578D02*
X102082622Y-121767578D01*
X90982831Y-121920000D02*
X91135253Y-121767578D01*
X88282825Y-121920000D02*
X90982831Y-121920000D01*
X87213309Y-121105576D02*
X87468401Y-121105576D01*
X87179978Y-121072245D02*
X87213309Y-121105576D01*
X86171766Y-121072245D02*
X87179978Y-121072245D01*
X85584937Y-120485416D02*
X86171766Y-121072245D01*
X79867060Y-120485416D02*
X85584937Y-120485416D01*
X78740000Y-121612476D02*
X79867060Y-120485416D01*
X87468401Y-121105576D02*
X88282825Y-121920000D01*
X105957001Y-117893199D02*
X106807000Y-117043200D01*
X104013000Y-99287250D02*
X103944500Y-99218750D01*
D18*
X103886000Y-99277250D02*
X103944500Y-99218750D01*
X103886000Y-100711000D02*
X103886000Y-99277250D01*
X103886000Y-100711000D02*
X105537000Y-102362000D01*
X105537000Y-102362000D02*
X105537000Y-104648000D01*
X105918000Y-113030000D02*
X105918000Y-107442000D01*
X107950000Y-115900200D02*
X107950000Y-114089238D01*
X107144762Y-113284000D02*
X106172000Y-113284000D01*
X105918000Y-107442000D02*
X105537000Y-107061000D01*
X106172000Y-113284000D02*
X105918000Y-113030000D01*
X107950000Y-114089238D02*
X107144762Y-113284000D01*
X106807000Y-117043200D02*
X107950000Y-115900200D01*
X86799500Y-99218750D02*
X86799500Y-100758691D01*
X86799500Y-100758691D02*
X86896299Y-100855490D01*
D17*
X64590700Y-92456000D02*
X66497200Y-92456000D01*
X66497200Y-92456000D02*
X66446400Y-92456000D01*
X78587600Y-94183200D02*
X83261200Y-94183200D01*
X83261200Y-94183200D02*
X83261203Y-94183203D01*
X107356600Y-86055200D02*
X109202510Y-86055200D01*
X78638400Y-93268800D02*
X78638400Y-93268800D01*
X76897000Y-86055200D02*
X78468590Y-86055200D01*
X107356600Y-92405200D02*
X107356600Y-92116600D01*
X83481920Y-93268800D02*
X84181346Y-92569374D01*
X78638400Y-93268800D02*
X83481920Y-93268800D01*
X108179890Y-92116600D02*
X108966000Y-91330490D01*
X107356600Y-92116600D02*
X108179890Y-92116600D01*
X49326800Y-91795600D02*
X49326800Y-91795600D01*
X52576500Y-92456000D02*
X52068500Y-91948000D01*
X52068500Y-91948000D02*
X49326802Y-91948000D01*
X38760400Y-86564600D02*
X38760400Y-90576400D01*
X39219000Y-86106000D02*
X38760400Y-86564600D01*
X41040956Y-90576400D02*
X41775079Y-91310523D01*
X41775079Y-91310523D02*
X41775079Y-91795600D01*
X40194000Y-86106000D02*
X39219000Y-86106000D01*
X38760400Y-90576400D02*
X41040956Y-90576400D01*
X40194000Y-92456000D02*
X41452800Y-93726000D01*
X41452800Y-93726000D02*
X41452800Y-93714800D01*
X60248800Y-94996000D02*
X60248800Y-94996000D01*
X64590700Y-86106000D02*
X63615700Y-86106000D01*
X62627650Y-94817351D02*
X62806290Y-94995991D01*
X63615700Y-86106000D02*
X62627650Y-87094050D01*
X62627650Y-87094050D02*
X62627650Y-94817351D01*
X60131323Y-94996000D02*
X59016482Y-93881159D01*
X59016482Y-93881159D02*
X59016482Y-93741107D01*
X50741314Y-93726000D02*
X50897657Y-93569657D01*
X51003200Y-93675200D02*
X50897657Y-93569657D01*
X49174400Y-93726000D02*
X50741314Y-93726000D01*
X51003200Y-93726000D02*
X51003200Y-93675200D01*
D18*
X88963500Y-87832700D02*
X89980000Y-88849200D01*
X89980000Y-88849200D02*
X94792800Y-88849200D01*
X99298000Y-87223600D02*
X96570800Y-87223600D01*
X99309600Y-87235200D02*
X99298000Y-87223600D01*
D17*
X114300000Y-125482536D02*
X114300000Y-130810000D01*
X123546499Y-118083701D02*
X121698835Y-118083701D01*
X121698835Y-118083701D02*
X114300000Y-125482536D01*
X124587000Y-117043200D02*
X123546499Y-118083701D01*
X118466499Y-115543701D02*
X119507000Y-114503200D01*
X118466499Y-117553925D02*
X118466499Y-115543701D01*
X113744814Y-122275610D02*
X118466499Y-117553925D01*
X112610891Y-122275609D02*
X113744814Y-122275610D01*
X106680000Y-128206500D02*
X112610891Y-122275609D01*
X106680000Y-130810000D02*
X106680000Y-128206500D01*
X119329200Y-114503200D02*
X119507000Y-114503200D01*
X63500000Y-110947200D02*
X63500000Y-110947200D01*
X67249900Y-109702600D02*
X66005300Y-110947200D01*
X66005300Y-110947200D02*
X63500000Y-110947200D01*
X67249900Y-108553250D02*
X67249900Y-109702600D01*
X63500000Y-110947200D02*
X63398400Y-111048800D01*
X81280000Y-123799600D02*
X79451200Y-121970800D01*
X81280000Y-130810000D02*
X81280000Y-123799600D01*
X79349600Y-120276932D02*
X79298800Y-120226132D01*
X75605144Y-120226132D02*
X75063842Y-120767434D01*
X74625189Y-120767434D02*
X74337898Y-120480143D01*
X63550800Y-120480143D02*
X63500000Y-120530943D01*
X74337898Y-120480143D02*
X63550800Y-120480143D01*
X75063842Y-120767434D02*
X74625189Y-120767434D01*
X79298800Y-120226132D02*
X75605144Y-120226132D01*
X87573615Y-120851565D02*
X87318523Y-120851565D01*
X86276980Y-120818234D02*
X85435679Y-119976933D01*
X87285192Y-120818234D02*
X86276980Y-120818234D01*
X87318523Y-120851565D02*
X87285192Y-120818234D01*
X90877617Y-121665989D02*
X88388039Y-121665989D01*
X85435679Y-119976933D02*
X79649599Y-119976933D01*
X101904833Y-121513567D02*
X91030039Y-121513567D01*
X88388039Y-121665989D02*
X87573615Y-120851565D01*
X91030039Y-121513567D02*
X90877617Y-121665989D01*
X79649599Y-119976933D02*
X79349600Y-120276932D01*
X105511600Y-117906800D02*
X101904833Y-121513567D01*
X106807000Y-114503200D02*
X105511600Y-115798600D01*
X105511600Y-115798600D02*
X105511600Y-117906800D01*
D18*
X102616000Y-108494750D02*
X102674500Y-108553250D01*
X102616000Y-107068900D02*
X102616000Y-108494750D01*
X88069500Y-107237464D02*
X88386002Y-106920962D01*
X88386002Y-105530998D02*
X88011004Y-105156000D01*
X88069500Y-108553250D02*
X88069500Y-107237464D01*
X88386002Y-106920962D02*
X88386002Y-105530998D01*
D17*
X107460068Y-108062000D02*
X107458534Y-108060466D01*
X109913500Y-108062000D02*
X107460068Y-108062000D01*
X106807000Y-114503200D02*
X105410004Y-113106204D01*
X105410004Y-113106204D02*
X105410004Y-108077000D01*
D18*
X102674500Y-99218750D02*
X102674500Y-100509987D01*
X102674500Y-100509987D02*
X102742983Y-100578470D01*
D17*
X104427301Y-104614697D02*
X102742983Y-102930379D01*
X102742983Y-102930379D02*
X102742983Y-100578470D01*
D18*
X88137996Y-102314212D02*
X88137996Y-100710996D01*
X86995000Y-104140000D02*
X86995000Y-103457208D01*
X88069500Y-100642500D02*
X88137996Y-100710996D01*
X88069500Y-99218750D02*
X88069500Y-100642500D01*
X86995000Y-103457208D02*
X88137996Y-102314212D01*
X103886000Y-108611750D02*
X103944500Y-108553250D01*
D17*
X67084800Y-106299000D02*
X69088000Y-106299000D01*
X65979900Y-107403900D02*
X67084800Y-106299000D01*
X65979900Y-108553250D02*
X65979900Y-107403900D01*
X86799500Y-106865486D02*
X86741000Y-106806986D01*
X86799500Y-108553250D02*
X86799500Y-106865486D01*
X103944500Y-106836476D02*
X103944500Y-108553250D01*
X103043523Y-105935499D02*
X103944500Y-106836476D01*
X89517501Y-105935499D02*
X103043523Y-105935499D01*
X89154000Y-106299000D02*
X89517501Y-105935499D01*
X84962997Y-106298997D02*
X79586128Y-106298997D01*
X79586128Y-106298997D02*
X79470389Y-106414736D01*
X111125000Y-96266000D02*
X111125000Y-95293264D01*
X111125000Y-95293264D02*
X111125000Y-94869000D01*
X106299000Y-103360500D02*
X106299000Y-101022831D01*
X107297513Y-100093487D02*
X111125000Y-96266000D01*
X106299000Y-101022831D02*
X107228344Y-100093487D01*
X107228344Y-100093487D02*
X107297513Y-100093487D01*
X112834500Y-94772000D02*
X113937147Y-94772000D01*
X113937147Y-94772000D02*
X114034147Y-94869000D01*
X118379000Y-108062000D02*
X119184500Y-108062000D01*
X117079000Y-109362000D02*
X118379000Y-108062000D01*
X115638500Y-109362000D02*
X117079000Y-109362000D01*
X119184500Y-108062000D02*
X120526154Y-108062000D01*
X120526154Y-108062000D02*
X120540490Y-108047664D01*
X121123013Y-100179345D02*
X121122614Y-100178946D01*
X121123013Y-103378000D02*
X121123013Y-100179345D01*
X119184500Y-106762000D02*
X119520500Y-106426000D01*
X119520500Y-106426000D02*
X120142000Y-106426000D01*
X120396000Y-103378000D02*
X120396000Y-100203000D01*
D18*
X109220000Y-127000000D02*
X112395000Y-123825000D01*
X109220000Y-130810000D02*
X109220000Y-127000000D01*
X104267000Y-114503200D02*
X103886000Y-114122200D01*
D17*
X104267000Y-114503200D02*
X104267000Y-110490000D01*
X109904000Y-107421500D02*
X109913500Y-107412000D01*
X108331000Y-107421500D02*
X109904000Y-107421500D01*
X108331000Y-104521000D02*
X108331000Y-100838002D01*
X108331000Y-100838002D02*
X109093000Y-100076002D01*
X114510314Y-94122000D02*
X114524657Y-94136343D01*
X112834500Y-94122000D02*
X114510314Y-94122000D01*
X116683000Y-110012000D02*
X116713000Y-109982000D01*
X115638500Y-110012000D02*
X116683000Y-110012000D01*
X115668500Y-107442000D02*
X115638500Y-107412000D01*
X116713000Y-107442000D02*
X115668500Y-107442000D01*
X115140154Y-110662000D02*
X115638500Y-110662000D01*
X113190154Y-108712000D02*
X115140154Y-110662000D01*
X109913500Y-108712000D02*
X113190154Y-108712000D01*
X111080000Y-106762000D02*
X111125000Y-106807000D01*
X109913500Y-106762000D02*
X111080000Y-106762000D01*
X109928500Y-109347000D02*
X109913500Y-109362000D01*
X111125000Y-109347000D02*
X109928500Y-109347000D01*
X109913500Y-110012000D02*
X109913500Y-109362000D01*
X118559500Y-94122000D02*
X119873000Y-94122000D01*
X119873000Y-97284500D02*
X121666000Y-99077500D01*
X119873000Y-94122000D02*
X119873000Y-97284500D01*
X119214500Y-109982000D02*
X119184500Y-110012000D01*
X120650000Y-109982000D02*
X119214500Y-109982000D01*
X121850026Y-103378000D02*
X121850026Y-100208817D01*
X121850026Y-100208817D02*
X121849051Y-100207842D01*
X89408000Y-130302000D02*
X88900000Y-130810000D01*
X89408000Y-125730000D02*
X89408000Y-130302000D01*
X118559500Y-98130000D02*
X119507000Y-99077500D01*
X118559500Y-95422000D02*
X118559500Y-98130000D01*
X119507000Y-102743000D02*
X117602000Y-104648000D01*
X119507000Y-101600000D02*
X119507000Y-102743000D01*
X112927501Y-116002699D02*
X111887000Y-117043200D01*
X112927501Y-114462757D02*
X112927501Y-116002699D01*
X115884258Y-111506000D02*
X112927501Y-114462757D01*
X117221000Y-111506000D02*
X115884258Y-111506000D01*
X89662000Y-122174000D02*
X89408000Y-122428000D01*
X103216142Y-122174000D02*
X89662000Y-122174000D01*
X107026142Y-118364000D02*
X103216142Y-122174000D01*
X110566200Y-118364000D02*
X107026142Y-118364000D01*
X111887000Y-117043200D02*
X110566200Y-118364000D01*
X118630500Y-83820000D02*
X118559500Y-83749000D01*
X119888000Y-83820000D02*
X118630500Y-83820000D01*
D18*
X112834500Y-83099000D02*
X116315012Y-83099000D01*
X116315012Y-83099000D02*
X116965012Y-83749000D01*
X116965012Y-83749000D02*
X118559500Y-83749000D01*
D17*
X117150000Y-84399000D02*
X117221000Y-84328000D01*
X112834500Y-84399000D02*
X117150000Y-84399000D01*
X118629836Y-83028664D02*
X118559500Y-83099000D01*
X119858664Y-83028664D02*
X118629836Y-83028664D01*
X116690500Y-83099000D02*
X118559500Y-83099000D01*
X116040500Y-82449000D02*
X116690500Y-83099000D01*
X112834500Y-82449000D02*
X116040500Y-82449000D01*
D18*
X113861500Y-80772000D02*
X112834500Y-81799000D01*
X118745000Y-80772000D02*
X113861500Y-80772000D01*
D17*
X118745000Y-80772000D02*
X120269000Y-80772000D01*
X123536499Y-93419499D02*
X124577000Y-94460000D01*
X123536499Y-91879557D02*
X123536499Y-93419499D01*
X122536441Y-90879499D02*
X123536499Y-91879557D01*
X121996557Y-90879499D02*
X122536441Y-90879499D01*
X120378501Y-89261443D02*
X121996557Y-90879499D01*
X120378501Y-80881501D02*
X120378501Y-89261443D01*
X120269000Y-80772000D02*
X120378501Y-80881501D01*
X113762510Y-91981490D02*
X113762510Y-90902510D01*
X113762510Y-90902510D02*
X113411000Y-90551000D01*
X113572000Y-92172000D02*
X113762510Y-91981490D01*
X112834500Y-92172000D02*
X113572000Y-92172000D01*
X117387275Y-76944501D02*
X119075191Y-75256585D01*
X114317499Y-76944501D02*
X117387275Y-76944501D01*
X119075191Y-75256585D02*
X119075191Y-73158217D01*
X110853500Y-80408500D02*
X114317499Y-76944501D01*
X119075191Y-73158217D02*
X117544974Y-71628000D01*
X110853500Y-87122000D02*
X110853500Y-80408500D01*
X114532224Y-77216000D02*
X117475000Y-77216000D01*
X111252000Y-80496224D02*
X114532224Y-77216000D01*
X112834500Y-85049000D02*
X112097000Y-85049000D01*
X111252000Y-84204000D02*
X111252000Y-80496224D01*
X112097000Y-85049000D02*
X111252000Y-84204000D01*
X119425999Y-72782012D02*
X118271987Y-71628000D01*
X117475000Y-77216000D02*
X119425999Y-75265001D01*
X119425999Y-75265001D02*
X119425999Y-72782012D01*
X119507000Y-93472000D02*
X119582224Y-93472000D01*
X118559500Y-93472000D02*
X119507000Y-93472000D01*
X114031000Y-92822000D02*
X116586000Y-95377000D01*
X112834500Y-92822000D02*
X114031000Y-92822000D01*
X112722500Y-92710000D02*
X112834500Y-92822000D01*
X110617000Y-92710000D02*
X112722500Y-92710000D01*
X109791489Y-86695001D02*
X109791489Y-79968286D01*
X109491490Y-86995000D02*
X109791489Y-86695001D01*
X109791489Y-79968286D02*
X114564875Y-75194900D01*
X114564875Y-75194900D02*
X118443190Y-75194900D01*
X120015001Y-88773000D02*
X119888001Y-88900000D01*
X120015001Y-84854559D02*
X120015001Y-88773000D01*
X119559442Y-84399000D02*
X120015001Y-84854559D01*
X118559500Y-84399000D02*
X119559442Y-84399000D01*
X118589500Y-92202000D02*
X118559500Y-92172000D01*
X119761000Y-92202000D02*
X118589500Y-92202000D01*
X115308700Y-85699000D02*
X112903000Y-88104700D01*
X118559500Y-85699000D02*
X115308700Y-85699000D01*
X112903000Y-91453500D02*
X112834500Y-91522000D01*
X112903000Y-89933500D02*
X112903000Y-91453500D01*
D18*
X118600500Y-85090000D02*
X118559500Y-85049000D01*
X123455511Y-85237120D02*
X123455511Y-82803022D01*
X123444000Y-78663303D02*
X124577000Y-77453606D01*
X123444000Y-82791511D02*
X123444000Y-78663303D01*
X123455511Y-82803022D02*
X123444000Y-82791511D01*
X124577000Y-77453606D02*
X124577000Y-76680000D01*
D17*
X119466000Y-85049000D02*
X119507000Y-85090000D01*
X118559500Y-85049000D02*
X119466000Y-85049000D01*
X123571000Y-85344000D02*
X123444010Y-85217010D01*
X123680500Y-85344000D02*
X123571000Y-85344000D01*
M02*
