G04 #@! TF.GenerationSoftware,KiCad,Pcbnew,(5.1.12-1-10_14)*
G04 #@! TF.CreationDate,2023-11-15T20:51:55-07:00*
G04 #@! TF.ProjectId,GenMemBlock,47656e4d-656d-4426-9c6f-636b2e6b6963,rev?*
G04 #@! TF.SameCoordinates,Original*
G04 #@! TF.FileFunction,Paste,Bot*
G04 #@! TF.FilePolarity,Positive*
%FSLAX46Y46*%
G04 Gerber Fmt 4.6, Leading zero omitted, Abs format (unit mm)*
G04 Created by KiCad (PCBNEW (5.1.12-1-10_14)) date 2023-11-15 20:51:55*
%MOMM*%
%LPD*%
G01*
G04 APERTURE LIST*
G04 APERTURE END LIST*
G36*
G01*
X115349000Y-84016000D02*
X116299000Y-84016000D01*
G75*
G02*
X116549000Y-84266000I0J-250000D01*
G01*
X116549000Y-84941000D01*
G75*
G02*
X116299000Y-85191000I-250000J0D01*
G01*
X115349000Y-85191000D01*
G75*
G02*
X115099000Y-84941000I0J250000D01*
G01*
X115099000Y-84266000D01*
G75*
G02*
X115349000Y-84016000I250000J0D01*
G01*
G37*
G36*
G01*
X115349000Y-81941000D02*
X116299000Y-81941000D01*
G75*
G02*
X116549000Y-82191000I0J-250000D01*
G01*
X116549000Y-82866000D01*
G75*
G02*
X116299000Y-83116000I-250000J0D01*
G01*
X115349000Y-83116000D01*
G75*
G02*
X115099000Y-82866000I0J250000D01*
G01*
X115099000Y-82191000D01*
G75*
G02*
X115349000Y-81941000I250000J0D01*
G01*
G37*
G36*
G01*
X121826000Y-108908000D02*
X122776000Y-108908000D01*
G75*
G02*
X123026000Y-109158000I0J-250000D01*
G01*
X123026000Y-109833000D01*
G75*
G02*
X122776000Y-110083000I-250000J0D01*
G01*
X121826000Y-110083000D01*
G75*
G02*
X121576000Y-109833000I0J250000D01*
G01*
X121576000Y-109158000D01*
G75*
G02*
X121826000Y-108908000I250000J0D01*
G01*
G37*
G36*
G01*
X121826000Y-106833000D02*
X122776000Y-106833000D01*
G75*
G02*
X123026000Y-107083000I0J-250000D01*
G01*
X123026000Y-107758000D01*
G75*
G02*
X122776000Y-108008000I-250000J0D01*
G01*
X121826000Y-108008000D01*
G75*
G02*
X121576000Y-107758000I0J250000D01*
G01*
X121576000Y-107083000D01*
G75*
G02*
X121826000Y-106833000I250000J0D01*
G01*
G37*
G36*
G01*
X115349000Y-93795000D02*
X116299000Y-93795000D01*
G75*
G02*
X116549000Y-94045000I0J-250000D01*
G01*
X116549000Y-94720000D01*
G75*
G02*
X116299000Y-94970000I-250000J0D01*
G01*
X115349000Y-94970000D01*
G75*
G02*
X115099000Y-94720000I0J250000D01*
G01*
X115099000Y-94045000D01*
G75*
G02*
X115349000Y-93795000I250000J0D01*
G01*
G37*
G36*
G01*
X115349000Y-91720000D02*
X116299000Y-91720000D01*
G75*
G02*
X116549000Y-91970000I0J-250000D01*
G01*
X116549000Y-92645000D01*
G75*
G02*
X116299000Y-92895000I-250000J0D01*
G01*
X115349000Y-92895000D01*
G75*
G02*
X115099000Y-92645000I0J250000D01*
G01*
X115099000Y-91970000D01*
G75*
G02*
X115349000Y-91720000I250000J0D01*
G01*
G37*
G36*
G01*
X112301000Y-108908000D02*
X113251000Y-108908000D01*
G75*
G02*
X113501000Y-109158000I0J-250000D01*
G01*
X113501000Y-109833000D01*
G75*
G02*
X113251000Y-110083000I-250000J0D01*
G01*
X112301000Y-110083000D01*
G75*
G02*
X112051000Y-109833000I0J250000D01*
G01*
X112051000Y-109158000D01*
G75*
G02*
X112301000Y-108908000I250000J0D01*
G01*
G37*
G36*
G01*
X112301000Y-106833000D02*
X113251000Y-106833000D01*
G75*
G02*
X113501000Y-107083000I0J-250000D01*
G01*
X113501000Y-107758000D01*
G75*
G02*
X113251000Y-108008000I-250000J0D01*
G01*
X112301000Y-108008000D01*
G75*
G02*
X112051000Y-107758000I0J250000D01*
G01*
X112051000Y-107083000D01*
G75*
G02*
X112301000Y-106833000I250000J0D01*
G01*
G37*
G36*
G01*
X124111599Y-103778000D02*
X125011601Y-103778000D01*
G75*
G02*
X125261600Y-104027999I0J-249999D01*
G01*
X125261600Y-104728001D01*
G75*
G02*
X125011601Y-104978000I-249999J0D01*
G01*
X124111599Y-104978000D01*
G75*
G02*
X123861600Y-104728001I0J249999D01*
G01*
X123861600Y-104027999D01*
G75*
G02*
X124111599Y-103778000I249999J0D01*
G01*
G37*
G36*
G01*
X124111599Y-101778000D02*
X125011601Y-101778000D01*
G75*
G02*
X125261600Y-102027999I0J-249999D01*
G01*
X125261600Y-102728001D01*
G75*
G02*
X125011601Y-102978000I-249999J0D01*
G01*
X124111599Y-102978000D01*
G75*
G02*
X123861600Y-102728001I0J249999D01*
G01*
X123861600Y-102027999D01*
G75*
G02*
X124111599Y-101778000I249999J0D01*
G01*
G37*
G36*
G01*
X38194000Y-84241000D02*
X37244000Y-84241000D01*
G75*
G02*
X36994000Y-83991000I0J250000D01*
G01*
X36994000Y-83316000D01*
G75*
G02*
X37244000Y-83066000I250000J0D01*
G01*
X38194000Y-83066000D01*
G75*
G02*
X38444000Y-83316000I0J-250000D01*
G01*
X38444000Y-83991000D01*
G75*
G02*
X38194000Y-84241000I-250000J0D01*
G01*
G37*
G36*
G01*
X38194000Y-86316000D02*
X37244000Y-86316000D01*
G75*
G02*
X36994000Y-86066000I0J250000D01*
G01*
X36994000Y-85391000D01*
G75*
G02*
X37244000Y-85141000I250000J0D01*
G01*
X38194000Y-85141000D01*
G75*
G02*
X38444000Y-85391000I0J-250000D01*
G01*
X38444000Y-86066000D01*
G75*
G02*
X38194000Y-86316000I-250000J0D01*
G01*
G37*
G36*
G01*
X74897000Y-84190200D02*
X73947000Y-84190200D01*
G75*
G02*
X73697000Y-83940200I0J250000D01*
G01*
X73697000Y-83265200D01*
G75*
G02*
X73947000Y-83015200I250000J0D01*
G01*
X74897000Y-83015200D01*
G75*
G02*
X75147000Y-83265200I0J-250000D01*
G01*
X75147000Y-83940200D01*
G75*
G02*
X74897000Y-84190200I-250000J0D01*
G01*
G37*
G36*
G01*
X74897000Y-86265200D02*
X73947000Y-86265200D01*
G75*
G02*
X73697000Y-86015200I0J250000D01*
G01*
X73697000Y-85340200D01*
G75*
G02*
X73947000Y-85090200I250000J0D01*
G01*
X74897000Y-85090200D01*
G75*
G02*
X75147000Y-85340200I0J-250000D01*
G01*
X75147000Y-86015200D01*
G75*
G02*
X74897000Y-86265200I-250000J0D01*
G01*
G37*
G36*
G01*
X94876600Y-85090200D02*
X95826600Y-85090200D01*
G75*
G02*
X96076600Y-85340200I0J-250000D01*
G01*
X96076600Y-86015200D01*
G75*
G02*
X95826600Y-86265200I-250000J0D01*
G01*
X94876600Y-86265200D01*
G75*
G02*
X94626600Y-86015200I0J250000D01*
G01*
X94626600Y-85340200D01*
G75*
G02*
X94876600Y-85090200I250000J0D01*
G01*
G37*
G36*
G01*
X94876600Y-83015200D02*
X95826600Y-83015200D01*
G75*
G02*
X96076600Y-83265200I0J-250000D01*
G01*
X96076600Y-83940200D01*
G75*
G02*
X95826600Y-84190200I-250000J0D01*
G01*
X94876600Y-84190200D01*
G75*
G02*
X94626600Y-83940200I0J250000D01*
G01*
X94626600Y-83265200D01*
G75*
G02*
X94876600Y-83015200I250000J0D01*
G01*
G37*
G36*
G01*
X92093200Y-106393000D02*
X92093200Y-105443000D01*
G75*
G02*
X92343200Y-105193000I250000J0D01*
G01*
X93018200Y-105193000D01*
G75*
G02*
X93268200Y-105443000I0J-250000D01*
G01*
X93268200Y-106393000D01*
G75*
G02*
X93018200Y-106643000I-250000J0D01*
G01*
X92343200Y-106643000D01*
G75*
G02*
X92093200Y-106393000I0J250000D01*
G01*
G37*
G36*
G01*
X90018200Y-106393000D02*
X90018200Y-105443000D01*
G75*
G02*
X90268200Y-105193000I250000J0D01*
G01*
X90943200Y-105193000D01*
G75*
G02*
X91193200Y-105443000I0J-250000D01*
G01*
X91193200Y-106393000D01*
G75*
G02*
X90943200Y-106643000I-250000J0D01*
G01*
X90268200Y-106643000D01*
G75*
G02*
X90018200Y-106393000I0J250000D01*
G01*
G37*
G36*
G01*
X40328000Y-106393000D02*
X40328000Y-105443000D01*
G75*
G02*
X40578000Y-105193000I250000J0D01*
G01*
X41253000Y-105193000D01*
G75*
G02*
X41503000Y-105443000I0J-250000D01*
G01*
X41503000Y-106393000D01*
G75*
G02*
X41253000Y-106643000I-250000J0D01*
G01*
X40578000Y-106643000D01*
G75*
G02*
X40328000Y-106393000I0J250000D01*
G01*
G37*
G36*
G01*
X38253000Y-106393000D02*
X38253000Y-105443000D01*
G75*
G02*
X38503000Y-105193000I250000J0D01*
G01*
X39178000Y-105193000D01*
G75*
G02*
X39428000Y-105443000I0J-250000D01*
G01*
X39428000Y-106393000D01*
G75*
G02*
X39178000Y-106643000I-250000J0D01*
G01*
X38503000Y-106643000D01*
G75*
G02*
X38253000Y-106393000I0J250000D01*
G01*
G37*
G36*
G01*
X65016800Y-106393000D02*
X65016800Y-105443000D01*
G75*
G02*
X65266800Y-105193000I250000J0D01*
G01*
X65941800Y-105193000D01*
G75*
G02*
X66191800Y-105443000I0J-250000D01*
G01*
X66191800Y-106393000D01*
G75*
G02*
X65941800Y-106643000I-250000J0D01*
G01*
X65266800Y-106643000D01*
G75*
G02*
X65016800Y-106393000I0J250000D01*
G01*
G37*
G36*
G01*
X62941800Y-106393000D02*
X62941800Y-105443000D01*
G75*
G02*
X63191800Y-105193000I250000J0D01*
G01*
X63866800Y-105193000D01*
G75*
G02*
X64116800Y-105443000I0J-250000D01*
G01*
X64116800Y-106393000D01*
G75*
G02*
X63866800Y-106643000I-250000J0D01*
G01*
X63191800Y-106643000D01*
G75*
G02*
X62941800Y-106393000I0J250000D01*
G01*
G37*
G36*
G01*
X85885000Y-85090200D02*
X86835000Y-85090200D01*
G75*
G02*
X87085000Y-85340200I0J-250000D01*
G01*
X87085000Y-86015200D01*
G75*
G02*
X86835000Y-86265200I-250000J0D01*
G01*
X85885000Y-86265200D01*
G75*
G02*
X85635000Y-86015200I0J250000D01*
G01*
X85635000Y-85340200D01*
G75*
G02*
X85885000Y-85090200I250000J0D01*
G01*
G37*
G36*
G01*
X85885000Y-83015200D02*
X86835000Y-83015200D01*
G75*
G02*
X87085000Y-83265200I0J-250000D01*
G01*
X87085000Y-83940200D01*
G75*
G02*
X86835000Y-84190200I-250000J0D01*
G01*
X85885000Y-84190200D01*
G75*
G02*
X85635000Y-83940200I0J250000D01*
G01*
X85635000Y-83265200D01*
G75*
G02*
X85885000Y-83015200I250000J0D01*
G01*
G37*
G36*
G01*
X104970600Y-84190200D02*
X104020600Y-84190200D01*
G75*
G02*
X103770600Y-83940200I0J250000D01*
G01*
X103770600Y-83265200D01*
G75*
G02*
X104020600Y-83015200I250000J0D01*
G01*
X104970600Y-83015200D01*
G75*
G02*
X105220600Y-83265200I0J-250000D01*
G01*
X105220600Y-83940200D01*
G75*
G02*
X104970600Y-84190200I-250000J0D01*
G01*
G37*
G36*
G01*
X104970600Y-86265200D02*
X104020600Y-86265200D01*
G75*
G02*
X103770600Y-86015200I0J250000D01*
G01*
X103770600Y-85340200D01*
G75*
G02*
X104020600Y-85090200I250000J0D01*
G01*
X104970600Y-85090200D01*
G75*
G02*
X105220600Y-85340200I0J-250000D01*
G01*
X105220600Y-86015200D01*
G75*
G02*
X104970600Y-86265200I-250000J0D01*
G01*
G37*
G36*
G01*
X50576500Y-84640000D02*
X49626500Y-84640000D01*
G75*
G02*
X49376500Y-84390000I0J250000D01*
G01*
X49376500Y-83715000D01*
G75*
G02*
X49626500Y-83465000I250000J0D01*
G01*
X50576500Y-83465000D01*
G75*
G02*
X50826500Y-83715000I0J-250000D01*
G01*
X50826500Y-84390000D01*
G75*
G02*
X50576500Y-84640000I-250000J0D01*
G01*
G37*
G36*
G01*
X50576500Y-86715000D02*
X49626500Y-86715000D01*
G75*
G02*
X49376500Y-86465000I0J250000D01*
G01*
X49376500Y-85790000D01*
G75*
G02*
X49626500Y-85540000I250000J0D01*
G01*
X50576500Y-85540000D01*
G75*
G02*
X50826500Y-85790000I0J-250000D01*
G01*
X50826500Y-86465000D01*
G75*
G02*
X50576500Y-86715000I-250000J0D01*
G01*
G37*
G36*
G01*
X62590700Y-84241000D02*
X61640700Y-84241000D01*
G75*
G02*
X61390700Y-83991000I0J250000D01*
G01*
X61390700Y-83316000D01*
G75*
G02*
X61640700Y-83066000I250000J0D01*
G01*
X62590700Y-83066000D01*
G75*
G02*
X62840700Y-83316000I0J-250000D01*
G01*
X62840700Y-83991000D01*
G75*
G02*
X62590700Y-84241000I-250000J0D01*
G01*
G37*
G36*
G01*
X62590700Y-86316000D02*
X61640700Y-86316000D01*
G75*
G02*
X61390700Y-86066000I0J250000D01*
G01*
X61390700Y-85391000D01*
G75*
G02*
X61640700Y-85141000I250000J0D01*
G01*
X62590700Y-85141000D01*
G75*
G02*
X62840700Y-85391000I0J-250000D01*
G01*
X62840700Y-86066000D01*
G75*
G02*
X62590700Y-86316000I-250000J0D01*
G01*
G37*
G36*
G01*
X112667201Y-74733200D02*
X111767199Y-74733200D01*
G75*
G02*
X111517200Y-74483201I0J249999D01*
G01*
X111517200Y-73783199D01*
G75*
G02*
X111767199Y-73533200I249999J0D01*
G01*
X112667201Y-73533200D01*
G75*
G02*
X112917200Y-73783199I0J-249999D01*
G01*
X112917200Y-74483201D01*
G75*
G02*
X112667201Y-74733200I-249999J0D01*
G01*
G37*
G36*
G01*
X112667201Y-76733200D02*
X111767199Y-76733200D01*
G75*
G02*
X111517200Y-76483201I0J249999D01*
G01*
X111517200Y-75783199D01*
G75*
G02*
X111767199Y-75533200I249999J0D01*
G01*
X112667201Y-75533200D01*
G75*
G02*
X112917200Y-75783199I0J-249999D01*
G01*
X112917200Y-76483201D01*
G75*
G02*
X112667201Y-76733200I-249999J0D01*
G01*
G37*
G36*
G01*
X117036001Y-74733200D02*
X116135999Y-74733200D01*
G75*
G02*
X115886000Y-74483201I0J249999D01*
G01*
X115886000Y-73783199D01*
G75*
G02*
X116135999Y-73533200I249999J0D01*
G01*
X117036001Y-73533200D01*
G75*
G02*
X117286000Y-73783199I0J-249999D01*
G01*
X117286000Y-74483201D01*
G75*
G02*
X117036001Y-74733200I-249999J0D01*
G01*
G37*
G36*
G01*
X117036001Y-76733200D02*
X116135999Y-76733200D01*
G75*
G02*
X115886000Y-76483201I0J249999D01*
G01*
X115886000Y-75783199D01*
G75*
G02*
X116135999Y-75533200I249999J0D01*
G01*
X117036001Y-75533200D01*
G75*
G02*
X117286000Y-75783199I0J-249999D01*
G01*
X117286000Y-76483201D01*
G75*
G02*
X117036001Y-76733200I-249999J0D01*
G01*
G37*
M02*
