M48
; DRILL file {KiCad (5.1.12-1-10_14)} date Saturday, January 01, 2022 at 02:19:35 PM
; FORMAT={-:-/ absolute / metric / decimal}
; #@! TF.CreationDate,2022-01-01T14:19:35-07:00
; #@! TF.GenerationSoftware,Kicad,Pcbnew,(5.1.12-1-10_14)
; #@! TF.FileFunction,Plated,1,4,PTH
FMAT,2
METRIC
T1C0.300
T2C0.400
T3C1.000
%
G90
G05
T1
X31.598Y-91.135
X32.037Y-89.916
X32.291Y-87.373
X32.291Y-88.544
X32.614Y-101.448
X32.799Y-82.499
X33.104Y-100.838
X33.426Y-86.106
X33.477Y-89.916
X33.477Y-91.186
X33.526Y-88.595
X33.833Y-87.376
X34.798Y-105.918
X34.861Y-107.048
X34.95Y-103.226
X35.509Y-102.362
X36.17Y-103.226
X36.627Y-92.456
X36.83Y-102.362
X36.881Y-112.166
X37.186Y-118.821
X37.389Y-88.595
X37.401Y-110.782
X37.49Y-90.576
X37.795Y-112.166
X38.71Y-103.226
X38.825Y-83.653
X39.301Y-112.229
X39.306Y-93.891
X39.929Y-111.811
X39.941Y-96.406
X40.335Y-81.991
X40.538Y-100.838
X40.629Y-112.239
X41.25Y-102.362
X41.453Y-93.726
X41.724Y-87.376
X41.724Y-88.646
X41.724Y-89.916
X41.775Y-91.796
X41.846Y-101.435
X41.961Y-119.177
X41.961Y-84.785
X41.972Y-104.862
X42.35Y-83.972
X42.845Y-110.714
X43.01Y-91.186
X43.019Y-81.238
X43.251Y-110.111
X43.282Y-94.488
X43.383Y-89.256
X43.739Y-88.087
X43.739Y-120.007
X43.942Y-119.278
X44.062Y-94.477
X44.094Y-86.868
X44.653Y-123.444
X44.704Y-81.331
X44.755Y-86.004
X44.788Y-94.488
X45.019Y-118.788
X45.077Y-84.785
X45.466Y-121.158
X45.568Y-94.488
X45.593Y-83.591
X45.669Y-102.362
X45.72Y-104.242
X46.076Y-86.868
X46.076Y-91.186
X46.126Y-86.106
X46.126Y-88.087
X46.177Y-89.256
X46.193Y-84.836
X46.279Y-97.536
X46.479Y-118.767
X46.926Y-96.939
X47.488Y-96.312
X48.057Y-111.658
X48.26Y-103.226
X48.266Y-118.991
X48.768Y-96.571
X49.174Y-93.726
X49.327Y-91.948
X49.378Y-88.595
X49.378Y-89.916
X49.428Y-87.376
X50.089Y-92.507
X50.14Y-102.362
X50.698Y-104.242
X50.851Y-103.226
X51.029Y-91.11
X51.054Y-93.726
X51.308Y-83.515
X51.46Y-102.362
X51.511Y-120.667
X51.968Y-107.036
X52.07Y-103.226
X52.07Y-125.476
X52.373Y-120.667
X53.797Y-79.197
X54.458Y-88.646
X54.458Y-89.916
X54.508Y-86.106
X54.508Y-87.376
X54.559Y-110.134
X54.762Y-82.347
X55.026Y-111.137
X56.185Y-86.868
X56.388Y-84.277
X56.693Y-79.197
X57.15Y-85.293
X58.166Y-79.197
X58.674Y-120.65
X58.725Y-94.996
X58.928Y-107.036
X59.03Y-103.226
X59.639Y-93.777
X59.639Y-97.13
X60.131Y-94.996
X60.198Y-103.226
X60.96Y-104.242
X61.214Y-81.636
X61.214Y-118.11
X62.382Y-80.939
X62.382Y-105.969
X62.484Y-120.531
X62.535Y-110.592
X62.789Y-103.226
X62.806Y-94.996
X62.84Y-101.092
X63.195Y-91.186
X63.195Y-88.595
X63.195Y-89.916
X63.246Y-87.376
X63.491Y-83.321
X63.5Y-110.947
X63.5Y-120.531
X65.938Y-100.94
X66.497Y-92.456
X66.541Y-121.275
X66.714Y-100.885
X67.31Y-104.242
X67.325Y-95.737
X67.441Y-100.889
X67.615Y-79.197
X67.817Y-95.202
X67.861Y-121.275
X68.33Y-94.687
X68.478Y-103.226
X68.529Y-110.439
X68.732Y-79.197
X69.037Y-121.666
X69.41Y-85.649
X69.748Y-79.197
X69.748Y-104.14
X69.799Y-102.362
X70.206Y-121.717
X70.46Y-80.874
X71.737Y-111.074
X71.882Y-95.606
X72.288Y-111.963
X72.339Y-103.226
X72.441Y-110.617
X74.219Y-102.362
X74.828Y-103.226
X74.828Y-111.049
X74.828Y-120.277
X74.879Y-104.14
X75.438Y-89.916
X75.489Y-88.595
X75.54Y-102.362
X75.641Y-83.515
X76.048Y-103.226
X76.098Y-107.036
X76.302Y-121.107
X77.572Y-115.722
X78.249Y-121.107
X78.469Y-86.055
X78.537Y-102.413
X78.588Y-94.183
X78.638Y-93.269
X78.689Y-83.515
X79.299Y-91.135
X79.35Y-120.277
X79.451Y-121.971
X80.401Y-86.97
X80.569Y-82.753
X81.128Y-86.614
X81.128Y-121.564
X81.178Y-98.23
X81.432Y-82.042
X81.585Y-112.471
X81.799Y-120.976
X82.245Y-97.976
X82.347Y-102.362
X82.347Y-104.14
X82.906Y-82.042
X83.058Y-89.814
X83.058Y-91.846
X83.261Y-94.183
X83.668Y-85.954
X84.074Y-101.092
X84.074Y-105.918
X84.074Y-107.696
X84.176Y-93.624
X84.379Y-82.753
X84.785Y-90.492
X84.938Y-84.48
X85.446Y-82.144
X86.36Y-87.782
X86.442Y-119.95
X86.512Y-89.967
X87.376Y-102.362
X87.579Y-84.226
X87.63Y-83.414
X87.941Y-103.254
X88.087Y-110.134
X88.24Y-89.967
X88.256Y-120.09
X88.308Y-118.855
X88.375Y-112.925
X88.64Y-120.707
X89.021Y-110.649
X89.408Y-122.428
X89.408Y-125.73
X90.008Y-110.332
X90.077Y-118.812
X90.08Y-112.294
X90.158Y-120.413
X90.162Y-111.313
X90.678Y-110.051
X90.932Y-120.007
X90.938Y-111.861
X91.084Y-112.895
X91.135Y-87.833
X91.277Y-96.532
X91.29Y-95.805
X91.405Y-110.035
X91.729Y-80.602
X92.132Y-110.036
X92.507Y-80.602
X92.681Y-104.576
X93.037Y-97.458
X93.167Y-102.362
X93.379Y-96.816
X93.545Y-80.094
X93.777Y-82.448
X93.777Y-87.833
X93.802Y-83.388
X94.437Y-80.094
X94.64Y-82.194
X94.793Y-88.849
X94.945Y-111.506
X95.453Y-82.194
X95.854Y-111.28
X96.25Y-82.193
X96.317Y-112.301
X96.571Y-87.224
X96.571Y-118.567
X96.622Y-83.464
X96.672Y-84.43
X96.674Y-80.096
X96.977Y-82.194
X97.485Y-80.061
X97.503Y-112.301
X97.536Y-118.567
X97.638Y-102.362
X98.241Y-79.347
X98.857Y-113.487
X98.857Y-119.177
X98.857Y-120.345
X99.06Y-79.299
X100.127Y-103.089
X100.134Y-107.079
X100.33Y-80.162
X100.635Y-86.106
X100.635Y-86.919
X102.057Y-102.362
X102.413Y-94.894
X102.413Y-97.704
X102.667Y-107.086
X103.937Y-103.886
X105.715Y-85.039
X105.816Y-86.157
X105.816Y-94.844
X106.02Y-83.515
X107.34Y-93.624
X107.442Y-80.162
X107.95Y-101.092
X108.966Y-89.865
X109.017Y-80.721
X109.225Y-87.625
X109.271Y-86.716
X109.271Y-88.595
X109.372Y-76.149
X110.676Y-86.055
X111.354Y-83.566
X111.404Y-91.135
X112.268Y-108.712
X114.808Y-108.966
X117.348Y-105.664
X118.585Y-75.336
X118.585Y-77.368
X119.736Y-80.162
X126.949Y-85.7
X127.506Y-103.888
X128.219Y-95.656
T2
X43.18Y-125.488
X89.205Y-104.343
X116.891Y-126.441
X119.38Y-124.46
T3
X35.712Y-114.503
X35.712Y-117.043
X35.789Y-74.15
X35.789Y-76.69
X38.252Y-114.503
X38.252Y-117.043
X38.329Y-74.15
X38.329Y-76.69
X40.792Y-114.503
X40.792Y-117.043
X40.869Y-74.15
X40.869Y-76.69
X43.332Y-114.503
X43.332Y-117.043
X43.409Y-74.15
X43.409Y-76.69
X45.872Y-114.503
X45.872Y-117.043
X45.949Y-74.15
X45.949Y-76.69
X48.412Y-114.503
X48.412Y-117.043
X48.489Y-74.15
X48.489Y-76.69
X50.952Y-114.503
X50.952Y-117.043
X51.029Y-74.15
X51.029Y-76.69
X53.492Y-114.503
X53.492Y-117.043
X53.569Y-74.15
X53.569Y-76.69
X56.032Y-114.503
X56.032Y-117.043
X56.109Y-74.15
X56.109Y-76.69
X58.572Y-114.503
X58.572Y-117.043
X58.649Y-74.15
X58.649Y-76.69
X61.189Y-74.15
X61.189Y-76.69
X63.729Y-74.15
X63.729Y-76.69
X66.167Y-114.503
X66.167Y-117.043
X66.269Y-74.15
X66.269Y-76.69
X68.707Y-114.503
X68.707Y-117.043
X71.247Y-114.503
X71.247Y-117.043
X73.787Y-114.503
X73.787Y-117.043
X76.327Y-114.503
X76.327Y-117.043
X83.922Y-74.15
X83.922Y-76.69
X83.947Y-114.503
X83.947Y-117.043
X86.462Y-74.15
X86.462Y-76.69
X86.487Y-114.503
X86.487Y-117.043
X89.002Y-74.15
X89.002Y-76.69
X89.027Y-114.503
X89.027Y-117.043
X91.542Y-74.15
X91.542Y-76.69
X91.567Y-114.503
X91.567Y-117.043
X94.082Y-74.15
X94.082Y-76.69
X94.107Y-114.503
X94.107Y-117.043
X96.622Y-74.15
X96.622Y-76.69
X99.162Y-74.15
X99.162Y-76.69
X101.702Y-74.15
X101.702Y-76.69
X101.727Y-114.503
X101.727Y-117.043
X104.242Y-74.15
X104.242Y-76.69
X104.267Y-114.503
X104.267Y-117.043
X106.782Y-74.15
X106.782Y-76.69
X106.807Y-114.503
X106.807Y-117.043
X109.347Y-114.503
X109.347Y-117.043
X111.887Y-114.503
X111.887Y-117.043
X112.268Y-97.282
X112.268Y-99.822
X112.268Y-102.362
X112.268Y-104.902
X114.427Y-114.503
X114.427Y-117.043
X114.808Y-97.282
X114.808Y-99.822
X114.808Y-102.362
X114.808Y-104.902
X116.967Y-114.503
X116.967Y-117.043
X119.507Y-114.503
X119.507Y-117.043
X122.037Y-74.14
X122.037Y-76.68
X122.037Y-79.22
X122.037Y-81.76
X122.037Y-84.3
X122.037Y-86.84
X122.037Y-89.38
X122.037Y-91.92
X122.037Y-94.46
X122.037Y-97.0
X122.047Y-114.503
X122.047Y-117.043
X124.577Y-74.14
X124.577Y-76.68
X124.577Y-79.22
X124.577Y-81.76
X124.577Y-84.3
X124.577Y-86.84
X124.577Y-89.38
X124.577Y-91.92
X124.577Y-94.46
X124.577Y-97.0
X124.587Y-114.503
X124.587Y-117.043
T0
M30
