G04 #@! TF.GenerationSoftware,KiCad,Pcbnew,(5.1.12-1-10_14)*
G04 #@! TF.CreationDate,2022-01-01T14:19:29-07:00*
G04 #@! TF.ProjectId,GenMemBlock,47656e4d-656d-4426-9c6f-636b2e6b6963,rev?*
G04 #@! TF.SameCoordinates,Original*
G04 #@! TF.FileFunction,Legend,Top*
G04 #@! TF.FilePolarity,Positive*
%FSLAX46Y46*%
G04 Gerber Fmt 4.6, Leading zero omitted, Abs format (unit mm)*
G04 Created by KiCad (PCBNEW (5.1.12-1-10_14)) date 2022-01-01 14:19:29*
%MOMM*%
%LPD*%
G01*
G04 APERTURE LIST*
%ADD10C,0.152400*%
%ADD11C,0.120000*%
%ADD12C,0.150000*%
%ADD13C,0.100000*%
%ADD14O,1.700000X1.700000*%
%ADD15R,1.700000X1.700000*%
%ADD16R,1.778000X6.985000*%
%ADD17R,1.200000X0.400000*%
%ADD18R,0.406400X2.044700*%
G04 APERTURE END LIST*
D10*
X112232857Y-121811276D02*
X112262038Y-121782095D01*
X112291219Y-121811276D01*
X112262038Y-121840457D01*
X112232857Y-121811276D01*
X112291219Y-121811276D01*
X112057771Y-121811276D02*
X111707600Y-121840457D01*
X111678419Y-121811276D01*
X111707600Y-121782095D01*
X112057771Y-121811276D01*
X111678419Y-121811276D01*
X112291219Y-121519466D02*
X111678419Y-121519466D01*
X111678419Y-121373561D01*
X111707600Y-121286019D01*
X111765961Y-121227657D01*
X111824323Y-121198476D01*
X111941047Y-121169295D01*
X112028590Y-121169295D01*
X112145314Y-121198476D01*
X112203676Y-121227657D01*
X112262038Y-121286019D01*
X112291219Y-121373561D01*
X112291219Y-121519466D01*
X111678419Y-120994209D02*
X111678419Y-120644038D01*
X112291219Y-120819123D02*
X111678419Y-120819123D01*
X112116133Y-120468952D02*
X112116133Y-120177142D01*
X112291219Y-120527314D02*
X111678419Y-120323047D01*
X112291219Y-120118780D01*
X112232857Y-119564342D02*
X112262038Y-119593523D01*
X112291219Y-119681066D01*
X112291219Y-119739428D01*
X112262038Y-119826971D01*
X112203676Y-119885333D01*
X112145314Y-119914514D01*
X112028590Y-119943695D01*
X111941047Y-119943695D01*
X111824323Y-119914514D01*
X111765961Y-119885333D01*
X111707600Y-119826971D01*
X111678419Y-119739428D01*
X111678419Y-119681066D01*
X111707600Y-119593523D01*
X111736780Y-119564342D01*
X112291219Y-119301714D02*
X111678419Y-119301714D01*
X112291219Y-118951542D02*
X111941047Y-119214171D01*
X111678419Y-118951542D02*
X112028590Y-119301714D01*
X124932857Y-121542685D02*
X124962038Y-121513504D01*
X124991219Y-121542685D01*
X124962038Y-121571866D01*
X124932857Y-121542685D01*
X124991219Y-121542685D01*
X124757771Y-121542685D02*
X124407600Y-121571866D01*
X124378419Y-121542685D01*
X124407600Y-121513504D01*
X124757771Y-121542685D01*
X124378419Y-121542685D01*
X124962038Y-121280057D02*
X124991219Y-121192514D01*
X124991219Y-121046609D01*
X124962038Y-120988247D01*
X124932857Y-120959066D01*
X124874495Y-120929885D01*
X124816133Y-120929885D01*
X124757771Y-120959066D01*
X124728590Y-120988247D01*
X124699409Y-121046609D01*
X124670228Y-121163333D01*
X124641047Y-121221695D01*
X124611866Y-121250876D01*
X124553504Y-121280057D01*
X124495142Y-121280057D01*
X124436780Y-121250876D01*
X124407600Y-121221695D01*
X124378419Y-121163333D01*
X124378419Y-121017428D01*
X124407600Y-120929885D01*
X125049580Y-120813161D02*
X125049580Y-120346266D01*
X124991219Y-119850190D02*
X124699409Y-120054457D01*
X124991219Y-120200361D02*
X124378419Y-120200361D01*
X124378419Y-119966914D01*
X124407600Y-119908552D01*
X124436780Y-119879371D01*
X124495142Y-119850190D01*
X124582685Y-119850190D01*
X124641047Y-119879371D01*
X124670228Y-119908552D01*
X124699409Y-119966914D01*
X124699409Y-120200361D01*
X124670228Y-119587561D02*
X124670228Y-119383295D01*
X124991219Y-119295752D02*
X124991219Y-119587561D01*
X124378419Y-119587561D01*
X124378419Y-119295752D01*
X124962038Y-119062304D02*
X124991219Y-118974761D01*
X124991219Y-118828857D01*
X124962038Y-118770495D01*
X124932857Y-118741314D01*
X124874495Y-118712133D01*
X124816133Y-118712133D01*
X124757771Y-118741314D01*
X124728590Y-118770495D01*
X124699409Y-118828857D01*
X124670228Y-118945580D01*
X124641047Y-119003942D01*
X124611866Y-119033123D01*
X124553504Y-119062304D01*
X124495142Y-119062304D01*
X124436780Y-119033123D01*
X124407600Y-119003942D01*
X124378419Y-118945580D01*
X124378419Y-118799676D01*
X124407600Y-118712133D01*
X35662133Y-112475466D02*
X35662133Y-112183657D01*
X35837219Y-112533828D02*
X35224419Y-112329561D01*
X35837219Y-112125295D01*
X35837219Y-111921028D02*
X35224419Y-111921028D01*
X35895580Y-111775123D02*
X35895580Y-111308228D01*
X35224419Y-111220685D02*
X35224419Y-110812152D01*
X35837219Y-111074780D01*
X35478419Y-119496723D02*
X35478419Y-119788533D01*
X35770228Y-119817714D01*
X35741047Y-119788533D01*
X35711866Y-119730171D01*
X35711866Y-119584266D01*
X35741047Y-119525904D01*
X35770228Y-119496723D01*
X35828590Y-119467542D01*
X35974495Y-119467542D01*
X36032857Y-119496723D01*
X36062038Y-119525904D01*
X36091219Y-119584266D01*
X36091219Y-119730171D01*
X36062038Y-119788533D01*
X36032857Y-119817714D01*
X35478419Y-119292457D02*
X36091219Y-119088190D01*
X35478419Y-118883923D01*
X58951219Y-112490057D02*
X58338419Y-112490057D01*
X58338419Y-112344152D01*
X58367600Y-112256609D01*
X58425961Y-112198247D01*
X58484323Y-112169066D01*
X58601047Y-112139885D01*
X58688590Y-112139885D01*
X58805314Y-112169066D01*
X58863676Y-112198247D01*
X58922038Y-112256609D01*
X58951219Y-112344152D01*
X58951219Y-112490057D01*
X58951219Y-111877257D02*
X58338419Y-111877257D01*
X59009580Y-111731352D02*
X59009580Y-111264457D01*
X58601047Y-111031009D02*
X58571866Y-111089371D01*
X58542685Y-111118552D01*
X58484323Y-111147733D01*
X58455142Y-111147733D01*
X58396780Y-111118552D01*
X58367600Y-111089371D01*
X58338419Y-111031009D01*
X58338419Y-110914285D01*
X58367600Y-110855923D01*
X58396780Y-110826742D01*
X58455142Y-110797561D01*
X58484323Y-110797561D01*
X58542685Y-110826742D01*
X58571866Y-110855923D01*
X58601047Y-110914285D01*
X58601047Y-111031009D01*
X58630228Y-111089371D01*
X58659409Y-111118552D01*
X58717771Y-111147733D01*
X58834495Y-111147733D01*
X58892857Y-111118552D01*
X58922038Y-111089371D01*
X58951219Y-111031009D01*
X58951219Y-110914285D01*
X58922038Y-110855923D01*
X58892857Y-110826742D01*
X58834495Y-110797561D01*
X58717771Y-110797561D01*
X58659409Y-110826742D01*
X58630228Y-110855923D01*
X58601047Y-110914285D01*
X58951219Y-120364057D02*
X58338419Y-120364057D01*
X58338419Y-120218152D01*
X58367600Y-120130609D01*
X58425961Y-120072247D01*
X58484323Y-120043066D01*
X58601047Y-120013885D01*
X58688590Y-120013885D01*
X58805314Y-120043066D01*
X58863676Y-120072247D01*
X58922038Y-120130609D01*
X58951219Y-120218152D01*
X58951219Y-120364057D01*
X58951219Y-119751257D02*
X58338419Y-119751257D01*
X59009580Y-119605352D02*
X59009580Y-119138457D01*
X58338419Y-118875828D02*
X58338419Y-118817466D01*
X58367600Y-118759104D01*
X58396780Y-118729923D01*
X58455142Y-118700742D01*
X58571866Y-118671561D01*
X58717771Y-118671561D01*
X58834495Y-118700742D01*
X58892857Y-118729923D01*
X58922038Y-118759104D01*
X58951219Y-118817466D01*
X58951219Y-118875828D01*
X58922038Y-118934190D01*
X58892857Y-118963371D01*
X58834495Y-118992552D01*
X58717771Y-119021733D01*
X58571866Y-119021733D01*
X58455142Y-118992552D01*
X58396780Y-118963371D01*
X58367600Y-118934190D01*
X58338419Y-118875828D01*
X66258857Y-122844533D02*
X66288038Y-122815352D01*
X66317219Y-122844533D01*
X66288038Y-122873714D01*
X66258857Y-122844533D01*
X66317219Y-122844533D01*
X66083771Y-122844533D02*
X65733600Y-122873714D01*
X65704419Y-122844533D01*
X65733600Y-122815352D01*
X66083771Y-122844533D01*
X65704419Y-122844533D01*
X66317219Y-122552723D02*
X65704419Y-122552723D01*
X65996228Y-122552723D02*
X65996228Y-122202552D01*
X66317219Y-122202552D02*
X65704419Y-122202552D01*
X66375580Y-122056647D02*
X66375580Y-121589752D01*
X66317219Y-121093676D02*
X66025409Y-121297942D01*
X66317219Y-121443847D02*
X65704419Y-121443847D01*
X65704419Y-121210400D01*
X65733600Y-121152038D01*
X65762780Y-121122857D01*
X65821142Y-121093676D01*
X65908685Y-121093676D01*
X65967047Y-121122857D01*
X65996228Y-121152038D01*
X66025409Y-121210400D01*
X66025409Y-121443847D01*
X65996228Y-120831047D02*
X65996228Y-120626780D01*
X66317219Y-120539238D02*
X66317219Y-120831047D01*
X65704419Y-120831047D01*
X65704419Y-120539238D01*
X66288038Y-120305790D02*
X66317219Y-120218247D01*
X66317219Y-120072342D01*
X66288038Y-120013980D01*
X66258857Y-119984800D01*
X66200495Y-119955619D01*
X66142133Y-119955619D01*
X66083771Y-119984800D01*
X66054590Y-120013980D01*
X66025409Y-120072342D01*
X65996228Y-120189066D01*
X65967047Y-120247428D01*
X65937866Y-120276609D01*
X65879504Y-120305790D01*
X65821142Y-120305790D01*
X65762780Y-120276609D01*
X65733600Y-120247428D01*
X65704419Y-120189066D01*
X65704419Y-120043161D01*
X65733600Y-119955619D01*
X65996228Y-119692990D02*
X65996228Y-119488723D01*
X66317219Y-119401180D02*
X66317219Y-119692990D01*
X65704419Y-119692990D01*
X65704419Y-119401180D01*
X65704419Y-119226095D02*
X65704419Y-118875923D01*
X66317219Y-119051009D02*
X65704419Y-119051009D01*
X76556133Y-112767276D02*
X76556133Y-112475466D01*
X76731219Y-112825638D02*
X76118419Y-112621371D01*
X76731219Y-112417104D01*
X76731219Y-112212838D02*
X76118419Y-112212838D01*
X76789580Y-112066933D02*
X76789580Y-111600038D01*
X76176780Y-111483314D02*
X76147600Y-111454133D01*
X76118419Y-111395771D01*
X76118419Y-111249866D01*
X76147600Y-111191504D01*
X76176780Y-111162323D01*
X76235142Y-111133142D01*
X76293504Y-111133142D01*
X76381047Y-111162323D01*
X76731219Y-111512495D01*
X76731219Y-111133142D01*
X76176780Y-110899695D02*
X76147600Y-110870514D01*
X76118419Y-110812152D01*
X76118419Y-110666247D01*
X76147600Y-110607885D01*
X76176780Y-110578704D01*
X76235142Y-110549523D01*
X76293504Y-110549523D01*
X76381047Y-110578704D01*
X76731219Y-110928876D01*
X76731219Y-110549523D01*
X76556133Y-120895276D02*
X76556133Y-120603466D01*
X76731219Y-120953638D02*
X76118419Y-120749371D01*
X76731219Y-120545104D01*
X76731219Y-120340838D02*
X76118419Y-120340838D01*
X76789580Y-120194933D02*
X76789580Y-119728038D01*
X76176780Y-119611314D02*
X76147600Y-119582133D01*
X76118419Y-119523771D01*
X76118419Y-119377866D01*
X76147600Y-119319504D01*
X76176780Y-119290323D01*
X76235142Y-119261142D01*
X76293504Y-119261142D01*
X76381047Y-119290323D01*
X76731219Y-119640495D01*
X76731219Y-119261142D01*
X76731219Y-118677523D02*
X76731219Y-119027695D01*
X76731219Y-118852609D02*
X76118419Y-118852609D01*
X76205961Y-118910971D01*
X76264323Y-118969333D01*
X76293504Y-119027695D01*
X94511219Y-121163866D02*
X93898419Y-121163866D01*
X93898419Y-121017961D01*
X93927600Y-120930419D01*
X93985961Y-120872057D01*
X94044323Y-120842876D01*
X94161047Y-120813695D01*
X94248590Y-120813695D01*
X94365314Y-120842876D01*
X94423676Y-120872057D01*
X94482038Y-120930419D01*
X94511219Y-121017961D01*
X94511219Y-121163866D01*
X94511219Y-120551066D02*
X93898419Y-120551066D01*
X94569580Y-120405161D02*
X94569580Y-119938266D01*
X94511219Y-119471371D02*
X94511219Y-119821542D01*
X94511219Y-119646457D02*
X93898419Y-119646457D01*
X93985961Y-119704819D01*
X94044323Y-119763180D01*
X94073504Y-119821542D01*
X94511219Y-118887752D02*
X94511219Y-119237923D01*
X94511219Y-119062838D02*
X93898419Y-119062838D01*
X93985961Y-119121200D01*
X94044323Y-119179561D01*
X94073504Y-119237923D01*
X84097219Y-120872057D02*
X83484419Y-120872057D01*
X83484419Y-120726152D01*
X83513600Y-120638609D01*
X83571961Y-120580247D01*
X83630323Y-120551066D01*
X83747047Y-120521885D01*
X83834590Y-120521885D01*
X83951314Y-120551066D01*
X84009676Y-120580247D01*
X84068038Y-120638609D01*
X84097219Y-120726152D01*
X84097219Y-120872057D01*
X84097219Y-120259257D02*
X83484419Y-120259257D01*
X84155580Y-120113352D02*
X84155580Y-119646457D01*
X83484419Y-119237923D02*
X83484419Y-119354647D01*
X83513600Y-119413009D01*
X83542780Y-119442190D01*
X83630323Y-119500552D01*
X83747047Y-119529733D01*
X83980495Y-119529733D01*
X84038857Y-119500552D01*
X84068038Y-119471371D01*
X84097219Y-119413009D01*
X84097219Y-119296285D01*
X84068038Y-119237923D01*
X84038857Y-119208742D01*
X83980495Y-119179561D01*
X83834590Y-119179561D01*
X83776228Y-119208742D01*
X83747047Y-119237923D01*
X83717866Y-119296285D01*
X83717866Y-119413009D01*
X83747047Y-119471371D01*
X83776228Y-119500552D01*
X83834590Y-119529733D01*
X84097219Y-112591657D02*
X83484419Y-112591657D01*
X83484419Y-112445752D01*
X83513600Y-112358209D01*
X83571961Y-112299847D01*
X83630323Y-112270666D01*
X83747047Y-112241485D01*
X83834590Y-112241485D01*
X83951314Y-112270666D01*
X84009676Y-112299847D01*
X84068038Y-112358209D01*
X84097219Y-112445752D01*
X84097219Y-112591657D01*
X84097219Y-111978857D02*
X83484419Y-111978857D01*
X84155580Y-111832952D02*
X84155580Y-111366057D01*
X84097219Y-110899161D02*
X84097219Y-111249333D01*
X84097219Y-111074247D02*
X83484419Y-111074247D01*
X83571961Y-111132609D01*
X83630323Y-111190971D01*
X83659504Y-111249333D01*
X93644419Y-112130723D02*
X93644419Y-112422533D01*
X93936228Y-112451714D01*
X93907047Y-112422533D01*
X93877866Y-112364171D01*
X93877866Y-112218266D01*
X93907047Y-112159904D01*
X93936228Y-112130723D01*
X93994590Y-112101542D01*
X94140495Y-112101542D01*
X94198857Y-112130723D01*
X94228038Y-112159904D01*
X94257219Y-112218266D01*
X94257219Y-112364171D01*
X94228038Y-112422533D01*
X94198857Y-112451714D01*
X93644419Y-111926457D02*
X94257219Y-111722190D01*
X93644419Y-111517923D01*
X119336228Y-126269847D02*
X119365409Y-126182304D01*
X119394590Y-126153123D01*
X119452952Y-126123942D01*
X119540495Y-126123942D01*
X119598857Y-126153123D01*
X119628038Y-126182304D01*
X119657219Y-126240666D01*
X119657219Y-126474114D01*
X119044419Y-126474114D01*
X119044419Y-126269847D01*
X119073600Y-126211485D01*
X119102780Y-126182304D01*
X119161142Y-126153123D01*
X119219504Y-126153123D01*
X119277866Y-126182304D01*
X119307047Y-126211485D01*
X119336228Y-126269847D01*
X119336228Y-126474114D01*
X119044419Y-125919676D02*
X119044419Y-125540323D01*
X119277866Y-125744590D01*
X119277866Y-125657047D01*
X119307047Y-125598685D01*
X119336228Y-125569504D01*
X119394590Y-125540323D01*
X119540495Y-125540323D01*
X119598857Y-125569504D01*
X119628038Y-125598685D01*
X119657219Y-125657047D01*
X119657219Y-125832133D01*
X119628038Y-125890495D01*
X119598857Y-125919676D01*
X119102780Y-125306876D02*
X119073600Y-125277695D01*
X119044419Y-125219333D01*
X119044419Y-125073428D01*
X119073600Y-125015066D01*
X119102780Y-124985885D01*
X119161142Y-124956704D01*
X119219504Y-124956704D01*
X119307047Y-124985885D01*
X119657219Y-125336057D01*
X119657219Y-124956704D01*
X99016228Y-126168247D02*
X99045409Y-126080704D01*
X99074590Y-126051523D01*
X99132952Y-126022342D01*
X99220495Y-126022342D01*
X99278857Y-126051523D01*
X99308038Y-126080704D01*
X99337219Y-126139066D01*
X99337219Y-126372514D01*
X98724419Y-126372514D01*
X98724419Y-126168247D01*
X98753600Y-126109885D01*
X98782780Y-126080704D01*
X98841142Y-126051523D01*
X98899504Y-126051523D01*
X98957866Y-126080704D01*
X98987047Y-126109885D01*
X99016228Y-126168247D01*
X99016228Y-126372514D01*
X98782780Y-125788895D02*
X98753600Y-125759714D01*
X98724419Y-125701352D01*
X98724419Y-125555447D01*
X98753600Y-125497085D01*
X98782780Y-125467904D01*
X98841142Y-125438723D01*
X98899504Y-125438723D01*
X98987047Y-125467904D01*
X99337219Y-125818076D01*
X99337219Y-125438723D01*
X98928685Y-124913466D02*
X99337219Y-124913466D01*
X98695238Y-125059371D02*
X99132952Y-125205276D01*
X99132952Y-124825923D01*
X78696228Y-126168247D02*
X78725409Y-126080704D01*
X78754590Y-126051523D01*
X78812952Y-126022342D01*
X78900495Y-126022342D01*
X78958857Y-126051523D01*
X78988038Y-126080704D01*
X79017219Y-126139066D01*
X79017219Y-126372514D01*
X78404419Y-126372514D01*
X78404419Y-126168247D01*
X78433600Y-126109885D01*
X78462780Y-126080704D01*
X78521142Y-126051523D01*
X78579504Y-126051523D01*
X78637866Y-126080704D01*
X78667047Y-126109885D01*
X78696228Y-126168247D01*
X78696228Y-126372514D01*
X79017219Y-125438723D02*
X79017219Y-125788895D01*
X79017219Y-125613809D02*
X78404419Y-125613809D01*
X78491961Y-125672171D01*
X78550323Y-125730533D01*
X78579504Y-125788895D01*
X78404419Y-124913466D02*
X78404419Y-125030190D01*
X78433600Y-125088552D01*
X78462780Y-125117733D01*
X78550323Y-125176095D01*
X78667047Y-125205276D01*
X78900495Y-125205276D01*
X78958857Y-125176095D01*
X78988038Y-125146914D01*
X79017219Y-125088552D01*
X79017219Y-124971828D01*
X78988038Y-124913466D01*
X78958857Y-124884285D01*
X78900495Y-124855104D01*
X78754590Y-124855104D01*
X78696228Y-124884285D01*
X78667047Y-124913466D01*
X78637866Y-124971828D01*
X78637866Y-125088552D01*
X78667047Y-125146914D01*
X78696228Y-125176095D01*
X78754590Y-125205276D01*
X58376228Y-125978038D02*
X58405409Y-125890495D01*
X58434590Y-125861314D01*
X58492952Y-125832133D01*
X58580495Y-125832133D01*
X58638857Y-125861314D01*
X58668038Y-125890495D01*
X58697219Y-125948857D01*
X58697219Y-126182304D01*
X58084419Y-126182304D01*
X58084419Y-125978038D01*
X58113600Y-125919676D01*
X58142780Y-125890495D01*
X58201142Y-125861314D01*
X58259504Y-125861314D01*
X58317866Y-125890495D01*
X58347047Y-125919676D01*
X58376228Y-125978038D01*
X58376228Y-126182304D01*
X58347047Y-125481961D02*
X58317866Y-125540323D01*
X58288685Y-125569504D01*
X58230323Y-125598685D01*
X58201142Y-125598685D01*
X58142780Y-125569504D01*
X58113600Y-125540323D01*
X58084419Y-125481961D01*
X58084419Y-125365238D01*
X58113600Y-125306876D01*
X58142780Y-125277695D01*
X58201142Y-125248514D01*
X58230323Y-125248514D01*
X58288685Y-125277695D01*
X58317866Y-125306876D01*
X58347047Y-125365238D01*
X58347047Y-125481961D01*
X58376228Y-125540323D01*
X58405409Y-125569504D01*
X58463771Y-125598685D01*
X58580495Y-125598685D01*
X58638857Y-125569504D01*
X58668038Y-125540323D01*
X58697219Y-125481961D01*
X58697219Y-125365238D01*
X58668038Y-125306876D01*
X58638857Y-125277695D01*
X58580495Y-125248514D01*
X58463771Y-125248514D01*
X58405409Y-125277695D01*
X58376228Y-125306876D01*
X58347047Y-125365238D01*
X40596228Y-125978038D02*
X40625409Y-125890495D01*
X40654590Y-125861314D01*
X40712952Y-125832133D01*
X40800495Y-125832133D01*
X40858857Y-125861314D01*
X40888038Y-125890495D01*
X40917219Y-125948857D01*
X40917219Y-126182304D01*
X40304419Y-126182304D01*
X40304419Y-125978038D01*
X40333600Y-125919676D01*
X40362780Y-125890495D01*
X40421142Y-125861314D01*
X40479504Y-125861314D01*
X40537866Y-125890495D01*
X40567047Y-125919676D01*
X40596228Y-125978038D01*
X40596228Y-126182304D01*
X40917219Y-125248514D02*
X40917219Y-125598685D01*
X40917219Y-125423600D02*
X40304419Y-125423600D01*
X40391961Y-125481961D01*
X40450323Y-125540323D01*
X40479504Y-125598685D01*
X116840000Y-103378000D02*
X116332000Y-103378000D01*
X116840000Y-100584000D02*
X116840000Y-103378000D01*
X116840000Y-96266000D02*
X116840000Y-99060000D01*
X116332000Y-96266000D02*
X116840000Y-96266000D01*
X117231276Y-104566419D02*
X116939466Y-104566419D01*
X116910285Y-104858228D01*
X116939466Y-104829047D01*
X116997828Y-104799866D01*
X117143733Y-104799866D01*
X117202095Y-104829047D01*
X117231276Y-104858228D01*
X117260457Y-104916590D01*
X117260457Y-105062495D01*
X117231276Y-105120857D01*
X117202095Y-105150038D01*
X117143733Y-105179219D01*
X116997828Y-105179219D01*
X116939466Y-105150038D01*
X116910285Y-105120857D01*
X117435542Y-104566419D02*
X117639809Y-105179219D01*
X117844076Y-104566419D01*
X107550723Y-105120857D02*
X107579904Y-105150038D01*
X107550723Y-105179219D01*
X107521542Y-105150038D01*
X107550723Y-105120857D01*
X107550723Y-105179219D01*
X107550723Y-104945771D02*
X107521542Y-104595600D01*
X107550723Y-104566419D01*
X107579904Y-104595600D01*
X107550723Y-104945771D01*
X107550723Y-104566419D01*
X107842533Y-105179219D02*
X107842533Y-104566419D01*
X107988438Y-104566419D01*
X108075980Y-104595600D01*
X108134342Y-104653961D01*
X108163523Y-104712323D01*
X108192704Y-104829047D01*
X108192704Y-104916590D01*
X108163523Y-105033314D01*
X108134342Y-105091676D01*
X108075980Y-105150038D01*
X107988438Y-105179219D01*
X107842533Y-105179219D01*
X108367790Y-104566419D02*
X108717961Y-104566419D01*
X108542876Y-105179219D02*
X108542876Y-104566419D01*
X108893047Y-105004133D02*
X109184857Y-105004133D01*
X108834685Y-105179219D02*
X109038952Y-104566419D01*
X109243219Y-105179219D01*
X109797657Y-105120857D02*
X109768476Y-105150038D01*
X109680933Y-105179219D01*
X109622571Y-105179219D01*
X109535028Y-105150038D01*
X109476666Y-105091676D01*
X109447485Y-105033314D01*
X109418304Y-104916590D01*
X109418304Y-104829047D01*
X109447485Y-104712323D01*
X109476666Y-104653961D01*
X109535028Y-104595600D01*
X109622571Y-104566419D01*
X109680933Y-104566419D01*
X109768476Y-104595600D01*
X109797657Y-104624780D01*
X110060285Y-105179219D02*
X110060285Y-104566419D01*
X110410457Y-105179219D02*
X110147828Y-104829047D01*
X110410457Y-104566419D02*
X110060285Y-104916590D01*
X107427504Y-102834857D02*
X107456685Y-102864038D01*
X107427504Y-102893219D01*
X107398323Y-102864038D01*
X107427504Y-102834857D01*
X107427504Y-102893219D01*
X107427504Y-102659771D02*
X107398323Y-102309600D01*
X107427504Y-102280419D01*
X107456685Y-102309600D01*
X107427504Y-102659771D01*
X107427504Y-102280419D01*
X108069485Y-102893219D02*
X107865219Y-102601409D01*
X107719314Y-102893219D02*
X107719314Y-102280419D01*
X107952761Y-102280419D01*
X108011123Y-102309600D01*
X108040304Y-102338780D01*
X108069485Y-102397142D01*
X108069485Y-102484685D01*
X108040304Y-102543047D01*
X108011123Y-102572228D01*
X107952761Y-102601409D01*
X107719314Y-102601409D01*
X108332114Y-102572228D02*
X108536380Y-102572228D01*
X108623923Y-102893219D02*
X108332114Y-102893219D01*
X108332114Y-102280419D01*
X108623923Y-102280419D01*
X108857371Y-102864038D02*
X108944914Y-102893219D01*
X109090819Y-102893219D01*
X109149180Y-102864038D01*
X109178361Y-102834857D01*
X109207542Y-102776495D01*
X109207542Y-102718133D01*
X109178361Y-102659771D01*
X109149180Y-102630590D01*
X109090819Y-102601409D01*
X108974095Y-102572228D01*
X108915733Y-102543047D01*
X108886552Y-102513866D01*
X108857371Y-102455504D01*
X108857371Y-102397142D01*
X108886552Y-102338780D01*
X108915733Y-102309600D01*
X108974095Y-102280419D01*
X109120000Y-102280419D01*
X109207542Y-102309600D01*
X109470171Y-102572228D02*
X109674438Y-102572228D01*
X109761980Y-102893219D02*
X109470171Y-102893219D01*
X109470171Y-102280419D01*
X109761980Y-102280419D01*
X109937066Y-102280419D02*
X110287238Y-102280419D01*
X110112152Y-102893219D02*
X110112152Y-102280419D01*
X106263466Y-100040857D02*
X106292647Y-100070038D01*
X106263466Y-100099219D01*
X106234285Y-100070038D01*
X106263466Y-100040857D01*
X106263466Y-100099219D01*
X106263466Y-99865771D02*
X106234285Y-99515600D01*
X106263466Y-99486419D01*
X106292647Y-99515600D01*
X106263466Y-99865771D01*
X106263466Y-99486419D01*
X106555276Y-100099219D02*
X106555276Y-99486419D01*
X106555276Y-99778228D02*
X106905447Y-99778228D01*
X106905447Y-100099219D02*
X106905447Y-99486419D01*
X107051352Y-100157580D02*
X107518247Y-100157580D01*
X108014323Y-100099219D02*
X107810057Y-99807409D01*
X107664152Y-100099219D02*
X107664152Y-99486419D01*
X107897600Y-99486419D01*
X107955961Y-99515600D01*
X107985142Y-99544780D01*
X108014323Y-99603142D01*
X108014323Y-99690685D01*
X107985142Y-99749047D01*
X107955961Y-99778228D01*
X107897600Y-99807409D01*
X107664152Y-99807409D01*
X108276952Y-99778228D02*
X108481219Y-99778228D01*
X108568761Y-100099219D02*
X108276952Y-100099219D01*
X108276952Y-99486419D01*
X108568761Y-99486419D01*
X108802209Y-100070038D02*
X108889752Y-100099219D01*
X109035657Y-100099219D01*
X109094019Y-100070038D01*
X109123200Y-100040857D01*
X109152380Y-99982495D01*
X109152380Y-99924133D01*
X109123200Y-99865771D01*
X109094019Y-99836590D01*
X109035657Y-99807409D01*
X108918933Y-99778228D01*
X108860571Y-99749047D01*
X108831390Y-99719866D01*
X108802209Y-99661504D01*
X108802209Y-99603142D01*
X108831390Y-99544780D01*
X108860571Y-99515600D01*
X108918933Y-99486419D01*
X109064838Y-99486419D01*
X109152380Y-99515600D01*
X109415009Y-99778228D02*
X109619276Y-99778228D01*
X109706819Y-100099219D02*
X109415009Y-100099219D01*
X109415009Y-99486419D01*
X109706819Y-99486419D01*
X109881904Y-99486419D02*
X110232076Y-99486419D01*
X110056990Y-100099219D02*
X110056990Y-99486419D01*
X106292647Y-97500857D02*
X106321828Y-97530038D01*
X106292647Y-97559219D01*
X106263466Y-97530038D01*
X106292647Y-97500857D01*
X106292647Y-97559219D01*
X106292647Y-97325771D02*
X106263466Y-96975600D01*
X106292647Y-96946419D01*
X106321828Y-96975600D01*
X106292647Y-97325771D01*
X106292647Y-96946419D01*
X106555276Y-97530038D02*
X106642819Y-97559219D01*
X106788723Y-97559219D01*
X106847085Y-97530038D01*
X106876266Y-97500857D01*
X106905447Y-97442495D01*
X106905447Y-97384133D01*
X106876266Y-97325771D01*
X106847085Y-97296590D01*
X106788723Y-97267409D01*
X106672000Y-97238228D01*
X106613638Y-97209047D01*
X106584457Y-97179866D01*
X106555276Y-97121504D01*
X106555276Y-97063142D01*
X106584457Y-97004780D01*
X106613638Y-96975600D01*
X106672000Y-96946419D01*
X106817904Y-96946419D01*
X106905447Y-96975600D01*
X107022171Y-97617580D02*
X107489066Y-97617580D01*
X107985142Y-97559219D02*
X107780876Y-97267409D01*
X107634971Y-97559219D02*
X107634971Y-96946419D01*
X107868419Y-96946419D01*
X107926780Y-96975600D01*
X107955961Y-97004780D01*
X107985142Y-97063142D01*
X107985142Y-97150685D01*
X107955961Y-97209047D01*
X107926780Y-97238228D01*
X107868419Y-97267409D01*
X107634971Y-97267409D01*
X108247771Y-97238228D02*
X108452038Y-97238228D01*
X108539580Y-97559219D02*
X108247771Y-97559219D01*
X108247771Y-96946419D01*
X108539580Y-96946419D01*
X108773028Y-97530038D02*
X108860571Y-97559219D01*
X109006476Y-97559219D01*
X109064838Y-97530038D01*
X109094019Y-97500857D01*
X109123200Y-97442495D01*
X109123200Y-97384133D01*
X109094019Y-97325771D01*
X109064838Y-97296590D01*
X109006476Y-97267409D01*
X108889752Y-97238228D01*
X108831390Y-97209047D01*
X108802209Y-97179866D01*
X108773028Y-97121504D01*
X108773028Y-97063142D01*
X108802209Y-97004780D01*
X108831390Y-96975600D01*
X108889752Y-96946419D01*
X109035657Y-96946419D01*
X109123200Y-96975600D01*
X109385828Y-97238228D02*
X109590095Y-97238228D01*
X109677638Y-97559219D02*
X109385828Y-97559219D01*
X109385828Y-96946419D01*
X109677638Y-96946419D01*
X109852723Y-96946419D02*
X110202895Y-96946419D01*
X110027809Y-97559219D02*
X110027809Y-96946419D01*
X116858514Y-100040857D02*
X116887695Y-100070038D01*
X116858514Y-100099219D01*
X116829333Y-100070038D01*
X116858514Y-100040857D01*
X116858514Y-100099219D01*
X116858514Y-99865771D02*
X116829333Y-99515600D01*
X116858514Y-99486419D01*
X116887695Y-99515600D01*
X116858514Y-99865771D01*
X116858514Y-99486419D01*
X117471314Y-99515600D02*
X117412952Y-99486419D01*
X117325409Y-99486419D01*
X117237866Y-99515600D01*
X117179504Y-99573961D01*
X117150323Y-99632323D01*
X117121142Y-99749047D01*
X117121142Y-99836590D01*
X117150323Y-99953314D01*
X117179504Y-100011676D01*
X117237866Y-100070038D01*
X117325409Y-100099219D01*
X117383771Y-100099219D01*
X117471314Y-100070038D01*
X117500495Y-100040857D01*
X117500495Y-99836590D01*
X117383771Y-99836590D01*
X117763123Y-99778228D02*
X117967390Y-99778228D01*
X118054933Y-100099219D02*
X117763123Y-100099219D01*
X117763123Y-99486419D01*
X118054933Y-99486419D01*
X118317561Y-100099219D02*
X118317561Y-99486419D01*
X118667733Y-100099219D01*
X118667733Y-99486419D01*
X118813638Y-100157580D02*
X119280533Y-100157580D01*
X119776609Y-100099219D02*
X119572342Y-99807409D01*
X119426438Y-100099219D02*
X119426438Y-99486419D01*
X119659885Y-99486419D01*
X119718247Y-99515600D01*
X119747428Y-99544780D01*
X119776609Y-99603142D01*
X119776609Y-99690685D01*
X119747428Y-99749047D01*
X119718247Y-99778228D01*
X119659885Y-99807409D01*
X119426438Y-99807409D01*
X120039238Y-99778228D02*
X120243504Y-99778228D01*
X120331047Y-100099219D02*
X120039238Y-100099219D01*
X120039238Y-99486419D01*
X120331047Y-99486419D01*
X120564495Y-100070038D02*
X120652038Y-100099219D01*
X120797942Y-100099219D01*
X120856304Y-100070038D01*
X120885485Y-100040857D01*
X120914666Y-99982495D01*
X120914666Y-99924133D01*
X120885485Y-99865771D01*
X120856304Y-99836590D01*
X120797942Y-99807409D01*
X120681219Y-99778228D01*
X120622857Y-99749047D01*
X120593676Y-99719866D01*
X120564495Y-99661504D01*
X120564495Y-99603142D01*
X120593676Y-99544780D01*
X120622857Y-99515600D01*
X120681219Y-99486419D01*
X120827123Y-99486419D01*
X120914666Y-99515600D01*
X83513600Y-71586895D02*
X83484419Y-71645257D01*
X83484419Y-71732800D01*
X83513600Y-71820342D01*
X83571961Y-71878704D01*
X83630323Y-71907885D01*
X83747047Y-71937066D01*
X83834590Y-71937066D01*
X83951314Y-71907885D01*
X84009676Y-71878704D01*
X84068038Y-71820342D01*
X84097219Y-71732800D01*
X84097219Y-71674438D01*
X84068038Y-71586895D01*
X84038857Y-71557714D01*
X83834590Y-71557714D01*
X83834590Y-71674438D01*
X84097219Y-71295085D02*
X83484419Y-71295085D01*
X84097219Y-70944914D01*
X83484419Y-70944914D01*
X84097219Y-70653104D02*
X83484419Y-70653104D01*
X83484419Y-70507200D01*
X83513600Y-70419657D01*
X83571961Y-70361295D01*
X83630323Y-70332114D01*
X83747047Y-70302933D01*
X83834590Y-70302933D01*
X83951314Y-70332114D01*
X84009676Y-70361295D01*
X84068038Y-70419657D01*
X84097219Y-70507200D01*
X84097219Y-70653104D01*
X83513600Y-80222895D02*
X83484419Y-80281257D01*
X83484419Y-80368800D01*
X83513600Y-80456342D01*
X83571961Y-80514704D01*
X83630323Y-80543885D01*
X83747047Y-80573066D01*
X83834590Y-80573066D01*
X83951314Y-80543885D01*
X84009676Y-80514704D01*
X84068038Y-80456342D01*
X84097219Y-80368800D01*
X84097219Y-80310438D01*
X84068038Y-80222895D01*
X84038857Y-80193714D01*
X83834590Y-80193714D01*
X83834590Y-80310438D01*
X84097219Y-79931085D02*
X83484419Y-79931085D01*
X84097219Y-79580914D01*
X83484419Y-79580914D01*
X84097219Y-79289104D02*
X83484419Y-79289104D01*
X83484419Y-79143200D01*
X83513600Y-79055657D01*
X83571961Y-78997295D01*
X83630323Y-78968114D01*
X83747047Y-78938933D01*
X83834590Y-78938933D01*
X83951314Y-78968114D01*
X84009676Y-78997295D01*
X84068038Y-79055657D01*
X84097219Y-79143200D01*
X84097219Y-79289104D01*
X106344419Y-71744723D02*
X106344419Y-72036533D01*
X106636228Y-72065714D01*
X106607047Y-72036533D01*
X106577866Y-71978171D01*
X106577866Y-71832266D01*
X106607047Y-71773904D01*
X106636228Y-71744723D01*
X106694590Y-71715542D01*
X106840495Y-71715542D01*
X106898857Y-71744723D01*
X106928038Y-71773904D01*
X106957219Y-71832266D01*
X106957219Y-71978171D01*
X106928038Y-72036533D01*
X106898857Y-72065714D01*
X106344419Y-71540457D02*
X106957219Y-71336190D01*
X106344419Y-71131923D01*
X106344419Y-79364723D02*
X106344419Y-79656533D01*
X106636228Y-79685714D01*
X106607047Y-79656533D01*
X106577866Y-79598171D01*
X106577866Y-79452266D01*
X106607047Y-79393904D01*
X106636228Y-79364723D01*
X106694590Y-79335542D01*
X106840495Y-79335542D01*
X106898857Y-79364723D01*
X106928038Y-79393904D01*
X106957219Y-79452266D01*
X106957219Y-79598171D01*
X106928038Y-79656533D01*
X106898857Y-79685714D01*
X106344419Y-79160457D02*
X106957219Y-78956190D01*
X106344419Y-78751923D01*
X104417219Y-72372114D02*
X103804419Y-72372114D01*
X103804419Y-72226209D01*
X103833600Y-72138666D01*
X103891961Y-72080304D01*
X103950323Y-72051123D01*
X104067047Y-72021942D01*
X104154590Y-72021942D01*
X104271314Y-72051123D01*
X104329676Y-72080304D01*
X104388038Y-72138666D01*
X104417219Y-72226209D01*
X104417219Y-72372114D01*
X104417219Y-71438323D02*
X104417219Y-71788495D01*
X104417219Y-71613409D02*
X103804419Y-71613409D01*
X103891961Y-71671771D01*
X103950323Y-71730133D01*
X103979504Y-71788495D01*
X103804419Y-70883885D02*
X103804419Y-71175695D01*
X104096228Y-71204876D01*
X104067047Y-71175695D01*
X104037866Y-71117333D01*
X104037866Y-70971428D01*
X104067047Y-70913066D01*
X104096228Y-70883885D01*
X104154590Y-70854704D01*
X104300495Y-70854704D01*
X104358857Y-70883885D01*
X104388038Y-70913066D01*
X104417219Y-70971428D01*
X104417219Y-71117333D01*
X104388038Y-71175695D01*
X104358857Y-71204876D01*
X104417219Y-79992114D02*
X103804419Y-79992114D01*
X103804419Y-79846209D01*
X103833600Y-79758666D01*
X103891961Y-79700304D01*
X103950323Y-79671123D01*
X104067047Y-79641942D01*
X104154590Y-79641942D01*
X104271314Y-79671123D01*
X104329676Y-79700304D01*
X104388038Y-79758666D01*
X104417219Y-79846209D01*
X104417219Y-79992114D01*
X104417219Y-79058323D02*
X104417219Y-79408495D01*
X104417219Y-79233409D02*
X103804419Y-79233409D01*
X103891961Y-79291771D01*
X103950323Y-79350133D01*
X103979504Y-79408495D01*
X104008685Y-78533066D02*
X104417219Y-78533066D01*
X103775238Y-78678971D02*
X104212952Y-78824876D01*
X104212952Y-78445523D01*
X86637219Y-72080304D02*
X86024419Y-72080304D01*
X86024419Y-71934400D01*
X86053600Y-71846857D01*
X86111961Y-71788495D01*
X86170323Y-71759314D01*
X86287047Y-71730133D01*
X86374590Y-71730133D01*
X86491314Y-71759314D01*
X86549676Y-71788495D01*
X86608038Y-71846857D01*
X86637219Y-71934400D01*
X86637219Y-72080304D01*
X86637219Y-71146514D02*
X86637219Y-71496685D01*
X86637219Y-71321600D02*
X86024419Y-71321600D01*
X86111961Y-71379961D01*
X86170323Y-71438323D01*
X86199504Y-71496685D01*
X86637219Y-79700304D02*
X86024419Y-79700304D01*
X86024419Y-79554400D01*
X86053600Y-79466857D01*
X86111961Y-79408495D01*
X86170323Y-79379314D01*
X86287047Y-79350133D01*
X86374590Y-79350133D01*
X86491314Y-79379314D01*
X86549676Y-79408495D01*
X86608038Y-79466857D01*
X86637219Y-79554400D01*
X86637219Y-79700304D01*
X86024419Y-78970780D02*
X86024419Y-78912419D01*
X86053600Y-78854057D01*
X86082780Y-78824876D01*
X86141142Y-78795695D01*
X86257866Y-78766514D01*
X86403771Y-78766514D01*
X86520495Y-78795695D01*
X86578857Y-78824876D01*
X86608038Y-78854057D01*
X86637219Y-78912419D01*
X86637219Y-78970780D01*
X86608038Y-79029142D01*
X86578857Y-79058323D01*
X86520495Y-79087504D01*
X86403771Y-79116685D01*
X86257866Y-79116685D01*
X86141142Y-79087504D01*
X86082780Y-79058323D01*
X86053600Y-79029142D01*
X86024419Y-78970780D01*
X61062133Y-79977523D02*
X61062133Y-79685714D01*
X61237219Y-80035885D02*
X60624419Y-79831619D01*
X61237219Y-79627352D01*
X60682780Y-79452266D02*
X60653600Y-79423085D01*
X60624419Y-79364723D01*
X60624419Y-79218819D01*
X60653600Y-79160457D01*
X60682780Y-79131276D01*
X60741142Y-79102095D01*
X60799504Y-79102095D01*
X60887047Y-79131276D01*
X61237219Y-79481447D01*
X61237219Y-79102095D01*
X60624419Y-78722742D02*
X60624419Y-78664380D01*
X60653600Y-78606019D01*
X60682780Y-78576838D01*
X60741142Y-78547657D01*
X60857866Y-78518476D01*
X61003771Y-78518476D01*
X61120495Y-78547657D01*
X61178857Y-78576838D01*
X61208038Y-78606019D01*
X61237219Y-78664380D01*
X61237219Y-78722742D01*
X61208038Y-78781104D01*
X61178857Y-78810285D01*
X61120495Y-78839466D01*
X61003771Y-78868647D01*
X60857866Y-78868647D01*
X60741142Y-78839466D01*
X60682780Y-78810285D01*
X60653600Y-78781104D01*
X60624419Y-78722742D01*
X61062133Y-71849523D02*
X61062133Y-71557714D01*
X61237219Y-71907885D02*
X60624419Y-71703619D01*
X61237219Y-71499352D01*
X60682780Y-71324266D02*
X60653600Y-71295085D01*
X60624419Y-71236723D01*
X60624419Y-71090819D01*
X60653600Y-71032457D01*
X60682780Y-71003276D01*
X60741142Y-70974095D01*
X60799504Y-70974095D01*
X60887047Y-71003276D01*
X61237219Y-71353447D01*
X61237219Y-70974095D01*
X61237219Y-70390476D02*
X61237219Y-70740647D01*
X61237219Y-70565561D02*
X60624419Y-70565561D01*
X60711961Y-70623923D01*
X60770323Y-70682285D01*
X60799504Y-70740647D01*
X46330133Y-72065714D02*
X46330133Y-71773904D01*
X46505219Y-72124076D02*
X45892419Y-71919809D01*
X46505219Y-71715542D01*
X46505219Y-71482095D02*
X46505219Y-71365371D01*
X46476038Y-71307009D01*
X46446857Y-71277828D01*
X46359314Y-71219466D01*
X46242590Y-71190285D01*
X46009142Y-71190285D01*
X45950780Y-71219466D01*
X45921600Y-71248647D01*
X45892419Y-71307009D01*
X45892419Y-71423733D01*
X45921600Y-71482095D01*
X45950780Y-71511276D01*
X46009142Y-71540457D01*
X46155047Y-71540457D01*
X46213409Y-71511276D01*
X46242590Y-71482095D01*
X46271771Y-71423733D01*
X46271771Y-71307009D01*
X46242590Y-71248647D01*
X46213409Y-71219466D01*
X46155047Y-71190285D01*
X46330133Y-79685714D02*
X46330133Y-79393904D01*
X46505219Y-79744076D02*
X45892419Y-79539809D01*
X46505219Y-79335542D01*
X46155047Y-79043733D02*
X46125866Y-79102095D01*
X46096685Y-79131276D01*
X46038323Y-79160457D01*
X46009142Y-79160457D01*
X45950780Y-79131276D01*
X45921600Y-79102095D01*
X45892419Y-79043733D01*
X45892419Y-78927009D01*
X45921600Y-78868647D01*
X45950780Y-78839466D01*
X46009142Y-78810285D01*
X46038323Y-78810285D01*
X46096685Y-78839466D01*
X46125866Y-78868647D01*
X46155047Y-78927009D01*
X46155047Y-79043733D01*
X46184228Y-79102095D01*
X46213409Y-79131276D01*
X46271771Y-79160457D01*
X46388495Y-79160457D01*
X46446857Y-79131276D01*
X46476038Y-79102095D01*
X46505219Y-79043733D01*
X46505219Y-78927009D01*
X46476038Y-78868647D01*
X46446857Y-78839466D01*
X46388495Y-78810285D01*
X46271771Y-78810285D01*
X46213409Y-78839466D01*
X46184228Y-78868647D01*
X46155047Y-78927009D01*
X35662133Y-72065714D02*
X35662133Y-71773904D01*
X35837219Y-72124076D02*
X35224419Y-71919809D01*
X35837219Y-71715542D01*
X35837219Y-71190285D02*
X35837219Y-71540457D01*
X35837219Y-71365371D02*
X35224419Y-71365371D01*
X35311961Y-71423733D01*
X35370323Y-71482095D01*
X35399504Y-71540457D01*
X35662133Y-79685714D02*
X35662133Y-79393904D01*
X35837219Y-79744076D02*
X35224419Y-79539809D01*
X35837219Y-79335542D01*
X35224419Y-79014552D02*
X35224419Y-78956190D01*
X35253600Y-78897828D01*
X35282780Y-78868647D01*
X35341142Y-78839466D01*
X35457866Y-78810285D01*
X35603771Y-78810285D01*
X35720495Y-78839466D01*
X35778857Y-78868647D01*
X35808038Y-78897828D01*
X35837219Y-78956190D01*
X35837219Y-79014552D01*
X35808038Y-79072914D01*
X35778857Y-79102095D01*
X35720495Y-79131276D01*
X35603771Y-79160457D01*
X35457866Y-79160457D01*
X35341142Y-79131276D01*
X35282780Y-79102095D01*
X35253600Y-79072914D01*
X35224419Y-79014552D01*
X63718857Y-82058628D02*
X63748038Y-82029447D01*
X63777219Y-82058628D01*
X63748038Y-82087809D01*
X63718857Y-82058628D01*
X63777219Y-82058628D01*
X63543771Y-82058628D02*
X63193600Y-82087809D01*
X63164419Y-82058628D01*
X63193600Y-82029447D01*
X63543771Y-82058628D01*
X63164419Y-82058628D01*
X63777219Y-81416647D02*
X63485409Y-81620914D01*
X63777219Y-81766819D02*
X63164419Y-81766819D01*
X63164419Y-81533371D01*
X63193600Y-81475009D01*
X63222780Y-81445828D01*
X63281142Y-81416647D01*
X63368685Y-81416647D01*
X63427047Y-81445828D01*
X63456228Y-81475009D01*
X63485409Y-81533371D01*
X63485409Y-81766819D01*
X63164419Y-81037295D02*
X63164419Y-80920571D01*
X63193600Y-80862209D01*
X63251961Y-80803847D01*
X63368685Y-80774666D01*
X63572952Y-80774666D01*
X63689676Y-80803847D01*
X63748038Y-80862209D01*
X63777219Y-80920571D01*
X63777219Y-81037295D01*
X63748038Y-81095657D01*
X63689676Y-81154019D01*
X63572952Y-81183200D01*
X63368685Y-81183200D01*
X63251961Y-81154019D01*
X63193600Y-81095657D01*
X63164419Y-81037295D01*
X63777219Y-80512038D02*
X63164419Y-80512038D01*
X63602133Y-80307771D01*
X63164419Y-80103504D01*
X63777219Y-80103504D01*
X63835580Y-79957600D02*
X63835580Y-79490704D01*
X63718857Y-78994628D02*
X63748038Y-79023809D01*
X63777219Y-79111352D01*
X63777219Y-79169714D01*
X63748038Y-79257257D01*
X63689676Y-79315619D01*
X63631314Y-79344800D01*
X63514590Y-79373980D01*
X63427047Y-79373980D01*
X63310323Y-79344800D01*
X63251961Y-79315619D01*
X63193600Y-79257257D01*
X63164419Y-79169714D01*
X63164419Y-79111352D01*
X63193600Y-79023809D01*
X63222780Y-78994628D01*
X63456228Y-78732000D02*
X63456228Y-78527733D01*
X63777219Y-78440190D02*
X63777219Y-78732000D01*
X63164419Y-78732000D01*
X63164419Y-78440190D01*
X66258857Y-82073219D02*
X66288038Y-82044038D01*
X66317219Y-82073219D01*
X66288038Y-82102400D01*
X66258857Y-82073219D01*
X66317219Y-82073219D01*
X66083771Y-82073219D02*
X65733600Y-82102400D01*
X65704419Y-82073219D01*
X65733600Y-82044038D01*
X66083771Y-82073219D01*
X65704419Y-82073219D01*
X66317219Y-81431238D02*
X66025409Y-81635504D01*
X66317219Y-81781409D02*
X65704419Y-81781409D01*
X65704419Y-81547961D01*
X65733600Y-81489600D01*
X65762780Y-81460419D01*
X65821142Y-81431238D01*
X65908685Y-81431238D01*
X65967047Y-81460419D01*
X65996228Y-81489600D01*
X66025409Y-81547961D01*
X66025409Y-81781409D01*
X65704419Y-81051885D02*
X65704419Y-80935161D01*
X65733600Y-80876800D01*
X65791961Y-80818438D01*
X65908685Y-80789257D01*
X66112952Y-80789257D01*
X66229676Y-80818438D01*
X66288038Y-80876800D01*
X66317219Y-80935161D01*
X66317219Y-81051885D01*
X66288038Y-81110247D01*
X66229676Y-81168609D01*
X66112952Y-81197790D01*
X65908685Y-81197790D01*
X65791961Y-81168609D01*
X65733600Y-81110247D01*
X65704419Y-81051885D01*
X66317219Y-80526628D02*
X65704419Y-80526628D01*
X66142133Y-80322361D01*
X65704419Y-80118095D01*
X66317219Y-80118095D01*
X66375580Y-79972190D02*
X66375580Y-79505295D01*
X65704419Y-79242666D02*
X65704419Y-79125942D01*
X65733600Y-79067580D01*
X65791961Y-79009219D01*
X65908685Y-78980038D01*
X66112952Y-78980038D01*
X66229676Y-79009219D01*
X66288038Y-79067580D01*
X66317219Y-79125942D01*
X66317219Y-79242666D01*
X66288038Y-79301028D01*
X66229676Y-79359390D01*
X66112952Y-79388571D01*
X65908685Y-79388571D01*
X65791961Y-79359390D01*
X65733600Y-79301028D01*
X65704419Y-79242666D01*
X65996228Y-78717409D02*
X65996228Y-78513142D01*
X66317219Y-78425600D02*
X66317219Y-78717409D01*
X65704419Y-78717409D01*
X65704419Y-78425600D01*
X66258857Y-72450400D02*
X66288038Y-72421219D01*
X66317219Y-72450400D01*
X66288038Y-72479580D01*
X66258857Y-72450400D01*
X66317219Y-72450400D01*
X66083771Y-72450400D02*
X65733600Y-72479580D01*
X65704419Y-72450400D01*
X65733600Y-72421219D01*
X66083771Y-72450400D01*
X65704419Y-72450400D01*
X66317219Y-71808419D02*
X66025409Y-72012685D01*
X66317219Y-72158590D02*
X65704419Y-72158590D01*
X65704419Y-71925142D01*
X65733600Y-71866780D01*
X65762780Y-71837600D01*
X65821142Y-71808419D01*
X65908685Y-71808419D01*
X65967047Y-71837600D01*
X65996228Y-71866780D01*
X66025409Y-71925142D01*
X66025409Y-72158590D01*
X65704419Y-71429066D02*
X65704419Y-71312342D01*
X65733600Y-71253980D01*
X65791961Y-71195619D01*
X65908685Y-71166438D01*
X66112952Y-71166438D01*
X66229676Y-71195619D01*
X66288038Y-71253980D01*
X66317219Y-71312342D01*
X66317219Y-71429066D01*
X66288038Y-71487428D01*
X66229676Y-71545790D01*
X66112952Y-71574971D01*
X65908685Y-71574971D01*
X65791961Y-71545790D01*
X65733600Y-71487428D01*
X65704419Y-71429066D01*
X66317219Y-70903809D02*
X65704419Y-70903809D01*
X66142133Y-70699542D01*
X65704419Y-70495276D01*
X66317219Y-70495276D01*
X66375580Y-70349371D02*
X66375580Y-69882476D01*
X65704419Y-69794933D02*
X66317219Y-69649028D01*
X65879504Y-69532304D01*
X66317219Y-69415580D01*
X65704419Y-69269676D01*
X65996228Y-69036228D02*
X65996228Y-68831961D01*
X66317219Y-68744419D02*
X66317219Y-69036228D01*
X65704419Y-69036228D01*
X65704419Y-68744419D01*
X126646628Y-74445219D02*
X126646628Y-73832419D01*
X126850895Y-74270133D01*
X127055161Y-73832419D01*
X127055161Y-74445219D01*
X127346971Y-74445219D02*
X127346971Y-73832419D01*
X127609600Y-74416038D02*
X127697142Y-74445219D01*
X127843047Y-74445219D01*
X127901409Y-74416038D01*
X127930590Y-74386857D01*
X127959771Y-74328495D01*
X127959771Y-74270133D01*
X127930590Y-74211771D01*
X127901409Y-74182590D01*
X127843047Y-74153409D01*
X127726323Y-74124228D01*
X127667961Y-74095047D01*
X127638780Y-74065866D01*
X127609600Y-74007504D01*
X127609600Y-73949142D01*
X127638780Y-73890780D01*
X127667961Y-73861600D01*
X127726323Y-73832419D01*
X127872228Y-73832419D01*
X127959771Y-73861600D01*
X128339123Y-73832419D02*
X128455847Y-73832419D01*
X128514209Y-73861600D01*
X128572571Y-73919961D01*
X128601752Y-74036685D01*
X128601752Y-74240952D01*
X128572571Y-74357676D01*
X128514209Y-74416038D01*
X128455847Y-74445219D01*
X128339123Y-74445219D01*
X128280761Y-74416038D01*
X128222400Y-74357676D01*
X128193219Y-74240952D01*
X128193219Y-74036685D01*
X128222400Y-73919961D01*
X128280761Y-73861600D01*
X128339123Y-73832419D01*
X118856876Y-73832419D02*
X118565066Y-73832419D01*
X118535885Y-74124228D01*
X118565066Y-74095047D01*
X118623428Y-74065866D01*
X118769333Y-74065866D01*
X118827695Y-74095047D01*
X118856876Y-74124228D01*
X118886057Y-74182590D01*
X118886057Y-74328495D01*
X118856876Y-74386857D01*
X118827695Y-74416038D01*
X118769333Y-74445219D01*
X118623428Y-74445219D01*
X118565066Y-74416038D01*
X118535885Y-74386857D01*
X119061142Y-73832419D02*
X119265409Y-74445219D01*
X119469676Y-73832419D01*
X116700685Y-76926857D02*
X116729866Y-76956038D01*
X116700685Y-76985219D01*
X116671504Y-76956038D01*
X116700685Y-76926857D01*
X116700685Y-76985219D01*
X116700685Y-76751771D02*
X116671504Y-76401600D01*
X116700685Y-76372419D01*
X116729866Y-76401600D01*
X116700685Y-76751771D01*
X116700685Y-76372419D01*
X117313485Y-76985219D02*
X116963314Y-76985219D01*
X117138400Y-76985219D02*
X117138400Y-76372419D01*
X117080038Y-76459961D01*
X117021676Y-76518323D01*
X116963314Y-76547504D01*
X117838742Y-76372419D02*
X117722019Y-76372419D01*
X117663657Y-76401600D01*
X117634476Y-76430780D01*
X117576114Y-76518323D01*
X117546933Y-76635047D01*
X117546933Y-76868495D01*
X117576114Y-76926857D01*
X117605295Y-76956038D01*
X117663657Y-76985219D01*
X117780380Y-76985219D01*
X117838742Y-76956038D01*
X117867923Y-76926857D01*
X117897104Y-76868495D01*
X117897104Y-76722590D01*
X117867923Y-76664228D01*
X117838742Y-76635047D01*
X117780380Y-76605866D01*
X117663657Y-76605866D01*
X117605295Y-76635047D01*
X117576114Y-76664228D01*
X117546933Y-76722590D01*
X118451542Y-76372419D02*
X118159733Y-76372419D01*
X118130552Y-76664228D01*
X118159733Y-76635047D01*
X118218095Y-76605866D01*
X118364000Y-76605866D01*
X118422361Y-76635047D01*
X118451542Y-76664228D01*
X118480723Y-76722590D01*
X118480723Y-76868495D01*
X118451542Y-76926857D01*
X118422361Y-76956038D01*
X118364000Y-76985219D01*
X118218095Y-76985219D01*
X118159733Y-76956038D01*
X118130552Y-76926857D01*
X118597447Y-77043580D02*
X119064342Y-77043580D01*
X119502057Y-76985219D02*
X119210247Y-76985219D01*
X119210247Y-76372419D01*
X119706323Y-76985219D02*
X119706323Y-76372419D01*
X119852228Y-76372419D01*
X119939771Y-76401600D01*
X119998133Y-76459961D01*
X120027314Y-76518323D01*
X120056495Y-76635047D01*
X120056495Y-76722590D01*
X120027314Y-76839314D01*
X119998133Y-76897676D01*
X119939771Y-76956038D01*
X119852228Y-76985219D01*
X119706323Y-76985219D01*
X126279733Y-79466857D02*
X126308914Y-79496038D01*
X126279733Y-79525219D01*
X126250552Y-79496038D01*
X126279733Y-79466857D01*
X126279733Y-79525219D01*
X126279733Y-79291771D02*
X126250552Y-78941600D01*
X126279733Y-78912419D01*
X126308914Y-78941600D01*
X126279733Y-79291771D01*
X126279733Y-78912419D01*
X126542361Y-79496038D02*
X126629904Y-79525219D01*
X126775809Y-79525219D01*
X126834171Y-79496038D01*
X126863352Y-79466857D01*
X126892533Y-79408495D01*
X126892533Y-79350133D01*
X126863352Y-79291771D01*
X126834171Y-79262590D01*
X126775809Y-79233409D01*
X126659085Y-79204228D01*
X126600723Y-79175047D01*
X126571542Y-79145866D01*
X126542361Y-79087504D01*
X126542361Y-79029142D01*
X126571542Y-78970780D01*
X126600723Y-78941600D01*
X126659085Y-78912419D01*
X126804990Y-78912419D01*
X126892533Y-78941600D01*
X127505333Y-79525219D02*
X127301066Y-79233409D01*
X127155161Y-79525219D02*
X127155161Y-78912419D01*
X127388609Y-78912419D01*
X127446971Y-78941600D01*
X127476152Y-78970780D01*
X127505333Y-79029142D01*
X127505333Y-79116685D01*
X127476152Y-79175047D01*
X127446971Y-79204228D01*
X127388609Y-79233409D01*
X127155161Y-79233409D01*
X127767961Y-79525219D02*
X127767961Y-78912419D01*
X127913866Y-78912419D01*
X128001409Y-78941600D01*
X128059771Y-78999961D01*
X128088952Y-79058323D01*
X128118133Y-79175047D01*
X128118133Y-79262590D01*
X128088952Y-79379314D01*
X128059771Y-79437676D01*
X128001409Y-79496038D01*
X127913866Y-79525219D01*
X127767961Y-79525219D01*
X128234857Y-79583580D02*
X128701752Y-79583580D01*
X128964380Y-78912419D02*
X129081104Y-78912419D01*
X129139466Y-78941600D01*
X129197828Y-78999961D01*
X129227009Y-79116685D01*
X129227009Y-79320952D01*
X129197828Y-79437676D01*
X129139466Y-79496038D01*
X129081104Y-79525219D01*
X128964380Y-79525219D01*
X128906019Y-79496038D01*
X128847657Y-79437676D01*
X128818476Y-79320952D01*
X128818476Y-79116685D01*
X128847657Y-78999961D01*
X128906019Y-78941600D01*
X128964380Y-78912419D01*
X129489638Y-79204228D02*
X129693904Y-79204228D01*
X129781447Y-79525219D02*
X129489638Y-79525219D01*
X129489638Y-78912419D01*
X129781447Y-78912419D01*
X116554780Y-79466857D02*
X116583961Y-79496038D01*
X116554780Y-79525219D01*
X116525600Y-79496038D01*
X116554780Y-79466857D01*
X116554780Y-79525219D01*
X116554780Y-79291771D02*
X116525600Y-78941600D01*
X116554780Y-78912419D01*
X116583961Y-78941600D01*
X116554780Y-79291771D01*
X116554780Y-78912419D01*
X117196761Y-79525219D02*
X116992495Y-79233409D01*
X116846590Y-79525219D02*
X116846590Y-78912419D01*
X117080038Y-78912419D01*
X117138400Y-78941600D01*
X117167580Y-78970780D01*
X117196761Y-79029142D01*
X117196761Y-79116685D01*
X117167580Y-79175047D01*
X117138400Y-79204228D01*
X117080038Y-79233409D01*
X116846590Y-79233409D01*
X117576114Y-78912419D02*
X117692838Y-78912419D01*
X117751200Y-78941600D01*
X117809561Y-78999961D01*
X117838742Y-79116685D01*
X117838742Y-79320952D01*
X117809561Y-79437676D01*
X117751200Y-79496038D01*
X117692838Y-79525219D01*
X117576114Y-79525219D01*
X117517752Y-79496038D01*
X117459390Y-79437676D01*
X117430209Y-79320952D01*
X117430209Y-79116685D01*
X117459390Y-78999961D01*
X117517752Y-78941600D01*
X117576114Y-78912419D01*
X118101371Y-79525219D02*
X118101371Y-78912419D01*
X118305638Y-79350133D01*
X118509904Y-78912419D01*
X118509904Y-79525219D01*
X118655809Y-79583580D02*
X119122704Y-79583580D01*
X119385333Y-78912419D02*
X119502057Y-78912419D01*
X119560419Y-78941600D01*
X119618780Y-78999961D01*
X119647961Y-79116685D01*
X119647961Y-79320952D01*
X119618780Y-79437676D01*
X119560419Y-79496038D01*
X119502057Y-79525219D01*
X119385333Y-79525219D01*
X119326971Y-79496038D01*
X119268609Y-79437676D01*
X119239428Y-79320952D01*
X119239428Y-79116685D01*
X119268609Y-78999961D01*
X119326971Y-78941600D01*
X119385333Y-78912419D01*
X119910590Y-79204228D02*
X120114857Y-79204228D01*
X120202400Y-79525219D02*
X119910590Y-79525219D01*
X119910590Y-78912419D01*
X120202400Y-78912419D01*
X116350514Y-82006857D02*
X116379695Y-82036038D01*
X116350514Y-82065219D01*
X116321333Y-82036038D01*
X116350514Y-82006857D01*
X116350514Y-82065219D01*
X116350514Y-81831771D02*
X116321333Y-81481600D01*
X116350514Y-81452419D01*
X116379695Y-81481600D01*
X116350514Y-81831771D01*
X116350514Y-81452419D01*
X116963314Y-81481600D02*
X116904952Y-81452419D01*
X116817409Y-81452419D01*
X116729866Y-81481600D01*
X116671504Y-81539961D01*
X116642323Y-81598323D01*
X116613142Y-81715047D01*
X116613142Y-81802590D01*
X116642323Y-81919314D01*
X116671504Y-81977676D01*
X116729866Y-82036038D01*
X116817409Y-82065219D01*
X116875771Y-82065219D01*
X116963314Y-82036038D01*
X116992495Y-82006857D01*
X116992495Y-81802590D01*
X116875771Y-81802590D01*
X117255123Y-81744228D02*
X117459390Y-81744228D01*
X117546933Y-82065219D02*
X117255123Y-82065219D01*
X117255123Y-81452419D01*
X117546933Y-81452419D01*
X117809561Y-82065219D02*
X117809561Y-81452419D01*
X118159733Y-82065219D01*
X118159733Y-81452419D01*
X118305638Y-82123580D02*
X118772533Y-82123580D01*
X119268609Y-82065219D02*
X119064342Y-81773409D01*
X118918438Y-82065219D02*
X118918438Y-81452419D01*
X119151885Y-81452419D01*
X119210247Y-81481600D01*
X119239428Y-81510780D01*
X119268609Y-81569142D01*
X119268609Y-81656685D01*
X119239428Y-81715047D01*
X119210247Y-81744228D01*
X119151885Y-81773409D01*
X118918438Y-81773409D01*
X119531238Y-81744228D02*
X119735504Y-81744228D01*
X119823047Y-82065219D02*
X119531238Y-82065219D01*
X119531238Y-81452419D01*
X119823047Y-81452419D01*
X120056495Y-82036038D02*
X120144038Y-82065219D01*
X120289942Y-82065219D01*
X120348304Y-82036038D01*
X120377485Y-82006857D01*
X120406666Y-81948495D01*
X120406666Y-81890133D01*
X120377485Y-81831771D01*
X120348304Y-81802590D01*
X120289942Y-81773409D01*
X120173219Y-81744228D01*
X120114857Y-81715047D01*
X120085676Y-81685866D01*
X120056495Y-81627504D01*
X120056495Y-81569142D01*
X120085676Y-81510780D01*
X120114857Y-81481600D01*
X120173219Y-81452419D01*
X120319123Y-81452419D01*
X120406666Y-81481600D01*
X116569371Y-89626857D02*
X116598552Y-89656038D01*
X116569371Y-89685219D01*
X116540190Y-89656038D01*
X116569371Y-89626857D01*
X116569371Y-89685219D01*
X116569371Y-89451771D02*
X116540190Y-89101600D01*
X116569371Y-89072419D01*
X116598552Y-89101600D01*
X116569371Y-89451771D01*
X116569371Y-89072419D01*
X117211352Y-89685219D02*
X117007085Y-89393409D01*
X116861180Y-89685219D02*
X116861180Y-89072419D01*
X117094628Y-89072419D01*
X117152990Y-89101600D01*
X117182171Y-89130780D01*
X117211352Y-89189142D01*
X117211352Y-89276685D01*
X117182171Y-89335047D01*
X117152990Y-89364228D01*
X117094628Y-89393409D01*
X116861180Y-89393409D01*
X117590704Y-89072419D02*
X117707428Y-89072419D01*
X117765790Y-89101600D01*
X117824152Y-89159961D01*
X117853333Y-89276685D01*
X117853333Y-89480952D01*
X117824152Y-89597676D01*
X117765790Y-89656038D01*
X117707428Y-89685219D01*
X117590704Y-89685219D01*
X117532342Y-89656038D01*
X117473980Y-89597676D01*
X117444800Y-89480952D01*
X117444800Y-89276685D01*
X117473980Y-89159961D01*
X117532342Y-89101600D01*
X117590704Y-89072419D01*
X118115961Y-89685219D02*
X118115961Y-89072419D01*
X118320228Y-89510133D01*
X118524495Y-89072419D01*
X118524495Y-89685219D01*
X118670400Y-89743580D02*
X119137295Y-89743580D01*
X119633371Y-89626857D02*
X119604190Y-89656038D01*
X119516647Y-89685219D01*
X119458285Y-89685219D01*
X119370742Y-89656038D01*
X119312380Y-89597676D01*
X119283200Y-89539314D01*
X119254019Y-89422590D01*
X119254019Y-89335047D01*
X119283200Y-89218323D01*
X119312380Y-89159961D01*
X119370742Y-89101600D01*
X119458285Y-89072419D01*
X119516647Y-89072419D01*
X119604190Y-89101600D01*
X119633371Y-89130780D01*
X119896000Y-89364228D02*
X120100266Y-89364228D01*
X120187809Y-89685219D02*
X119896000Y-89685219D01*
X119896000Y-89072419D01*
X120187809Y-89072419D01*
X116700685Y-92166857D02*
X116729866Y-92196038D01*
X116700685Y-92225219D01*
X116671504Y-92196038D01*
X116700685Y-92166857D01*
X116700685Y-92225219D01*
X116700685Y-91991771D02*
X116671504Y-91641600D01*
X116700685Y-91612419D01*
X116729866Y-91641600D01*
X116700685Y-91991771D01*
X116700685Y-91612419D01*
X117313485Y-92225219D02*
X116963314Y-92225219D01*
X117138400Y-92225219D02*
X117138400Y-91612419D01*
X117080038Y-91699961D01*
X117021676Y-91758323D01*
X116963314Y-91787504D01*
X117838742Y-91612419D02*
X117722019Y-91612419D01*
X117663657Y-91641600D01*
X117634476Y-91670780D01*
X117576114Y-91758323D01*
X117546933Y-91875047D01*
X117546933Y-92108495D01*
X117576114Y-92166857D01*
X117605295Y-92196038D01*
X117663657Y-92225219D01*
X117780380Y-92225219D01*
X117838742Y-92196038D01*
X117867923Y-92166857D01*
X117897104Y-92108495D01*
X117897104Y-91962590D01*
X117867923Y-91904228D01*
X117838742Y-91875047D01*
X117780380Y-91845866D01*
X117663657Y-91845866D01*
X117605295Y-91875047D01*
X117576114Y-91904228D01*
X117546933Y-91962590D01*
X118451542Y-91612419D02*
X118159733Y-91612419D01*
X118130552Y-91904228D01*
X118159733Y-91875047D01*
X118218095Y-91845866D01*
X118364000Y-91845866D01*
X118422361Y-91875047D01*
X118451542Y-91904228D01*
X118480723Y-91962590D01*
X118480723Y-92108495D01*
X118451542Y-92166857D01*
X118422361Y-92196038D01*
X118364000Y-92225219D01*
X118218095Y-92225219D01*
X118159733Y-92196038D01*
X118130552Y-92166857D01*
X118597447Y-92283580D02*
X119064342Y-92283580D01*
X119502057Y-92225219D02*
X119210247Y-92225219D01*
X119210247Y-91612419D01*
X119706323Y-92225219D02*
X119706323Y-91612419D01*
X119852228Y-91612419D01*
X119939771Y-91641600D01*
X119998133Y-91699961D01*
X120027314Y-91758323D01*
X120056495Y-91875047D01*
X120056495Y-91962590D01*
X120027314Y-92079314D01*
X119998133Y-92137676D01*
X119939771Y-92196038D01*
X119852228Y-92225219D01*
X119706323Y-92225219D01*
X118010628Y-97305219D02*
X118010628Y-96692419D01*
X118214895Y-97130133D01*
X118419161Y-96692419D01*
X118419161Y-97305219D01*
X118827695Y-96692419D02*
X118944419Y-96692419D01*
X119002780Y-96721600D01*
X119061142Y-96779961D01*
X119090323Y-96896685D01*
X119090323Y-97100952D01*
X119061142Y-97217676D01*
X119002780Y-97276038D01*
X118944419Y-97305219D01*
X118827695Y-97305219D01*
X118769333Y-97276038D01*
X118710971Y-97217676D01*
X118681790Y-97100952D01*
X118681790Y-96896685D01*
X118710971Y-96779961D01*
X118769333Y-96721600D01*
X118827695Y-96692419D01*
X119323771Y-97276038D02*
X119411314Y-97305219D01*
X119557219Y-97305219D01*
X119615580Y-97276038D01*
X119644761Y-97246857D01*
X119673942Y-97188495D01*
X119673942Y-97130133D01*
X119644761Y-97071771D01*
X119615580Y-97042590D01*
X119557219Y-97013409D01*
X119440495Y-96984228D01*
X119382133Y-96955047D01*
X119352952Y-96925866D01*
X119323771Y-96867504D01*
X119323771Y-96809142D01*
X119352952Y-96750780D01*
X119382133Y-96721600D01*
X119440495Y-96692419D01*
X119586400Y-96692419D01*
X119673942Y-96721600D01*
X119936571Y-97305219D02*
X119936571Y-96692419D01*
X126252685Y-87086857D02*
X126281866Y-87116038D01*
X126252685Y-87145219D01*
X126223504Y-87116038D01*
X126252685Y-87086857D01*
X126252685Y-87145219D01*
X126252685Y-86911771D02*
X126223504Y-86561600D01*
X126252685Y-86532419D01*
X126281866Y-86561600D01*
X126252685Y-86911771D01*
X126252685Y-86532419D01*
X126456952Y-86532419D02*
X126807123Y-86532419D01*
X126632038Y-87145219D02*
X126632038Y-86532419D01*
X126953028Y-86532419D02*
X127361561Y-87145219D01*
X127361561Y-86532419D02*
X126953028Y-87145219D01*
X127449104Y-87203580D02*
X127916000Y-87203580D01*
X128061904Y-86824228D02*
X128266171Y-86824228D01*
X128353714Y-87145219D02*
X128061904Y-87145219D01*
X128061904Y-86532419D01*
X128353714Y-86532419D01*
X128616342Y-87145219D02*
X128616342Y-86532419D01*
X128966514Y-87145219D01*
X128966514Y-86532419D01*
X126177600Y-89626857D02*
X126206780Y-89656038D01*
X126177600Y-89685219D01*
X126148419Y-89656038D01*
X126177600Y-89626857D01*
X126177600Y-89685219D01*
X126177600Y-89451771D02*
X126148419Y-89101600D01*
X126177600Y-89072419D01*
X126206780Y-89101600D01*
X126177600Y-89451771D01*
X126177600Y-89072419D01*
X126819580Y-89685219D02*
X126615314Y-89393409D01*
X126469409Y-89685219D02*
X126469409Y-89072419D01*
X126702857Y-89072419D01*
X126761219Y-89101600D01*
X126790400Y-89130780D01*
X126819580Y-89189142D01*
X126819580Y-89276685D01*
X126790400Y-89335047D01*
X126761219Y-89364228D01*
X126702857Y-89393409D01*
X126469409Y-89393409D01*
X127198933Y-89072419D02*
X127315657Y-89072419D01*
X127374019Y-89101600D01*
X127432380Y-89159961D01*
X127461561Y-89276685D01*
X127461561Y-89480952D01*
X127432380Y-89597676D01*
X127374019Y-89656038D01*
X127315657Y-89685219D01*
X127198933Y-89685219D01*
X127140571Y-89656038D01*
X127082209Y-89597676D01*
X127053028Y-89480952D01*
X127053028Y-89276685D01*
X127082209Y-89159961D01*
X127140571Y-89101600D01*
X127198933Y-89072419D01*
X127724190Y-89685219D02*
X127724190Y-89072419D01*
X127928457Y-89510133D01*
X128132723Y-89072419D01*
X128132723Y-89685219D01*
X128278628Y-89743580D02*
X128745523Y-89743580D01*
X128833066Y-89072419D02*
X128978971Y-89685219D01*
X129095695Y-89247504D01*
X129212419Y-89685219D01*
X129358323Y-89072419D01*
X129591771Y-89364228D02*
X129796038Y-89364228D01*
X129883580Y-89685219D02*
X129591771Y-89685219D01*
X129591771Y-89072419D01*
X129883580Y-89072419D01*
X126323504Y-92166857D02*
X126352685Y-92196038D01*
X126323504Y-92225219D01*
X126294323Y-92196038D01*
X126323504Y-92166857D01*
X126323504Y-92225219D01*
X126323504Y-91991771D02*
X126294323Y-91641600D01*
X126323504Y-91612419D01*
X126352685Y-91641600D01*
X126323504Y-91991771D01*
X126323504Y-91612419D01*
X126586133Y-92196038D02*
X126673676Y-92225219D01*
X126819580Y-92225219D01*
X126877942Y-92196038D01*
X126907123Y-92166857D01*
X126936304Y-92108495D01*
X126936304Y-92050133D01*
X126907123Y-91991771D01*
X126877942Y-91962590D01*
X126819580Y-91933409D01*
X126702857Y-91904228D01*
X126644495Y-91875047D01*
X126615314Y-91845866D01*
X126586133Y-91787504D01*
X126586133Y-91729142D01*
X126615314Y-91670780D01*
X126644495Y-91641600D01*
X126702857Y-91612419D01*
X126848761Y-91612419D01*
X126936304Y-91641600D01*
X127549104Y-92225219D02*
X127344838Y-91933409D01*
X127198933Y-92225219D02*
X127198933Y-91612419D01*
X127432380Y-91612419D01*
X127490742Y-91641600D01*
X127519923Y-91670780D01*
X127549104Y-91729142D01*
X127549104Y-91816685D01*
X127519923Y-91875047D01*
X127490742Y-91904228D01*
X127432380Y-91933409D01*
X127198933Y-91933409D01*
X127782552Y-92050133D02*
X128074361Y-92050133D01*
X127724190Y-92225219D02*
X127928457Y-91612419D01*
X128132723Y-92225219D01*
X128191085Y-92283580D02*
X128657980Y-92283580D01*
X128920609Y-91612419D02*
X129037333Y-91612419D01*
X129095695Y-91641600D01*
X129154057Y-91699961D01*
X129183238Y-91816685D01*
X129183238Y-92020952D01*
X129154057Y-92137676D01*
X129095695Y-92196038D01*
X129037333Y-92225219D01*
X128920609Y-92225219D01*
X128862247Y-92196038D01*
X128803885Y-92137676D01*
X128774704Y-92020952D01*
X128774704Y-91816685D01*
X128803885Y-91699961D01*
X128862247Y-91641600D01*
X128920609Y-91612419D01*
X129445866Y-91904228D02*
X129650133Y-91904228D01*
X129737676Y-92225219D02*
X129445866Y-92225219D01*
X129445866Y-91612419D01*
X129737676Y-91612419D01*
X127244838Y-94706857D02*
X127215657Y-94736038D01*
X127128114Y-94765219D01*
X127069752Y-94765219D01*
X126982209Y-94736038D01*
X126923847Y-94677676D01*
X126894666Y-94619314D01*
X126865485Y-94502590D01*
X126865485Y-94415047D01*
X126894666Y-94298323D01*
X126923847Y-94239961D01*
X126982209Y-94181600D01*
X127069752Y-94152419D01*
X127128114Y-94152419D01*
X127215657Y-94181600D01*
X127244838Y-94210780D01*
X127799276Y-94765219D02*
X127507466Y-94765219D01*
X127507466Y-94152419D01*
X128003542Y-94765219D02*
X128003542Y-94152419D01*
X128353714Y-94765219D02*
X128091085Y-94415047D01*
X128353714Y-94152419D02*
X128003542Y-94502590D01*
X127142704Y-96721600D02*
X127084342Y-96692419D01*
X126996800Y-96692419D01*
X126909257Y-96721600D01*
X126850895Y-96779961D01*
X126821714Y-96838323D01*
X126792533Y-96955047D01*
X126792533Y-97042590D01*
X126821714Y-97159314D01*
X126850895Y-97217676D01*
X126909257Y-97276038D01*
X126996800Y-97305219D01*
X127055161Y-97305219D01*
X127142704Y-97276038D01*
X127171885Y-97246857D01*
X127171885Y-97042590D01*
X127055161Y-97042590D01*
X127434514Y-97305219D02*
X127434514Y-96692419D01*
X127784685Y-97305219D01*
X127784685Y-96692419D01*
X128076495Y-97305219D02*
X128076495Y-96692419D01*
X128222400Y-96692419D01*
X128309942Y-96721600D01*
X128368304Y-96779961D01*
X128397485Y-96838323D01*
X128426666Y-96955047D01*
X128426666Y-97042590D01*
X128397485Y-97159314D01*
X128368304Y-97217676D01*
X128309942Y-97276038D01*
X128222400Y-97305219D01*
X128076495Y-97305219D01*
X111740647Y-70116095D02*
X111740647Y-69303295D01*
X111740647Y-70077390D02*
X111663238Y-70116095D01*
X111508419Y-70116095D01*
X111431009Y-70077390D01*
X111392304Y-70038685D01*
X111353600Y-69961276D01*
X111353600Y-69729047D01*
X111392304Y-69651638D01*
X111431009Y-69612933D01*
X111508419Y-69574228D01*
X111663238Y-69574228D01*
X111740647Y-69612933D01*
X112127695Y-70116095D02*
X112127695Y-69574228D01*
X112127695Y-69303295D02*
X112088990Y-69342000D01*
X112127695Y-69380704D01*
X112166400Y-69342000D01*
X112127695Y-69303295D01*
X112127695Y-69380704D01*
X112863085Y-69574228D02*
X112863085Y-70232209D01*
X112824380Y-70309619D01*
X112785676Y-70348323D01*
X112708266Y-70387028D01*
X112592152Y-70387028D01*
X112514742Y-70348323D01*
X112863085Y-70077390D02*
X112785676Y-70116095D01*
X112630857Y-70116095D01*
X112553447Y-70077390D01*
X112514742Y-70038685D01*
X112476038Y-69961276D01*
X112476038Y-69729047D01*
X112514742Y-69651638D01*
X112553447Y-69612933D01*
X112630857Y-69574228D01*
X112785676Y-69574228D01*
X112863085Y-69612933D01*
X113250133Y-70116095D02*
X113250133Y-69574228D01*
X113250133Y-69303295D02*
X113211428Y-69342000D01*
X113250133Y-69380704D01*
X113288838Y-69342000D01*
X113250133Y-69303295D01*
X113250133Y-69380704D01*
X113637180Y-70116095D02*
X113637180Y-69303295D01*
X113637180Y-69690342D02*
X114101638Y-69690342D01*
X114101638Y-70116095D02*
X114101638Y-69303295D01*
X114837028Y-70116095D02*
X114837028Y-69690342D01*
X114798323Y-69612933D01*
X114720914Y-69574228D01*
X114566095Y-69574228D01*
X114488685Y-69612933D01*
X114837028Y-70077390D02*
X114759619Y-70116095D01*
X114566095Y-70116095D01*
X114488685Y-70077390D01*
X114449980Y-69999980D01*
X114449980Y-69922571D01*
X114488685Y-69845161D01*
X114566095Y-69806457D01*
X114759619Y-69806457D01*
X114837028Y-69767752D01*
X115146666Y-69574228D02*
X115572419Y-69574228D01*
X115146666Y-70116095D01*
X115572419Y-70116095D01*
X116191695Y-70077390D02*
X116114285Y-70116095D01*
X115959466Y-70116095D01*
X115882057Y-70077390D01*
X115843352Y-69999980D01*
X115843352Y-69690342D01*
X115882057Y-69612933D01*
X115959466Y-69574228D01*
X116114285Y-69574228D01*
X116191695Y-69612933D01*
X116230400Y-69690342D01*
X116230400Y-69767752D01*
X115843352Y-69845161D01*
X111547123Y-70713600D02*
X111469714Y-70674895D01*
X111353600Y-70674895D01*
X111237485Y-70713600D01*
X111160076Y-70791009D01*
X111121371Y-70868419D01*
X111082666Y-71023238D01*
X111082666Y-71139352D01*
X111121371Y-71294171D01*
X111160076Y-71371580D01*
X111237485Y-71448990D01*
X111353600Y-71487695D01*
X111431009Y-71487695D01*
X111547123Y-71448990D01*
X111585828Y-71410285D01*
X111585828Y-71139352D01*
X111431009Y-71139352D01*
X111934171Y-71487695D02*
X111934171Y-70674895D01*
X112205104Y-71255466D01*
X112476038Y-70674895D01*
X112476038Y-71487695D01*
X113134019Y-71061942D02*
X113250133Y-71100647D01*
X113288838Y-71139352D01*
X113327542Y-71216761D01*
X113327542Y-71332876D01*
X113288838Y-71410285D01*
X113250133Y-71448990D01*
X113172723Y-71487695D01*
X112863085Y-71487695D01*
X112863085Y-70674895D01*
X113134019Y-70674895D01*
X113211428Y-70713600D01*
X113250133Y-70752304D01*
X113288838Y-70829714D01*
X113288838Y-70907123D01*
X113250133Y-70984533D01*
X113211428Y-71023238D01*
X113134019Y-71061942D01*
X112863085Y-71061942D01*
X114217752Y-70945828D02*
X114411276Y-71487695D01*
X114604800Y-70945828D01*
X115069257Y-70674895D02*
X115146666Y-70674895D01*
X115224076Y-70713600D01*
X115262780Y-70752304D01*
X115301485Y-70829714D01*
X115340190Y-70984533D01*
X115340190Y-71178057D01*
X115301485Y-71332876D01*
X115262780Y-71410285D01*
X115224076Y-71448990D01*
X115146666Y-71487695D01*
X115069257Y-71487695D01*
X114991847Y-71448990D01*
X114953142Y-71410285D01*
X114914438Y-71332876D01*
X114875733Y-71178057D01*
X114875733Y-70984533D01*
X114914438Y-70829714D01*
X114953142Y-70752304D01*
X114991847Y-70713600D01*
X115069257Y-70674895D01*
X115688533Y-71410285D02*
X115727238Y-71448990D01*
X115688533Y-71487695D01*
X115649828Y-71448990D01*
X115688533Y-71410285D01*
X115688533Y-71487695D01*
X115998171Y-70674895D02*
X116501333Y-70674895D01*
X116230400Y-70984533D01*
X116346514Y-70984533D01*
X116423923Y-71023238D01*
X116462628Y-71061942D01*
X116501333Y-71139352D01*
X116501333Y-71332876D01*
X116462628Y-71410285D01*
X116423923Y-71448990D01*
X116346514Y-71487695D01*
X116114285Y-71487695D01*
X116036876Y-71448990D01*
X115998171Y-71410285D01*
X111024609Y-72859295D02*
X111024609Y-72046495D01*
X111218133Y-72046495D01*
X111334247Y-72085200D01*
X111411657Y-72162609D01*
X111450361Y-72240019D01*
X111489066Y-72394838D01*
X111489066Y-72510952D01*
X111450361Y-72665771D01*
X111411657Y-72743180D01*
X111334247Y-72820590D01*
X111218133Y-72859295D01*
X111024609Y-72859295D01*
X112147047Y-72820590D02*
X112069638Y-72859295D01*
X111914819Y-72859295D01*
X111837409Y-72820590D01*
X111798704Y-72743180D01*
X111798704Y-72433542D01*
X111837409Y-72356133D01*
X111914819Y-72317428D01*
X112069638Y-72317428D01*
X112147047Y-72356133D01*
X112185752Y-72433542D01*
X112185752Y-72510952D01*
X111798704Y-72588361D01*
X112882438Y-72820590D02*
X112805028Y-72859295D01*
X112650209Y-72859295D01*
X112572800Y-72820590D01*
X112534095Y-72781885D01*
X112495390Y-72704476D01*
X112495390Y-72472247D01*
X112534095Y-72394838D01*
X112572800Y-72356133D01*
X112650209Y-72317428D01*
X112805028Y-72317428D01*
X112882438Y-72356133D01*
X113811352Y-72123904D02*
X113850057Y-72085200D01*
X113927466Y-72046495D01*
X114120990Y-72046495D01*
X114198400Y-72085200D01*
X114237104Y-72123904D01*
X114275809Y-72201314D01*
X114275809Y-72278723D01*
X114237104Y-72394838D01*
X113772647Y-72859295D01*
X114275809Y-72859295D01*
X114778971Y-72046495D02*
X114856380Y-72046495D01*
X114933790Y-72085200D01*
X114972495Y-72123904D01*
X115011200Y-72201314D01*
X115049904Y-72356133D01*
X115049904Y-72549657D01*
X115011200Y-72704476D01*
X114972495Y-72781885D01*
X114933790Y-72820590D01*
X114856380Y-72859295D01*
X114778971Y-72859295D01*
X114701561Y-72820590D01*
X114662857Y-72781885D01*
X114624152Y-72704476D01*
X114585447Y-72549657D01*
X114585447Y-72356133D01*
X114624152Y-72201314D01*
X114662857Y-72123904D01*
X114701561Y-72085200D01*
X114778971Y-72046495D01*
X115359542Y-72123904D02*
X115398247Y-72085200D01*
X115475657Y-72046495D01*
X115669180Y-72046495D01*
X115746590Y-72085200D01*
X115785295Y-72123904D01*
X115824000Y-72201314D01*
X115824000Y-72278723D01*
X115785295Y-72394838D01*
X115320838Y-72859295D01*
X115824000Y-72859295D01*
X116598095Y-72859295D02*
X116133638Y-72859295D01*
X116365866Y-72859295D02*
X116365866Y-72046495D01*
X116288457Y-72162609D01*
X116211047Y-72240019D01*
X116133638Y-72278723D01*
D11*
X116138000Y-95952000D02*
X110938000Y-95952000D01*
X116138000Y-103632000D02*
X116138000Y-95952000D01*
X110938000Y-106232000D02*
X110938000Y-95952000D01*
X116138000Y-103632000D02*
X113538000Y-103632000D01*
X113538000Y-103632000D02*
X113538000Y-106232000D01*
X113538000Y-106232000D02*
X110938000Y-106232000D01*
X116138000Y-104902000D02*
X116138000Y-106232000D01*
X116138000Y-106232000D02*
X114808000Y-106232000D01*
D12*
X93084600Y-82335200D02*
X93084600Y-82810200D01*
X98634600Y-82335200D02*
X98634600Y-82910200D01*
X98634600Y-88885200D02*
X98634600Y-88310200D01*
X93084600Y-88885200D02*
X93084600Y-88310200D01*
X93084600Y-82335200D02*
X98634600Y-82335200D01*
X93084600Y-88885200D02*
X98634600Y-88885200D01*
X93084600Y-82810200D02*
X91809600Y-82810200D01*
X82975400Y-82373800D02*
X82975400Y-82848800D01*
X88525400Y-82373800D02*
X88525400Y-82948800D01*
X88525400Y-88923800D02*
X88525400Y-88348800D01*
X82975400Y-88923800D02*
X82975400Y-88348800D01*
X82975400Y-82373800D02*
X88525400Y-82373800D01*
X82975400Y-88923800D02*
X88525400Y-88923800D01*
X82975400Y-82848800D02*
X81700400Y-82848800D01*
D11*
X86101000Y-100088700D02*
X86101000Y-107683300D01*
X104643000Y-107683300D02*
X104643000Y-100088700D01*
D13*
G36*
X98420000Y-97688400D02*
G01*
X98039000Y-97688400D01*
X98039000Y-97942400D01*
X98420000Y-97942400D01*
X98420000Y-97688400D01*
G37*
X98420000Y-97688400D02*
X98039000Y-97688400D01*
X98039000Y-97942400D01*
X98420000Y-97942400D01*
X98420000Y-97688400D01*
G36*
X92070000Y-97688400D02*
G01*
X91689000Y-97688400D01*
X91689000Y-97942400D01*
X92070000Y-97942400D01*
X92070000Y-97688400D01*
G37*
X92070000Y-97688400D02*
X91689000Y-97688400D01*
X91689000Y-97942400D01*
X92070000Y-97942400D01*
X92070000Y-97688400D01*
G36*
X87625000Y-110083600D02*
G01*
X87244000Y-110083600D01*
X87244000Y-109829600D01*
X87625000Y-109829600D01*
X87625000Y-110083600D01*
G37*
X87625000Y-110083600D02*
X87244000Y-110083600D01*
X87244000Y-109829600D01*
X87625000Y-109829600D01*
X87625000Y-110083600D01*
G36*
X93975000Y-110083600D02*
G01*
X93594000Y-110083600D01*
X93594000Y-109829600D01*
X93975000Y-109829600D01*
X93975000Y-110083600D01*
G37*
X93975000Y-110083600D02*
X93594000Y-110083600D01*
X93594000Y-109829600D01*
X93975000Y-109829600D01*
X93975000Y-110083600D01*
G36*
X100325000Y-110083600D02*
G01*
X99944000Y-110083600D01*
X99944000Y-109829600D01*
X100325000Y-109829600D01*
X100325000Y-110083600D01*
G37*
X100325000Y-110083600D02*
X99944000Y-110083600D01*
X99944000Y-109829600D01*
X100325000Y-109829600D01*
X100325000Y-110083600D01*
D11*
X104643000Y-104190800D02*
G75*
G02*
X104643000Y-103581200I0J304800D01*
G01*
X34163000Y-100088700D02*
X34163000Y-107683300D01*
X52705000Y-107683300D02*
X52705000Y-100088700D01*
D13*
G36*
X46482000Y-97688400D02*
G01*
X46101000Y-97688400D01*
X46101000Y-97942400D01*
X46482000Y-97942400D01*
X46482000Y-97688400D01*
G37*
X46482000Y-97688400D02*
X46101000Y-97688400D01*
X46101000Y-97942400D01*
X46482000Y-97942400D01*
X46482000Y-97688400D01*
G36*
X40132000Y-97688400D02*
G01*
X39751000Y-97688400D01*
X39751000Y-97942400D01*
X40132000Y-97942400D01*
X40132000Y-97688400D01*
G37*
X40132000Y-97688400D02*
X39751000Y-97688400D01*
X39751000Y-97942400D01*
X40132000Y-97942400D01*
X40132000Y-97688400D01*
G36*
X35687000Y-110083600D02*
G01*
X35306000Y-110083600D01*
X35306000Y-109829600D01*
X35687000Y-109829600D01*
X35687000Y-110083600D01*
G37*
X35687000Y-110083600D02*
X35306000Y-110083600D01*
X35306000Y-109829600D01*
X35687000Y-109829600D01*
X35687000Y-110083600D01*
G36*
X42037000Y-110083600D02*
G01*
X41656000Y-110083600D01*
X41656000Y-109829600D01*
X42037000Y-109829600D01*
X42037000Y-110083600D01*
G37*
X42037000Y-110083600D02*
X41656000Y-110083600D01*
X41656000Y-109829600D01*
X42037000Y-109829600D01*
X42037000Y-110083600D01*
G36*
X48387000Y-110083600D02*
G01*
X48006000Y-110083600D01*
X48006000Y-109829600D01*
X48387000Y-109829600D01*
X48387000Y-110083600D01*
G37*
X48387000Y-110083600D02*
X48006000Y-110083600D01*
X48006000Y-109829600D01*
X48387000Y-109829600D01*
X48387000Y-110083600D01*
D11*
X52705000Y-104190800D02*
G75*
G02*
X52705000Y-103581200I0J304800D01*
G01*
X58296400Y-100088700D02*
X58296400Y-107683300D01*
X76838400Y-107683300D02*
X76838400Y-100088700D01*
D13*
G36*
X70615400Y-97688400D02*
G01*
X70234400Y-97688400D01*
X70234400Y-97942400D01*
X70615400Y-97942400D01*
X70615400Y-97688400D01*
G37*
X70615400Y-97688400D02*
X70234400Y-97688400D01*
X70234400Y-97942400D01*
X70615400Y-97942400D01*
X70615400Y-97688400D01*
G36*
X64265400Y-97688400D02*
G01*
X63884400Y-97688400D01*
X63884400Y-97942400D01*
X64265400Y-97942400D01*
X64265400Y-97688400D01*
G37*
X64265400Y-97688400D02*
X63884400Y-97688400D01*
X63884400Y-97942400D01*
X64265400Y-97942400D01*
X64265400Y-97688400D01*
G36*
X59820400Y-110083600D02*
G01*
X59439400Y-110083600D01*
X59439400Y-109829600D01*
X59820400Y-109829600D01*
X59820400Y-110083600D01*
G37*
X59820400Y-110083600D02*
X59439400Y-110083600D01*
X59439400Y-109829600D01*
X59820400Y-109829600D01*
X59820400Y-110083600D01*
G36*
X66170400Y-110083600D02*
G01*
X65789400Y-110083600D01*
X65789400Y-109829600D01*
X66170400Y-109829600D01*
X66170400Y-110083600D01*
G37*
X66170400Y-110083600D02*
X65789400Y-110083600D01*
X65789400Y-109829600D01*
X66170400Y-109829600D01*
X66170400Y-110083600D01*
G36*
X72520400Y-110083600D02*
G01*
X72139400Y-110083600D01*
X72139400Y-109829600D01*
X72520400Y-109829600D01*
X72520400Y-110083600D01*
G37*
X72520400Y-110083600D02*
X72139400Y-110083600D01*
X72139400Y-109829600D01*
X72520400Y-109829600D01*
X72520400Y-110083600D01*
D11*
X76838400Y-104190800D02*
G75*
G02*
X76838400Y-103581200I0J304800D01*
G01*
X67599000Y-72820000D02*
X67599000Y-74150000D01*
X66269000Y-72820000D02*
X67599000Y-72820000D01*
X67599000Y-75420000D02*
X67599000Y-78020000D01*
X64999000Y-75420000D02*
X67599000Y-75420000D01*
X64999000Y-72820000D02*
X64999000Y-75420000D01*
X67599000Y-78020000D02*
X34459000Y-78020000D01*
X64999000Y-72820000D02*
X34459000Y-72820000D01*
X34459000Y-72820000D02*
X34459000Y-78020000D01*
X64837000Y-118373200D02*
X64837000Y-117043200D01*
X66167000Y-118373200D02*
X64837000Y-118373200D01*
X64837000Y-115773200D02*
X64837000Y-113173200D01*
X67437000Y-115773200D02*
X64837000Y-115773200D01*
X67437000Y-118373200D02*
X67437000Y-115773200D01*
X64837000Y-113173200D02*
X77657000Y-113173200D01*
X67437000Y-118373200D02*
X77657000Y-118373200D01*
X77657000Y-118373200D02*
X77657000Y-113173200D01*
X82617000Y-118373200D02*
X82617000Y-117043200D01*
X83947000Y-118373200D02*
X82617000Y-118373200D01*
X82617000Y-115773200D02*
X82617000Y-113173200D01*
X85217000Y-115773200D02*
X82617000Y-115773200D01*
X85217000Y-118373200D02*
X85217000Y-115773200D01*
X82617000Y-113173200D02*
X95437000Y-113173200D01*
X85217000Y-118373200D02*
X95437000Y-118373200D01*
X95437000Y-118373200D02*
X95437000Y-113173200D01*
X100397000Y-118373200D02*
X100397000Y-117043200D01*
X101727000Y-118373200D02*
X100397000Y-118373200D01*
X100397000Y-115773200D02*
X100397000Y-113173200D01*
X102997000Y-115773200D02*
X100397000Y-115773200D01*
X102997000Y-118373200D02*
X102997000Y-115773200D01*
X100397000Y-113173200D02*
X125917000Y-113173200D01*
X102997000Y-118373200D02*
X125917000Y-118373200D01*
X125917000Y-118373200D02*
X125917000Y-113173200D01*
X34382400Y-118373200D02*
X34382400Y-117043200D01*
X35712400Y-118373200D02*
X34382400Y-118373200D01*
X34382400Y-115773200D02*
X34382400Y-113173200D01*
X36982400Y-115773200D02*
X34382400Y-115773200D01*
X36982400Y-118373200D02*
X36982400Y-115773200D01*
X34382400Y-113173200D02*
X59902400Y-113173200D01*
X36982400Y-118373200D02*
X59902400Y-118373200D01*
X59902400Y-118373200D02*
X59902400Y-113173200D01*
X108111600Y-72820000D02*
X108111600Y-74150000D01*
X106781600Y-72820000D02*
X108111600Y-72820000D01*
X108111600Y-75420000D02*
X108111600Y-78020000D01*
X105511600Y-75420000D02*
X108111600Y-75420000D01*
X105511600Y-72820000D02*
X105511600Y-75420000D01*
X108111600Y-78020000D02*
X82591600Y-78020000D01*
X105511600Y-72820000D02*
X82591600Y-72820000D01*
X82591600Y-72820000D02*
X82591600Y-78020000D01*
X125907000Y-98330000D02*
X124577000Y-98330000D01*
X125907000Y-97000000D02*
X125907000Y-98330000D01*
X123307000Y-98330000D02*
X120707000Y-98330000D01*
X123307000Y-95730000D02*
X123307000Y-98330000D01*
X125907000Y-95730000D02*
X123307000Y-95730000D01*
X120707000Y-98330000D02*
X120707000Y-72810000D01*
X125907000Y-95730000D02*
X125907000Y-72810000D01*
X125907000Y-72810000D02*
X120707000Y-72810000D01*
X37719000Y-82951000D02*
X34269000Y-82951000D01*
X37719000Y-82951000D02*
X39669000Y-82951000D01*
X37719000Y-93071000D02*
X35769000Y-93071000D01*
X37719000Y-93071000D02*
X39669000Y-93071000D01*
X62115700Y-82951000D02*
X58665700Y-82951000D01*
X62115700Y-82951000D02*
X64065700Y-82951000D01*
X62115700Y-93071000D02*
X60165700Y-93071000D01*
X62115700Y-93071000D02*
X64065700Y-93071000D01*
X50101500Y-82951000D02*
X46651500Y-82951000D01*
X50101500Y-82951000D02*
X52051500Y-82951000D01*
X50101500Y-93071000D02*
X48151500Y-93071000D01*
X50101500Y-93071000D02*
X52051500Y-93071000D01*
X74422000Y-82900200D02*
X70972000Y-82900200D01*
X74422000Y-82900200D02*
X76372000Y-82900200D01*
X74422000Y-93020200D02*
X72472000Y-93020200D01*
X74422000Y-93020200D02*
X76372000Y-93020200D01*
X104881600Y-82900200D02*
X101431600Y-82900200D01*
X104881600Y-82900200D02*
X106831600Y-82900200D01*
X104881600Y-93020200D02*
X102931600Y-93020200D01*
X104881600Y-93020200D02*
X106831600Y-93020200D01*
D12*
X113204666Y-106684380D02*
X113204666Y-107398666D01*
X113157047Y-107541523D01*
X113061809Y-107636761D01*
X112918952Y-107684380D01*
X112823714Y-107684380D01*
X113823714Y-107112952D02*
X113728476Y-107065333D01*
X113680857Y-107017714D01*
X113633238Y-106922476D01*
X113633238Y-106874857D01*
X113680857Y-106779619D01*
X113728476Y-106732000D01*
X113823714Y-106684380D01*
X114014190Y-106684380D01*
X114109428Y-106732000D01*
X114157047Y-106779619D01*
X114204666Y-106874857D01*
X114204666Y-106922476D01*
X114157047Y-107017714D01*
X114109428Y-107065333D01*
X114014190Y-107112952D01*
X113823714Y-107112952D01*
X113728476Y-107160571D01*
X113680857Y-107208190D01*
X113633238Y-107303428D01*
X113633238Y-107493904D01*
X113680857Y-107589142D01*
X113728476Y-107636761D01*
X113823714Y-107684380D01*
X114014190Y-107684380D01*
X114109428Y-107636761D01*
X114157047Y-107589142D01*
X114204666Y-107493904D01*
X114204666Y-107303428D01*
X114157047Y-107208190D01*
X114109428Y-107160571D01*
X114014190Y-107112952D01*
X95097695Y-80862580D02*
X95097695Y-81672104D01*
X95145314Y-81767342D01*
X95192933Y-81814961D01*
X95288171Y-81862580D01*
X95478647Y-81862580D01*
X95573885Y-81814961D01*
X95621504Y-81767342D01*
X95669123Y-81672104D01*
X95669123Y-80862580D01*
X96050076Y-80862580D02*
X96716742Y-80862580D01*
X96288171Y-81862580D01*
X84988495Y-80901180D02*
X84988495Y-81710704D01*
X85036114Y-81805942D01*
X85083733Y-81853561D01*
X85178971Y-81901180D01*
X85369447Y-81901180D01*
X85464685Y-81853561D01*
X85512304Y-81805942D01*
X85559923Y-81710704D01*
X85559923Y-80901180D01*
X86464685Y-80901180D02*
X86274209Y-80901180D01*
X86178971Y-80948800D01*
X86131352Y-80996419D01*
X86036114Y-81139276D01*
X85988495Y-81329752D01*
X85988495Y-81710704D01*
X86036114Y-81805942D01*
X86083733Y-81853561D01*
X86178971Y-81901180D01*
X86369447Y-81901180D01*
X86464685Y-81853561D01*
X86512304Y-81805942D01*
X86559923Y-81710704D01*
X86559923Y-81472609D01*
X86512304Y-81377371D01*
X86464685Y-81329752D01*
X86369447Y-81282133D01*
X86178971Y-81282133D01*
X86083733Y-81329752D01*
X86036114Y-81377371D01*
X85988495Y-81472609D01*
X105116380Y-104698704D02*
X105925904Y-104698704D01*
X106021142Y-104651085D01*
X106068761Y-104603466D01*
X106116380Y-104508228D01*
X106116380Y-104317752D01*
X106068761Y-104222514D01*
X106021142Y-104174895D01*
X105925904Y-104127276D01*
X105116380Y-104127276D01*
X105544952Y-103508228D02*
X105497333Y-103603466D01*
X105449714Y-103651085D01*
X105354476Y-103698704D01*
X105306857Y-103698704D01*
X105211619Y-103651085D01*
X105164000Y-103603466D01*
X105116380Y-103508228D01*
X105116380Y-103317752D01*
X105164000Y-103222514D01*
X105211619Y-103174895D01*
X105306857Y-103127276D01*
X105354476Y-103127276D01*
X105449714Y-103174895D01*
X105497333Y-103222514D01*
X105544952Y-103317752D01*
X105544952Y-103508228D01*
X105592571Y-103603466D01*
X105640190Y-103651085D01*
X105735428Y-103698704D01*
X105925904Y-103698704D01*
X106021142Y-103651085D01*
X106068761Y-103603466D01*
X106116380Y-103508228D01*
X106116380Y-103317752D01*
X106068761Y-103222514D01*
X106021142Y-103174895D01*
X105925904Y-103127276D01*
X105735428Y-103127276D01*
X105640190Y-103174895D01*
X105592571Y-103222514D01*
X105544952Y-103317752D01*
X89967238Y-103338380D02*
X90633904Y-103338380D01*
X90205333Y-104338380D01*
X91443428Y-103671714D02*
X91443428Y-104338380D01*
X91205333Y-103290761D02*
X90967238Y-104005047D01*
X91586285Y-104005047D01*
X91919619Y-104052666D02*
X92395809Y-104052666D01*
X91824380Y-104338380D02*
X92157714Y-103338380D01*
X92491047Y-104338380D01*
X93395809Y-104243142D02*
X93348190Y-104290761D01*
X93205333Y-104338380D01*
X93110095Y-104338380D01*
X92967238Y-104290761D01*
X92872000Y-104195523D01*
X92824380Y-104100285D01*
X92776761Y-103909809D01*
X92776761Y-103766952D01*
X92824380Y-103576476D01*
X92872000Y-103481238D01*
X92967238Y-103386000D01*
X93110095Y-103338380D01*
X93205333Y-103338380D01*
X93348190Y-103386000D01*
X93395809Y-103433619D01*
X93681523Y-103338380D02*
X94252952Y-103338380D01*
X93967238Y-104338380D02*
X93967238Y-103338380D01*
X95110095Y-104338380D02*
X94538666Y-104338380D01*
X94824380Y-104338380D02*
X94824380Y-103338380D01*
X94729142Y-103481238D01*
X94633904Y-103576476D01*
X94538666Y-103624095D01*
X95967238Y-103338380D02*
X95776761Y-103338380D01*
X95681523Y-103386000D01*
X95633904Y-103433619D01*
X95538666Y-103576476D01*
X95491047Y-103766952D01*
X95491047Y-104147904D01*
X95538666Y-104243142D01*
X95586285Y-104290761D01*
X95681523Y-104338380D01*
X95872000Y-104338380D01*
X95967238Y-104290761D01*
X96014857Y-104243142D01*
X96062476Y-104147904D01*
X96062476Y-103909809D01*
X96014857Y-103814571D01*
X95967238Y-103766952D01*
X95872000Y-103719333D01*
X95681523Y-103719333D01*
X95586285Y-103766952D01*
X95538666Y-103814571D01*
X95491047Y-103909809D01*
X96967238Y-103338380D02*
X96491047Y-103338380D01*
X96443428Y-103814571D01*
X96491047Y-103766952D01*
X96586285Y-103719333D01*
X96824380Y-103719333D01*
X96919619Y-103766952D01*
X96967238Y-103814571D01*
X97014857Y-103909809D01*
X97014857Y-104147904D01*
X96967238Y-104243142D01*
X96919619Y-104290761D01*
X96824380Y-104338380D01*
X96586285Y-104338380D01*
X96491047Y-104290761D01*
X96443428Y-104243142D01*
X97872000Y-103671714D02*
X97872000Y-104338380D01*
X97633904Y-103290761D02*
X97395809Y-104005047D01*
X98014857Y-104005047D01*
X98300571Y-103338380D02*
X98919619Y-103338380D01*
X98586285Y-103719333D01*
X98729142Y-103719333D01*
X98824380Y-103766952D01*
X98872000Y-103814571D01*
X98919619Y-103909809D01*
X98919619Y-104147904D01*
X98872000Y-104243142D01*
X98824380Y-104290761D01*
X98729142Y-104338380D01*
X98443428Y-104338380D01*
X98348190Y-104290761D01*
X98300571Y-104243142D01*
X99348190Y-104338380D02*
X99348190Y-103338380D01*
X99586285Y-103338380D01*
X99729142Y-103386000D01*
X99824380Y-103481238D01*
X99872000Y-103576476D01*
X99919619Y-103766952D01*
X99919619Y-103909809D01*
X99872000Y-104100285D01*
X99824380Y-104195523D01*
X99729142Y-104290761D01*
X99586285Y-104338380D01*
X99348190Y-104338380D01*
X100824380Y-104338380D02*
X100348190Y-104338380D01*
X100348190Y-103338380D01*
X104946280Y-98964750D02*
X105184376Y-98964750D01*
X105089138Y-99202845D02*
X105184376Y-98964750D01*
X105089138Y-98726654D01*
X105374852Y-99107607D02*
X105184376Y-98964750D01*
X105374852Y-98821892D01*
X104946280Y-98964750D02*
X105184376Y-98964750D01*
X105089138Y-99202845D02*
X105184376Y-98964750D01*
X105089138Y-98726654D01*
X105374852Y-99107607D02*
X105184376Y-98964750D01*
X105374852Y-98821892D01*
X53198780Y-104647904D02*
X54008304Y-104647904D01*
X54103542Y-104600285D01*
X54151161Y-104552666D01*
X54198780Y-104457428D01*
X54198780Y-104266952D01*
X54151161Y-104171714D01*
X54103542Y-104124095D01*
X54008304Y-104076476D01*
X53198780Y-104076476D01*
X54198780Y-103552666D02*
X54198780Y-103362190D01*
X54151161Y-103266952D01*
X54103542Y-103219333D01*
X53960685Y-103124095D01*
X53770209Y-103076476D01*
X53389257Y-103076476D01*
X53294019Y-103124095D01*
X53246400Y-103171714D01*
X53198780Y-103266952D01*
X53198780Y-103457428D01*
X53246400Y-103552666D01*
X53294019Y-103600285D01*
X53389257Y-103647904D01*
X53627352Y-103647904D01*
X53722590Y-103600285D01*
X53770209Y-103552666D01*
X53817828Y-103457428D01*
X53817828Y-103266952D01*
X53770209Y-103171714D01*
X53722590Y-103124095D01*
X53627352Y-103076476D01*
X38029238Y-103338380D02*
X38695904Y-103338380D01*
X38267333Y-104338380D01*
X39505428Y-103671714D02*
X39505428Y-104338380D01*
X39267333Y-103290761D02*
X39029238Y-104005047D01*
X39648285Y-104005047D01*
X39981619Y-104052666D02*
X40457809Y-104052666D01*
X39886380Y-104338380D02*
X40219714Y-103338380D01*
X40553047Y-104338380D01*
X41457809Y-104243142D02*
X41410190Y-104290761D01*
X41267333Y-104338380D01*
X41172095Y-104338380D01*
X41029238Y-104290761D01*
X40934000Y-104195523D01*
X40886380Y-104100285D01*
X40838761Y-103909809D01*
X40838761Y-103766952D01*
X40886380Y-103576476D01*
X40934000Y-103481238D01*
X41029238Y-103386000D01*
X41172095Y-103338380D01*
X41267333Y-103338380D01*
X41410190Y-103386000D01*
X41457809Y-103433619D01*
X41743523Y-103338380D02*
X42314952Y-103338380D01*
X42029238Y-104338380D02*
X42029238Y-103338380D01*
X43172095Y-104338380D02*
X42600666Y-104338380D01*
X42886380Y-104338380D02*
X42886380Y-103338380D01*
X42791142Y-103481238D01*
X42695904Y-103576476D01*
X42600666Y-103624095D01*
X44029238Y-103338380D02*
X43838761Y-103338380D01*
X43743523Y-103386000D01*
X43695904Y-103433619D01*
X43600666Y-103576476D01*
X43553047Y-103766952D01*
X43553047Y-104147904D01*
X43600666Y-104243142D01*
X43648285Y-104290761D01*
X43743523Y-104338380D01*
X43934000Y-104338380D01*
X44029238Y-104290761D01*
X44076857Y-104243142D01*
X44124476Y-104147904D01*
X44124476Y-103909809D01*
X44076857Y-103814571D01*
X44029238Y-103766952D01*
X43934000Y-103719333D01*
X43743523Y-103719333D01*
X43648285Y-103766952D01*
X43600666Y-103814571D01*
X43553047Y-103909809D01*
X45029238Y-103338380D02*
X44553047Y-103338380D01*
X44505428Y-103814571D01*
X44553047Y-103766952D01*
X44648285Y-103719333D01*
X44886380Y-103719333D01*
X44981619Y-103766952D01*
X45029238Y-103814571D01*
X45076857Y-103909809D01*
X45076857Y-104147904D01*
X45029238Y-104243142D01*
X44981619Y-104290761D01*
X44886380Y-104338380D01*
X44648285Y-104338380D01*
X44553047Y-104290761D01*
X44505428Y-104243142D01*
X45934000Y-103671714D02*
X45934000Y-104338380D01*
X45695904Y-103290761D02*
X45457809Y-104005047D01*
X46076857Y-104005047D01*
X46362571Y-103338380D02*
X46981619Y-103338380D01*
X46648285Y-103719333D01*
X46791142Y-103719333D01*
X46886380Y-103766952D01*
X46934000Y-103814571D01*
X46981619Y-103909809D01*
X46981619Y-104147904D01*
X46934000Y-104243142D01*
X46886380Y-104290761D01*
X46791142Y-104338380D01*
X46505428Y-104338380D01*
X46410190Y-104290761D01*
X46362571Y-104243142D01*
X47410190Y-104338380D02*
X47410190Y-103338380D01*
X47648285Y-103338380D01*
X47791142Y-103386000D01*
X47886380Y-103481238D01*
X47934000Y-103576476D01*
X47981619Y-103766952D01*
X47981619Y-103909809D01*
X47934000Y-104100285D01*
X47886380Y-104195523D01*
X47791142Y-104290761D01*
X47648285Y-104338380D01*
X47410190Y-104338380D01*
X48886380Y-104338380D02*
X48410190Y-104338380D01*
X48410190Y-103338380D01*
X53008280Y-98964750D02*
X53246376Y-98964750D01*
X53151138Y-99202845D02*
X53246376Y-98964750D01*
X53151138Y-98726654D01*
X53436852Y-99107607D02*
X53246376Y-98964750D01*
X53436852Y-98821892D01*
X53008280Y-98964750D02*
X53246376Y-98964750D01*
X53151138Y-99202845D02*
X53246376Y-98964750D01*
X53151138Y-98726654D01*
X53436852Y-99107607D02*
X53246376Y-98964750D01*
X53436852Y-98821892D01*
X77328780Y-105174895D02*
X78138304Y-105174895D01*
X78233542Y-105127276D01*
X78281161Y-105079657D01*
X78328780Y-104984419D01*
X78328780Y-104793942D01*
X78281161Y-104698704D01*
X78233542Y-104651085D01*
X78138304Y-104603466D01*
X77328780Y-104603466D01*
X78328780Y-103603466D02*
X78328780Y-104174895D01*
X78328780Y-103889180D02*
X77328780Y-103889180D01*
X77471638Y-103984419D01*
X77566876Y-104079657D01*
X77614495Y-104174895D01*
X77328780Y-102984419D02*
X77328780Y-102889180D01*
X77376400Y-102793942D01*
X77424019Y-102746323D01*
X77519257Y-102698704D01*
X77709733Y-102651085D01*
X77947828Y-102651085D01*
X78138304Y-102698704D01*
X78233542Y-102746323D01*
X78281161Y-102793942D01*
X78328780Y-102889180D01*
X78328780Y-102984419D01*
X78281161Y-103079657D01*
X78233542Y-103127276D01*
X78138304Y-103174895D01*
X77947828Y-103222514D01*
X77709733Y-103222514D01*
X77519257Y-103174895D01*
X77424019Y-103127276D01*
X77376400Y-103079657D01*
X77328780Y-102984419D01*
X62162638Y-103338380D02*
X62829304Y-103338380D01*
X62400733Y-104338380D01*
X63638828Y-103671714D02*
X63638828Y-104338380D01*
X63400733Y-103290761D02*
X63162638Y-104005047D01*
X63781685Y-104005047D01*
X64115019Y-104052666D02*
X64591209Y-104052666D01*
X64019780Y-104338380D02*
X64353114Y-103338380D01*
X64686447Y-104338380D01*
X65591209Y-104243142D02*
X65543590Y-104290761D01*
X65400733Y-104338380D01*
X65305495Y-104338380D01*
X65162638Y-104290761D01*
X65067400Y-104195523D01*
X65019780Y-104100285D01*
X64972161Y-103909809D01*
X64972161Y-103766952D01*
X65019780Y-103576476D01*
X65067400Y-103481238D01*
X65162638Y-103386000D01*
X65305495Y-103338380D01*
X65400733Y-103338380D01*
X65543590Y-103386000D01*
X65591209Y-103433619D01*
X65876923Y-103338380D02*
X66448352Y-103338380D01*
X66162638Y-104338380D02*
X66162638Y-103338380D01*
X67305495Y-104338380D02*
X66734066Y-104338380D01*
X67019780Y-104338380D02*
X67019780Y-103338380D01*
X66924542Y-103481238D01*
X66829304Y-103576476D01*
X66734066Y-103624095D01*
X68162638Y-103338380D02*
X67972161Y-103338380D01*
X67876923Y-103386000D01*
X67829304Y-103433619D01*
X67734066Y-103576476D01*
X67686447Y-103766952D01*
X67686447Y-104147904D01*
X67734066Y-104243142D01*
X67781685Y-104290761D01*
X67876923Y-104338380D01*
X68067400Y-104338380D01*
X68162638Y-104290761D01*
X68210257Y-104243142D01*
X68257876Y-104147904D01*
X68257876Y-103909809D01*
X68210257Y-103814571D01*
X68162638Y-103766952D01*
X68067400Y-103719333D01*
X67876923Y-103719333D01*
X67781685Y-103766952D01*
X67734066Y-103814571D01*
X67686447Y-103909809D01*
X69162638Y-103338380D02*
X68686447Y-103338380D01*
X68638828Y-103814571D01*
X68686447Y-103766952D01*
X68781685Y-103719333D01*
X69019780Y-103719333D01*
X69115019Y-103766952D01*
X69162638Y-103814571D01*
X69210257Y-103909809D01*
X69210257Y-104147904D01*
X69162638Y-104243142D01*
X69115019Y-104290761D01*
X69019780Y-104338380D01*
X68781685Y-104338380D01*
X68686447Y-104290761D01*
X68638828Y-104243142D01*
X70067400Y-103671714D02*
X70067400Y-104338380D01*
X69829304Y-103290761D02*
X69591209Y-104005047D01*
X70210257Y-104005047D01*
X70495971Y-103338380D02*
X71115019Y-103338380D01*
X70781685Y-103719333D01*
X70924542Y-103719333D01*
X71019780Y-103766952D01*
X71067400Y-103814571D01*
X71115019Y-103909809D01*
X71115019Y-104147904D01*
X71067400Y-104243142D01*
X71019780Y-104290761D01*
X70924542Y-104338380D01*
X70638828Y-104338380D01*
X70543590Y-104290761D01*
X70495971Y-104243142D01*
X71543590Y-104338380D02*
X71543590Y-103338380D01*
X71781685Y-103338380D01*
X71924542Y-103386000D01*
X72019780Y-103481238D01*
X72067400Y-103576476D01*
X72115019Y-103766952D01*
X72115019Y-103909809D01*
X72067400Y-104100285D01*
X72019780Y-104195523D01*
X71924542Y-104290761D01*
X71781685Y-104338380D01*
X71543590Y-104338380D01*
X73019780Y-104338380D02*
X72543590Y-104338380D01*
X72543590Y-103338380D01*
X77141680Y-98964750D02*
X77379776Y-98964750D01*
X77284538Y-99202845D02*
X77379776Y-98964750D01*
X77284538Y-98726654D01*
X77570252Y-99107607D02*
X77379776Y-98964750D01*
X77570252Y-98821892D01*
X77141680Y-98964750D02*
X77379776Y-98964750D01*
X77284538Y-99202845D02*
X77379776Y-98964750D01*
X77284538Y-98726654D01*
X77570252Y-99107607D02*
X77379776Y-98964750D01*
X77570252Y-98821892D01*
X68051380Y-75753333D02*
X68765666Y-75753333D01*
X68908523Y-75800952D01*
X69003761Y-75896190D01*
X69051380Y-76039047D01*
X69051380Y-76134285D01*
X68146619Y-75324761D02*
X68099000Y-75277142D01*
X68051380Y-75181904D01*
X68051380Y-74943809D01*
X68099000Y-74848571D01*
X68146619Y-74800952D01*
X68241857Y-74753333D01*
X68337095Y-74753333D01*
X68479952Y-74800952D01*
X69051380Y-75372380D01*
X69051380Y-74753333D01*
X63289380Y-116106533D02*
X64003666Y-116106533D01*
X64146523Y-116154152D01*
X64241761Y-116249390D01*
X64289380Y-116392247D01*
X64289380Y-116487485D01*
X63289380Y-115154152D02*
X63289380Y-115630342D01*
X63765571Y-115677961D01*
X63717952Y-115630342D01*
X63670333Y-115535104D01*
X63670333Y-115297009D01*
X63717952Y-115201771D01*
X63765571Y-115154152D01*
X63860809Y-115106533D01*
X64098904Y-115106533D01*
X64194142Y-115154152D01*
X64241761Y-115201771D01*
X64289380Y-115297009D01*
X64289380Y-115535104D01*
X64241761Y-115630342D01*
X64194142Y-115677961D01*
X81069380Y-116106533D02*
X81783666Y-116106533D01*
X81926523Y-116154152D01*
X82021761Y-116249390D01*
X82069380Y-116392247D01*
X82069380Y-116487485D01*
X81069380Y-115725580D02*
X81069380Y-115058914D01*
X82069380Y-115487485D01*
X98849380Y-116106533D02*
X99563666Y-116106533D01*
X99706523Y-116154152D01*
X99801761Y-116249390D01*
X99849380Y-116392247D01*
X99849380Y-116487485D01*
X98849380Y-115201771D02*
X98849380Y-115392247D01*
X98897000Y-115487485D01*
X98944619Y-115535104D01*
X99087476Y-115630342D01*
X99277952Y-115677961D01*
X99658904Y-115677961D01*
X99754142Y-115630342D01*
X99801761Y-115582723D01*
X99849380Y-115487485D01*
X99849380Y-115297009D01*
X99801761Y-115201771D01*
X99754142Y-115154152D01*
X99658904Y-115106533D01*
X99420809Y-115106533D01*
X99325571Y-115154152D01*
X99277952Y-115201771D01*
X99230333Y-115297009D01*
X99230333Y-115487485D01*
X99277952Y-115582723D01*
X99325571Y-115630342D01*
X99420809Y-115677961D01*
X32834780Y-116106533D02*
X33549066Y-116106533D01*
X33691923Y-116154152D01*
X33787161Y-116249390D01*
X33834780Y-116392247D01*
X33834780Y-116487485D01*
X33168114Y-115201771D02*
X33834780Y-115201771D01*
X32787161Y-115439866D02*
X33501447Y-115677961D01*
X33501447Y-115058914D01*
X108563980Y-75753333D02*
X109278266Y-75753333D01*
X109421123Y-75800952D01*
X109516361Y-75896190D01*
X109563980Y-76039047D01*
X109563980Y-76134285D01*
X108563980Y-75372380D02*
X108563980Y-74753333D01*
X108944933Y-75086666D01*
X108944933Y-74943809D01*
X108992552Y-74848571D01*
X109040171Y-74800952D01*
X109135409Y-74753333D01*
X109373504Y-74753333D01*
X109468742Y-74800952D01*
X109516361Y-74848571D01*
X109563980Y-74943809D01*
X109563980Y-75229523D01*
X109516361Y-75324761D01*
X109468742Y-75372380D01*
X122973666Y-98782380D02*
X122973666Y-99496666D01*
X122926047Y-99639523D01*
X122830809Y-99734761D01*
X122687952Y-99782380D01*
X122592714Y-99782380D01*
X123973666Y-99782380D02*
X123402238Y-99782380D01*
X123687952Y-99782380D02*
X123687952Y-98782380D01*
X123592714Y-98925238D01*
X123497476Y-99020476D01*
X123402238Y-99068095D01*
X36957095Y-81563380D02*
X36957095Y-82372904D01*
X37004714Y-82468142D01*
X37052333Y-82515761D01*
X37147571Y-82563380D01*
X37338047Y-82563380D01*
X37433285Y-82515761D01*
X37480904Y-82468142D01*
X37528523Y-82372904D01*
X37528523Y-81563380D01*
X37957095Y-81658619D02*
X38004714Y-81611000D01*
X38099952Y-81563380D01*
X38338047Y-81563380D01*
X38433285Y-81611000D01*
X38480904Y-81658619D01*
X38528523Y-81753857D01*
X38528523Y-81849095D01*
X38480904Y-81991952D01*
X37909476Y-82563380D01*
X38528523Y-82563380D01*
X61353795Y-81563380D02*
X61353795Y-82372904D01*
X61401414Y-82468142D01*
X61449033Y-82515761D01*
X61544271Y-82563380D01*
X61734747Y-82563380D01*
X61829985Y-82515761D01*
X61877604Y-82468142D01*
X61925223Y-82372904D01*
X61925223Y-81563380D01*
X62306176Y-81563380D02*
X62925223Y-81563380D01*
X62591890Y-81944333D01*
X62734747Y-81944333D01*
X62829985Y-81991952D01*
X62877604Y-82039571D01*
X62925223Y-82134809D01*
X62925223Y-82372904D01*
X62877604Y-82468142D01*
X62829985Y-82515761D01*
X62734747Y-82563380D01*
X62449033Y-82563380D01*
X62353795Y-82515761D01*
X62306176Y-82468142D01*
X49339595Y-81563380D02*
X49339595Y-82372904D01*
X49387214Y-82468142D01*
X49434833Y-82515761D01*
X49530071Y-82563380D01*
X49720547Y-82563380D01*
X49815785Y-82515761D01*
X49863404Y-82468142D01*
X49911023Y-82372904D01*
X49911023Y-81563380D01*
X50911023Y-82563380D02*
X50339595Y-82563380D01*
X50625309Y-82563380D02*
X50625309Y-81563380D01*
X50530071Y-81706238D01*
X50434833Y-81801476D01*
X50339595Y-81849095D01*
X73660095Y-81512580D02*
X73660095Y-82322104D01*
X73707714Y-82417342D01*
X73755333Y-82464961D01*
X73850571Y-82512580D01*
X74041047Y-82512580D01*
X74136285Y-82464961D01*
X74183904Y-82417342D01*
X74231523Y-82322104D01*
X74231523Y-81512580D01*
X75183904Y-81512580D02*
X74707714Y-81512580D01*
X74660095Y-81988771D01*
X74707714Y-81941152D01*
X74802952Y-81893533D01*
X75041047Y-81893533D01*
X75136285Y-81941152D01*
X75183904Y-81988771D01*
X75231523Y-82084009D01*
X75231523Y-82322104D01*
X75183904Y-82417342D01*
X75136285Y-82464961D01*
X75041047Y-82512580D01*
X74802952Y-82512580D01*
X74707714Y-82464961D01*
X74660095Y-82417342D01*
X104119695Y-81512580D02*
X104119695Y-82322104D01*
X104167314Y-82417342D01*
X104214933Y-82464961D01*
X104310171Y-82512580D01*
X104500647Y-82512580D01*
X104595885Y-82464961D01*
X104643504Y-82417342D01*
X104691123Y-82322104D01*
X104691123Y-81512580D01*
X105595885Y-81845914D02*
X105595885Y-82512580D01*
X105357790Y-81464961D02*
X105119695Y-82179247D01*
X105738742Y-82179247D01*
%LPC*%
D14*
X112268000Y-97282000D03*
X114808000Y-97282000D03*
X112268000Y-99822000D03*
X114808000Y-99822000D03*
X112268000Y-102362000D03*
X114808000Y-102362000D03*
X112268000Y-104902000D03*
D15*
X114808000Y-104902000D03*
D16*
X119380000Y-130810000D03*
X116840000Y-130810000D03*
X114300000Y-130810000D03*
X111760000Y-130810000D03*
X109220000Y-130810000D03*
X106680000Y-130810000D03*
X104140000Y-130810000D03*
X101600000Y-130810000D03*
X99060000Y-130810000D03*
X96520000Y-130810000D03*
X93980000Y-130810000D03*
X91440000Y-130810000D03*
X88900000Y-130810000D03*
X86360000Y-130810000D03*
X83820000Y-130810000D03*
X81280000Y-130810000D03*
X78740000Y-130810000D03*
X76200000Y-130810000D03*
X73660000Y-130810000D03*
X71120000Y-130810000D03*
X68580000Y-130810000D03*
X66040000Y-130810000D03*
X63500000Y-130810000D03*
X60960000Y-130810000D03*
X58420000Y-130810000D03*
X55880000Y-130810000D03*
X53340000Y-130810000D03*
X50800000Y-130810000D03*
X48260000Y-130810000D03*
X45720000Y-130810000D03*
X43180000Y-130810000D03*
X40640000Y-130810000D03*
D17*
X99309600Y-83335200D03*
X99309600Y-83985200D03*
X99309600Y-84635200D03*
X99309600Y-85285200D03*
X99309600Y-85935200D03*
X99309600Y-86585200D03*
X99309600Y-87235200D03*
X99309600Y-87885200D03*
X92409600Y-87885200D03*
X92409600Y-87235200D03*
X92409600Y-86585200D03*
X92409600Y-85935200D03*
X92409600Y-85285200D03*
X92409600Y-84635200D03*
X92409600Y-83985200D03*
X92409600Y-83335200D03*
X89200400Y-83373800D03*
X89200400Y-84023800D03*
X89200400Y-84673800D03*
X89200400Y-85323800D03*
X89200400Y-85973800D03*
X89200400Y-86623800D03*
X89200400Y-87273800D03*
X89200400Y-87923800D03*
X82300400Y-87923800D03*
X82300400Y-87273800D03*
X82300400Y-86623800D03*
X82300400Y-85973800D03*
X82300400Y-85323800D03*
X82300400Y-84673800D03*
X82300400Y-84023800D03*
X82300400Y-83373800D03*
D18*
X103944500Y-108553250D03*
X103309500Y-108553250D03*
X102674500Y-108553250D03*
X102039500Y-108553250D03*
X101404500Y-108553250D03*
X100769500Y-108553250D03*
X100134500Y-108553250D03*
X99499500Y-108553250D03*
X98864500Y-108553250D03*
X98229500Y-108553250D03*
X97594500Y-108553250D03*
X96959500Y-108553250D03*
X96324500Y-108553250D03*
X95689500Y-108553250D03*
X95054500Y-108553250D03*
X94419500Y-108553250D03*
X93784500Y-108553250D03*
X93149500Y-108553250D03*
X92514500Y-108553250D03*
X91879500Y-108553250D03*
X91244500Y-108553250D03*
X90609500Y-108553250D03*
X89974500Y-108553250D03*
X89339500Y-108553250D03*
X88704500Y-108553250D03*
X88069500Y-108553250D03*
X87434500Y-108553250D03*
X86799500Y-108553250D03*
X86799500Y-99218750D03*
X87434500Y-99218750D03*
X88069500Y-99218750D03*
X88704500Y-99218750D03*
X89339500Y-99218750D03*
X89974500Y-99218750D03*
X90609500Y-99218750D03*
X91244500Y-99218750D03*
X91879500Y-99218750D03*
X92514500Y-99218750D03*
X93149500Y-99218750D03*
X93784500Y-99218750D03*
X94419500Y-99218750D03*
X95054500Y-99218750D03*
X95689500Y-99218750D03*
X96324500Y-99218750D03*
X96959500Y-99218750D03*
X97594500Y-99218750D03*
X98229500Y-99218750D03*
X98864500Y-99218750D03*
X99499500Y-99218750D03*
X100134500Y-99218750D03*
X100769500Y-99218750D03*
X101404500Y-99218750D03*
X102039500Y-99218750D03*
X102674500Y-99218750D03*
X103309500Y-99218750D03*
X103944500Y-99218750D03*
X52006500Y-108553250D03*
X51371500Y-108553250D03*
X50736500Y-108553250D03*
X50101500Y-108553250D03*
X49466500Y-108553250D03*
X48831500Y-108553250D03*
X48196500Y-108553250D03*
X47561500Y-108553250D03*
X46926500Y-108553250D03*
X46291500Y-108553250D03*
X45656500Y-108553250D03*
X45021500Y-108553250D03*
X44386500Y-108553250D03*
X43751500Y-108553250D03*
X43116500Y-108553250D03*
X42481500Y-108553250D03*
X41846500Y-108553250D03*
X41211500Y-108553250D03*
X40576500Y-108553250D03*
X39941500Y-108553250D03*
X39306500Y-108553250D03*
X38671500Y-108553250D03*
X38036500Y-108553250D03*
X37401500Y-108553250D03*
X36766500Y-108553250D03*
X36131500Y-108553250D03*
X35496500Y-108553250D03*
X34861500Y-108553250D03*
X34861500Y-99218750D03*
X35496500Y-99218750D03*
X36131500Y-99218750D03*
X36766500Y-99218750D03*
X37401500Y-99218750D03*
X38036500Y-99218750D03*
X38671500Y-99218750D03*
X39306500Y-99218750D03*
X39941500Y-99218750D03*
X40576500Y-99218750D03*
X41211500Y-99218750D03*
X41846500Y-99218750D03*
X42481500Y-99218750D03*
X43116500Y-99218750D03*
X43751500Y-99218750D03*
X44386500Y-99218750D03*
X45021500Y-99218750D03*
X45656500Y-99218750D03*
X46291500Y-99218750D03*
X46926500Y-99218750D03*
X47561500Y-99218750D03*
X48196500Y-99218750D03*
X48831500Y-99218750D03*
X49466500Y-99218750D03*
X50101500Y-99218750D03*
X50736500Y-99218750D03*
X51371500Y-99218750D03*
X52006500Y-99218750D03*
X76139900Y-108553250D03*
X75504900Y-108553250D03*
X74869900Y-108553250D03*
X74234900Y-108553250D03*
X73599900Y-108553250D03*
X72964900Y-108553250D03*
X72329900Y-108553250D03*
X71694900Y-108553250D03*
X71059900Y-108553250D03*
X70424900Y-108553250D03*
X69789900Y-108553250D03*
X69154900Y-108553250D03*
X68519900Y-108553250D03*
X67884900Y-108553250D03*
X67249900Y-108553250D03*
X66614900Y-108553250D03*
X65979900Y-108553250D03*
X65344900Y-108553250D03*
X64709900Y-108553250D03*
X64074900Y-108553250D03*
X63439900Y-108553250D03*
X62804900Y-108553250D03*
X62169900Y-108553250D03*
X61534900Y-108553250D03*
X60899900Y-108553250D03*
X60264900Y-108553250D03*
X59629900Y-108553250D03*
X58994900Y-108553250D03*
X58994900Y-99218750D03*
X59629900Y-99218750D03*
X60264900Y-99218750D03*
X60899900Y-99218750D03*
X61534900Y-99218750D03*
X62169900Y-99218750D03*
X62804900Y-99218750D03*
X63439900Y-99218750D03*
X64074900Y-99218750D03*
X64709900Y-99218750D03*
X65344900Y-99218750D03*
X65979900Y-99218750D03*
X66614900Y-99218750D03*
X67249900Y-99218750D03*
X67884900Y-99218750D03*
X68519900Y-99218750D03*
X69154900Y-99218750D03*
X69789900Y-99218750D03*
X70424900Y-99218750D03*
X71059900Y-99218750D03*
X71694900Y-99218750D03*
X72329900Y-99218750D03*
X72964900Y-99218750D03*
X73599900Y-99218750D03*
X74234900Y-99218750D03*
X74869900Y-99218750D03*
X75504900Y-99218750D03*
X76139900Y-99218750D03*
D14*
X35789000Y-76690000D03*
X35789000Y-74150000D03*
X38329000Y-76690000D03*
X38329000Y-74150000D03*
X40869000Y-76690000D03*
X40869000Y-74150000D03*
X43409000Y-76690000D03*
X43409000Y-74150000D03*
X45949000Y-76690000D03*
X45949000Y-74150000D03*
X48489000Y-76690000D03*
X48489000Y-74150000D03*
X51029000Y-76690000D03*
X51029000Y-74150000D03*
X53569000Y-76690000D03*
X53569000Y-74150000D03*
X56109000Y-76690000D03*
X56109000Y-74150000D03*
X58649000Y-76690000D03*
X58649000Y-74150000D03*
X61189000Y-76690000D03*
X61189000Y-74150000D03*
X63729000Y-76690000D03*
X63729000Y-74150000D03*
X66269000Y-76690000D03*
D15*
X66269000Y-74150000D03*
D14*
X76327000Y-114503200D03*
X76327000Y-117043200D03*
X73787000Y-114503200D03*
X73787000Y-117043200D03*
X71247000Y-114503200D03*
X71247000Y-117043200D03*
X68707000Y-114503200D03*
X68707000Y-117043200D03*
X66167000Y-114503200D03*
D15*
X66167000Y-117043200D03*
D14*
X94107000Y-114503200D03*
X94107000Y-117043200D03*
X91567000Y-114503200D03*
X91567000Y-117043200D03*
X89027000Y-114503200D03*
X89027000Y-117043200D03*
X86487000Y-114503200D03*
X86487000Y-117043200D03*
X83947000Y-114503200D03*
D15*
X83947000Y-117043200D03*
D14*
X124587000Y-114503200D03*
X124587000Y-117043200D03*
X122047000Y-114503200D03*
X122047000Y-117043200D03*
X119507000Y-114503200D03*
X119507000Y-117043200D03*
X116967000Y-114503200D03*
X116967000Y-117043200D03*
X114427000Y-114503200D03*
X114427000Y-117043200D03*
X111887000Y-114503200D03*
X111887000Y-117043200D03*
X109347000Y-114503200D03*
X109347000Y-117043200D03*
X106807000Y-114503200D03*
X106807000Y-117043200D03*
X104267000Y-114503200D03*
X104267000Y-117043200D03*
X101727000Y-114503200D03*
D15*
X101727000Y-117043200D03*
D14*
X58572400Y-114503200D03*
X58572400Y-117043200D03*
X56032400Y-114503200D03*
X56032400Y-117043200D03*
X53492400Y-114503200D03*
X53492400Y-117043200D03*
X50952400Y-114503200D03*
X50952400Y-117043200D03*
X48412400Y-114503200D03*
X48412400Y-117043200D03*
X45872400Y-114503200D03*
X45872400Y-117043200D03*
X43332400Y-114503200D03*
X43332400Y-117043200D03*
X40792400Y-114503200D03*
X40792400Y-117043200D03*
X38252400Y-114503200D03*
X38252400Y-117043200D03*
X35712400Y-114503200D03*
D15*
X35712400Y-117043200D03*
D14*
X83921600Y-76690000D03*
X83921600Y-74150000D03*
X86461600Y-76690000D03*
X86461600Y-74150000D03*
X89001600Y-76690000D03*
X89001600Y-74150000D03*
X91541600Y-76690000D03*
X91541600Y-74150000D03*
X94081600Y-76690000D03*
X94081600Y-74150000D03*
X96621600Y-76690000D03*
X96621600Y-74150000D03*
X99161600Y-76690000D03*
X99161600Y-74150000D03*
X101701600Y-76690000D03*
X101701600Y-74150000D03*
X104241600Y-76690000D03*
X104241600Y-74150000D03*
X106781600Y-76690000D03*
D15*
X106781600Y-74150000D03*
D14*
X122037000Y-74140000D03*
X124577000Y-74140000D03*
X122037000Y-76680000D03*
X124577000Y-76680000D03*
X122037000Y-79220000D03*
X124577000Y-79220000D03*
X122037000Y-81760000D03*
X124577000Y-81760000D03*
X122037000Y-84300000D03*
X124577000Y-84300000D03*
X122037000Y-86840000D03*
X124577000Y-86840000D03*
X122037000Y-89380000D03*
X124577000Y-89380000D03*
X122037000Y-91920000D03*
X124577000Y-91920000D03*
X122037000Y-94460000D03*
X124577000Y-94460000D03*
X122037000Y-97000000D03*
D15*
X124577000Y-97000000D03*
G36*
G01*
X39219000Y-83716000D02*
X39219000Y-83416000D01*
G75*
G02*
X39369000Y-83266000I150000J0D01*
G01*
X41019000Y-83266000D01*
G75*
G02*
X41169000Y-83416000I0J-150000D01*
G01*
X41169000Y-83716000D01*
G75*
G02*
X41019000Y-83866000I-150000J0D01*
G01*
X39369000Y-83866000D01*
G75*
G02*
X39219000Y-83716000I0J150000D01*
G01*
G37*
G36*
G01*
X39219000Y-84986000D02*
X39219000Y-84686000D01*
G75*
G02*
X39369000Y-84536000I150000J0D01*
G01*
X41019000Y-84536000D01*
G75*
G02*
X41169000Y-84686000I0J-150000D01*
G01*
X41169000Y-84986000D01*
G75*
G02*
X41019000Y-85136000I-150000J0D01*
G01*
X39369000Y-85136000D01*
G75*
G02*
X39219000Y-84986000I0J150000D01*
G01*
G37*
G36*
G01*
X39219000Y-86256000D02*
X39219000Y-85956000D01*
G75*
G02*
X39369000Y-85806000I150000J0D01*
G01*
X41019000Y-85806000D01*
G75*
G02*
X41169000Y-85956000I0J-150000D01*
G01*
X41169000Y-86256000D01*
G75*
G02*
X41019000Y-86406000I-150000J0D01*
G01*
X39369000Y-86406000D01*
G75*
G02*
X39219000Y-86256000I0J150000D01*
G01*
G37*
G36*
G01*
X39219000Y-87526000D02*
X39219000Y-87226000D01*
G75*
G02*
X39369000Y-87076000I150000J0D01*
G01*
X41019000Y-87076000D01*
G75*
G02*
X41169000Y-87226000I0J-150000D01*
G01*
X41169000Y-87526000D01*
G75*
G02*
X41019000Y-87676000I-150000J0D01*
G01*
X39369000Y-87676000D01*
G75*
G02*
X39219000Y-87526000I0J150000D01*
G01*
G37*
G36*
G01*
X39219000Y-88796000D02*
X39219000Y-88496000D01*
G75*
G02*
X39369000Y-88346000I150000J0D01*
G01*
X41019000Y-88346000D01*
G75*
G02*
X41169000Y-88496000I0J-150000D01*
G01*
X41169000Y-88796000D01*
G75*
G02*
X41019000Y-88946000I-150000J0D01*
G01*
X39369000Y-88946000D01*
G75*
G02*
X39219000Y-88796000I0J150000D01*
G01*
G37*
G36*
G01*
X39219000Y-90066000D02*
X39219000Y-89766000D01*
G75*
G02*
X39369000Y-89616000I150000J0D01*
G01*
X41019000Y-89616000D01*
G75*
G02*
X41169000Y-89766000I0J-150000D01*
G01*
X41169000Y-90066000D01*
G75*
G02*
X41019000Y-90216000I-150000J0D01*
G01*
X39369000Y-90216000D01*
G75*
G02*
X39219000Y-90066000I0J150000D01*
G01*
G37*
G36*
G01*
X39219000Y-91336000D02*
X39219000Y-91036000D01*
G75*
G02*
X39369000Y-90886000I150000J0D01*
G01*
X41019000Y-90886000D01*
G75*
G02*
X41169000Y-91036000I0J-150000D01*
G01*
X41169000Y-91336000D01*
G75*
G02*
X41019000Y-91486000I-150000J0D01*
G01*
X39369000Y-91486000D01*
G75*
G02*
X39219000Y-91336000I0J150000D01*
G01*
G37*
G36*
G01*
X39219000Y-92606000D02*
X39219000Y-92306000D01*
G75*
G02*
X39369000Y-92156000I150000J0D01*
G01*
X41019000Y-92156000D01*
G75*
G02*
X41169000Y-92306000I0J-150000D01*
G01*
X41169000Y-92606000D01*
G75*
G02*
X41019000Y-92756000I-150000J0D01*
G01*
X39369000Y-92756000D01*
G75*
G02*
X39219000Y-92606000I0J150000D01*
G01*
G37*
G36*
G01*
X34269000Y-92606000D02*
X34269000Y-92306000D01*
G75*
G02*
X34419000Y-92156000I150000J0D01*
G01*
X36069000Y-92156000D01*
G75*
G02*
X36219000Y-92306000I0J-150000D01*
G01*
X36219000Y-92606000D01*
G75*
G02*
X36069000Y-92756000I-150000J0D01*
G01*
X34419000Y-92756000D01*
G75*
G02*
X34269000Y-92606000I0J150000D01*
G01*
G37*
G36*
G01*
X34269000Y-91336000D02*
X34269000Y-91036000D01*
G75*
G02*
X34419000Y-90886000I150000J0D01*
G01*
X36069000Y-90886000D01*
G75*
G02*
X36219000Y-91036000I0J-150000D01*
G01*
X36219000Y-91336000D01*
G75*
G02*
X36069000Y-91486000I-150000J0D01*
G01*
X34419000Y-91486000D01*
G75*
G02*
X34269000Y-91336000I0J150000D01*
G01*
G37*
G36*
G01*
X34269000Y-90066000D02*
X34269000Y-89766000D01*
G75*
G02*
X34419000Y-89616000I150000J0D01*
G01*
X36069000Y-89616000D01*
G75*
G02*
X36219000Y-89766000I0J-150000D01*
G01*
X36219000Y-90066000D01*
G75*
G02*
X36069000Y-90216000I-150000J0D01*
G01*
X34419000Y-90216000D01*
G75*
G02*
X34269000Y-90066000I0J150000D01*
G01*
G37*
G36*
G01*
X34269000Y-88796000D02*
X34269000Y-88496000D01*
G75*
G02*
X34419000Y-88346000I150000J0D01*
G01*
X36069000Y-88346000D01*
G75*
G02*
X36219000Y-88496000I0J-150000D01*
G01*
X36219000Y-88796000D01*
G75*
G02*
X36069000Y-88946000I-150000J0D01*
G01*
X34419000Y-88946000D01*
G75*
G02*
X34269000Y-88796000I0J150000D01*
G01*
G37*
G36*
G01*
X34269000Y-87526000D02*
X34269000Y-87226000D01*
G75*
G02*
X34419000Y-87076000I150000J0D01*
G01*
X36069000Y-87076000D01*
G75*
G02*
X36219000Y-87226000I0J-150000D01*
G01*
X36219000Y-87526000D01*
G75*
G02*
X36069000Y-87676000I-150000J0D01*
G01*
X34419000Y-87676000D01*
G75*
G02*
X34269000Y-87526000I0J150000D01*
G01*
G37*
G36*
G01*
X34269000Y-86256000D02*
X34269000Y-85956000D01*
G75*
G02*
X34419000Y-85806000I150000J0D01*
G01*
X36069000Y-85806000D01*
G75*
G02*
X36219000Y-85956000I0J-150000D01*
G01*
X36219000Y-86256000D01*
G75*
G02*
X36069000Y-86406000I-150000J0D01*
G01*
X34419000Y-86406000D01*
G75*
G02*
X34269000Y-86256000I0J150000D01*
G01*
G37*
G36*
G01*
X34269000Y-84986000D02*
X34269000Y-84686000D01*
G75*
G02*
X34419000Y-84536000I150000J0D01*
G01*
X36069000Y-84536000D01*
G75*
G02*
X36219000Y-84686000I0J-150000D01*
G01*
X36219000Y-84986000D01*
G75*
G02*
X36069000Y-85136000I-150000J0D01*
G01*
X34419000Y-85136000D01*
G75*
G02*
X34269000Y-84986000I0J150000D01*
G01*
G37*
G36*
G01*
X34269000Y-83716000D02*
X34269000Y-83416000D01*
G75*
G02*
X34419000Y-83266000I150000J0D01*
G01*
X36069000Y-83266000D01*
G75*
G02*
X36219000Y-83416000I0J-150000D01*
G01*
X36219000Y-83716000D01*
G75*
G02*
X36069000Y-83866000I-150000J0D01*
G01*
X34419000Y-83866000D01*
G75*
G02*
X34269000Y-83716000I0J150000D01*
G01*
G37*
G36*
G01*
X63615700Y-83716000D02*
X63615700Y-83416000D01*
G75*
G02*
X63765700Y-83266000I150000J0D01*
G01*
X65415700Y-83266000D01*
G75*
G02*
X65565700Y-83416000I0J-150000D01*
G01*
X65565700Y-83716000D01*
G75*
G02*
X65415700Y-83866000I-150000J0D01*
G01*
X63765700Y-83866000D01*
G75*
G02*
X63615700Y-83716000I0J150000D01*
G01*
G37*
G36*
G01*
X63615700Y-84986000D02*
X63615700Y-84686000D01*
G75*
G02*
X63765700Y-84536000I150000J0D01*
G01*
X65415700Y-84536000D01*
G75*
G02*
X65565700Y-84686000I0J-150000D01*
G01*
X65565700Y-84986000D01*
G75*
G02*
X65415700Y-85136000I-150000J0D01*
G01*
X63765700Y-85136000D01*
G75*
G02*
X63615700Y-84986000I0J150000D01*
G01*
G37*
G36*
G01*
X63615700Y-86256000D02*
X63615700Y-85956000D01*
G75*
G02*
X63765700Y-85806000I150000J0D01*
G01*
X65415700Y-85806000D01*
G75*
G02*
X65565700Y-85956000I0J-150000D01*
G01*
X65565700Y-86256000D01*
G75*
G02*
X65415700Y-86406000I-150000J0D01*
G01*
X63765700Y-86406000D01*
G75*
G02*
X63615700Y-86256000I0J150000D01*
G01*
G37*
G36*
G01*
X63615700Y-87526000D02*
X63615700Y-87226000D01*
G75*
G02*
X63765700Y-87076000I150000J0D01*
G01*
X65415700Y-87076000D01*
G75*
G02*
X65565700Y-87226000I0J-150000D01*
G01*
X65565700Y-87526000D01*
G75*
G02*
X65415700Y-87676000I-150000J0D01*
G01*
X63765700Y-87676000D01*
G75*
G02*
X63615700Y-87526000I0J150000D01*
G01*
G37*
G36*
G01*
X63615700Y-88796000D02*
X63615700Y-88496000D01*
G75*
G02*
X63765700Y-88346000I150000J0D01*
G01*
X65415700Y-88346000D01*
G75*
G02*
X65565700Y-88496000I0J-150000D01*
G01*
X65565700Y-88796000D01*
G75*
G02*
X65415700Y-88946000I-150000J0D01*
G01*
X63765700Y-88946000D01*
G75*
G02*
X63615700Y-88796000I0J150000D01*
G01*
G37*
G36*
G01*
X63615700Y-90066000D02*
X63615700Y-89766000D01*
G75*
G02*
X63765700Y-89616000I150000J0D01*
G01*
X65415700Y-89616000D01*
G75*
G02*
X65565700Y-89766000I0J-150000D01*
G01*
X65565700Y-90066000D01*
G75*
G02*
X65415700Y-90216000I-150000J0D01*
G01*
X63765700Y-90216000D01*
G75*
G02*
X63615700Y-90066000I0J150000D01*
G01*
G37*
G36*
G01*
X63615700Y-91336000D02*
X63615700Y-91036000D01*
G75*
G02*
X63765700Y-90886000I150000J0D01*
G01*
X65415700Y-90886000D01*
G75*
G02*
X65565700Y-91036000I0J-150000D01*
G01*
X65565700Y-91336000D01*
G75*
G02*
X65415700Y-91486000I-150000J0D01*
G01*
X63765700Y-91486000D01*
G75*
G02*
X63615700Y-91336000I0J150000D01*
G01*
G37*
G36*
G01*
X63615700Y-92606000D02*
X63615700Y-92306000D01*
G75*
G02*
X63765700Y-92156000I150000J0D01*
G01*
X65415700Y-92156000D01*
G75*
G02*
X65565700Y-92306000I0J-150000D01*
G01*
X65565700Y-92606000D01*
G75*
G02*
X65415700Y-92756000I-150000J0D01*
G01*
X63765700Y-92756000D01*
G75*
G02*
X63615700Y-92606000I0J150000D01*
G01*
G37*
G36*
G01*
X58665700Y-92606000D02*
X58665700Y-92306000D01*
G75*
G02*
X58815700Y-92156000I150000J0D01*
G01*
X60465700Y-92156000D01*
G75*
G02*
X60615700Y-92306000I0J-150000D01*
G01*
X60615700Y-92606000D01*
G75*
G02*
X60465700Y-92756000I-150000J0D01*
G01*
X58815700Y-92756000D01*
G75*
G02*
X58665700Y-92606000I0J150000D01*
G01*
G37*
G36*
G01*
X58665700Y-91336000D02*
X58665700Y-91036000D01*
G75*
G02*
X58815700Y-90886000I150000J0D01*
G01*
X60465700Y-90886000D01*
G75*
G02*
X60615700Y-91036000I0J-150000D01*
G01*
X60615700Y-91336000D01*
G75*
G02*
X60465700Y-91486000I-150000J0D01*
G01*
X58815700Y-91486000D01*
G75*
G02*
X58665700Y-91336000I0J150000D01*
G01*
G37*
G36*
G01*
X58665700Y-90066000D02*
X58665700Y-89766000D01*
G75*
G02*
X58815700Y-89616000I150000J0D01*
G01*
X60465700Y-89616000D01*
G75*
G02*
X60615700Y-89766000I0J-150000D01*
G01*
X60615700Y-90066000D01*
G75*
G02*
X60465700Y-90216000I-150000J0D01*
G01*
X58815700Y-90216000D01*
G75*
G02*
X58665700Y-90066000I0J150000D01*
G01*
G37*
G36*
G01*
X58665700Y-88796000D02*
X58665700Y-88496000D01*
G75*
G02*
X58815700Y-88346000I150000J0D01*
G01*
X60465700Y-88346000D01*
G75*
G02*
X60615700Y-88496000I0J-150000D01*
G01*
X60615700Y-88796000D01*
G75*
G02*
X60465700Y-88946000I-150000J0D01*
G01*
X58815700Y-88946000D01*
G75*
G02*
X58665700Y-88796000I0J150000D01*
G01*
G37*
G36*
G01*
X58665700Y-87526000D02*
X58665700Y-87226000D01*
G75*
G02*
X58815700Y-87076000I150000J0D01*
G01*
X60465700Y-87076000D01*
G75*
G02*
X60615700Y-87226000I0J-150000D01*
G01*
X60615700Y-87526000D01*
G75*
G02*
X60465700Y-87676000I-150000J0D01*
G01*
X58815700Y-87676000D01*
G75*
G02*
X58665700Y-87526000I0J150000D01*
G01*
G37*
G36*
G01*
X58665700Y-86256000D02*
X58665700Y-85956000D01*
G75*
G02*
X58815700Y-85806000I150000J0D01*
G01*
X60465700Y-85806000D01*
G75*
G02*
X60615700Y-85956000I0J-150000D01*
G01*
X60615700Y-86256000D01*
G75*
G02*
X60465700Y-86406000I-150000J0D01*
G01*
X58815700Y-86406000D01*
G75*
G02*
X58665700Y-86256000I0J150000D01*
G01*
G37*
G36*
G01*
X58665700Y-84986000D02*
X58665700Y-84686000D01*
G75*
G02*
X58815700Y-84536000I150000J0D01*
G01*
X60465700Y-84536000D01*
G75*
G02*
X60615700Y-84686000I0J-150000D01*
G01*
X60615700Y-84986000D01*
G75*
G02*
X60465700Y-85136000I-150000J0D01*
G01*
X58815700Y-85136000D01*
G75*
G02*
X58665700Y-84986000I0J150000D01*
G01*
G37*
G36*
G01*
X58665700Y-83716000D02*
X58665700Y-83416000D01*
G75*
G02*
X58815700Y-83266000I150000J0D01*
G01*
X60465700Y-83266000D01*
G75*
G02*
X60615700Y-83416000I0J-150000D01*
G01*
X60615700Y-83716000D01*
G75*
G02*
X60465700Y-83866000I-150000J0D01*
G01*
X58815700Y-83866000D01*
G75*
G02*
X58665700Y-83716000I0J150000D01*
G01*
G37*
G36*
G01*
X51601500Y-83716000D02*
X51601500Y-83416000D01*
G75*
G02*
X51751500Y-83266000I150000J0D01*
G01*
X53401500Y-83266000D01*
G75*
G02*
X53551500Y-83416000I0J-150000D01*
G01*
X53551500Y-83716000D01*
G75*
G02*
X53401500Y-83866000I-150000J0D01*
G01*
X51751500Y-83866000D01*
G75*
G02*
X51601500Y-83716000I0J150000D01*
G01*
G37*
G36*
G01*
X51601500Y-84986000D02*
X51601500Y-84686000D01*
G75*
G02*
X51751500Y-84536000I150000J0D01*
G01*
X53401500Y-84536000D01*
G75*
G02*
X53551500Y-84686000I0J-150000D01*
G01*
X53551500Y-84986000D01*
G75*
G02*
X53401500Y-85136000I-150000J0D01*
G01*
X51751500Y-85136000D01*
G75*
G02*
X51601500Y-84986000I0J150000D01*
G01*
G37*
G36*
G01*
X51601500Y-86256000D02*
X51601500Y-85956000D01*
G75*
G02*
X51751500Y-85806000I150000J0D01*
G01*
X53401500Y-85806000D01*
G75*
G02*
X53551500Y-85956000I0J-150000D01*
G01*
X53551500Y-86256000D01*
G75*
G02*
X53401500Y-86406000I-150000J0D01*
G01*
X51751500Y-86406000D01*
G75*
G02*
X51601500Y-86256000I0J150000D01*
G01*
G37*
G36*
G01*
X51601500Y-87526000D02*
X51601500Y-87226000D01*
G75*
G02*
X51751500Y-87076000I150000J0D01*
G01*
X53401500Y-87076000D01*
G75*
G02*
X53551500Y-87226000I0J-150000D01*
G01*
X53551500Y-87526000D01*
G75*
G02*
X53401500Y-87676000I-150000J0D01*
G01*
X51751500Y-87676000D01*
G75*
G02*
X51601500Y-87526000I0J150000D01*
G01*
G37*
G36*
G01*
X51601500Y-88796000D02*
X51601500Y-88496000D01*
G75*
G02*
X51751500Y-88346000I150000J0D01*
G01*
X53401500Y-88346000D01*
G75*
G02*
X53551500Y-88496000I0J-150000D01*
G01*
X53551500Y-88796000D01*
G75*
G02*
X53401500Y-88946000I-150000J0D01*
G01*
X51751500Y-88946000D01*
G75*
G02*
X51601500Y-88796000I0J150000D01*
G01*
G37*
G36*
G01*
X51601500Y-90066000D02*
X51601500Y-89766000D01*
G75*
G02*
X51751500Y-89616000I150000J0D01*
G01*
X53401500Y-89616000D01*
G75*
G02*
X53551500Y-89766000I0J-150000D01*
G01*
X53551500Y-90066000D01*
G75*
G02*
X53401500Y-90216000I-150000J0D01*
G01*
X51751500Y-90216000D01*
G75*
G02*
X51601500Y-90066000I0J150000D01*
G01*
G37*
G36*
G01*
X51601500Y-91336000D02*
X51601500Y-91036000D01*
G75*
G02*
X51751500Y-90886000I150000J0D01*
G01*
X53401500Y-90886000D01*
G75*
G02*
X53551500Y-91036000I0J-150000D01*
G01*
X53551500Y-91336000D01*
G75*
G02*
X53401500Y-91486000I-150000J0D01*
G01*
X51751500Y-91486000D01*
G75*
G02*
X51601500Y-91336000I0J150000D01*
G01*
G37*
G36*
G01*
X51601500Y-92606000D02*
X51601500Y-92306000D01*
G75*
G02*
X51751500Y-92156000I150000J0D01*
G01*
X53401500Y-92156000D01*
G75*
G02*
X53551500Y-92306000I0J-150000D01*
G01*
X53551500Y-92606000D01*
G75*
G02*
X53401500Y-92756000I-150000J0D01*
G01*
X51751500Y-92756000D01*
G75*
G02*
X51601500Y-92606000I0J150000D01*
G01*
G37*
G36*
G01*
X46651500Y-92606000D02*
X46651500Y-92306000D01*
G75*
G02*
X46801500Y-92156000I150000J0D01*
G01*
X48451500Y-92156000D01*
G75*
G02*
X48601500Y-92306000I0J-150000D01*
G01*
X48601500Y-92606000D01*
G75*
G02*
X48451500Y-92756000I-150000J0D01*
G01*
X46801500Y-92756000D01*
G75*
G02*
X46651500Y-92606000I0J150000D01*
G01*
G37*
G36*
G01*
X46651500Y-91336000D02*
X46651500Y-91036000D01*
G75*
G02*
X46801500Y-90886000I150000J0D01*
G01*
X48451500Y-90886000D01*
G75*
G02*
X48601500Y-91036000I0J-150000D01*
G01*
X48601500Y-91336000D01*
G75*
G02*
X48451500Y-91486000I-150000J0D01*
G01*
X46801500Y-91486000D01*
G75*
G02*
X46651500Y-91336000I0J150000D01*
G01*
G37*
G36*
G01*
X46651500Y-90066000D02*
X46651500Y-89766000D01*
G75*
G02*
X46801500Y-89616000I150000J0D01*
G01*
X48451500Y-89616000D01*
G75*
G02*
X48601500Y-89766000I0J-150000D01*
G01*
X48601500Y-90066000D01*
G75*
G02*
X48451500Y-90216000I-150000J0D01*
G01*
X46801500Y-90216000D01*
G75*
G02*
X46651500Y-90066000I0J150000D01*
G01*
G37*
G36*
G01*
X46651500Y-88796000D02*
X46651500Y-88496000D01*
G75*
G02*
X46801500Y-88346000I150000J0D01*
G01*
X48451500Y-88346000D01*
G75*
G02*
X48601500Y-88496000I0J-150000D01*
G01*
X48601500Y-88796000D01*
G75*
G02*
X48451500Y-88946000I-150000J0D01*
G01*
X46801500Y-88946000D01*
G75*
G02*
X46651500Y-88796000I0J150000D01*
G01*
G37*
G36*
G01*
X46651500Y-87526000D02*
X46651500Y-87226000D01*
G75*
G02*
X46801500Y-87076000I150000J0D01*
G01*
X48451500Y-87076000D01*
G75*
G02*
X48601500Y-87226000I0J-150000D01*
G01*
X48601500Y-87526000D01*
G75*
G02*
X48451500Y-87676000I-150000J0D01*
G01*
X46801500Y-87676000D01*
G75*
G02*
X46651500Y-87526000I0J150000D01*
G01*
G37*
G36*
G01*
X46651500Y-86256000D02*
X46651500Y-85956000D01*
G75*
G02*
X46801500Y-85806000I150000J0D01*
G01*
X48451500Y-85806000D01*
G75*
G02*
X48601500Y-85956000I0J-150000D01*
G01*
X48601500Y-86256000D01*
G75*
G02*
X48451500Y-86406000I-150000J0D01*
G01*
X46801500Y-86406000D01*
G75*
G02*
X46651500Y-86256000I0J150000D01*
G01*
G37*
G36*
G01*
X46651500Y-84986000D02*
X46651500Y-84686000D01*
G75*
G02*
X46801500Y-84536000I150000J0D01*
G01*
X48451500Y-84536000D01*
G75*
G02*
X48601500Y-84686000I0J-150000D01*
G01*
X48601500Y-84986000D01*
G75*
G02*
X48451500Y-85136000I-150000J0D01*
G01*
X46801500Y-85136000D01*
G75*
G02*
X46651500Y-84986000I0J150000D01*
G01*
G37*
G36*
G01*
X46651500Y-83716000D02*
X46651500Y-83416000D01*
G75*
G02*
X46801500Y-83266000I150000J0D01*
G01*
X48451500Y-83266000D01*
G75*
G02*
X48601500Y-83416000I0J-150000D01*
G01*
X48601500Y-83716000D01*
G75*
G02*
X48451500Y-83866000I-150000J0D01*
G01*
X46801500Y-83866000D01*
G75*
G02*
X46651500Y-83716000I0J150000D01*
G01*
G37*
G36*
G01*
X75922000Y-83665200D02*
X75922000Y-83365200D01*
G75*
G02*
X76072000Y-83215200I150000J0D01*
G01*
X77722000Y-83215200D01*
G75*
G02*
X77872000Y-83365200I0J-150000D01*
G01*
X77872000Y-83665200D01*
G75*
G02*
X77722000Y-83815200I-150000J0D01*
G01*
X76072000Y-83815200D01*
G75*
G02*
X75922000Y-83665200I0J150000D01*
G01*
G37*
G36*
G01*
X75922000Y-84935200D02*
X75922000Y-84635200D01*
G75*
G02*
X76072000Y-84485200I150000J0D01*
G01*
X77722000Y-84485200D01*
G75*
G02*
X77872000Y-84635200I0J-150000D01*
G01*
X77872000Y-84935200D01*
G75*
G02*
X77722000Y-85085200I-150000J0D01*
G01*
X76072000Y-85085200D01*
G75*
G02*
X75922000Y-84935200I0J150000D01*
G01*
G37*
G36*
G01*
X75922000Y-86205200D02*
X75922000Y-85905200D01*
G75*
G02*
X76072000Y-85755200I150000J0D01*
G01*
X77722000Y-85755200D01*
G75*
G02*
X77872000Y-85905200I0J-150000D01*
G01*
X77872000Y-86205200D01*
G75*
G02*
X77722000Y-86355200I-150000J0D01*
G01*
X76072000Y-86355200D01*
G75*
G02*
X75922000Y-86205200I0J150000D01*
G01*
G37*
G36*
G01*
X75922000Y-87475200D02*
X75922000Y-87175200D01*
G75*
G02*
X76072000Y-87025200I150000J0D01*
G01*
X77722000Y-87025200D01*
G75*
G02*
X77872000Y-87175200I0J-150000D01*
G01*
X77872000Y-87475200D01*
G75*
G02*
X77722000Y-87625200I-150000J0D01*
G01*
X76072000Y-87625200D01*
G75*
G02*
X75922000Y-87475200I0J150000D01*
G01*
G37*
G36*
G01*
X75922000Y-88745200D02*
X75922000Y-88445200D01*
G75*
G02*
X76072000Y-88295200I150000J0D01*
G01*
X77722000Y-88295200D01*
G75*
G02*
X77872000Y-88445200I0J-150000D01*
G01*
X77872000Y-88745200D01*
G75*
G02*
X77722000Y-88895200I-150000J0D01*
G01*
X76072000Y-88895200D01*
G75*
G02*
X75922000Y-88745200I0J150000D01*
G01*
G37*
G36*
G01*
X75922000Y-90015200D02*
X75922000Y-89715200D01*
G75*
G02*
X76072000Y-89565200I150000J0D01*
G01*
X77722000Y-89565200D01*
G75*
G02*
X77872000Y-89715200I0J-150000D01*
G01*
X77872000Y-90015200D01*
G75*
G02*
X77722000Y-90165200I-150000J0D01*
G01*
X76072000Y-90165200D01*
G75*
G02*
X75922000Y-90015200I0J150000D01*
G01*
G37*
G36*
G01*
X75922000Y-91285200D02*
X75922000Y-90985200D01*
G75*
G02*
X76072000Y-90835200I150000J0D01*
G01*
X77722000Y-90835200D01*
G75*
G02*
X77872000Y-90985200I0J-150000D01*
G01*
X77872000Y-91285200D01*
G75*
G02*
X77722000Y-91435200I-150000J0D01*
G01*
X76072000Y-91435200D01*
G75*
G02*
X75922000Y-91285200I0J150000D01*
G01*
G37*
G36*
G01*
X75922000Y-92555200D02*
X75922000Y-92255200D01*
G75*
G02*
X76072000Y-92105200I150000J0D01*
G01*
X77722000Y-92105200D01*
G75*
G02*
X77872000Y-92255200I0J-150000D01*
G01*
X77872000Y-92555200D01*
G75*
G02*
X77722000Y-92705200I-150000J0D01*
G01*
X76072000Y-92705200D01*
G75*
G02*
X75922000Y-92555200I0J150000D01*
G01*
G37*
G36*
G01*
X70972000Y-92555200D02*
X70972000Y-92255200D01*
G75*
G02*
X71122000Y-92105200I150000J0D01*
G01*
X72772000Y-92105200D01*
G75*
G02*
X72922000Y-92255200I0J-150000D01*
G01*
X72922000Y-92555200D01*
G75*
G02*
X72772000Y-92705200I-150000J0D01*
G01*
X71122000Y-92705200D01*
G75*
G02*
X70972000Y-92555200I0J150000D01*
G01*
G37*
G36*
G01*
X70972000Y-91285200D02*
X70972000Y-90985200D01*
G75*
G02*
X71122000Y-90835200I150000J0D01*
G01*
X72772000Y-90835200D01*
G75*
G02*
X72922000Y-90985200I0J-150000D01*
G01*
X72922000Y-91285200D01*
G75*
G02*
X72772000Y-91435200I-150000J0D01*
G01*
X71122000Y-91435200D01*
G75*
G02*
X70972000Y-91285200I0J150000D01*
G01*
G37*
G36*
G01*
X70972000Y-90015200D02*
X70972000Y-89715200D01*
G75*
G02*
X71122000Y-89565200I150000J0D01*
G01*
X72772000Y-89565200D01*
G75*
G02*
X72922000Y-89715200I0J-150000D01*
G01*
X72922000Y-90015200D01*
G75*
G02*
X72772000Y-90165200I-150000J0D01*
G01*
X71122000Y-90165200D01*
G75*
G02*
X70972000Y-90015200I0J150000D01*
G01*
G37*
G36*
G01*
X70972000Y-88745200D02*
X70972000Y-88445200D01*
G75*
G02*
X71122000Y-88295200I150000J0D01*
G01*
X72772000Y-88295200D01*
G75*
G02*
X72922000Y-88445200I0J-150000D01*
G01*
X72922000Y-88745200D01*
G75*
G02*
X72772000Y-88895200I-150000J0D01*
G01*
X71122000Y-88895200D01*
G75*
G02*
X70972000Y-88745200I0J150000D01*
G01*
G37*
G36*
G01*
X70972000Y-87475200D02*
X70972000Y-87175200D01*
G75*
G02*
X71122000Y-87025200I150000J0D01*
G01*
X72772000Y-87025200D01*
G75*
G02*
X72922000Y-87175200I0J-150000D01*
G01*
X72922000Y-87475200D01*
G75*
G02*
X72772000Y-87625200I-150000J0D01*
G01*
X71122000Y-87625200D01*
G75*
G02*
X70972000Y-87475200I0J150000D01*
G01*
G37*
G36*
G01*
X70972000Y-86205200D02*
X70972000Y-85905200D01*
G75*
G02*
X71122000Y-85755200I150000J0D01*
G01*
X72772000Y-85755200D01*
G75*
G02*
X72922000Y-85905200I0J-150000D01*
G01*
X72922000Y-86205200D01*
G75*
G02*
X72772000Y-86355200I-150000J0D01*
G01*
X71122000Y-86355200D01*
G75*
G02*
X70972000Y-86205200I0J150000D01*
G01*
G37*
G36*
G01*
X70972000Y-84935200D02*
X70972000Y-84635200D01*
G75*
G02*
X71122000Y-84485200I150000J0D01*
G01*
X72772000Y-84485200D01*
G75*
G02*
X72922000Y-84635200I0J-150000D01*
G01*
X72922000Y-84935200D01*
G75*
G02*
X72772000Y-85085200I-150000J0D01*
G01*
X71122000Y-85085200D01*
G75*
G02*
X70972000Y-84935200I0J150000D01*
G01*
G37*
G36*
G01*
X70972000Y-83665200D02*
X70972000Y-83365200D01*
G75*
G02*
X71122000Y-83215200I150000J0D01*
G01*
X72772000Y-83215200D01*
G75*
G02*
X72922000Y-83365200I0J-150000D01*
G01*
X72922000Y-83665200D01*
G75*
G02*
X72772000Y-83815200I-150000J0D01*
G01*
X71122000Y-83815200D01*
G75*
G02*
X70972000Y-83665200I0J150000D01*
G01*
G37*
G36*
G01*
X106381600Y-83665200D02*
X106381600Y-83365200D01*
G75*
G02*
X106531600Y-83215200I150000J0D01*
G01*
X108181600Y-83215200D01*
G75*
G02*
X108331600Y-83365200I0J-150000D01*
G01*
X108331600Y-83665200D01*
G75*
G02*
X108181600Y-83815200I-150000J0D01*
G01*
X106531600Y-83815200D01*
G75*
G02*
X106381600Y-83665200I0J150000D01*
G01*
G37*
G36*
G01*
X106381600Y-84935200D02*
X106381600Y-84635200D01*
G75*
G02*
X106531600Y-84485200I150000J0D01*
G01*
X108181600Y-84485200D01*
G75*
G02*
X108331600Y-84635200I0J-150000D01*
G01*
X108331600Y-84935200D01*
G75*
G02*
X108181600Y-85085200I-150000J0D01*
G01*
X106531600Y-85085200D01*
G75*
G02*
X106381600Y-84935200I0J150000D01*
G01*
G37*
G36*
G01*
X106381600Y-86205200D02*
X106381600Y-85905200D01*
G75*
G02*
X106531600Y-85755200I150000J0D01*
G01*
X108181600Y-85755200D01*
G75*
G02*
X108331600Y-85905200I0J-150000D01*
G01*
X108331600Y-86205200D01*
G75*
G02*
X108181600Y-86355200I-150000J0D01*
G01*
X106531600Y-86355200D01*
G75*
G02*
X106381600Y-86205200I0J150000D01*
G01*
G37*
G36*
G01*
X106381600Y-87475200D02*
X106381600Y-87175200D01*
G75*
G02*
X106531600Y-87025200I150000J0D01*
G01*
X108181600Y-87025200D01*
G75*
G02*
X108331600Y-87175200I0J-150000D01*
G01*
X108331600Y-87475200D01*
G75*
G02*
X108181600Y-87625200I-150000J0D01*
G01*
X106531600Y-87625200D01*
G75*
G02*
X106381600Y-87475200I0J150000D01*
G01*
G37*
G36*
G01*
X106381600Y-88745200D02*
X106381600Y-88445200D01*
G75*
G02*
X106531600Y-88295200I150000J0D01*
G01*
X108181600Y-88295200D01*
G75*
G02*
X108331600Y-88445200I0J-150000D01*
G01*
X108331600Y-88745200D01*
G75*
G02*
X108181600Y-88895200I-150000J0D01*
G01*
X106531600Y-88895200D01*
G75*
G02*
X106381600Y-88745200I0J150000D01*
G01*
G37*
G36*
G01*
X106381600Y-90015200D02*
X106381600Y-89715200D01*
G75*
G02*
X106531600Y-89565200I150000J0D01*
G01*
X108181600Y-89565200D01*
G75*
G02*
X108331600Y-89715200I0J-150000D01*
G01*
X108331600Y-90015200D01*
G75*
G02*
X108181600Y-90165200I-150000J0D01*
G01*
X106531600Y-90165200D01*
G75*
G02*
X106381600Y-90015200I0J150000D01*
G01*
G37*
G36*
G01*
X106381600Y-91285200D02*
X106381600Y-90985200D01*
G75*
G02*
X106531600Y-90835200I150000J0D01*
G01*
X108181600Y-90835200D01*
G75*
G02*
X108331600Y-90985200I0J-150000D01*
G01*
X108331600Y-91285200D01*
G75*
G02*
X108181600Y-91435200I-150000J0D01*
G01*
X106531600Y-91435200D01*
G75*
G02*
X106381600Y-91285200I0J150000D01*
G01*
G37*
G36*
G01*
X106381600Y-92555200D02*
X106381600Y-92255200D01*
G75*
G02*
X106531600Y-92105200I150000J0D01*
G01*
X108181600Y-92105200D01*
G75*
G02*
X108331600Y-92255200I0J-150000D01*
G01*
X108331600Y-92555200D01*
G75*
G02*
X108181600Y-92705200I-150000J0D01*
G01*
X106531600Y-92705200D01*
G75*
G02*
X106381600Y-92555200I0J150000D01*
G01*
G37*
G36*
G01*
X101431600Y-92555200D02*
X101431600Y-92255200D01*
G75*
G02*
X101581600Y-92105200I150000J0D01*
G01*
X103231600Y-92105200D01*
G75*
G02*
X103381600Y-92255200I0J-150000D01*
G01*
X103381600Y-92555200D01*
G75*
G02*
X103231600Y-92705200I-150000J0D01*
G01*
X101581600Y-92705200D01*
G75*
G02*
X101431600Y-92555200I0J150000D01*
G01*
G37*
G36*
G01*
X101431600Y-91285200D02*
X101431600Y-90985200D01*
G75*
G02*
X101581600Y-90835200I150000J0D01*
G01*
X103231600Y-90835200D01*
G75*
G02*
X103381600Y-90985200I0J-150000D01*
G01*
X103381600Y-91285200D01*
G75*
G02*
X103231600Y-91435200I-150000J0D01*
G01*
X101581600Y-91435200D01*
G75*
G02*
X101431600Y-91285200I0J150000D01*
G01*
G37*
G36*
G01*
X101431600Y-90015200D02*
X101431600Y-89715200D01*
G75*
G02*
X101581600Y-89565200I150000J0D01*
G01*
X103231600Y-89565200D01*
G75*
G02*
X103381600Y-89715200I0J-150000D01*
G01*
X103381600Y-90015200D01*
G75*
G02*
X103231600Y-90165200I-150000J0D01*
G01*
X101581600Y-90165200D01*
G75*
G02*
X101431600Y-90015200I0J150000D01*
G01*
G37*
G36*
G01*
X101431600Y-88745200D02*
X101431600Y-88445200D01*
G75*
G02*
X101581600Y-88295200I150000J0D01*
G01*
X103231600Y-88295200D01*
G75*
G02*
X103381600Y-88445200I0J-150000D01*
G01*
X103381600Y-88745200D01*
G75*
G02*
X103231600Y-88895200I-150000J0D01*
G01*
X101581600Y-88895200D01*
G75*
G02*
X101431600Y-88745200I0J150000D01*
G01*
G37*
G36*
G01*
X101431600Y-87475200D02*
X101431600Y-87175200D01*
G75*
G02*
X101581600Y-87025200I150000J0D01*
G01*
X103231600Y-87025200D01*
G75*
G02*
X103381600Y-87175200I0J-150000D01*
G01*
X103381600Y-87475200D01*
G75*
G02*
X103231600Y-87625200I-150000J0D01*
G01*
X101581600Y-87625200D01*
G75*
G02*
X101431600Y-87475200I0J150000D01*
G01*
G37*
G36*
G01*
X101431600Y-86205200D02*
X101431600Y-85905200D01*
G75*
G02*
X101581600Y-85755200I150000J0D01*
G01*
X103231600Y-85755200D01*
G75*
G02*
X103381600Y-85905200I0J-150000D01*
G01*
X103381600Y-86205200D01*
G75*
G02*
X103231600Y-86355200I-150000J0D01*
G01*
X101581600Y-86355200D01*
G75*
G02*
X101431600Y-86205200I0J150000D01*
G01*
G37*
G36*
G01*
X101431600Y-84935200D02*
X101431600Y-84635200D01*
G75*
G02*
X101581600Y-84485200I150000J0D01*
G01*
X103231600Y-84485200D01*
G75*
G02*
X103381600Y-84635200I0J-150000D01*
G01*
X103381600Y-84935200D01*
G75*
G02*
X103231600Y-85085200I-150000J0D01*
G01*
X101581600Y-85085200D01*
G75*
G02*
X101431600Y-84935200I0J150000D01*
G01*
G37*
G36*
G01*
X101431600Y-83665200D02*
X101431600Y-83365200D01*
G75*
G02*
X101581600Y-83215200I150000J0D01*
G01*
X103231600Y-83215200D01*
G75*
G02*
X103381600Y-83365200I0J-150000D01*
G01*
X103381600Y-83665200D01*
G75*
G02*
X103231600Y-83815200I-150000J0D01*
G01*
X101581600Y-83815200D01*
G75*
G02*
X101431600Y-83665200I0J150000D01*
G01*
G37*
M02*
